<svg xmlns="http://www.w3.org/2000/svg" viewBox="0 0 180.51692 63.49203"><defs><style>.cls-1{fill:#e61f19;}.cls-2{fill:#404040;}</style></defs><g id="tencent"><g id="_ff0000ff" data-name="#ff0000ff"><path class="cls-1" d="M53.92783,17.78274h.375q-2.68426,13.26471-5.32107,26.54209c-.12975.45094-.05222,1.09491-.61075,1.2658.06487-.4367.14715-.87024.23575-1.30219C50.38678,35.45479,52.13515,26.61323,53.92783,17.78274Z"/><path class="cls-1" d="M55.037,17.78274h.375Q52.6565,31,49.95641,44.22673c-.144.47784-.05538,1.1677-.63765,1.36548.15981-.99523.3924-1.9778.5886-2.96671C51.62251,34.34564,53.306,26.05944,55.037,17.78274Z"/><path class="cls-1" d="M55.8281,17.78274h.37341q-2.68426,13.26471-5.32108,26.53893c-.12657.4541-.05537,1.09175-.61074,1.27054.06329-.43354.14557-.86391.23259-1.29269C52.28388,35.4627,54.03226,26.618,55.8281,17.78274Z"/><path class="cls-1" d="M56.61922,17.78274h.375q-2.76258,13.24574-5.46664,26.50254c-.13765.46359-.057,1.12339-.625,1.30693.06487-.424.14556-.84492.23417-1.26421C52.97216,35.48169,54.76958,26.62588,56.61922,17.78274Z"/><path class="cls-1" d="M61.47829,17.78274h.549c3.44454.07753,6.89857.06329,10.33046.42246a9.14117,9.14117,0,0,1,2.98252,1.24838,8.35509,8.35509,0,0,1,3.39233,2.94614c1.08067,1.89869,1.02212,4.15971.96041,6.27358-.1155,1.32909-.14556,2.66766-.36549,3.98409a17.29491,17.29491,0,0,1-2.3528,5.49037,19.11686,19.11686,0,0,1-4.92235,5.37013,10.00515,10.00515,0,0,1-3.78313,1.7816,13.597,13.597,0,0,1-2.94614.17405q-6.89462-.00474-13.78923-.00316Q54.344,31.6669,57.14611,17.86185c1.44459.00791,2.88917-.00316,4.33218-.07911m.03164,4.58059c-1.34649,6.46187-2.64076,12.9364-4.03155,19.38878,1.45724-.01582,2.91132.16139,4.367.06012A12.73068,12.73068,0,0,0,69.804,38.8661a15.60037,15.60037,0,0,0,4.54578-8.91593,7.708,7.708,0,0,0-.93827-5.06317,6.66737,6.66737,0,0,0-4.60274-2.68823,43.67377,43.67377,0,0,0-7.003-.299C61.5036,21.80321,61.59854,22.21143,61.50993,22.36333Z"/><path class="cls-1" d="M30.68,17.941H52.87722c-.32752,1.30693-.67087,2.6107-1.00947,3.916-2.80531.02848-5.609-.04747-8.41435-.03956q-2.7365,11.90717-5.47614,23.81273c-1.68984.00158-3.37967-.0174-5.0695.04589Q35.4164,33.74518,37.925,21.81745c-2.85752-.00791-5.71347.068-8.571.03956C29.79549,20.55166,30.24326,19.24789,30.68,17.941Z"/></g><g id="_404040ff" data-name="#404040ff"><path class="cls-2" d="M91.72757,18.1245A20.71029,20.71029,0,0,1,95.6895,17.941h7.64381c-.18829,1.106-.35917,2.21356-.54587,3.31954-.60126.28164-1.15979.77214-1.86072.71992q-3.87094-.00949-7.74032-.00158a1.49014,1.49014,0,0,0-1.22782.62024,4.53832,4.53832,0,0,0-.981,2.13444,3.62179,3.62179,0,0,0,1.10757,2.51577c2.05216,2.4319,4.80052,4.17078,6.78465,6.66756a6.88927,6.88927,0,0,1,1.84489,4.76571,6.44994,6.44994,0,0,1-1.95723,4.47458A6.61223,6.61223,0,0,1,95.4047,45.241a23.18272,23.18272,0,0,1-4.45243.35126c-3.11385.07436-6.2277.03955-9.34155-.00791a2.90125,2.90125,0,0,1-1.068-.45727,8.074,8.074,0,0,1,.905-3.45087q5.06951-.00713,10.139-.00158a2.20782,2.20782,0,0,0,1.7373-.6329,5.73437,5.73437,0,0,0,.94777-2.06957,2.56164,2.56164,0,0,0-.144-1.55692,3.72122,3.72122,0,0,0-1.11548-1.45408c-1.99837-2.00787-3.98092-4.03-5.97612-6.03942a12.23734,12.23734,0,0,1-1.8449-2.11862,4.95787,4.95787,0,0,1-.49524-2.4319,6.36138,6.36138,0,0,1,1.0965-4.04263C87.11059,19.3634,89.476,18.47418,91.72757,18.1245Z"/><path class="cls-2" d="M110.15277,19.89819a19.93217,19.93217,0,0,1,10.53772-2.03634,13.36223,13.36223,0,0,1,7.28623,2.44773,8.77914,8.77914,0,0,1,3.16764,5.70239,19.02918,19.02918,0,0,1-.45094,6.87326,11.00973,11.00973,0,0,1-1.56325,3.95085c-.86074,1.212-1.82116,2.34963-2.69614,3.55214,1.22307.91137,2.45722,1.8085,3.6803,2.71987-.76581.87023-1.53953,1.73414-2.3085,2.6012-1.29427-.90662-2.58221-1.82432-3.88281-2.71987a20.60613,20.60613,0,0,1-5.2119,2.11862,18.6874,18.6874,0,0,1-9.12-.068,13.31252,13.31252,0,0,1-3.17556-1.4351,9.728,9.728,0,0,1-4.32427-6.18814c-.18354-3.59169-.08069-7.34793,1.46674-10.66589a14.2187,14.2187,0,0,1,6.59478-6.85269m.4715,5.70873a14.64366,14.64366,0,0,0-3.03631,7.83842,10.71388,10.71388,0,0,0,.08386,3.204,6.34506,6.34506,0,0,0,1.20725,2.43823,6.80646,6.80646,0,0,0,4.85748,2.44615,11.66356,11.66356,0,0,0,6.30839-1.606q-3.09249-2.21673-6.18814-4.43344c.86073-.79587,1.731-1.58225,2.59645-2.37495q3.204,2.23807,6.41125,4.46983a13.32458,13.32458,0,0,0,2.79423-10.13583,6.881,6.881,0,0,0-3.03632-4.96508,6.75592,6.75592,0,0,0-4.454-.7927A10.85064,10.85064,0,0,0,110.62427,25.60692Z"/><path class="cls-2" d="M137.736,17.98685c1.66926-.00791,3.34011-.02848,5.00779.04588q-2.59883,11.798-5.18658,23.59755c4.5347.01107,9.0694,0,13.60569.00632-.51581,1.33067-1.0332,2.66133-1.54269,3.99358H131.271Q134.50347,31.80773,137.736,17.98685Z"/></g></g></svg>