<svg xmlns="http://www.w3.org/2000/svg" viewBox="0 0 180.51692 63.49203"><defs><style>.cls-1{fill:none;}.cls-2{fill:#abafb4;}</style></defs><g id="Oracle"><rect class="cls-1" x="59.46184" width="62.7138" height="63.49203"/></g><g id="Apple"><path class="cls-2" d="M101.56406,16.97806C96.85877,16.63,92.867,19.60622,90.6399,19.60622c-2.25975,0-5.74341-2.55314-9.43754-2.48333a13.98942,13.98942,0,0,0-11.8219,7.16526c-5.03789,8.74457-1.286,21.70222,3.621,28.79814,2.4005,3.46732,5.26338,7.37458,9.0238,7.23231,3.61947-.14249,4.9887-2.34106,9.36384-2.34106,4.37246,0,5.60606,2.34106,9.43372,2.27095,3.89569-.07238,6.364-3.53911,8.74685-7.02563a31.31962,31.31962,0,0,0,3.9576-8.12719,12.60954,12.60954,0,0,1-7.669-11.56337c-.068-7.23192,5.90278-10.70817,6.17442-10.87551A13.40719,13.40719,0,0,0,101.56406,16.97806Z"/><path class="cls-2" d="M98.66073,12.29377a12.55929,12.55929,0,0,0,2.97285-9.12411A12.80313,12.80313,0,0,0,93.21574,7.4991c-1.84716,2.13808-3.46979,5.56247-3.02909,8.83965C93.39241,16.58645,96.66426,14.71042,98.66073,12.29377Z"/></g></svg>