<svg xmlns="http://www.w3.org/2000/svg" viewBox="0 0 180.51692 63.49203"><defs><style>.a{fill:#004ea2;}.b{fill:none;}.c{fill:#0080cb;}</style></defs><title>logo_nict</title><path class="a" d="M110.04184,24.50349l1.66417,2.92885V24.50349h.51881v3.4547h-.78624L109.778,25.02907v2.92912h-.518v-3.4547Z"/><path class="a" d="M114.74142,27.02841c0,.4787-.356.55263-.78133.55263-.355,0-.61333-.03462-.61333-.363,0-.181.00523-.39064.40835-.40787l.74565-.03435a.32.32,0,0,0,.24066-.10262Zm.45027-.84614c0-.68756-.35-.84149-1.13288-.84149-.598,0-1.07975.1271-1.08445.81909h.4779c0-.34611.16253-.40265.62661-.40265.51694,0,.66255.05212.66255.36382,0,.25-.11931.25522-.23362.25944l-.91622.04346a1.0316,1.0316,0,0,0-.41672.11825.764.764,0,0,0-.29272.68858c0,.68805.48052.76256.98162.76256.57812,0,.75835-.08726.89457-.32866a1.25212,1.25212,0,0,0,.04011.29352h.45992a1.61828,1.61828,0,0,1-.06667-.55268Z"/><path class="a" d="M116.19491,24.758h.48905v.61775h.69669v.44739H116.684v1.34623c0,.30285.05552.37709.55657.37709a1.42522,1.42522,0,0,0,.20028-.00885v.44274a2.02957,2.02957,0,0,1-.2805.01825,1.47974,1.47974,0,0,1-.78912-.16774.67689.67689,0,0,1-.17628-.52116V25.8231H115.63v-.44739h.56489Z"/><path class="a" d="M118.47683,25.37571v2.58248h-.48809V25.37571Zm.02421-.87222v.51721h-.53913v-.51721Z"/><path class="a" d="M119.59174,26.67815c0-.6881.03071-.8902.72948-.8902.605,0,.72219.13153.72219.82454,0,.76229-.04561.93783-.72219.93783C119.62245,27.55032,119.59174,27.35265,119.59174,26.67815Zm-.481,0c0,.60548.06848.86827.27527,1.07325.19842.20262.48415.24716.96855.24716,1.0605,0,1.17245-.44824,1.17245-1.38191,0-.59609-.0935-.84587-.27708-1.02946a1.27985,1.27985,0,0,0-.96988-.24641C119.24691,25.34078,119.11074,25.77078,119.11074,26.67815Z"/><path class="a" d="M122.54768,25.37571l.01509.30285a.92162.92162,0,0,1,.816-.33778.81127.81127,0,0,1,.95686.85451v1.7629h-.48211V26.28356c0-.20236-.02731-.50473-.60548-.50473a.70233.70233,0,0,0-.55919.18546.80569.80569,0,0,0-.12054.4771v1.5168h-.48V25.37571Z"/><path class="a" d="M126.76386,27.02841c0,.4787-.35448.55263-.77947.55263-.35656,0-.61385-.03462-.61385-.363,0-.181.00517-.39064.40706-.40787l.7448-.03435a.31413.31413,0,0,0,.24146-.10262Zm.45262-.84614c0-.68756-.35235-.84149-1.136-.84149-.59716,0-1.07714.1271-1.08285.81909h.4779c0-.34611.16407-.40265.62607-.40265.519,0,.66229.05212.66229.36382,0,.25-.119.25522-.23207.25944l-.9167.04346a1.03605,1.03605,0,0,0-.41646.11825.76468.76468,0,0,0-.29351.68858c0,.68805.48232.76256.98236.76256.579,0,.75733-.08726.89489-.32866a1.4146,1.4146,0,0,0,.03851.29352h.45993a1.65354,1.65354,0,0,1-.06433-.55268Z"/><path class="a" d="M128.41475,24.50349v3.4547h-.48468v-3.4547Z"/><path class="a" d="M131.43186,24.50349v3.4547h-.52526v-3.4547Z"/><path class="a" d="M132.702,25.37571l.018.30285a.92205.92205,0,0,1,.81541-.33778.81085.81085,0,0,1,.95554.85451v1.7629h-.48052V26.28356c0-.20236-.02682-.50473-.60707-.50473a.70567.70567,0,0,0-.56021.18546.8079.8079,0,0,0-.11953.4771v1.5168h-.48152V25.37571Z"/><path class="a" d="M136.85283,26.14712c0-.2063-.02134-.3813-.61386-.3813-.4461,0-.65551.031-.65551.3813,0,.14087.0263.224.31592.25053l.89254.08747a.62878.62878,0,0,1,.63594.72037.73322.73322,0,0,1-.307.63914,1.58554,1.58554,0,0,1-.83654.1487c-1.0006,0-1.18627-.29767-1.19358-.89953h.47321c0,.22423,0,.31587.14977.387a1.492,1.492,0,0,0,.58233.07813c.56954,0,.655-.12316.655-.3732,0-.21068-.08544-.27057-.35234-.2974l-.89435-.0966a.58.58,0,0,1-.57242-.64458c0-.78912.69247-.80634,1.11229-.80634,1.06439,0,1.07821.456,1.0876.80634Z"/><path class="a" d="M138.37507,24.758h.48649v.61775h.69722v.44739h-.69722v1.34623c0,.30285.05573.37709.55475.37709a1.45785,1.45785,0,0,0,.20365-.00885v.44274a2.016,2.016,0,0,1-.281.01825,1.47578,1.47578,0,0,1-.78859-.16774.67479.67479,0,0,1-.17526-.52116V25.8231h-.56644v-.44739h.56644Z"/><path class="a" d="M140.65309,25.37571v2.58248h-.48568V25.37571Zm.02657-.87222v.51721h-.53855v-.51721Z"/><path class="a" d="M141.76357,24.758h.48521v.61775h.69615v.44739h-.69615v1.34623c0,.30285.057.37709.55758.37709a1.43312,1.43312,0,0,0,.20082-.00885v.44274a2.02957,2.02957,0,0,1-.2805.01825,1.46957,1.46957,0,0,1-.78806-.16774.66885.66885,0,0,1-.175-.52116V25.8231h-.56718v-.44739h.56718Z"/><path class="a" d="M145.23933,27.95819l-.01792-.29821a.93582.93582,0,0,1-.81595.33335c-.58809,0-.95526-.2102-.95526-.873V25.37571h.48232V27.037c0,.206,0,.51774.62.51774a.72284.72284,0,0,0,.51907-.16587.75123.75123,0,0,0,.14455-.47374V25.37571h.48312v2.58248Z"/><path class="a" d="M146.73218,24.758h.48831v.61775h.69615v.44739h-.69615v1.34623c0,.30285.057.37709.557.37709a1.441,1.441,0,0,0,.20135-.00885v.44274a2.04943,2.04943,0,0,1-.28258.01825,1.47485,1.47485,0,0,1-.78806-.16774.67469.67469,0,0,1-.17607-.52116V25.8231h-.56462v-.44739h.56462Z"/><path class="a" d="M148.83153,26.42864c.0232-.43022.075-.64981.73627-.64981.63284,0,.6594.25447.66671.64981Zm1.89885.38466c.00934-.99489-.06432-1.47252-1.18371-1.47252-1.05164,0-1.192.50814-1.192,1.37615,0,.90891.22476,1.2764,1.25006,1.2764.78389,0,1.08135-.2542,1.12146-.8855h-.48654c-.02213.35031-.09061.44691-.67188.44691-.29741,0-.56436-.04763-.6657-.22369-.06433-.113-.06433-.19666-.07057-.51775Z"/><path class="a" d="M153.30427,26.67815c0-.6881.02966-.8902.72682-.8902.60447,0,.72379.13153.72379.82454,0,.76229-.04454.93783-.72379.93783C153.33393,27.55032,153.30427,27.35265,153.30427,26.67815Zm-.48313,0c0,.60548.06955.86827.27634,1.07325.19741.20262.48206.24716.96956.24716,1.06,0,1.172-.44824,1.172-1.38191,0-.59609-.094-.84587-.27869-1.02946-.19505-.1982-.48206-.24641-.96828-.24641C152.9571,25.34078,152.82114,25.77078,152.82114,26.67815Z"/><path class="a" d="M156.03438,25.22647c0-.76229.40526-.76229,1.11-.75866v.44328c-.423-.01717-.62767,0-.62767.28957v.17505h.62767v.44739h-.62767v2.13509h-.48233V25.8231h-.43752v-.44739h.43752Z"/><path class="a" d="M109.88247,30.3232v3.45358h-.52532V30.3232Z"/><path class="a" d="M111.1521,31.19436l.019.30311a.92022.92022,0,0,1,.81649-.33671.80986.80986,0,0,1,.9542.85365v1.76237h-.47945V32.1022c0-.2-.0271-.50291-.60762-.50291a.71807.71807,0,0,0-.56174.18338.816.816,0,0,0-.11718.47816v1.516h-.48206V31.19436Z"/><path class="a" d="M113.78039,31.04666c0-.76309.40809-.76309,1.10765-.75914v.4435c-.42141-.018-.62559,0-.62559.28909v.17425h.62559V31.642h-.62559v2.13476h-.48206V31.642h-.44093v-.44766h.44093Z"/><path class="a" d="M115.73989,32.49674c0-.68778.02891-.88859.72714-.88859.60346,0,.72326.13051.72326.82379,0,.76256-.04379.93857-.72326.93857C115.7688,33.37051,115.73989,33.17231,115.73989,32.49674Zm-.48307,0c0,.60553.069.8686.27682,1.07485.19612.20263.48206.2453.96828.2453,1.06183,0,1.17144-.44638,1.17144-1.3808,0-.59667-.09163-.84565-.27581-1.03057a1.29184,1.29184,0,0,0-.96929-.24476C115.39432,31.16076,115.25682,31.59044,115.25682,32.49674Z"/><path class="a" d="M118.69818,31.19436l.0232.27266c.21329-.31149.52009-.31149,1.14354-.30626v.4732c-.16769-.00885-.24039-.01408-.33858-.01408a.92528.92528,0,0,0-.6138.15836.46006.46006,0,0,0-.19116.399v1.59958h-.48206V31.19436Z"/><path class="a" d="M120.77539,31.19436l.00784.2862a.8934.8934,0,0,1,.75968-.3198.81191.81191,0,0,1,.744.37293.82647.82647,0,0,1,.75947-.38232c.61615,0,.8831.26434.8831.78416v1.84125h-.48308V32.05793c0-.188-.02213-.45864-.49587-.45864-.32973,0-.58756.07787-.58756.52063v1.65686h-.48V32.1077c0-.22375,0-.50425-.4938-.50425-.442,0-.59534.17922-.59534.51231v1.661h-.4826V31.19436Z"/><path class="a" d="M126.36463,32.84834c0,.47763-.355.55161-.78005.55161-.35443,0-.6138-.03461-.6138-.36306,0-.1797.0057-.39038.40808-.40755l.74639-.03622a.30989.30989,0,0,0,.23938-.09974Zm.45315-.84614c0-.68965-.35133-.84144-1.136-.84144-.59722,0-1.07928.1263-1.08344.8193h.47737c0-.3461.16278-.40264.62714-.40264.51827,0,.6618.05131.6618.3628,0,.25-.117.25522-.23207.25911l-.91622.044a1.00318,1.00318,0,0,0-.41667.11931.76269.76269,0,0,0-.29431.6873c0,.68906.48494.7623.98316.7623.57817,0,.75915-.0878.89457-.32845a1.33751,1.33751,0,0,0,.03909.293h.45939a1.7277,1.7277,0,0,1-.06379-.55184Z"/><path class="a" d="M127.82041,30.57634h.48676v.618h.69749V31.642h-.69749v1.34617c0,.30343.056.37715.556.37715a1.43865,1.43865,0,0,0,.20209-.00886v.443a2.08435,2.08435,0,0,1-.28125.01744,1.48475,1.48475,0,0,1-.78858-.16668.68369.68369,0,0,1-.17506-.52084V31.642h-.56692v-.44766h.56692Z"/><path class="a" d="M129.587,30.3232v.51721h.53881V30.3232Zm.02731.87116v2.58242h.48467V31.19436Z"/><path class="a" d="M131.21782,32.49674c0-.68778.02891-.88859.72608-.88859.605,0,.72426.13051.72426.82379,0,.76256-.04427.93857-.72426.93857C131.24673,33.37051,131.21782,33.17231,131.21782,32.49674Zm-.48467,0c0,.60553.07057.8686.27682,1.07485.19927.20263.48313.2453.96988.2453,1.06178,0,1.16936-.44638,1.16936-1.3808,0-.59667-.09067-.84565-.27527-1.03057a1.28836,1.28836,0,0,0-.97041-.24476C130.87065,31.16076,130.73315,31.59044,130.73315,32.49674Z"/><path class="a" d="M134.1719,31.19436l.01589.30311a.92022.92022,0,0,1,.817-.33671.81115.81115,0,0,1,.9558.85365v1.76237h-.4842V32.1022c0-.2-.02448-.50291-.6034-.50291a.7168.7168,0,0,0-.56228.18338.82382.82382,0,0,0-.11718.47816v1.516h-.48206V31.19436Z"/><path class="a" d="M139.97859,32.84834c0,.47763-.35447.55161-.78053.55161-.35288,0-.61359-.03461-.61359-.36306,0-.1797.007-.39038.40734-.40755l.74586-.03622a.31312.31312,0,0,0,.24092-.09974Zm.45262-.84614c0-.68965-.35186-.84144-1.135-.84144-.59721,0-1.08028.1263-1.08445.8193h.47657c0-.3461.1646-.40264.62975-.40264.51593,0,.66047.05131.66047.3628,0,.25-.11931.25522-.23308.25911l-.91622.044a1.0045,1.0045,0,0,0-.41619.11931.76062.76062,0,0,0-.29325.6873c0,.68906.481.7623.9821.7623.57919,0,.75733-.0878.89462-.32845a1.35689,1.35689,0,0,0,.03851.293h.46152a1.63035,1.63035,0,0,1-.06539-.55184Z"/><path class="a" d="M141.5482,31.19436l.018.30311a.91918.91918,0,0,1,.81542-.33671.81148.81148,0,0,1,.9558.85365v1.76237h-.48308V32.1022c0-.2-.02762-.50291-.60553-.50291a.70857.70857,0,0,0-.55967.18338.8078.8078,0,0,0-.11926.47816v1.516h-.48158V31.19436Z"/><path class="a" d="M145.08151,31.58084c.57769,0,.66832.27682.66832.943,0,.71493-.1813.86363-.71.86363-.61071,0-.65236-.31122-.65236-.94641C144.38749,31.809,144.50206,31.58084,145.08151,31.58084Zm.6657-1.25764v1.13522a.85876.85876,0,0,0-.76517-.29766c-.843,0-1.07613.42968-1.07613,1.30633,0,.793.14038,1.3498,1.07613,1.3498.47246,0,.65289-.14113.77792-.325l.0232.28488h.44248V30.3232Z"/><path class="a" d="M111.524,37.32236c-.00363-.66725-.36931-.74693-.92945-.74693-.85345,0-1.00322.224-1.00322,1.35636,0,.61721.04427.94561.33752,1.11335a1.40329,1.40329,0,0,0,.73754.11852c.7024,0,.87558-.17138.88081-.82432h.52425c-.01093.98993-.43571,1.29177-1.3962,1.29177-1.27273,0-1.60555-.38-1.60555-1.75245,0-1.24984.25857-1.771,1.50922-1.771.85318,0,1.45034.17345,1.46725,1.21465Z"/><path class="a" d="M113.15064,38.31645c0-.68831.03052-.89046.72848-.89046.60548,0,.724.13286.724.82507,0,.7623-.04427.93756-.724.93756C113.18116,39.18862,113.15064,38.99228,113.15064,38.31645Zm-.48205,0c0,.60549.07162.868.27842,1.074.195.20156.48051.24637.96619.24637,1.06178,0,1.17144-.44825,1.17144-1.38111,0-.59691-.09115-.84641-.27681-1.03107-.19559-.19659-.48-.24428-.96834-.24428C112.80561,36.98041,112.66859,37.40935,112.66859,38.31645Z"/><path class="a" d="M116.11,37.015l.008.28439a.89509.89509,0,0,1,.75941-.319.81094.81094,0,0,1,.74592.3724.82047.82047,0,0,1,.7568-.38254c.61466,0,.88342.26355.88342.78444v1.84306h-.48414V37.87866c0-.18908-.02-.46046-.49587-.46046-.32632,0-.58756.07916-.58756.52137v1.6582h-.47684V37.92763c0-.22451,0-.50526-.49614-.50526-.44248,0-.59508.17969-.59508.513v1.66236h-.48259V37.015Z"/><path class="a" d="M120.37931,37.015l.00885.28439a.893.893,0,0,1,.75861-.319.80962.80962,0,0,1,.74459.3724.8249.8249,0,0,1,.75968-.38254c.61284,0,.88081.26355.88081.78444v1.84306h-.48V37.87866c0-.18908-.02214-.46046-.498-.46046-.32813,0-.58649.07916-.58649.52137v1.6582H121.488V37.92763c0-.22451,0-.50526-.49534-.50526-.443,0-.5938.17969-.5938.513v1.66236h-.48414V37.015Z"/><path class="a" d="M125.975,39.59777l-.019-.29922a.9347.9347,0,0,1-.817.33256c-.58495,0-.95527-.20914-.95527-.87169V37.015h.48308v1.66209c0,.205,0,.51726.623.51726a.715.715,0,0,0,.51647-.168.75411.75411,0,0,0,.14555-.47321V37.015h.48366v2.58274Z"/><path class="a" d="M127.5389,37.015l.01717.30162a.92493.92493,0,0,1,.81777-.33624.80958.80958,0,0,1,.953.85372v1.76364h-.48051v-1.6759c0-.2021-.02736-.50367-.605-.50367a.72128.72128,0,0,0-.56383.18386.83109.83109,0,0,0-.117.4779v1.51781h-.48334V37.015Z"/><path class="a" d="M130.51879,37.015v2.58274H130.031V37.015Zm.02709-.8727v.51721h-.54014v-.51721Z"/><path class="a" d="M133.55911,38.61151c-.0159.81046-.38936,1.02536-1.14723,1.02536-.97217,0-1.23939-.32424-1.23939-1.333,0-1.0261.28466-1.32351,1.20141-1.32351.43257,0,1.17454.012,1.16152.96882h-.4748c0-.46959-.25858-.52324-.66042-.52324-.61284,0-.74773.09222-.74773.89046,0,.62762.05259.87217.711.87217.50526,0,.72352-.06976.71723-.57711Z"/><path class="a" d="M135.9142,38.66752c0,.47817-.3557.55342-.77973.55342-.355,0-.6138-.03648-.6138-.36434,0-.17948.00309-.39144.41016-.40889l.74378-.03493a.311.311,0,0,0,.23959-.10022Zm.45134-.84593c0-.68858-.34919-.84118-1.13288-.84118-.59716,0-1.08183.12631-1.08391.81985h.47736c0-.34664.16354-.40318.62661-.40318.518,0,.66148.05185.66148.36307,0,.25-.11664.25446-.23174.25911l-.916.04326a1.04762,1.04762,0,0,0-.41673.11771.76474.76474,0,0,0-.29218.68912c0,.68783.48206.76176.98056.76176.57838,0,.75941-.087.89483-.32841a1.36588,1.36588,0,0,0,.039.29507h.461a1.625,1.625,0,0,1-.06747-.55263Z"/><path class="a" d="M137.36983,36.396h.48515v.619h.69951v.44616H137.855v1.34826c0,.30157.05808.375.55812.375a1.53771,1.53771,0,0,0,.20263-.00832v.44248a2.137,2.137,0,0,1-.28232.01825,1.49015,1.49015,0,0,1-.78939-.16722.68249.68249,0,0,1-.17419-.52164V37.46119h-.56442V37.015h.56442Z"/><path class="a" d="M139.64886,37.015v2.58274h-.48467V37.015Zm.026-.8727v.51721h-.53806v-.51721Z"/><path class="a" d="M140.76665,38.31645c0-.68831.03045-.89046.729-.89046.60393,0,.72346.13286.72346.82507,0,.7623-.04427.93756-.72346.93756C140.7971,39.18862,140.76665,38.99228,140.76665,38.31645Zm-.48206,0c0,.60549.06955.868.27527,1.074.19847.20156.48206.24637.96935.24637,1.06077,0,1.17091-.44825,1.17091-1.38111,0-.59691-.09062-.84641-.27634-1.03107a1.28526,1.28526,0,0,0-.96828-.24428C140.42054,36.98041,140.28459,37.40935,140.28459,38.31645Z"/><path class="a" d="M143.72024,37.015l.02006.30162a.91726.91726,0,0,1,.81227-.33624.81127.81127,0,0,1,.9574.85372v1.76364h-.4826v-1.6759c0-.2021-.02629-.50367-.60345-.50367a.72189.72189,0,0,0-.56383.18386.807.807,0,0,0-.11563.4779v1.51781h-.48414V37.015Z"/><path class="a" d="M147.87392,37.78671c0-.20733-.02368-.38232-.61541-.38232-.44637,0-.65839.03045-.65839.38232,0,.14092.0263.22348.31592.25052l.8951.08625a.62811.62811,0,0,1,.63652.7201.73307.73307,0,0,1-.30626.63882,1.58753,1.58753,0,0,1-.83862.14871c-.999,0-1.18472-.29688-1.193-.89719h.47347c0,.22269,0,.31565.149.38494a1.47488,1.47488,0,0,0,.58442.07968c.56745,0,.65183-.12369.65183-.37267,0-.21175-.08438-.27271-.35234-.299l-.89356-.09558a.58088.58088,0,0,1-.57321-.64458c0-.78885.69407-.8063,1.11389-.8063,1.06514,0,1.08.45443,1.08834.8063Z"/><path class="a" d="M111.87637,41.96177v.47342h-1.192v2.98149h-.52319V42.43519h-1.18162v-.47342Z"/><path class="a" d="M112.27458,43.88612c.02262-.43.07526-.64874.73573-.64874.63178,0,.6576.25415.66565.64874Zm1.89725.38488c.00987-.99356-.06432-1.47119-1.1837-1.47119-1.05,0-1.19145.50889-1.19145,1.37668,0,.9071.22215,1.27481,1.24852,1.27481.78469,0,1.085-.25415,1.12322-.886h-.48467c-.02422.35079-.09372.44818-.67344.44818-.29745,0-.56334-.04944-.66671-.225-.06539-.11307-.06539-.19537-.069-.51753Z"/><path class="a" d="M117.0754,44.43117c-.01328.80945-.38622,1.02482-1.1451,1.02482-.97324,0-1.23864-.32551-1.23864-1.33316,0-1.02743.28332-1.323,1.19853-1.323.43465,0,1.17609.01226,1.16233.9686h-.46985c0-.46958-.26226-.52217-.66565-.52217-.60916,0-.74432.09115-.74432.88987,0,.62687.05078.872.70784.872.506,0,.72688-.069.7144-.5769Z"/><path class="a" d="M118.12966,41.96177v1.16931a.92389.92389,0,0,1,.81749-.33127c.5602,0,.95218.19665.95218.88886v1.728h-.48366V43.75486c0-.22423-.03382-.5219-.62138-.5219-.5107,0-.66463.22316-.66463.662v1.5217h-.48V41.96177Z"/><path class="a" d="M121.00223,42.83448l.01824.3029a.91818.91818,0,0,1,.81441-.33757.81281.81281,0,0,1,.95836.855v1.76183h-.48516V43.74051c0-.20156-.02629-.50313-.60655-.50313a.70812.70812,0,0,0-.55812.18439.81381.81381,0,0,0-.11952.47763v1.51728h-.48158v-2.5822Z"/><path class="a" d="M123.83448,44.13611c0-.68884.02971-.88987.729-.88987.60447,0,.72165.13147.72165.825,0,.76128-.04219.93681-.72165.93681C123.86419,45.00807,123.83448,44.81168,123.83448,44.13611Zm-.48414,0c0,.60554.07291.86881.27682,1.074.199.201.48467.24583.97015.24583,1.06125,0,1.17192-.44792,1.17192-1.38031,0-.59663-.0935-.84667-.27863-1.03159a1.28511,1.28511,0,0,0-.96834-.24428C123.48912,42.79981,123.35034,43.229,123.35034,44.13611Z"/><path class="a" d="M126.87272,41.96177v3.45491h-.487V41.96177Z"/><path class="a" d="M127.99285,44.13611c0-.68884.0328-.88987.72789-.88987.60554,0,.72325.13147.72325.825,0,.76128-.04373.93681-.72325.93681C128.02565,45.00807,127.99285,44.81168,127.99285,44.13611Zm-.48105,0c0,.60554.07137.86881.2748,1.074.19841.201.4828.24583.97009.24583,1.0613,0,1.172-.44792,1.172-1.38031,0-.59663-.094-.84667-.27842-1.03159a1.28425,1.28425,0,0,0-.968-.24428C127.647,42.79981,127.5118,43.229,127.5118,44.13611Z"/><path class="a" d="M131.75039,43.21391c.49172,0,.67584.05782.67584.33491,0,.31047-.105.38131-.65007.38131-.51721,0-.71461-.044-.71461-.33779C131.06155,43.25952,131.23345,43.21391,131.75039,43.21391Zm1.41258-.51176c-.42083-.00571-.52217.12763-.59348.24614a1.63569,1.63569,0,0,0-.84123-.14848c-.71829,0-1.11752.13441-1.11752.73082a.815.815,0,0,0,.13857.50889.4218.4218,0,0,0-.30578.45107.38056.38056,0,0,0,.25052.382.48594.48594,0,0,0-.27159.49455c0,.517.43075.63678,1.32793.63678,1.00007,0,1.30767-.16331,1.30767-.70554,0-.38232-.13676-.61071-.65786-.64484l-1.30377-.09585c-.05595-.00624-.213-.01355-.213-.16689a.211.211,0,0,1,.13489-.18.45867.45867,0,0,0,.14876.06566,3.65153,3.65153,0,0,0,.65316.05232c.71045,0,1.06045-.12758,1.06045-.762a.52876.52876,0,0,0-.07419-.32055c.06224-.105.124-.13233.3565-.136Zm-1.04018,2.30592c.43155.032.47844.12241.47844.27708,0,.20652-.07862.30706-.781.30706a3.11261,3.11261,0,0,1-.8183-.07525.23488.23488,0,0,1-.1375-.24482.30476.30476,0,0,1,.29426-.3292Z"/><path class="a" d="M134.11877,42.83944l.78992,1.83084.72219-1.83084h.54068L135.0798,45.425a.73692.73692,0,0,1-.82139.579,2.59817,2.59817,0,0,1-.44617-.03024v-.42061c.23207.02427.40761.02427.412.02427.28882,0,.34952-.0951.42089-.28418l.03045-.07863L133.569,42.83944Z"/><path class="a" d="M41.63606,45.31017l8.061-20.87388H44.86594L40.31773,35.85271l-1.98089-9.06207c-.3805-1.7397-1.08807-2.35435-2.93455-2.35435H31.67963L23.37254,45.31017H28.4984l5.55068-14.75261,2.53217,12.89883c.27789,1.41156.92609,1.85378,2.62648,1.85378Z"/><path class="b" d="M91.76478,35.69125a57.84653,57.84653,0,0,0,4.55109-5.69831H93.88733Z"/><path class="c" d="M109.12722,6.44287C102.957-1.49779,83.37513,3.39423,65.38849,17.36865a92.11781,92.11781,0,0,0-7.088,6.102h1.03709q1.86492-1.65243,3.90779-3.245c15.225-11.82893,31.80121-15.96986,37.0237-9.24806,2.2944,2.95338,2.0139,7.51252-.31149,12.69934h2.6356l-2.35355,6.31607H96.31587a57.84653,57.84653,0,0,1-4.55109,5.69831L87.9403,45.9597C105.791,32.01025,115.27244,14.35228,109.12722,6.44287Z"/><path class="c" d="M80.53642,45.791c-14.76353,10.882-30.36515,14.50826-35.40246,8.0245-4.09746-5.27226.01274-15.66413,9.32459-25.61015l.54276-1.40427C44.005,38.54874,39.15359,50.82149,43.99244,57.05,50.13926,64.96151,69.601,60.131,87.534,46.27429H80.35Z"/><path class="a" d="M75.67694,40.42807a65.14579,65.14579,0,0,1-7.31246-.04219,2.50839,2.50839,0,0,1-2.37206-2.76947,15.06755,15.06755,0,0,1,2.908-6.76714A5.00551,5.00551,0,0,1,72.58115,29.071a42.604,42.604,0,0,1,6.37623-.04166l1.63553-4.38884a63.53939,63.53939,0,0,0-8.47009-.05627,9.26615,9.26615,0,0,0-6.66062,3.24919c-2.62418,3.146-4.87559,8.3808-4.97069,12.17061A4.87325,4.87325,0,0,0,64.872,45.19869a51.44763,51.44763,0,0,0,9.02927,0Z"/><polygon class="a" points="83.233 24.641 81.596 29.029 88.043 29.029 81.755 45.31 87.154 45.31 93.218 29.029 99.57 29.029 101.205 24.641 83.233 24.641"/><polygon class="a" points="48.877 45.324 54.086 45.324 61.974 24.434 56.95 24.434 48.877 45.324"/></svg>