<svg xmlns="http://www.w3.org/2000/svg" viewBox="0 0 180.51692 63.49203"><defs><style>.a{fill:#1414a0;}.b{fill:#002b62;}.c{fill:#eb6e00;}</style></defs><title>logo_nec</title><path class="a" d="M62.54167,35.2884h4.51521a4.92946,4.92946,0,0,1,2.7983,1.49589l7.91818,8.78092V35.2884h2.69058V49.31156h-4.7142A3.54334,3.54334,0,0,1,73.1316,48.164l-7.90918-8.79622v9.94375H62.54167Z"/><path class="a" d="M118.64076,49.40493a44.29983,44.29983,0,0,1-9.74843.2093,14.4551,14.4551,0,0,1-5.50192-1.45663c-2.16724-1.12547-2.85724-3.64846-2.83018-5.93835.02252-2.11346.65137-4.366,2.53846-5.59338a10.08485,10.08485,0,0,1,3.95706-1.33233,40.21336,40.21336,0,0,1,11.39669-.114V37.181c-4.4053-.85581-9.05527-.64329-10.63745,1.37743a5.42157,5.42157,0,0,0-1.12627,3.56554c0,1.90355.651,4.78327,4.50959,5.344a22.81377,22.81377,0,0,0,7.44245-.35289Z"/><path class="a" d="M91.06386,47.22451c.38124.00257,6.45048.03027,8.5343,0V49.318c-4.19791.16485-8.231.23314-12.46947.05925-3.596-.15067-4.21707-1.95953-4.28664-3.6961V35.2884H99.396v1.99687H88.68835v3.56621h9.76037v1.95118H88.68835c0,1.05545.03412,2.25125.04345,2.46635.05764,1.35807.69,1.85764,2.33206,1.9555"/><path class="b" d="M34.18459,22.33983a5.27541,5.27541,0,0,1-.17452-1.79536,5.24089,5.24089,0,0,1,.17452-1.79145,2.47707,2.47707,0,0,1,4.611,0,5.33626,5.33626,0,0,1,.16937,1.79145,5.37136,5.37136,0,0,1-.16937,1.79536,2.47672,2.47672,0,0,1-4.611,0Zm3.51984-.29624a5.17148,5.17148,0,0,0,.11817-1.49912,5.08782,5.08782,0,0,0-.11817-1.49333,1.28751,1.28751,0,0,0-2.42414,0,5.13239,5.13239,0,0,0-.114,1.49333,5.21613,5.21613,0,0,0,.114,1.49912,1.28651,1.28651,0,0,0,2.42414,0Z"/><path class="b" d="M40.09689,23.80675a.09.09,0,0,1-.10062-.09338v-4.4291a.09265.09265,0,0,1,.10062-.10112h.879a.09458.09458,0,0,1,.09739.10112v.3883h.01161a1.3186,1.3186,0,0,1,1.19306-.59308,1.4083,1.4083,0,0,1,.9751.38378c.042.0451.056.08308.01451.13782l-.511.6388a.0892.0892,0,0,1-.13283.01932,1.24824,1.24824,0,0,0-.68193-.22153c-.60065,0-.86854.43082-.86854,1.17008v2.50561a.09192.09192,0,0,1-.09739.09338Z"/><path class="b" d="M43.53058,22.63861a3.52378,3.52378,0,0,1-.14905-1.14559,3.4433,3.4433,0,0,1,.14905-1.13658,1.85774,1.85774,0,0,1,1.90513-1.27695,2.01593,2.01593,0,0,1,1.60473.72123.09139.09139,0,0,1-.01286.132l-.6.5274a.08877.08877,0,0,1-.137-.01547,1.045,1.045,0,0,0-.85485-.407.84944.84944,0,0,0-.86158.60276,2.672,2.672,0,0,0-.09694.85258,2.71607,2.71607,0,0,0,.09694.86353.85122.85122,0,0,0,.86158.597,1.06068,1.06068,0,0,0,.85485-.40184c.0364-.0515.085-.0515.137-.01352l.6.53514c.04731.03412.04217.07919.01286.12941a2.04944,2.04944,0,0,1-1.60473.709A1.86655,1.86655,0,0,1,43.53058,22.63861Z"/><path class="b" d="M50.87179,23.80675a.09324.09324,0,0,1-.09852-.09338v-2.6666c0-.595-.296-1.00909-.86725-1.00909a.88768.88768,0,0,0-.88252,1.00909v2.6666a.09215.09215,0,0,1-.09722.09338h-.88384a.08687.08687,0,0,1-.09354-.09338V17.38525a.08669.08669,0,0,1,.09354-.09594h.88384a.09166.09166,0,0,1,.09722.09594v2.23516h.00676a1.42568,1.42568,0,0,1,1.21852-.54092,1.57886,1.57886,0,0,1,1.6044,1.71614v2.91774a.09581.09581,0,0,1-.10415.09338Z"/><path class="b" d="M52.878,22.62832a3.47287,3.47287,0,0,1-.16436-1.1353,3.81123,3.81123,0,0,1,.15-1.13658,2.04217,2.04217,0,0,1,3.78677,0,4.14478,4.14478,0,0,1,.15407,1.38966c0,.05345-.02914.09271-.10385.09271H53.85379c-.04154,0-.06054.01932-.06054.06119a.85806.85806,0,0,0,.07406.3548.99672.99672,0,0,0,1.02966.69871,1.393,1.393,0,0,0,1.08749-.44306.09887.09887,0,0,1,.14181-.01866l.57088.49841a.08908.08908,0,0,1,.00353.1333,2.42448,2.42448,0,0,1-1.89837.78819A1.86063,1.86063,0,0,1,52.878,22.62832ZM55.662,20.58439a.89456.89456,0,0,0-.90022-.59693.90435.90435,0,0,0-.908.59693,1.11436,1.11436,0,0,0-.06054.39281c0,.03993.019.05733.06054.05733H55.662c.03864,0,.05925-.0174.05925-.05733A1.18658,1.18658,0,0,0,55.662,20.58439Z"/><path class="b" d="M57.43413,23.18018a.10078.10078,0,0,1,0-.132l.55559-.577a.09811.09811,0,0,1,.13218,0,2.11146,2.11146,0,0,0,1.35132.53c.56379,0,.85324-.23247.85324-.54414,0-.28074-.16809-.45011-.76824-.51l-.50036-.047c-.936-.10045-1.41766-.5744-1.41766-1.362,0-.89317.64589-1.45855,1.79665-1.45855a2.79568,2.79568,0,0,1,1.72883.56538.08294.08294,0,0,1,.01738.13267l-.46558.566a.08878.08878,0,0,1-.13475.01932,2.22941,2.22941,0,0,0-1.208-.38252c-.45881,0-.69933.2022-.69933.47975,0,.26788.16581.43079.76148.49132l.50161.0483c.96112.08951,1.419.59179,1.419,1.34974,0,.91892-.67134,1.5622-1.93252,1.5622A2.86663,2.86663,0,0,1,57.43413,23.18018Z"/><path class="b" d="M63.59708,23.86533c-.92456,0-1.28242-.45077-1.28242-1.35488V20.07761c0-.03993-.01869-.05925-.05539-.05925h-.30636a.09014.09014,0,0,1-.09482-.09337v-.64072a.093.093,0,0,1,.09482-.10112h.30636c.0367,0,.05539-.01932.05539-.05859V17.86177a.09069.09069,0,0,1,.09512-.09466h.8848a.089.089,0,0,1,.0966.09466v1.26279c0,.03927.01737.05859.05875.05859h.61981c.05216,0,.08549.0393.08549.10112V19.925a.08458.08458,0,0,1-.08549.09337h-.61981c-.04138,0-.05875.01932-.05875.05925v2.39357c0,.329.13379.43017.43224.43017h.24632a.08877.08877,0,0,1,.08549.0998v.76758a.08631.08631,0,0,1-.08549.0966Z"/><path class="b" d="M65.22436,23.80675a.089.089,0,0,1-.09354-.09338v-4.4291a.09194.09194,0,0,1,.09354-.10112h.88252a.09369.09369,0,0,1,.09532.10112v.3883h.01351a1.32879,1.32879,0,0,1,1.19584-.59308,1.39622,1.39622,0,0,1,.97074.38378.09523.09523,0,0,1,.01916.13782l-.507.6388a.09453.09453,0,0,1-.13653.01932,1.26606,1.26606,0,0,0-.68193-.22153c-.59887,0-.87384.43082-.87384,1.17008v2.50561a.09091.09091,0,0,1-.09532.09338Z"/><path class="b" d="M71.48371,23.80675a.08884.08884,0,0,1-.09673-.09338v-.3413h-.0066a1.52007,1.52007,0,0,1-1.30885.53962,1.3814,1.3814,0,0,1-1.5503-1.41152c0-1.00715.7109-1.46564,1.84828-1.46564h.94131c.03976,0,.05506-.0174.05506-.05733v-.2183c0-.528-.24936-.77144-1.026-.77144a1.627,1.627,0,0,0-1.05544.31939A.08073.08073,0,0,1,69.156,20.285l-.36225-.62914a.09515.09515,0,0,1,.02674-.12813,2.7223,2.7223,0,0,1,1.63886-.4482c1.40865,0,1.92606.4791,1.92606,1.60988v3.024a.09111.09111,0,0,1-.09822.09338Zm-.11783-1.552V21.9c0-.04187-.0153-.06119-.05506-.06119H70.546c-.69564,0-.9991.19255-.9991.62529,0,.38123.28077.57764.793.57764C71.00445,23.04174,71.36588,22.77833,71.36588,22.2548Z"/><path class="b" d="M74.8965,23.86533c-.92551,0-1.28212-.45077-1.28212-1.35488V20.07761c0-.03993-.019-.05925-.05535-.05925h-.30669a.09757.09757,0,0,1-.10224-.09337v-.64072a.09987.09987,0,0,1,.10224-.10112H73.559c.03636,0,.05535-.01932.05535-.05859V17.86177a.09027.09027,0,0,1,.09371-.09466h.8806a.09543.09543,0,0,1,.10241.09466v1.26279c0,.03927.01384.05859.05535.05859h.61595a.0894.0894,0,0,1,.09114.10112V19.925a.08631.08631,0,0,1-.09114.09337h-.61595c-.04151,0-.05535.01932-.05535.05925v2.39357c0,.329.1328.43017.42739.43017h.24391a.09021.09021,0,0,1,.09114.0998v.76758a.08791.08791,0,0,1-.09114.0966Z"/><path class="b" d="M76.52378,18.31382a.09422.09422,0,0,1-.09742-.0998v-.82877a.09049.09049,0,0,1,.09742-.09594h.88061a.0889.0889,0,0,1,.09706.09594V18.214a.0925.0925,0,0,1-.09706.0998Zm0,5.49293a.09089.09089,0,0,1-.09742-.09338v-4.4291a.09358.09358,0,0,1,.09742-.10112h.88061a.092.092,0,0,1,.09706.10112v4.4291a.08919.08919,0,0,1-.09706.09338Z"/><path class="b" d="M81.62884,23.80675a.0904.0904,0,0,1-.1-.09338v-2.6666c0-.595-.2943-1.00909-.86933-1.00909a.89408.89408,0,0,0-.88608,1.00909v2.6666a.0874.0874,0,0,1-.09143.09338h-.8832a.09252.09252,0,0,1-.09625-.09338v-4.4291a.09521.09521,0,0,1,.09625-.10112h.8832a.09043.09043,0,0,1,.09143.10112v.33614H79.786a1.4276,1.4276,0,0,1,1.22175-.54092,1.57624,1.57624,0,0,1,1.5957,1.71614v2.91774a.08831.08831,0,0,1-.0937.09338Z"/><path class="b" d="M83.62061,24.94782a.0818.0818,0,0,1,.01448-.132l.56072-.57117a.09453.09453,0,0,1,.14649,0,1.40874,1.40874,0,0,0,1.00263.436c.71479,0,1.03807-.38895,1.03807-1.1018V23.1422h-.01194a1.32353,1.32353,0,0,1-1.20127.54153,1.53543,1.53543,0,0,1-1.56754-1.12626,3.51266,3.51266,0,0,1-.15262-1.17714,3.45707,3.45707,0,0,1,.15262-1.16748,1.5297,1.5297,0,0,1,1.56754-1.13336,1.31584,1.31584,0,0,1,1.20127.54606H86.383v-.34128a.09.09,0,0,1,.09271-.10112h.88479a.09319.09319,0,0,1,.09789.10112v4.23141a1.94015,1.94015,0,0,1-2.16368,2.12181A2.28807,2.28807,0,0,1,83.62061,24.94782Zm2.6587-2.807a2.23725,2.23725,0,0,0,.10369-.76049,2.28317,2.28317,0,0,0-.10369-.75793.79987.79987,0,0,0-.832-.58472.78993.78993,0,0,0-.81074.58472,2.19174,2.19174,0,0,0-.11045.75793,2.14685,2.14685,0,0,0,.11045.76049.78332.78332,0,0,0,.81074.59116A.79317.79317,0,0,0,86.27931,22.14082Z"/><path class="c" d="M92.52372,19.08592a2.291,2.291,0,0,0-1.50041.45335.18947.18947,0,0,0-.05411.26983l.16775.244a.21691.21691,0,0,0,.29591.02061,1.54681,1.54681,0,0,1,1.05736-.30973c.90863,0,1.05769.293,1.05769.91183v.40247H92.46253c-1.50041,0-1.81209.76435-1.81209,1.41347,0,.87708.60277,1.40895,1.61858,1.40895a1.84587,1.84587,0,0,0,1.29788-.43787v.14167a.19424.19424,0,0,0,.19739.20221h.30554a.198.198,0,0,0,.20158-.20221V20.65525C94.27141,19.52769,93.77814,19.08592,92.52372,19.08592Zm1.02419,2.62734v.62657c0,.53448-.462.88347-1.17681.88347-.45529,0-1.00391-.13069-1.00391-.74374,0-.38124.1333-.7663,1.16682-.7663Z"/><path class="c" d="M99.83773,19.08592a1.62754,1.62754,0,0,0-1.27471.48942V17.48442a.19.19,0,0,0-.20059-.19511h-.32327a.19291.19291,0,0,0-.20059.19511v6.12012a.1976.1976,0,0,0,.20059.20221h.32327a.19459.19459,0,0,0,.20059-.20221v-.19769a1.59969,1.59969,0,0,0,1.27471.49389,1.568,1.568,0,0,0,1.62662-1.13206,4.03075,4.03075,0,0,0,.16742-1.26857,4.10371,4.10371,0,0,0-.16742-1.284A1.56587,1.56587,0,0,0,99.83773,19.08592Zm-.1095.69934a.98865.98865,0,0,1,1.04516.70062,3.22907,3.22907,0,0,1,.11945,1.01423,3.14837,3.14837,0,0,1-.11945,1.00006.98941.98941,0,0,1-1.04516.70253,1.00388,1.00388,0,0,1-1.05027-.70253,3.15259,3.15259,0,0,1-.11494-1.00006,3.0726,3.0726,0,0,1,.11976-1.01423A.99717.99717,0,0,1,99.72823,19.78526Z"/><path class="c" d="M105.50127,19.41563a1.53318,1.53318,0,0,0-.97045-.32971,1.36387,1.36387,0,0,0-1.10566.4759v-.17837a.20151.20151,0,0,0-.20831-.20287h-.31651a.20053.20053,0,0,0-.20669.20287v4.22109a.2.2,0,0,0,.20669.20221h.31651a.201.201,0,0,0,.20831-.20221V21.1646c0-.51259.12782-1.37934.98073-1.37934a1.21316,1.21316,0,0,1,.66973.20929.27353.27353,0,0,0,.1214.0309.20466.20466,0,0,0,.15677-.08306l.18516-.255a.17464.17464,0,0,0,.04474-.15324A.184.184,0,0,0,105.50127,19.41563Z"/><path class="c" d="M106.85292,17.28931h-.41856a.19151.19151,0,0,0-.20026.19511v.521a.19646.19646,0,0,0,.20026.20026h.41856a.19688.19688,0,0,0,.20283-.20026v-.521A.192.192,0,0,0,106.85292,17.28931Z"/><path class="c" d="M106.80271,19.18058h-.31685a.20223.20223,0,0,0-.20735.20287v4.22109a.2017.2017,0,0,0,.20735.20221h.31685a.19717.19717,0,0,0,.20283-.20221V19.38345A.1977.1977,0,0,0,106.80271,19.18058Z"/><path class="c" d="M111.6201,19.18058h-.31876a.19732.19732,0,0,0-.20284.20287v.17965a1.5473,1.5473,0,0,0-1.22867-.47718,1.58581,1.58581,0,0,0-1.606,1.14173,3.856,3.856,0,0,0-.15938,1.23445,3.88093,3.88093,0,0,0,.15938,1.23576,1.578,1.578,0,0,0,1.606,1.12821,1.52982,1.52982,0,0,0,1.22867-.4759v.28526c0,.843-.36963,1.23382-1.17328,1.23382a1.31318,1.31318,0,0,1-1.02775-.434.19934.19934,0,0,0-.29076-.0277l-.23083.19512a.19792.19792,0,0,0-.0451.27692,1.99017,1.99017,0,0,0,3.48766-1.26151V19.38345A.19479.19479,0,0,0,111.6201,19.18058Zm-1.65175,3.95515a.96432.96432,0,0,1-1.00134-.70253,2.87131,2.87131,0,0,1-.12493-.9711,3.01265,3.01265,0,0,1,.12493-.98331,1.08168,1.08168,0,0,1,2.022.00709,2.97735,2.97735,0,0,1,.10949.97622,2.95608,2.95608,0,0,1-.10949.975A.97994.97994,0,0,1,109.96835,23.13573Z"/><path class="c" d="M115.19467,19.08592a1.61859,1.61859,0,0,0-1.23058.48942V17.48442a.19386.19386,0,0,0-.20478-.19511h-.32651a.1939.1939,0,0,0-.20154.19511v6.12012a.19858.19858,0,0,0,.20154.20221h.32651a.2007.2007,0,0,0,.20478-.20221V20.90509a1.05227,1.05227,0,0,1,1.11047-1.11983c.72251,0,1.0722.39732,1.0722,1.21449v2.60479a.2012.2012,0,0,0,.20768.20221h.31681a.19517.19517,0,0,0,.2022-.20221V20.87869A1.58343,1.58343,0,0,0,115.19467,19.08592Z"/><path class="c" d="M119.835,19.18058h-.79462V17.96546a.19632.19632,0,0,0-.2022-.19835h-.32262a.1973.1973,0,0,0-.20221.19835v1.21512h-.4205a.19977.19977,0,0,0-.20349.20287v.25885a.19721.19721,0,0,0,.20349.1964h.4205v2.69235c0,.926.37412,1.30145,1.27952,1.30145h.24213a.19948.19948,0,0,0,.2093-.19707v-.29749a.20163.20163,0,0,0-.2093-.20221h-.17642c-.46109,0-.6182-.09208-.6182-.63042V19.8387h.79462a.199.199,0,0,0,.2093-.1964v-.25885A.20139.20139,0,0,0,119.835,19.18058Z"/><path class="c" d="M122.71312,19.08592a1.7587,1.7587,0,0,0-1.77634,1.22159,3.82971,3.82971,0,0,0-.14391,1.18228,3.76959,3.76959,0,0,0,.14391,1.16942,1.7656,1.7656,0,0,0,1.83206,1.24153,2.12857,2.12857,0,0,0,1.72448-.7811.18439.18439,0,0,0-.0238-.27431l-.21767-.19963a.20087.20087,0,0,0-.28849.03283,1.4252,1.4252,0,0,1-1.16685.52417,1.13163,1.13163,0,0,1-1.17263-.78691,2.21551,2.21551,0,0,1-.08951-.70253h2.87653a.19877.19877,0,0,0,.21638-.19383,3.629,3.629,0,0,0-.134-1.21192A1.76762,1.76762,0,0,0,122.71312,19.08592Zm0,.6781a1.06307,1.06307,0,0,1,1.10019.75855,2.05219,2.05219,0,0,1,.0818.55575h-2.36074a2.06178,2.06178,0,0,1,.08308-.55575A1.05845,1.05845,0,0,1,122.71312,19.764Z"/><path class="c" d="M128.53285,19.41563a1.52872,1.52872,0,0,0-.96722-.32971,1.38267,1.38267,0,0,0-1.11084.4759v-.17837a.19913.19913,0,0,0-.20412-.20287h-.322a.1956.1956,0,0,0-.19769.20287v4.22109a.19505.19505,0,0,0,.19769.20221h.322a.19859.19859,0,0,0,.20412-.20221V21.1646c0-.51259.12559-1.37934.9814-1.37934a1.199,1.199,0,0,1,.671.20929.269.269,0,0,0,.11945.0309.21015.21015,0,0,0,.16225-.08306l.18579-.255a.17736.17736,0,0,0,.04025-.15324A.167.167,0,0,0,128.53285,19.41563Z"/><path class="c" d="M137.32181,19.18058h-.34741a.23209.23209,0,0,0-.22281.16356l-1.02581,3.22365-1.08924-3.22365a.22266.22266,0,0,0-.21219-.16356h-.27883a.22484.22484,0,0,0-.21636.16356l-1.06448,3.22365-1.06121-3.23136a.22489.22489,0,0,0-.2212-.15585h-.341a.1613.1613,0,0,0-.14682.06957.14809.14809,0,0,0-.01738.161l1.398,4.22432a.21819.21819,0,0,0,.217.17132h.2872a.21258.21258,0,0,0,.21573-.16614l1.09214-3.23136,1.06316,3.22618a.23219.23219,0,0,0,.226.17132h.284a.20779.20779,0,0,0,.21635-.16809l1.40928-4.223a.18012.18012,0,0,0-.01447-.16548A.17187.17187,0,0,0,137.32181,19.18058Z"/><path class="c" d="M139.99551,19.08592a1.76352,1.76352,0,0,0-1.78311,1.22159,4.53672,4.53672,0,0,0,0,2.36974,1.91622,1.91622,0,0,0,3.57425-.00257,3.54472,3.54472,0,0,0,.15714-1.18489,3.57,3.57,0,0,0-.15714-1.18228A1.76215,1.76215,0,0,0,139.99551,19.08592Zm0,4.11678a1.0792,1.0792,0,0,1-1.08924-.74569,3.08835,3.08835,0,0,1-.11979-.96722,3.03174,3.03174,0,0,1,.11979-.95756,1.17283,1.17283,0,0,1,2.18557,0,2.89309,2.89309,0,0,1,.11269.95756,2.94746,2.94746,0,0,1-.11269.96722A1.076,1.076,0,0,1,139.99551,23.2027Z"/><path class="c" d="M145.81714,19.41563a1.54578,1.54578,0,0,0-.973-.32971,1.374,1.374,0,0,0-1.105.4759v-.17837a.19925.19925,0,0,0-.20286-.20287h-.32133a.20154.20154,0,0,0-.2035.20287v4.22109a.201.201,0,0,0,.2035.20221h.32133a.19871.19871,0,0,0,.20286-.20221V21.1646c0-.51259.12492-1.37934.98265-1.37934a1.20732,1.20732,0,0,1,.66778.20929.277.277,0,0,0,.11783.0309.2091.2091,0,0,0,.16294-.08306l.1816-.255a.19718.19718,0,0,0,.04765-.15324A.16836.16836,0,0,0,145.81714,19.41563Z"/><path class="c" d="M147.85075,23.13573h-.16647c-.25693,0-.37124-.06244-.37124-.46105V17.48442a.19788.19788,0,0,0-.20864-.19511h-.31618a.19307.19307,0,0,0-.20122.19511v5.20829c0,.79719.312,1.13979,1.04028,1.13979h.22347a.19724.19724,0,0,0,.20059-.19707v-.29749A.19956.19956,0,0,0,147.85075,23.13573Z"/><path class="c" d="M152.24925,17.28931h-.32261a.19225.19225,0,0,0-.20092.19511v2.09092a1.63322,1.63322,0,0,0-1.27018-.48942,1.55184,1.55184,0,0,0-1.63437,1.13016,3.805,3.805,0,0,0-.16291,1.284,3.72165,3.72165,0,0,0,.16291,1.26857,1.55393,1.55393,0,0,0,1.63437,1.13206,1.605,1.605,0,0,0,1.27018-.49389v.19769a.1969.1969,0,0,0,.20092.20221h.32261a.19127.19127,0,0,0,.198-.20221V17.48442A.18668.18668,0,0,0,152.24925,17.28931Zm-1.69391,5.91339a.99975.99975,0,0,1-1.04321-.70253,3.22665,3.22665,0,0,1-.123-1.00006,3.309,3.309,0,0,1,.123-1.01423,1.00246,1.00246,0,0,1,1.04321-.70062.99223.99223,0,0,1,1.04674.70062,2.89757,2.89757,0,0,1,.12364,1.01423,2.82177,2.82177,0,0,1-.12364,1.00006A.98964.98964,0,0,1,150.55534,23.2027Z"/><path class="c" d="M32.75486,24.75721a.49316.49316,0,0,0,.26162-.64331l-4.55515-9.79964V14.3046a.21072.21072,0,0,0-.27322-.10112.21889.21889,0,0,0-.10735.27046h0v.00517l4.02693,10.02374a.48364.48364,0,0,0,.64058.25436Z"/></svg>