<svg xmlns="http://www.w3.org/2000/svg" viewBox="0 0 180.51692 63.49203"><defs><style>.a{fill:#231f20;}.b{fill:#009aa6;}.c{fill:#fff;}</style></defs><title>logo_two_sigma</title><polygon class="a" points="50.77 26.681 45.726 26.681 45.726 24.45 58.316 24.45 58.316 26.681 53.272 26.681 53.272 39.041 50.77 39.041 50.77 26.681"/><polygon class="a" points="60.673 24.45 63.32 24.45 66.676 35.519 66.718 35.519 69.886 24.45 72.22 24.45 75.368 35.519 75.409 35.519 78.786 24.45 81.413 24.45 76.806 39.041 74.117 39.041 71.053 28.348 71.011 28.348 67.947 39.041 65.258 39.041 60.673 24.45"/><path class="a" d="M89.80419,37.124c2.75106,0,4.89821-2.0427,4.89821-5.46145,0-3.29323-2.126-5.3148-4.89821-5.3148-2.77254,0-4.89844,2.02157-4.89844,5.3148,0,3.41875,2.14716,5.46145,4.89844,5.46145m0-12.92341a7.13988,7.13988,0,0,1,7.44116,7.462,7.45373,7.45373,0,1,1-14.90335,0,7.15677,7.15677,0,0,1,7.46219-7.462"/><polygon class="a" points="118.675 24.45 121.176 24.45 121.176 32.315 121.176 39.041 118.675 39.041 118.675 30.885 118.675 24.45"/><path class="a" d="M131.92454,24.20054a8.87923,8.87923,0,0,1,5.16895,1.64652,20.02121,20.02121,0,0,1-1.50285,1.63307,6.52485,6.52485,0,0,0-3.6035-1.11194c-3.00173,0-4.98186,2.16767-4.98186,5.25277,0,3.35561,1.85542,5.503,4.98186,5.503a6.04334,6.04334,0,0,0,2.918-.70866V32.95458h-3.66873V31.09983h5.98183v6.60742a9.18744,9.18744,0,0,1-5.29366,1.58415c-4.56536,0-7.4829-3.085-7.4829-7.67044a7.10606,7.10606,0,0,1,7.4829-7.42042"/><polygon class="a" points="140.765 24.45 143.287 24.45 148.101 31.309 152.916 24.45 155.418 24.45 155.418 39.041 153 39.041 153 28.161 148.081 35.039 143.162 28.161 143.162 39.041 140.765 39.041 140.765 24.45"/><path class="a" d="M162.23649,33.87214h4.75245L164.63333,27.077h-.04143Zm.91692-9.42172h2.93935l5.39832,14.59087h-2.6888l-1.10445-3.14736h-6.14929L160.465,39.04129H157.7553Z"/><path class="a" d="M105.7377,35.89393a8.306,8.306,0,0,0,4.161,1.18817c1.91777,0,2.87676-.83383,2.87676-2.00085,0-3.29381-8.2127-1.12625-8.2127-6.69127,0-2.33435,1.9387-4.18944,5.211-4.18944A10.82017,10.82017,0,0,1,115.13,25.544l-1.63594,1.66987a8.4908,8.4908,0,0,0-3.63722-.80364c-1.68794,0-2.68859.85444-2.68859,1.93826,0,3.27252,8.2125,1.04185,8.2125,6.71144,0,2.39771-1.81354,4.23152-5.48205,4.23152a11.14145,11.14145,0,0,1-5.84784-1.71065Z"/><rect class="b" x="13.29461" y="21.43623" width="20.61992" height="20.61992" transform="translate(-15.53509 25.99437) rotate(-45.00758)"/><path class="c" d="M15.91532,35.87938c-.11294-4.66882,5.50486-4.06064,5.50486-6.45285,0-.77773-.60829-1.443-1.9668-1.443a4.02838,4.02838,0,0,0-2.63216,1.13175l-1.03249-1.03269A5.66632,5.66632,0,0,1,19.524,26.56872c2.3347,0,3.52408,1.302,3.52408,2.82994,0,3.52374-5.46267,2.90134-5.46267,5.84478h5.37717v1.40081H15.93008Z"/><path class="c" d="M34.04524,28.98869H28.07762v.00045a4.30563,4.30563,0,0,0-4.26491,4.52734,3.06084,3.06084,0,0,0,3.21194,3.29744A4.30506,4.30506,0,0,0,31.31238,32.3a3.51525,3.51525,0,0,0-.60467-2.074H32.7914Zm-6.86481,6.53769c-1.07556,0-1.71227-.69325-1.71227-2.02355,0-1.69819,1.13187-3.2267,2.49125-3.2267,1.06069,0,1.69785.69314,1.69785,2.03775C29.65726,34.01141,28.53873,35.52638,27.18043,35.52638Z"/></svg>