<svg xmlns="http://www.w3.org/2000/svg" viewBox="0 0 180.51692 63.49203"><defs><style>.a{fill:#7a8b95;}</style></defs><title>logo_facebook</title><path class="a" d="M26.40046,23.93062v2.11474a.21726.21726,0,0,1-.22995.22988H17.09088v4.32152h7.49359a.2172.2172,0,0,1,.22995.2298v2.11481a.2172.2172,0,0,1-.22995.2298H17.09088v6.39031a.21708.21708,0,0,1-.2298.2298H14.58535a.21708.21708,0,0,1-.2298-.2298V23.93062a.21714.21714,0,0,1,.2298-.22987H26.17051A.21726.21726,0,0,1,26.40046,23.93062Z"/><path class="a" d="M44.9271,39.79128H42.42157a.25015.25015,0,0,1-.26424-.20694c-.33342-1.32164-.73557-2.71232-1.19532-4.11458h-7.6891c-.45959,1.40226-.86189,2.79294-1.18374,4.11458a.25029.25029,0,0,1-.26439.20694H29.41129c-.16092,0-.253-.09189-.20694-.25281A107.02312,107.02312,0,0,1,35.0889,23.99958a.43988.43988,0,0,1,.44832-.29883h3.264a.43989.43989,0,0,1,.44833.29883A105.22587,105.22587,0,0,1,45.134,39.53847C45.18006,39.69939,45.088,39.79128,44.9271,39.79128Zm-4.81571-6.804c-.83888-2.3216-1.76981-4.64321-2.7239-6.758h-.54006c-.95393,2.11481-1.89644,4.43642-2.73548,6.758Z"/><path class="a" d="M49.04121,31.884c0-4.98813,3.287-8.482,7.97635-8.482h.34469A7.15734,7.15734,0,0,1,63.787,27.05675a.20326.20326,0,0,1-.08046.32184l-2.02277.99988a.28044.28044,0,0,1-.40231-.10339,4.2754,4.2754,0,0,0-4.0111-2.25273h-.34485c-2.9537,0-4.98806,2.34462-4.98806,5.74672,0,3.41344,1.99992,5.70061,4.98806,5.70061h.34485a4.71872,4.71872,0,0,0,3.91922-1.65507.29233.29233,0,0,1,.37929-.08046l2.08022,1.01139a.19109.19109,0,0,1,.1149.16092.303.303,0,0,1-.06888.17235,7.5124,7.5124,0,0,1-6.37873,3.0113h-.34485C52.20185,40.09011,49.04121,36.81457,49.04121,31.884Z"/><path class="a" d="M82.09528,37.44667v2.11481a.2172.2172,0,0,1-.23.2298H69.79741a.21708.21708,0,0,1-.2298-.2298V23.93062a.21714.21714,0,0,1,.2298-.22987h11.861a.21718.21718,0,0,1,.23.22987v2.11474a.21718.21718,0,0,1-.23.22988H72.30294v4.18345h7.60849a.21732.21732,0,0,1,.23.23v2.0918a.2172.2172,0,0,1-.23.2298H72.30294v4.20647h9.56239A.21731.21731,0,0,1,82.09528,37.44667Z"/><path class="a" d="M102.87449,35.37787c0,2.81579-2.16084,4.41341-5.97659,4.41341H88.99059a.21708.21708,0,0,1-.2298-.2298V23.93062a.21714.21714,0,0,1,.2298-.22987h7.20634c3.71228,0,5.73505,1.47114,5.73505,4.16052a3.3648,3.3648,0,0,1-2.71232,3.4709C101.77106,31.87238,102.87449,33.401,102.87449,35.37787Zm-6.735-9.17159H91.49612v4.32145h4.64336c2.08022,0,3.03416-.67812,3.03416-2.16076S98.2197,26.20628,96.13948,26.20628Zm3.93065,8.93021c0-1.49414-.98838-2.17226-3.16064-2.17226H91.49612v4.32152h5.41337C99.11619,37.28575,100.07013,36.64207,100.07013,35.13649Z"/><path class="a" d="M107.68957,31.74605c0-4.85022,3.21809-8.34413,8.275-8.34413h.34485c5.05709,0,8.27518,3.49391,8.27518,8.34413s-3.21809,8.34406-8.27518,8.34406h-.34485C110.90766,40.09011,107.68957,36.5962,107.68957,31.74605Zm8.61988,5.72363c3.29855,0,5.37877-2.26415,5.37877-5.72363s-2.08022-5.7237-5.37877-5.7237h-.34485c-3.29855,0-5.37878,2.26416-5.37878,5.7237s2.08023,5.72363,5.37878,5.72363Z"/><path class="a" d="M129.25038,31.74605c0-4.85022,3.21809-8.34413,8.275-8.34413h.34485c5.05709,0,8.27518,3.49391,8.27518,8.34413s-3.21809,8.34406-8.27518,8.34406h-.34485C132.46847,40.09011,129.25038,36.5962,129.25038,31.74605Zm8.61987,5.72363c3.29855,0,5.37877-2.26415,5.37877-5.72363s-2.08022-5.7237-5.37877-5.7237h-.34485c-3.29855,0-5.37877,2.26416-5.37877,5.7237s2.08022,5.72363,5.37877,5.72363Z"/><path class="a" d="M165.97055,39.79128h-2.96529a.43631.43631,0,0,1-.4023-.19536,62.83942,62.83942,0,0,0-6.63154-6.67756H154.6382v6.64312a.21708.21708,0,0,1-.2298.2298h-2.27574a.21707.21707,0,0,1-.22979-.2298V23.93062a.21713.21713,0,0,1,.22979-.22987h2.27574a.21714.21714,0,0,1,.2298.22987v6.3443h1.35623a49.37966,49.37966,0,0,0,5.99945-6.40182.36879.36879,0,0,1,.34485-.17235h2.80436c.13791,0,.20679.069.20679.16092a.28437.28437,0,0,1-.08046.17235,57.25715,57.25715,0,0,1-7.18318,7.47065,69.2881,69.2881,0,0,1,8.01079,7.99921C166.22335,39.65337,166.15448,39.79128,165.97055,39.79128Z"/></svg>