<svg xmlns="http://www.w3.org/2000/svg" viewBox="0 0 180.51692 63.49203"><defs><style>.cls-1{fill:#004ea2;}</style></defs><g id="nautilus"><path class="cls-1" d="M68.43372,25.51634l.06537.01629.06468.03206.08111.04905.06464.081.06483.09685.06464.11373.0485.14579.04893.17837,1.91208,5.92978.032.17837.03261.17782v.16222l-.01629.16194-.04835.14578-.04908.14579-.06465.12958-.08111.11373-.09729.11288-.11314.09758-.12947.09726-.13.06467-.14579.06494-.16208.03261-.1615.03206-.17854.01615H67.33233l-.17852-.01615-.16207-.03206-.16153-.03261-.14576-.06494-.14634-.06467-.11317-.09726-.11373-.09758-.0967-.11288-.08112-.11373-.06464-.12958-.06482-.14579-.03262-.14578-.01629-.16194v-.16222l.01629-.17782.04836-.17837,1.89578-5.92978.06465-.17837.04908-.14579.06464-.11373.06468-.09685.06479-.081.06467-.04905.08111-.03206Zm97.76443-4.90922-.42089.0163-.40528.01632-.38909.032-.38826.03276-.37265.06467-.37324.06479-.35619.081-.34.09743-.34034.09686-.308.13-.308.12933-.30772.14578-.29155.14576-.27537.17855-.25951.17781-.25893.19469-.24305.19426-.2269.21044-.21043.2269-.19484.24319-.17782.243-.16193.24319-.16222.27526-.12932.27522-.11373.2758-.09755.29155-.09671.30787-.06467.3243-.04905.32361-.0485.32415-.01618.35634-.01643.34048.03261.56677.01644.25951.03206.25893.03261.25948.06465.24322.0485.24305.06467.22687.08111.2269.09726.21043.08111.21058.11373.19411.11317.19469.12961.19429.12988.17837.12961.16208.16193.17785.16223.16208.17782.16222.1784.14576.40527.30787.45377.29154.502.2758.53458.25894.59956.243.63214.24334,2.608.79352.53488.16223.25951.09728.24247.09671.22689.09755.211.11373.21046.11288.19426.11372.46994.24276.43731.243.42173.25952.38881.27511.37265.27536.35623.29213.34.308.308.32361.29157.32415.27566.34.24305.34031.22687.35651.2269.37236.19425.37266.1784.37266.14576.38883.11317-.25864.08112-.29184.08082-.29212.04908-.29155.04847-.3236.03206-.34031.03262-.35651V36.7284l-.01644-.53459-.04824-.519-.04847-.24275-.04908-.22661-.06465-.24334-.06467-.21043-.06468-.22687-.09755-.211-.09728-.19426-.09671-.21043-.11373-.1784-.11314-.19426-.13019-.1784-.14576-.16222-.30772-.33976-.35619-.34062-.38913-.34-.4373-.32416-.24307-.16208-.24334-.16208-.25893-.14576-.27566-.14579-.27537-.12946-.29154-.12947-.29155-.11373-.30772-.11314-2.57628-.8426-.46994-.16208L165.275,29.583l-.405-.17782-.35649-.19483-.32416-.1784-.29154-.19412-.25951-.19428-.22687-.19469-.17782-.19412-.1784-.19483-.12932-.21046-.11373-.19426-.09758-.22676L162.65,27.1689l-.03206-.27525-.01644-.30784.01644-.389.04849-.35633.06468-.34048.09726-.30787.12961-.27522.16193-.24319.08112-.12947.09728-.09743.11318-.113.11372-.09743.22687-.17838.25894-.14578.25951-.12947.27507-.11373.29155-.08052.308-.06523.32416-.03206h.34059l.43734.01632.40471.04835.37321.04836.35622.08111.308.08111.29154.081.25867.11372.24331.11315.21046.11372.19484.12947.16193.14578.16222.12933.12933.14575.12961.16223.09726.14578.11317.16208.16223.30787.14575.29154.1299.29155.12961.2758.14576.24261.08085.11373.09755.09729L170.67,26.91l.11372.08053.11315.06523.14579.04835.243.0485.2269.03261.21043.01632.21128-.01632.194-.03261.16223-.0485.16193-.09726.14605-.09685.12932-.14634.09729-.16153.08111-.19483.06465-.22673.0329-.24319v-.29154l-.01644-.32361-.04908-.35692-.032-.12946-.03261-.14579-.12932-.30784-.16223-.32416-.21043-.35636-.2754-.35619-.30769-.35695-.35706-.37265-.194-.17782-.21072-.16208-.22661-.17837-.22687-.16208-.24333-.16167-.24305-.14634-.27511-.14576-.27595-.14579-.27508-.11314-.308-.12932-.308-.09744-.30772-.0974-.34-.08111-.34063-.081-.33975-.04835-.35706-.0485-.37237-.01632Zm-85.0776.421-.1784.0163-.16222.03261-.17782.03221-.16208.06464-.14576.06537-.14579.09671-.14578.09744-.11373.11372-.11314.113-.11373.14593-.081.12947L79.5,22.09761l-.06467.16207-.04836.16209-.03275.17837-.0163.178V35.23748l.0163.4373.01632.45351.032.43789.04908.42115.06464.42142.08112.42115.09743.38884.113.38912.12946.37266.13.35619.16223.32416.16149.3236.1784.2921.21044.25893.21057.24308.2269.21069.22673.19458.43788.24275.2269.11373.22687.09729.22676.0967.22689.06465.24305.06552.24261.03206.24319.03261.24319.01589.25879-.01589.24319-.03261.2758-.06468.25894-.06493.2758-.11373.27525-.12932.21044-.11317.19483-.14634.19414-.12932.17852-.14579.32361-.29154.29154-.308.2432-.308L87.196,39.774l.16207-.2754.11373-.27566h0l-.30787.08112-.32415.04878-.34005.0485h-.35677l-.3884-.01646-.34059-.032-.16208-.03261-.12947-.04821L84.993,39.223l-.11372-.0485-.22687-.14575-.21043-.16194-.19484-.17811-.2269-.22661-.09671-.13016-.0974-.12935-.09744-.12958-.081-.14579-.08111-.16193-.08039-.16223-.13-.35622-.08111-.38909-.081-.42145-.03217-.45376-.01633-.48555V22.7781l-.01629-.178-.03206-.17837-.0489-.16209-.06482-.16207-.06465-.16208-.09743-.12947-.09686-.14593-.11372-.113-.12932-.11372-.14579-.09744-.1459-.09671-.14579-.06537-.16208-.06464-.16208-.03221-.17837-.03261-.17782-.0163Zm61.01732,0-.17782.0163-.17837.03261-.16222.03221-.16223.06464-.14579.06537-.14575.09671-.14579.09744-.12932.11372-.11373.113-.0967.14593-.09755.12947-.06468.16208-.06467.16207-.049.16209-.03206.17837-.01615.178V35.23748l.01615.4373.01646.45351.032.43789.04824.42115.06549.42142.08111.42115.09671.38884.11373.38912.12934.37266.12959.35619.162.32416.16222.3236.17837.2921.19429.25893.21043.24308.22687.21069.24305.19458.43733.24275.22687.11373.2269.09729.22687.0967.22661.06465.24334.06552.22689.03206.2592.03261.24278.01589.25948-.01589.24305-.03261.25893-.06468.27595-.06493.27511-.11373.25951-.12932.22687-.11317.194-.14634.19483-.12932.17782-.14579.32416-.29154.29155-.308.24333-.308.21044-.30769.14578-.2754.12959-.27566-.30744.08112-.32415.04878-.3406.0485h-.35622l-.40526-.01646-.34-.032-.14576-.03261-.12932-.04821-.13019-.04908-.12932-.0485-.21044-.14575-.21072-.16194-.211-.17811-.21044-.22661-.09754-.13016-.11289-.12935-.08111-.12958-.09755-.14579-.08082-.16193-.065-.16223-.12932-.35622-.09726-.38909-.065-.42145-.04821-.45376V22.7781l-.01644-.178-.03261-.17837-.0485-.16209-.06467-.16207-.08112-.16208-.08081-.12947-.09756-.14593-.12932-.113-.11375-.11372-.14576-.09744-.14579-.09671-.14575-.06537-.16223-.06464-.17782-.03221-.16222-.03261-.1784-.0163ZM6.94645,21.01239l.32416.95575L7.627,22.908l.35619.92314.389.8915H27.55594l.17782.01574.16207.03276.16223.04836.16208.04908.14578.081.12947.08053.13.11358.12946.11318.113.11372.09741.12947.08111.14579.06467.14575.06465.16208.03276.16208.03206.17855.01629.17782v.22672l-.01629.17855-.03206.16208-.03276.16207-.06465.16208-.06467.14576-.08111.14579-.09741.12946-.113.12947-.12946.11373-.13.09685-.12947.081-.14578.08112-.16208.06467-.16223.049-.16207.03206h-.17782v.0163H10.30051l.40472.63217.40527.59938.421.59941.43789.58308.43733.55106.45362.5346.47006.50226.46937.50253.48623.4694.50216.45376.519.45348.51827.43731.55048.42173.55105.42087.58309.40527.58382.40527.6157.38854.61512.37324.63217.37236.64777.35649.66475.33978.68053.32442.69681.32419.69626.30769.71311.308.7452.27508.74531.27539.76146.25949.76149.25893.79425.2269.79367.22661.81.21127.82616.194.84258.17837.8426.16222.859.16168.87463.12987.89154.12932.89107.11372.90725.08056V21.01239Zm60.95268.01574-.178.0163-.19469.03261-.17782.03221-.17854.06464-.17837.06537-.17782.081-.16208.09685-.16208.11373-.16223.12932-.14578.12947-.12947.13-.12932.16165-.0974.14633-.09744.16153-.08111.17837-.06464.16208L60.46272,38.98052l-.14579.42086-.0974.38881-.0485.35651-.01632.34033.01632.308.0485.29155.081.243.09741.2269.12946.19426.14579.1784.14576.14576.1784.11317.178.09726.17837.065.17841.03261.19425.01559h.40527l.17782-.03206.14579-.0485.16208-.04876.13-.065.12947-.08082.12946-.09755.11373-.11318.113-.12932.09743-.13016.08111-.12932.09726-.14579.14579-.32416.12947-.35621.56677-1.78218.06537-.17837.06467-.162.09685-.1622.11373-.16222.113-.14579.13-.14576.14578-.12935.14591-.11372.16207-.11315.16208-.09729.17782-.097.1784-.06523.178-.06464.17837-.03207.1784-.03261h3.96921l.19484.03261.17782.03207.17837.06464.17854.06523.17782.097.16208.09729.16208.11315.14576.11372.14578.12935.12947.14576.11373.14579.11314.16222.081.1622.08108.162.06467.17837.5675,1.78218.12932.35621.14579.32416.08111.14579.0974.12932.09744.13016.113.12932.11373.11318.11317.09755.12947.08082.14634.065.14576.04876.16153.0485.16207.03206h.42159l.17782-.01559.19484-.03261.17782-.065.17837-.09726.16223-.11317.16207-.14576.14579-.1784.12947-.19426.09726-.2269.08111-.243L76.697,40.795l.01632-.308L76.697,40.1467l-.06464-.35651-.09744-.38881-.14575-.42086L71.2858,22.7296l-.06479-.16208-.081-.17837-.09743-.16153-.11373-.14633-.11314-.16165-.12947-.13-.14578-.12947-.16208-.12932-.16208-.11373-.16208-.09685-.1784-.081-.178-.06537-.17837-.06464-.1784-.03221-.19425-.03261-.1784-.0163Zm51.151,0-.17837.0163-.1784.03261-.16223.03221-.16135.06464-.16222.06537-.14579.09671-.1299.09744-.12958.11372-.11318.113-.09728.14593-.09726.12947-.08112.16208-.04849.16207-.04908.16209-.032.17837-.01617.178V40.69773l.01617.1784.032.17781.0329.16194.06467.16222.08112.14579.09726.14576.09728.12932.11318.13019.12958.11314.1299.09729.14579.08111.16222.08112.16135.0485.16223.0482.1784.03262h.58309l.17837-.03262.16223-.0482.16193-.0485.16167-.08112.14576-.08111.1299-.09729.12961-.11314.11373-.13019.0967-.12932.09755-.14576.08085-.14579.0485-.16222.04905-.16194.03207-.17781.01614-.1784V22.7781l-.01614-.178-.03207-.17837-.03261-.16209-.06494-.16207-.08085-.16208-.09755-.12947-.0967-.14593-.11373-.113-.12961-.11372-.1299-.09744-.14576-.09671-.14579-.06537-.16222-.06464-.17782-.03221-.17837-.03261-.17782-.0163Zm-75.35715,0-.17782.0163-.17851.03261-.16208.03221-.16208.06464-.16153.06537-.14634.09671-.12946.09744-.12947.11372-.11373.113-.0967.14593-.09744.12947-.08111.16208-.06464.16207-.03262.16209-.0322.17837-.0163.178V40.69773l.0163.1784.0322.17781.03262.16194.06464.16222.08111.14579.09744.14576.0967.12932.11373.13019.12947.11314.12946.09729.14634.08111.16153.08112.16208.0485.16208.0482.17851.03262h.58309l.1784-.03262.16208-.0482.16153-.0485.16219-.08112.14579-.08111.13005-.09729.12946-.11314.113-.13019.09744-.12932.0974-.14576.081-.14579.0485-.16222.04835-.16194.03261-.17781.01632-.1784V30.39291l4.45559,8.45742.14576.32415.14579.308.12947.27507.0974.25952.081.24333.06482.22661.06464.2107.03276.21046.01632.17837.01574.16222v.29155l-.03206.12932-.01644.11372-.03206.11318-.0489.08111-.09744.16193-.11314.11315-.11373.09758-.113.06464-.0974.03261-.08111.01618-.081.01588h.519l.421-.03206.42086-.03261.40527-.06464.389-.065.37266-.09726.37266-.09671.34045-.11372.33989-.12961.32431-.14579.29154-.16193.29155-.16223.27525-.17837.25951-.19428.24305-.19455.22687-.21072.21058-.24305.21043-.24249.19469-.276.178-.308.16207-.30772.14579-.34.14576-.35619.13-.3568.0967-.38854.09741-.38881.08111-.40527.081-.40527.04847-.42115.03264-.43734.032-.4373V22.7781l-.01574-.178-.03261-.17837-.03262-.16209-.06482-.16207-.08108-.16208-.09674-.12947-.0974-.14593-.11373-.113-.12946-.11372-.12932-.09744-.14579-.09671-.16222-.06537-.16208-.06464-.16208-.03221-.17782-.03261-.17852-.0163h-.22675l-.17837.0163-.178.03261-.16207.03221-.16211.06464-.16208.06537-.14576.09671-.12947.09744-.13.11372-.11315.113-.09743.14593-.09726.12947-.08056.16208-.04891.16207-.04849.16209-.03262.17837-.01632.178V34.76725l-.01574.32444-.01629.32416-.03262.30772-.0322.32445-.04891.29155-.06467.29154-.08111.27511-.08112.25948-.12932-.34059L53.042,36.55l-.12947-.25948-7.356-14.19291-.081-.16208-.0974-.14593-.09744-.12947-.12946-.12932-.0163-.01644-.12946-.11358-.12947-.08056v-.01629l-.22675-.11373-.2269-.081-.24319-.0485-.25934-.03262Zm55.02292,0-.17782.0163-.16222.04908-.16194.04835-.14578.06465-.14579.08111-.14576.081-.11372.11317-.12961.11372-.09729.11315-.09726.14579-.08056.14633-.08111.14576-.049.16153-.04821.16208-.01647.16222-.01614.17837v.24308l.01614.16164.01647.1784.04821.16208.049.16208.08111.14576.08056.14579.09726.12946.09729.13.12961.11317.11372.0974.14576.09671.14579.08112.14578.06522.16194.0485.16222.03206.17782.0163h4.03455l.11318.01632.19484.06479.17781.081.16194.12947.14579.14579.11372.16208.08112.17851.04849.21046V40.82707h.01615l.01647.1622.032.162.06522.16223.06468.16193.06494.14576.09728.12961.09671.12932.11373.11373.12961.11317.12932.09726.14576.08111.14578.065.16223.06464.16193.03261.1784.03206h.58338l.16193-.03206.16223-.03261.16193-.06464.14576-.065.14579-.08111.12961-.09726.12932-.11317.11372-.11373.11315-.12932.08111-.12961.08112-.14576.06467-.16193.04905-.16223.03206-.162.03261-.1622V25.79156l.04821-.19414.08111-.19483.11373-.1615.14579-.14579.16222-.11373.17782-.081.19484-.06479.21043-.01632h3.83971l.16223-.0163.162-.03206.1622-.0485.162-.06522.14576-.08112.12961-.09671.12932-.0974.11372-.11317.11318-.13.09726-.12946.08111-.14579.06467-.14576.06494-.16208.03261-.16208.03207-.1784v-.58309l-.03207-.16222-.03261-.16208-.06494-.16153-.06467-.14576-.08111-.14633-.09726-.14579-.11318-.11315-.11372-.11372-.12932-.11317-.12961-.081-.14576-.08111-.162-.06465-.1622-.04835-.162-.04908-.16223-.0163Zm27.80328,0-.1784.0163-.17782.03261-.16222.03221-.16193.06464-.16223.06537-.14576.09671-.12935.09744-.13016.11372-.11314.113-.09729.14593-.09729.12947-.06494.16208-.06467.16207-.04821.16209-.0329.17837-.01615.178V35.67478l.03262.43792.03261.40469.0485.40527.06464.38883.09729.37266.08111.35622.11315.35619.12961.32445.14634.30772.14579.308.16138.2751.19483.276.19426.24246.19455.2269.2269.211.3888.32358.38854.276.38884.243.38909.2269.38884.17781.38883.14576.38909.13019.37266.11286.35622.08111.34059.065.32361.0482.29154.03262.53459.04849h4.66675l.16194-.01588.16164-.01618.14634-.04905.14579-.06467.14575-.06465.12933-.08111.11317-.09671.11372-.09757.11315-.12932.08111-.11373.08111-.12961.06468-.14576.06522-.14579.032-.16193.03264-.16222v-.551l-.03264-.14579-.032-.16193-.06522-.14579-.06468-.14576-.08111-.12961-.08111-.12932-.11315-.11372-.11372-.09758-.11317-.09671-.12933-.08111-.14575-.08082-.14579-.04905-.14634-.0485-.16164-.03262h-4.407l-.40527-.03206-.38912-.0485-.35619-.06522-.32419-.11315-.308-.12932-.27511-.16222-.25948-.1784-.2269-.22687-.21044-.2269-.17782-.24305-.14575-.25893-.1302-.27566-.0967-.30743-.06523-.35677-.04849-.40472-.01645-.46995V22.60014l-.032-.17837-.04879-.16209-.06494-.16207-.08082-.16208-.08112-.12947-.11317-.14593-.11372-.113-.11315-.11372-.14579-.09744-.14575-.09671-.14579-.06537-.16194-.06464-.17866-.03221-.16193-.03261-.17782-.0163Zm-34.62457,0-.17782.0163-.1784.03261-.16222.03221-.16193.06464-.16165.06537-.14634.09671-.12932.09744-.12961.11372-.11372.113-.09671.14593-.09729.12947-.06479.16208-.06467.16207-.04906.16209-.03206.17837-.01632.178V35.497l-.01629.45351-.01632.43731-.032.43733-.06482.4217-.06465.40472-.08111.40527-.09744.38884-.11372.38909-.113.35622-.14579.35619-.14575.34063-.16223.30769-.1784.29157-.19411.27537-.21058.25951-.211.24247-.27523.243-.29157.24334-.3243.21043-.3399.21044-.35692.17869-.3888.17837-.40472.14578-.42156.12932.58364.0485.29155.01618.30786.01644.4373-.01644.421-.03206.42159-.04879.389-.0485.38895-.08111.37266-.09726.35622-.11318.35633-.11372.32416-.12961.32419-.14576.308-.16193.29155-.16223.27511-.17782.25948-.1784.25893-.19425.2269-.19458.22687-.21069.21043-.24308.19484-.25893.1784-.2921.16138-.3236.16222-.32416.12988-.35619.12961-.37266.11317-.38912.08111-.38884.08082-.42115.06494-.42142.04879-.42115.0485-.43789.01615-.45351V22.60014l-.03262-.17837-.04821-.16209-.06493-.16207-.08082-.16208-.08112-.12947-.11372-.14593-.11317-.113-.11373-.11372-.14576-.09744-.14578-.09671-.14576-.06537-.162-.06464-.17808-.03221-.162-.03261-.17837-.0163Zm61.01805,0-.1784.0163-.17782.03261-.16222.03221-.16223.06464-.16193.06537-.14576.09671-.12961.09744-.1299.11372-.11315.113-.09729.14593-.097.12947-.06523.16208-.06465.16207-.04849.16209-.03262.17837-.01588.178V35.497l-.01618.45351-.01644.43731-.04823.43733-.04906.4217-.06467.40472-.08108.40527-.09729.38884-.11317.38909-.12959.35622-.1299.35619-.16167.34063-.16193.30769-.17838.29157-.19428.27537-.19484.25951-.21043.24247-.27537.243-.29212.24334-.32358.21043-.34063.21044-.35622.17869-.3888.17837-.40527.14578-.42116.12932.58338.0485.29155.01618.30769.01644.43791-.01644.42113-.03206.4053-.04879.40469-.0485.38883-.08111.37266-.09726.35677-.11318.34-.11372.34034-.12961.32386-.14576.29155-.16193.29212-.16223.29155-.17782.25893-.1784.25948-.19425.22661-.19458.2269-.21069.2107-.24308.19457-.25893.17782-.2921.16223-.3236.16193-.32416.12961-.35619.12932-.37266.09755-.38912.09729-.38884.08111-.42115.06465-.42142.0485-.42115.04908-.43789.01559-.45351V22.7781l-.01559-.178-.01647-.17837-.0485-.16209-.06523-.16207-.08111-.16208-.08053-.12947-.11372-.14593-.11289-.113-.13016-.11372-.12932-.09744-.14579-.09671-.14576-.06537-.16222-.06464-.1784-.03221-.16223-.03261-.17782-.0163Zm7.11283,14.5009-.21072.03261-.19455.03261-.17782.06468-.16222.06464-.14578.08112-.11373.097-.11315.11344-.09729.11317-.08111.13017-.06464.12932-.06468.14578-.0485.16222-.03261.16194-.01644.16222-.01617.16223h-.01589l-.01618.14576v.37239l.01618.24276.03206.25948.049.29158.08053.27507.11373.34063.14579.32416.14578.29154.17837.29155.17782.25948.211.25893.21043.2269.22687.21043.2269.211.243.17782.25894.17866.24333.16193.25952.14579.27507.12961.25894.12932.27594.11372.27511.09726.276.08056.534.16223.519.11372.48551.08083.45377.06493.42173.03206.35619.01618.29155.01644.45377-.01644.42144-.01618.42116-.03206.405-.03261.38855-.0485.38883-.06465.35706-.08111.35622-.08111.35619-.09729.32416-.11314.32415-.11373.308-.12961.29155-.14579.29154-.14575.27537-.16194.25952-.1784.12932-.21072.11373-.22661.0967-.21069.06467-.22661.049-.2269.03207-.24334v-.45348l-.03207-.24333-.03261-.22658-.0485-.2269-.06464-.22687-.08112-.2269-.08084-.21043-.19484-.43734-.22687-.40527-.2269-.37265-.24247-.34-.24333-.29154-.22661-.25948-.21073-.21044-.16193-.14578-.13016-.08112h0l.08111.24334.049.27511.03206.308v.32416l-.01588.3236-.03262.308-.08111.29155-.09729.27569-.14576.27537-.16222.25951-.17782.24247-.22661.2269-.25951.22687-.25893.1784-.308.16193-.30772.12961-.35707.09726-.35618.06467-.38884.0485-.42116.01644-.46994-.01644-.42116-.0485-.3888-.08082-.37266-.09758-.32416-.11314-.29154-.14579-.25951-.14576-.243-.16193-.21072-.1784-.194-.19426-.16222-.1784-.14576-.19425-.12932-.19484-.11373-.17782-.1784-.34033-.14575-.34-.14579-.37266-.17782-.35677-.09755-.17782-.09729-.17869-.11314-.16193-.13019-.14576-.14576-.12961-.14579-.11346-.17782-.097-.19455-.06468-.21072-.04905-.22661-.01617Z"/></g></svg>