<svg xmlns="http://www.w3.org/2000/svg" viewBox="0 0 180.52 63.49"><defs><style>.cls-1{fill:#f90;}.cls-1,.cls-2{fill-rule:evenodd;}.cls-2{fill:#232f3e;}</style></defs><g id="amazon"><path class="cls-1" d="M103.27,32.71C97,37.34,87.89,39.81,80,39.81A42,42,0,0,1,51.67,29c-.59-.53-.06-1.25.64-.84A57.12,57.12,0,0,0,80.7,35.67a56.4,56.4,0,0,0,21.66-4.43c1.06-.45,2,.7.91,1.47Z"/><path class="cls-1" d="M105.89,29.72c-.81-1-5.31-.48-7.34-.24-.61.07-.71-.46-.16-.85,3.6-2.53,9.49-1.8,10.18-.95s-.19,6.76-3.55,9.58c-.52.43-1,.2-.79-.38.76-1.89,2.46-6.13,1.66-7.16Z"/><path class="cls-2" d="M98.69,10.79V8.34a.62.62,0,0,1,.63-.63h11a.62.62,0,0,1,.64.62v2.11a3.51,3.51,0,0,1-.83,1.54l-5.7,8.13a12.27,12.27,0,0,1,6.27,1.35,1.14,1.14,0,0,1,.59,1V25c0,.36-.4.78-.81.56a12.67,12.67,0,0,0-11.62,0c-.38.2-.78-.21-.78-.57V22.56a2.86,2.86,0,0,1,.41-1.68l6.6-9.47H99.33a.62.62,0,0,1-.64-.62Z"/><path class="cls-2" d="M120.45,10.9c-2.47,0-2.63,3.36-2.63,5.46s0,6.57,2.59,6.57,2.72-3.61,2.72-5.81a15.85,15.85,0,0,0-.5-4.56,2.09,2.09,0,0,0-2.18-1.66Zm0-3.5c5,0,7.66,4.26,7.66,9.68,0,5.24-3,9.4-7.66,9.4-4.87,0-7.52-4.27-7.52-9.58s2.68-9.5,7.52-9.5Z"/><path class="cls-2" d="M93.3,26.07a.71.71,0,0,1-.79.08,8.93,8.93,0,0,1-1.92-2.23,6.62,6.62,0,0,1-5.51,2.43c-2.82,0-5-1.74-5-5.21a5.67,5.67,0,0,1,3.57-5.47c1.81-.8,4.35-.94,6.29-1.16,0,0,.16-2.1-.41-2.86a2.35,2.35,0,0,0-1.88-.87,2.55,2.55,0,0,0-2.68,2c-.06.37-.34.68-.63.65l-3.2-.35a.59.59,0,0,1-.5-.7c.75-3.93,4.3-5.12,7.48-5.12a7.54,7.54,0,0,1,5,1.67c1.63,1.52,1.47,3.55,1.47,5.76v5.21A4.58,4.58,0,0,0,95.88,23a.62.62,0,0,1,0,.89c-.68.57-2.57,2.21-2.57,2.21Zm-3.37-8.16a6.54,6.54,0,0,1-.63,3.55A2.72,2.72,0,0,1,87,23c-1.29,0-2-1-2-2.42,0-2.85,2.56-3.37,5-3.37v.72Z"/><path class="cls-2" d="M49.44,26.07a.71.71,0,0,1-.79.08,8.93,8.93,0,0,1-1.92-2.23,6.64,6.64,0,0,1-5.52,2.43c-2.81,0-5-1.74-5-5.21a5.67,5.67,0,0,1,3.57-5.47c1.81-.8,4.35-.94,6.29-1.16,0,0,.16-2.1-.41-2.86a2.35,2.35,0,0,0-1.88-.87,2.55,2.55,0,0,0-2.68,2c-.06.37-.34.68-.63.65l-3.2-.35a.59.59,0,0,1-.5-.7c.74-3.93,4.3-5.12,7.48-5.12a7.54,7.54,0,0,1,5,1.67c1.63,1.52,1.47,3.55,1.47,5.76v5.21A4.58,4.58,0,0,0,52,23a.62.62,0,0,1,0,.89c-.68.57-2.57,2.21-2.57,2.21Zm-3.37-8.16a6.54,6.54,0,0,1-.63,3.55A2.72,2.72,0,0,1,43.12,23c-1.28,0-2-1-2-2.42,0-2.85,2.56-3.37,5-3.37v.72Z"/><path class="cls-2" d="M59.22,16.39c0-2-.09-4.73,2.31-4.73s2.07,2.82,2.07,4.73V25.5a.62.62,0,0,0,.6.61h3.34a.63.63,0,0,0,.65-.61V16.39a10.43,10.43,0,0,1,.31-3.28,2.21,2.21,0,0,1,2-1.41,1.74,1.74,0,0,1,2,1.48,22.82,22.82,0,0,1,.09,3.21V25.5a.62.62,0,0,0,.6.61H76.5a.63.63,0,0,0,.65-.61V14.66c0-1.84.22-3.94-.84-5.38a4.95,4.95,0,0,0-8.5,1.3c-.93-2.17-2.25-3.18-4.34-3.18a4.41,4.41,0,0,0-4.4,3.18H59V8.38a.62.62,0,0,0-.62-.62H55.26a.63.63,0,0,0-.63.62V25.49a.63.63,0,0,0,.63.62H58.6a.62.62,0,0,0,.62-.62v-9.1Z"/><path class="cls-2" d="M135.16,25.49a.63.63,0,0,1-.63.62h-3.34a.62.62,0,0,1-.62-.62V8.38a.62.62,0,0,1,.62-.62h3.09a.62.62,0,0,1,.63.49v2.62H135c.94-2.35,2.25-3.47,4.56-3.47a4.4,4.4,0,0,1,3.91,2c.87,1.37.87,3.69.87,5.35v10.8a.63.63,0,0,1-.64.54h-3.36a.61.61,0,0,1-.59-.54V15.2c0-3.47-1.33-3.58-2.09-3.58A2.3,2.3,0,0,0,135.7,13a7.74,7.74,0,0,0-.54,3.28v9.24Z"/></g><g id="dbsj"><path d="M9.42,54.39H8V48.06H9.42v.39h-.9V54h.9Z"/><path d="M10.71,53.5h-.58V47.89h.58Z"/><path d="M12.15,49a.4.4,0,0,1,0-.79.37.37,0,0,1,.38.39A.38.38,0,0,1,12.15,49Zm.3,4.49h-.58V49.68h.58Z"/><path d="M15.39,50.26a1.38,1.38,0,0,0-.74-.22.58.58,0,0,0-.65.56c0,.33.22.49.71.7s1,.57,1,1.15-.52,1.12-1.35,1.12a2.05,2.05,0,0,1-1-.25l.16-.45a1.78,1.78,0,0,0,.86.26c.51,0,.77-.28.77-.62s-.21-.55-.71-.76c-.65-.26-1-.61-1-1.07a1.13,1.13,0,0,1,1.25-1.09,1.67,1.67,0,0,1,.88.23Z"/><path d="M16.72,49l.58-.2v.89h1v.46h-1v2.2c0,.49.15.75.52.75a1.32,1.32,0,0,0,.39-.05l0,.44a1.36,1.36,0,0,1-.56.09c-.93,0-1-.84-1-1.24V50.14h-.58v-.46h.58Z"/><path d="M27.27,53.5h-.58V51.29c0-.74-.27-1.22-.84-1.22a1,1,0,0,0-.9,1V53.5h-.57V51.14c0-.61-.26-1.07-.8-1.07a1,1,0,0,0-.94,1.09V53.5h-.57V50.66c0-.39,0-.67,0-1h.51l0,.62h0a1.27,1.27,0,0,1,1.16-.7,1.09,1.09,0,0,1,1,.76h0a1.34,1.34,0,0,1,1.22-.76c.47,0,1.22.3,1.22,1.61Z"/><path d="M30.89,52.59a5.28,5.28,0,0,0,.06.91h-.54L30.36,53h0a1.34,1.34,0,0,1-1.13.57A1.05,1.05,0,0,1,28.1,52.5c0-.92.79-1.42,2.21-1.41,0-.32,0-1.05-.87-1.05a1.66,1.66,0,0,0-.93.27l-.14-.4a2.19,2.19,0,0,1,1.16-.32c1.08,0,1.36.76,1.36,1.52Zm-.57-1.08c-.73,0-1.63.11-1.63.92a.63.63,0,0,0,.66.7.93.93,0,0,0,1-.89Z"/><path d="M33.75,50.17h-.21c-.63,0-.95.62-.95,1.26V53.5H32V50.82q0-.6,0-1.14h.51l0,.74h0a1.14,1.14,0,0,1,1-.82l.17,0Z"/><path d="M37.39,53.5h-.71l-1.32-1.89L35,52V53.5h-.58V47.89H35v3.57h0l.32-.43,1.15-1.35h.7l-1.44,1.58Z"/><path d="M39.7,50.26A1.39,1.39,0,0,0,39,50a.57.57,0,0,0-.64.56c0,.33.22.49.71.7s1,.57,1,1.15-.52,1.12-1.35,1.12a2.05,2.05,0,0,1-1-.25l.16-.45a1.78,1.78,0,0,0,.86.26c.51,0,.76-.28.76-.62s-.2-.55-.71-.76-1-.61-1-1.07A1.13,1.13,0,0,1,39,49.59a1.64,1.64,0,0,1,.87.23Z"/><path d="M40.44,48.06h1.38v6.33H40.44V54h.9V48.45h-.9Z"/><path d="M48.57,52.59a5.32,5.32,0,0,0,0,.91h-.53L48,53h0a1.3,1.3,0,0,1-1.12.57,1.06,1.06,0,0,1-1.12-1.08c0-.92.8-1.42,2.22-1.41,0-.32,0-1.05-.87-1.05a1.66,1.66,0,0,0-.93.27l-.14-.4a2.16,2.16,0,0,1,1.16-.32c1.08,0,1.36.76,1.36,1.52ZM48,51.51c-.72,0-1.62.11-1.62.92a.63.63,0,0,0,.66.7.93.93,0,0,0,1-.89Z"/><path d="M52.74,53.5h-.58V51.24c0-.62-.22-1.17-.89-1.17a1,1,0,0,0-1,1.09V53.5h-.58V50.66c0-.39,0-.68,0-1h.52l0,.63h0a1.36,1.36,0,0,1,1.22-.71c.48,0,1.29.29,1.29,1.58Z"/><path d="M57,52.55c0,.31,0,.69,0,1h-.52l0-.65h0a1.35,1.35,0,0,1-1.25.73c-.88,0-1.57-.76-1.57-1.94s.76-2,1.65-2a1.22,1.22,0,0,1,1.11.58h0V47.89H57Zm-.58-1.34a1.05,1.05,0,0,0-1-1.14c-.73,0-1.15.67-1.15,1.54s.38,1.49,1.12,1.49a1.1,1.1,0,0,0,1.06-1.16Z"/><path d="M63.61,52.59a5.28,5.28,0,0,0,.06.91h-.53L63.08,53h0a1.34,1.34,0,0,1-1.13.57,1.05,1.05,0,0,1-1.11-1.08c0-.92.8-1.42,2.21-1.41,0-.32,0-1.05-.87-1.05a1.66,1.66,0,0,0-.93.27l-.14-.4a2.21,2.21,0,0,1,1.16-.32c1.08,0,1.36.76,1.36,1.52ZM63,51.51c-.72,0-1.63.11-1.63.92a.63.63,0,0,0,.66.7.93.93,0,0,0,1-.89Z"/><path d="M65.31,53.5h-.58V47.89h.58Z"/><path d="M67.05,53.5h-.58V47.89h.58Z"/><path d="M73,50.17h-.21c-.63,0-1,.62-1,1.26V53.5h-.59V50.82c0-.4,0-.78,0-1.14h.51l0,.74h0a1.13,1.13,0,0,1,1-.82l.18,0Z"/><path d="M76.35,53.34a2.91,2.91,0,0,1-1.2.23,1.74,1.74,0,0,1-1.78-1.92c0-1.2.68-2.06,1.71-2.06a1.55,1.55,0,0,1,1.47,1.74,3.22,3.22,0,0,1,0,.33h-2.6c0,1.05.61,1.45,1.3,1.45a2.59,2.59,0,0,0,1-.19ZM76,51.22c0-.52-.21-1.19-1-1.19S74,50.7,74,51.22Z"/><path d="M78,53.5h-.58V47.89H78Z"/><path d="M81.66,52.59a5.32,5.32,0,0,0,0,.91h-.53L81.12,53h0a1.32,1.32,0,0,1-1.13.57,1.06,1.06,0,0,1-1.11-1.08c0-.92.8-1.42,2.21-1.41,0-.32,0-1.05-.86-1.05a1.69,1.69,0,0,0-.94.27l-.14-.4a2.22,2.22,0,0,1,1.17-.32c1.08,0,1.36.76,1.36,1.52Zm-.58-1.08c-.72,0-1.62.11-1.62.92a.62.62,0,0,0,.65.7.93.93,0,0,0,1-.89Z"/><path d="M82.93,49l.57-.2v.89h1v.46h-1v2.2c0,.49.15.75.52.75a1.23,1.23,0,0,0,.39-.05l0,.44a1.41,1.41,0,0,1-.57.09c-.92,0-.95-.84-.95-1.24V50.14h-.59v-.46h.59Z"/><path d="M88,53.34a2.91,2.91,0,0,1-1.2.23A1.73,1.73,0,0,1,85,51.65c0-1.2.67-2.06,1.7-2.06a1.55,1.55,0,0,1,1.48,1.74c0,.14,0,.23,0,.33h-2.6c0,1.05.61,1.45,1.29,1.45a2.51,2.51,0,0,0,1-.19Zm-.38-2.12c0-.52-.21-1.19-1-1.19s-1,.67-1.07,1.19Z"/><path d="M92.11,52.55c0,.31,0,.69,0,1h-.52l0-.65h0a1.35,1.35,0,0,1-1.25.73c-.88,0-1.57-.76-1.57-1.94s.76-2,1.65-2a1.22,1.22,0,0,1,1.11.58h0V47.89h.58Zm-.58-1.34a1.05,1.05,0,0,0-1-1.14c-.73,0-1.15.67-1.15,1.54s.38,1.49,1.13,1.49a1.1,1.1,0,0,0,1-1.16Z"/><path d="M96.85,53.5h-.58V47.89h.58Z"/><path d="M101.25,51.56a1.81,1.81,0,0,1-1.78,2,1.77,1.77,0,0,1-1.74-2,1.81,1.81,0,0,1,1.79-2A1.76,1.76,0,0,1,101.25,51.56ZM99.49,50c-.82,0-1.17.82-1.17,1.55s.47,1.54,1.16,1.54,1.18-.69,1.18-1.55C100.66,50.9,100.33,50,99.49,50Z"/><path d="M105.23,49.67c0,.28,0,.58,0,1V53c0,.67,0,2.19-1.82,2.19a2.25,2.25,0,0,1-1.2-.3l.16-.45a2.14,2.14,0,0,0,1.07.28c.7,0,1.21-.37,1.21-1.38v-.45h0a1.29,1.29,0,0,1-1.18.65,1.69,1.69,0,0,1-1.56-1.88,1.8,1.8,0,0,1,1.65-2,1.23,1.23,0,0,1,1.16.66h0l0-.58Zm-.62,1.47a1,1,0,0,0-1-1.08c-.68,0-1.15.59-1.15,1.52s.4,1.45,1.14,1.45a1,1,0,0,0,1-1.12Z"/><path d="M109.59,51.56a1.81,1.81,0,0,1-1.79,2,1.76,1.76,0,0,1-1.73-2,1.81,1.81,0,0,1,1.78-2A1.76,1.76,0,0,1,109.59,51.56ZM107.83,50c-.83,0-1.17.82-1.17,1.55s.47,1.54,1.16,1.54,1.17-.69,1.17-1.55C109,50.9,108.66,50,107.83,50Z"/><path d="M112.26,50.26a1.39,1.39,0,0,0-.75-.22.57.57,0,0,0-.64.56c0,.33.22.49.71.7s1,.57,1,1.15-.52,1.12-1.35,1.12a2.05,2.05,0,0,1-1-.25l.16-.45a1.78,1.78,0,0,0,.86.26c.51,0,.76-.28.76-.62s-.2-.55-.71-.76-1-.61-1-1.07a1.13,1.13,0,0,1,1.25-1.09,1.64,1.64,0,0,1,.87.23Z"/><path d="M119,52.59a5.32,5.32,0,0,0,.05.91h-.53l0-.49h0a1.3,1.3,0,0,1-1.12.57,1.06,1.06,0,0,1-1.12-1.08c0-.92.8-1.42,2.22-1.41,0-.32,0-1.05-.87-1.05a1.66,1.66,0,0,0-.93.27l-.14-.4a2.16,2.16,0,0,1,1.16-.32c1.08,0,1.36.76,1.36,1.52Zm-.58-1.08c-.72,0-1.62.11-1.62.92a.63.63,0,0,0,.66.7.93.93,0,0,0,1-.89Z"/><path d="M121.82,50.17h-.21c-.63,0-1,.62-1,1.26V53.5h-.58V50.82q0-.6,0-1.14h.51l0,.74h0a1.14,1.14,0,0,1,1-.82l.17,0Z"/><path d="M125.2,53.34a2.87,2.87,0,0,1-1.2.23,1.73,1.73,0,0,1-1.77-1.92c0-1.2.67-2.06,1.7-2.06a1.56,1.56,0,0,1,1.48,1.74,2.92,2.92,0,0,1,0,.33h-2.6c0,1.05.61,1.45,1.3,1.45a2.59,2.59,0,0,0,1-.19Zm-.37-2.12c0-.52-.21-1.19-1-1.19s-1,.67-1.06,1.19Z"/><path d="M129.45,49l.57-.2v.89h1v.46h-1v2.2c0,.49.15.75.52.75a1.32,1.32,0,0,0,.39-.05l0,.44a1.44,1.44,0,0,1-.57.09c-.93,0-1-.84-1-1.24V50.14h-.59v-.46h.59Z"/><path d="M133.51,50.17h-.21c-.63,0-1,.62-1,1.26V53.5h-.58V50.82q0-.6,0-1.14h.51l0,.74h0a1.14,1.14,0,0,1,1-.82l.17,0Z"/><path d="M136.69,52.59a5.28,5.28,0,0,0,.06.91h-.53l-.06-.49h0a1.34,1.34,0,0,1-1.13.57,1.05,1.05,0,0,1-1.11-1.08c0-.92.8-1.42,2.21-1.41,0-.32,0-1.05-.87-1.05a1.66,1.66,0,0,0-.93.27l-.14-.4a2.21,2.21,0,0,1,1.16-.32c1.08,0,1.36.76,1.36,1.52Zm-.57-1.08c-.72,0-1.63.11-1.63.92a.63.63,0,0,0,.66.7.93.93,0,0,0,1-.89Z"/><path d="M140.89,52.55c0,.31,0,.69,0,1h-.52l0-.65h0a1.33,1.33,0,0,1-1.24.73c-.89,0-1.57-.76-1.57-1.94s.75-2,1.64-2a1.25,1.25,0,0,1,1.12.58h0V47.89h.58Zm-.58-1.34a1.05,1.05,0,0,0-1-1.14c-.72,0-1.15.67-1.15,1.54s.38,1.49,1.13,1.49a1.1,1.1,0,0,0,1.05-1.16Z"/><path d="M144.74,53.34a2.87,2.87,0,0,1-1.2.23,1.73,1.73,0,0,1-1.77-1.92c0-1.2.67-2.06,1.7-2.06A1.56,1.56,0,0,1,145,51.33a2.92,2.92,0,0,1,0,.33h-2.6c0,1.05.61,1.45,1.3,1.45a2.59,2.59,0,0,0,1-.19Zm-.37-2.12c0-.52-.21-1.19-1-1.19s-1,.67-1.06,1.19Z"/><path d="M151,53.5h-.58V51.29c0-.74-.26-1.22-.84-1.22a1,1,0,0,0-.89,1V53.5h-.58V51.14c0-.61-.26-1.07-.8-1.07a1,1,0,0,0-.93,1.09V53.5h-.58V50.66c0-.39,0-.67,0-1h.51l0,.62h0a1.27,1.27,0,0,1,1.16-.7,1.1,1.1,0,0,1,1.05.76h0a1.35,1.35,0,0,1,1.23-.76c.47,0,1.21.3,1.21,1.61Z"/><path d="M154.63,52.59a5.28,5.28,0,0,0,.06.91h-.53L154.1,53h0a1.34,1.34,0,0,1-1.13.57,1.05,1.05,0,0,1-1.11-1.08c0-.92.8-1.42,2.21-1.41,0-.32,0-1.05-.87-1.05a1.66,1.66,0,0,0-.93.27l-.14-.4a2.21,2.21,0,0,1,1.16-.32c1.08,0,1.36.76,1.36,1.52Zm-.57-1.08c-.72,0-1.63.11-1.63.92a.63.63,0,0,0,.66.7.93.93,0,0,0,1-.89Z"/><path d="M157.5,50.17h-.21c-.63,0-1,.62-1,1.26V53.5h-.58V50.82q0-.6,0-1.14h.51l0,.74h0a1.14,1.14,0,0,1,1-.82l.18,0Z"/><path d="M161.14,53.5h-.72l-1.32-1.89-.35.4V53.5h-.58V47.89h.58v3.57h0c.09-.13.22-.3.33-.43l1.14-1.35h.7l-1.44,1.58Z"/><path d="M163.44,50.26a1.38,1.38,0,0,0-.74-.22.58.58,0,0,0-.65.56c0,.33.22.49.71.7s1,.57,1,1.15-.52,1.12-1.35,1.12a2.05,2.05,0,0,1-1-.25l.16-.45a1.78,1.78,0,0,0,.86.26c.51,0,.77-.28.77-.62s-.21-.55-.71-.76c-.65-.26-1-.61-1-1.07a1.13,1.13,0,0,1,1.25-1.09,1.67,1.67,0,0,1,.88.23Z"/><path d="M170.88,51.56a1.81,1.81,0,0,1-1.78,2,1.77,1.77,0,0,1-1.74-2,1.81,1.81,0,0,1,1.79-2A1.76,1.76,0,0,1,170.88,51.56ZM169.13,50c-.83,0-1.17.82-1.17,1.55s.47,1.54,1.15,1.54,1.18-.69,1.18-1.55C170.29,50.9,170,50,169.13,50Z"/><path d="M171.83,49.68a2.08,2.08,0,0,1,.42-1.53,1.27,1.27,0,0,1,.88-.34,1.59,1.59,0,0,1,.57.11l-.1.46a1.16,1.16,0,0,0-.44-.09c-.6,0-.75.56-.75,1.17v.22h.92v.46h-.92V53.5h-.58V50.14h-.53v-.46Z"/><path d="M11.8,60.5h-.62l-.57-1.73H8.75L8.19,60.5H7.6l1.76-5.34H10Zm-1.31-2.2L10,56.72c-.11-.36-.2-.7-.27-1h0c-.07.32-.17.66-.27,1l-.53,1.6Z"/><path d="M17.75,60.5h-.57V58.29c0-.74-.27-1.22-.85-1.22a1,1,0,0,0-.89,1V60.5h-.58V58.14c0-.61-.26-1.07-.79-1.07a1,1,0,0,0-.94,1.09V60.5h-.58V57.66c0-.39,0-.67,0-1H13l0,.62h0a1.27,1.27,0,0,1,1.16-.7,1.1,1.1,0,0,1,1.05.76h0a1.35,1.35,0,0,1,1.23-.76c.47,0,1.21.3,1.21,1.61Z"/><path d="M21.37,59.59a5.28,5.28,0,0,0,.06.91H20.9L20.84,60h0a1.34,1.34,0,0,1-1.13.57,1.05,1.05,0,0,1-1.11-1.08c0-.92.8-1.42,2.21-1.41,0-.32,0-1.05-.87-1.05a1.68,1.68,0,0,0-.93.27l-.14-.4A2.22,2.22,0,0,1,20,56.59c1.07,0,1.35.76,1.35,1.52Zm-.57-1.08c-.72,0-1.63.11-1.63.92a.63.63,0,0,0,.66.7.93.93,0,0,0,1-.89Z"/><path d="M25,56.68v.37l-1.75,2.38c-.15.21-.29.39-.44.58H25v.48H22.05v-.35l1.76-2.4.45-.58H22.21v-.48Z"/><path d="M28.93,58.56a1.81,1.81,0,0,1-1.78,2,1.77,1.77,0,0,1-1.74-2,1.81,1.81,0,0,1,1.79-2A1.76,1.76,0,0,1,28.93,58.56ZM27.18,57c-.83,0-1.17.82-1.17,1.55s.47,1.54,1.15,1.54,1.18-.69,1.18-1.55C28.34,57.9,28,57,27.18,57Z"/><path d="M32.87,60.5h-.58V58.24c0-.62-.23-1.17-.89-1.17a1,1,0,0,0-1,1.09V60.5h-.59V57.66c0-.39,0-.68,0-1h.51l0,.63h0a1.37,1.37,0,0,1,1.23-.71c.48,0,1.29.29,1.29,1.58Z"/><path d="M33.83,60.14a.43.43,0,0,1,.42-.46.42.42,0,0,1,.42.46.42.42,0,1,1-.84,0Z"/><path d="M38.1,60.36a2.56,2.56,0,0,1-1,.21,1.77,1.77,0,0,1-1.81-1.94,1.9,1.9,0,0,1,2-2,2.24,2.24,0,0,1,.92.2l-.15.47a1.55,1.55,0,0,0-.78-.19,1.37,1.37,0,0,0-1.35,1.52,1.35,1.35,0,0,0,1.33,1.51,2,2,0,0,0,.82-.19Z"/><path d="M42.15,58.56a1.81,1.81,0,0,1-1.79,2,1.76,1.76,0,0,1-1.73-2,1.81,1.81,0,0,1,1.78-2A1.76,1.76,0,0,1,42.15,58.56ZM40.39,57c-.82,0-1.17.82-1.17,1.55s.47,1.54,1.16,1.54,1.17-.69,1.17-1.55C41.55,57.9,41.23,57,40.39,57Z"/><path d="M48.23,60.5h-.58V58.29c0-.74-.26-1.22-.84-1.22a1,1,0,0,0-.89,1V60.5h-.58V58.14c0-.61-.26-1.07-.8-1.07a1,1,0,0,0-.94,1.09V60.5H43V57.66c0-.39,0-.67,0-1h.51l0,.62h0a1.27,1.27,0,0,1,1.16-.7,1.11,1.11,0,0,1,1.05.76h0A1.35,1.35,0,0,1,47,56.59c.46,0,1.21.3,1.21,1.61Z"/><path d="M50.07,59.58a10.91,10.91,0,0,1-.71,1.86l-.43,0a11.78,11.78,0,0,0,.46-1.82Z"/><path d="M52.54,55.16h.58V60.5h-.58Z"/><path d="M57.35,60.5h-.58V58.24c0-.62-.22-1.17-.89-1.17a1,1,0,0,0-1,1.09V60.5H54.3V57.66c0-.39,0-.68,0-1h.52l0,.63h0a1.36,1.36,0,0,1,1.22-.71c.48,0,1.29.29,1.29,1.58Z"/><path d="M61.06,60.36a2.56,2.56,0,0,1-1,.21,1.77,1.77,0,0,1-1.81-1.94,1.9,1.9,0,0,1,1.95-2,2.24,2.24,0,0,1,.92.2l-.15.47a1.55,1.55,0,0,0-.78-.19,1.37,1.37,0,0,0-1.35,1.52,1.34,1.34,0,0,0,1.32,1.51,2,2,0,0,0,.83-.19Z"/><path d="M61.71,60.14a.42.42,0,1,1,.83,0,.42.42,0,1,1-.83,0Z"/><path d="M68.27,58.56a1.81,1.81,0,0,1-1.79,2,1.77,1.77,0,0,1-1.74-2,1.82,1.82,0,0,1,1.79-2A1.77,1.77,0,0,1,68.27,58.56ZM66.51,57c-.83,0-1.17.82-1.17,1.55s.47,1.54,1.15,1.54,1.18-.69,1.18-1.55C67.67,57.9,67.34,57,66.51,57Z"/><path d="M70.89,57.17h-.21c-.63,0-1,.62-1,1.26V60.5h-.58V57.82q0-.6,0-1.14h.51l0,.74h0a1.14,1.14,0,0,1,1-.82l.17,0Z"/><path d="M73.49,56a.4.4,0,0,1,0-.79.4.4,0,0,1,0,.79Zm.29,4.49H73.2V56.68h.58Z"/><path d="M75.09,56l.57-.2v.89h1v.46h-1v2.2c0,.49.15.75.52.75a1.23,1.23,0,0,0,.39-.05l0,.44a1.41,1.41,0,0,1-.57.09c-.92,0-1-.84-1-1.24V57.14H74.5v-.46h.59Z"/><path d="M79.2,57.26a1.38,1.38,0,0,0-.74-.22.58.58,0,0,0-.65.56c0,.33.22.49.71.7s1,.57,1,1.15-.51,1.12-1.35,1.12a2.05,2.05,0,0,1-1-.25l.16-.45a1.78,1.78,0,0,0,.86.26c.51,0,.77-.28.77-.62s-.21-.55-.71-.76c-.65-.26-1-.61-1-1.07a1.12,1.12,0,0,1,1.24-1.09,1.67,1.67,0,0,1,.88.23Z"/><path d="M84.51,59.59a5.28,5.28,0,0,0,.06.91H84L84,60h0a1.34,1.34,0,0,1-1.13.57,1.05,1.05,0,0,1-1.11-1.08c0-.92.8-1.42,2.21-1.41,0-.32,0-1.05-.87-1.05a1.66,1.66,0,0,0-.93.27l-.14-.4a2.21,2.21,0,0,1,1.16-.32c1.08,0,1.36.76,1.36,1.52Zm-.57-1.08c-.72,0-1.63.11-1.63.92a.63.63,0,0,0,.66.7.93.93,0,0,0,1-.89Z"/><path d="M85.17,57.14v-.46h.52v-.15c0-1,.53-1.63,1.38-1.63a1.6,1.6,0,0,1,.65.15l-.18.45a1,1,0,0,0-.48-.13c-.78,0-.78.9-.78,1.31h1.63v-.22a1.48,1.48,0,0,1,1.56-1.65,1.78,1.78,0,0,1,.9.24l-.19.45a1.37,1.37,0,0,0-.75-.21c-.94,0-.94.85-.94,1.39h2.13V60.5H90V57.14H88.49V60.5h-.58V57.14H86.28V60.5h-.59V57.14Z"/><path d="M92.35,60.5h-.58V54.89h.58Z"/><path d="M93.79,56a.4.4,0,0,1,0-.79.37.37,0,0,1,.38.39A.38.38,0,0,1,93.79,56Zm.3,4.49h-.58V56.68h.58Z"/><path d="M97.74,59.59a5.28,5.28,0,0,0,.06.91h-.53L97.21,60h0a1.34,1.34,0,0,1-1.13.57A1.05,1.05,0,0,1,95,59.5c0-.92.8-1.42,2.21-1.41,0-.32,0-1.05-.87-1.05a1.66,1.66,0,0,0-.93.27l-.14-.4a2.21,2.21,0,0,1,1.16-.32c1.08,0,1.36.76,1.36,1.52Zm-.57-1.08c-.72,0-1.63.11-1.63.92a.63.63,0,0,0,.66.7.93.93,0,0,0,1-.89Z"/><path d="M99,56l.57-.2v.89h1v.46h-1v2.2c0,.49.15.75.52.75a1.32,1.32,0,0,0,.39-.05l0,.44a1.36,1.36,0,0,1-.56.09c-.93,0-1-.84-1-1.24V57.14h-.59v-.46H99Z"/><path d="M104,60.34a2.83,2.83,0,0,1-1.2.23,1.73,1.73,0,0,1-1.77-1.92c0-1.2.67-2.06,1.7-2.06a1.56,1.56,0,0,1,1.48,1.74,2.92,2.92,0,0,1,0,.33h-2.6c0,1.05.61,1.45,1.3,1.45a2.55,2.55,0,0,0,1-.19Zm-.37-2.12c0-.52-.21-1.19-1-1.19s-1,.67-1.06,1.19Z"/><path d="M106.9,57.26a1.38,1.38,0,0,0-.74-.22.58.58,0,0,0-.65.56c0,.33.22.49.71.7s1,.57,1,1.15-.52,1.12-1.35,1.12a2.05,2.05,0,0,1-1-.25l.16-.45a1.78,1.78,0,0,0,.86.26c.51,0,.76-.28.76-.62s-.2-.55-.7-.76c-.65-.26-1-.61-1-1.07a1.13,1.13,0,0,1,1.25-1.09,1.7,1.7,0,0,1,.88.23Z"/><path d="M107.92,60.14a.42.42,0,1,1,.83,0,.42.42,0,1,1-.83,0Z"/></g></svg>