<svg xmlns="http://www.w3.org/2000/svg" viewBox="0 0 180.51692 63.49203"><defs><style>.a{fill:#00b900;}</style></defs><title>logo_line</title><path class="a" d="M77.73654,17.624H73.56308a1.15835,1.15835,0,0,0-1.15972,1.15769V44.71052a1.15828,1.15828,0,0,0,1.15972,1.15735h4.17346a1.15821,1.15821,0,0,0,1.15938-1.15735V18.78171A1.15828,1.15828,0,0,0,77.73654,17.624"/><path class="a" d="M106.46758,17.624h-4.17414a1.1588,1.1588,0,0,0-1.15973,1.15769V34.18593L89.25117,18.13877a1.12924,1.12924,0,0,0-.09078-.11763l-.00748-.00816c-.02176-.02448-.04454-.04794-.06834-.07073l-.02141-.01937c-.02007-.018-.04047-.03536-.06154-.05236l-.0306-.02278c-.02007-.01428-.03978-.02822-.06052-.04114-.01123-.00748-.02312-.01428-.035-.02142-.0204-.0119-.04114-.0238-.06257-.03434-.01189-.00646-.02379-.0119-.036-.01768-.02211-.00986-.04386-.01972-.06631-.02855l-.03705-.01361c-.02278-.00782-.0459-.0153-.069-.0221l-.04047-.0102c-.0221-.00543-.04453-.01088-.067-.015-.01632-.00306-.0323-.00509-.04862-.00714-.02074-.00306-.04046-.00578-.0612-.00748-.0204-.002-.04047-.00238-.06086-.00306-.01292-.00067-.02584-.002-.03876-.002H84.11348a1.15851,1.15851,0,0,0-1.15939,1.15769V44.71052a1.15844,1.15844,0,0,0,1.15939,1.15735h4.17414A1.15844,1.15844,0,0,0,89.447,44.71052V29.31106L101.3445,45.37827a1.15313,1.15313,0,0,0,.29308.28628l.01292.00918c.02346.0153.0476.02958.07175.04318.01053.00612.02175.01258.03331.018.01768.00952.03638.01836.05508.02686.01836.00816.03638.01632.05508.0238l.03638.01326c.02516.00918.052.01768.07819.02516l.01667.00442a1.16789,1.16789,0,0,0,.29648.03944h4.17414a1.15843,1.15843,0,0,0,1.15938-1.15735V18.78171a1.1585,1.1585,0,0,0-1.15938-1.15769"/><path class="a" d="M67.67479,39.375H56.33352V18.78178a1.15857,1.15857,0,0,0-1.15972-1.15769H51a1.15857,1.15857,0,0,0-1.15973,1.15769V44.71025a1.14993,1.14993,0,0,0,.324.801l.01564.01735.017.01564a1.15348,1.15348,0,0,0,.80137.32367H67.67479a1.15842,1.15842,0,0,0,1.15734-1.15939V40.53441A1.15843,1.15843,0,0,0,67.67479,39.375"/><path class="a" d="M129.519,24.11683a1.1585,1.1585,0,0,0,1.15769-1.15938V18.78331a1.15851,1.15851,0,0,0-1.15769-1.15939H112.84247a1.15,1.15,0,0,0-.80409.32674l-.01394.01257-.0187.02041a1.15194,1.15194,0,0,0-.32062.798V44.71042a1.15091,1.15091,0,0,0,.32334.8007l.016.01733.01733.016a1.15118,1.15118,0,0,0,.8007.32368H129.519a1.15857,1.15857,0,0,0,1.15769-1.15972v-4.1738A1.15829,1.15829,0,0,0,129.519,39.3752H118.17769V34.9923H129.519a1.1585,1.1585,0,0,0,1.15769-1.15938V29.65878a1.15822,1.15822,0,0,0-1.15769-1.15905H118.17769v-4.3829Z"/></svg>