<svg xmlns="http://www.w3.org/2000/svg" xmlns:xlink="http://www.w3.org/1999/xlink" viewBox="0 0 180.51692 63.49203"><defs><style>.a{fill:none;}.b{fill:#201e1f;}.c{clip-path:url(#a);}.d{fill:#006838;}.e{fill:#016938;}.f{fill:#026938;}.g{fill:#036a38;}.h{fill:#046b38;}.i{fill:#056b37;}.j{fill:#066c37;}.k{fill:#076d37;}.l{fill:#086d37;}.m{fill:#086e37;}.n{fill:#096e37;}.o{fill:#0a6f37;}.p{fill:#0b6f37;}.q{fill:#0b7037;}.r{fill:#0c7036;}.s{fill:#0d7136;}.t{fill:#0e7136;}.u{fill:#0e7236;}.v{fill:#0f7236;}.w{fill:#107336;}.x{fill:#117436;}.y{fill:#127436;}.z{fill:#127536;}.aa{fill:#137536;}.ab{fill:#147635;}.ac{fill:#157635;}.ad{fill:#157735;}.ae{fill:#167735;}.af{fill:#177835;}.ag{fill:#187835;}.ah{fill:#187935;}.ai{fill:#197935;}.aj{fill:#197a35;}.ak{fill:#1a7a35;}.al{fill:#1b7a35;}.am{fill:#1b7b34;}.an{fill:#1c7b34;}.ao{fill:#1c7c34;}.ap{fill:#1d7c34;}.aq{fill:#1e7c34;}.ar{fill:#1e7d34;}.as{fill:#1f7d34;}.at{fill:#1f7e34;}.au{fill:#207e34;}.av{fill:#217e34;}.aw{fill:#217f34;}.ax{fill:#227f34;}.ay{fill:#228033;}.az{fill:#238033;}.ba{fill:#248133;}.bb{fill:#258133;}.bc{fill:#258233;}.bd{fill:#268233;}.be{fill:#278333;}.bf{fill:#288333;}.bg{fill:#288433;}.bh{fill:#298433;}.bi{fill:#2a8532;}.bj{fill:#2b8632;}.bk{fill:#2c8632;}.bl{fill:#2d8732;}.bm{fill:#2e8832;}.bn{fill:#2f8832;}.bo{fill:#308932;}.bp{fill:#318a32;}.bq{fill:#318a31;}.br{fill:#328a31;}.bs{fill:#338b31;}.bt{fill:#348c31;}.bu{fill:#358c31;}.bv{fill:#368d31;}.bw{fill:#378e31;}.bx{fill:#388e31;}.by{fill:#398f31;}.bz{fill:#398f30;}.ca{fill:#3a9030;}.cb{fill:#3b9030;}.cc{fill:#3b9130;}.cd{fill:#3c9130;}.ce{fill:#3d9230;}.cf{fill:#3e9230;}.cg{fill:#3e9330;}.ch{fill:#3f9330;}.ci{fill:#409430;}.cj{fill:#40942f;}.ck{fill:#41952f;}.cl{fill:#42952f;}.cm{fill:#42962f;}.cn{fill:#43962f;}.co{fill:#44972f;}.cp{fill:#45972f;}.cq{fill:#45982f;}.cr{fill:#46982f;}.cs{fill:#47992f;}.ct{fill:#48992e;}.cu{fill:#489a2e;}.cv{fill:#499a2e;}.cw{fill:#4a9b2e;}.cx{fill:#4b9b2e;}.cy{fill:#4b9c2e;}.cz{fill:#4c9c2e;}.da{fill:#4c9d2e;}.db{fill:#4d9d2e;}.dc{fill:#4e9d2e;}.dd{fill:#4e9e2e;}.de{fill:#4f9e2e;}.df{fill:#4f9f2d;}.dg{fill:#509f2d;}.dh{fill:#519f2d;}.di{fill:#51a02d;}.dj{fill:#52a02d;}.dk{fill:#52a12d;}.dl{fill:#53a12d;}.dm{fill:#54a22d;}.dn{fill:#55a22d;}.do{fill:#55a32d;}.dp{fill:#56a32d;}.dq{fill:#56a32c;}.dr{fill:#57a42c;}.ds{fill:#58a42c;}.dt{fill:#58a52c;}.du{fill:#59a52c;}.dv{fill:#5aa62c;}.dw{fill:#5ba72c;}.dx{fill:#5ca72c;}.dy{fill:#5da82c;}.dz{fill:#5ea92b;}.ea{fill:#5fa92b;}.eb{fill:#60aa2b;}.ec{fill:#61ab2b;}.ed{fill:#62ab2b;}.ee{fill:#63ac2b;}.ef{fill:#64ad2b;}.eg{fill:#65ad2b;}.eh{fill:#66ae2a;}.ei{fill:#67af2a;}.ej{fill:#68af2a;}.ek{fill:#69b02a;}.el{fill:#6ab12a;}.em{fill:#6bb12a;}.en{fill:#6bb22a;}.eo{fill:#6cb22a;}.ep{fill:#6db32a;}.eq{fill:#6db329;}.er{fill:#6eb329;}.es{fill:#6eb429;}.et{fill:#6fb429;}.eu{fill:#70b529;}.ev{fill:#71b629;}.ew{fill:#72b629;}.ex{fill:#73b729;}.ey{fill:#74b829;}.ez{fill:#74b828;}.fa{fill:#75b828;}.fb{fill:#75b928;}.fc{fill:#76b928;}.fd{fill:#77ba28;}.fe{fill:#78ba28;}.ff{fill:#78bb28;}.fg{fill:#79bb28;}.fh{fill:#7abc28;}.fi{fill:#7bbc28;}.fj{fill:#7bbd28;}.fk{fill:#7cbd27;}.fl{fill:#7cbe27;}.fm{fill:#7dbe27;}.fn{fill:#7ebe27;}.fo{fill:#7ebf27;}.fp{fill:#7fbf27;}.fq{fill:#7fc027;}.fr{fill:#80c027;}.fs{fill:#81c027;}.ft{fill:#81c127;}.fu{fill:#82c127;}.fv{fill:#82c227;}.fw{fill:#83c227;}.fx{fill:#83c226;}.fy{fill:#84c326;}.fz{fill:#85c326;}.ga{fill:#85c426;}.gb{fill:#86c426;}.gc{fill:#87c526;}.gd{fill:#88c526;}.ge{fill:#88c626;}.gf{fill:#89c626;}.gg{fill:#8ac726;}.gh{fill:#8bc725;}.gi{fill:#8bc825;}.gj{fill:#8cc825;}.gk{fill:#8dc925;}.gl{fill:#8eca25;}.gm{fill:#8fca25;}.gn{fill:#90cb25;}.go{fill:#91cc25;}.gp{fill:#92cc25;}.gq{fill:#92cc24;}.gr{fill:#93cd24;}.gs{fill:#94ce24;}.gt{fill:#95ce24;}.gu{fill:#96cf24;}.gv{clip-path:url(#b);}.gw{clip-path:url(#c);}</style><clipPath id="a"><path class="a" d="M95.021,7.25781H85.50289L77.26044,12.0162l-4.759,8.24135v9.51638l4.759,8.24175,8.24245,4.75839h9.51766l8.24285-4.75839,4.759-8.24135V20.25755l-4.759-8.24135L95.021,7.25781Zm10.63341,21.882L101.53,36.28248,94.3863,40.40631H86.13754l-7.14367-4.12383-4.12439-7.14271V20.89211l4.12439-7.14272,7.14366-4.12383H94.3863L101.53,13.74939l4.12439,7.14272v8.24766Z"/></clipPath><clipPath id="b"><path class="a" d="M93.75166,11.99331H86.77218l-6.04489,3.48928-3.48974,6.04407v6.979l3.48974,6.04368,6.04489,3.48927h6.97948l6.04489-3.48927,3.48974-6.04408V21.52666L99.79655,15.483l-6.04489-3.48967Zm7.16657,15.87774L98.06312,32.8157,93.117,35.67081h-5.7102L82.46111,32.8157l-2.85549-4.94465V22.16082l2.8551-4.94465,4.9461-2.85511h5.71059l4.94571,2.85511,2.85511,4.94465v5.71023Z"/></clipPath><clipPath id="c"><path class="a" d="M92.48277,16.72881h-4.4417l-3.84693,2.22056-2.22046,3.846v4.44111l2.22046,3.846,3.84693,2.22055h4.4417l3.84693-2.22055,2.22046-3.846V22.79538l-2.22046-3.846-3.84693-2.22056Zm3.69932,9.87352-1.58621,2.747-2.74736,1.586H88.67531l-2.74774-1.58639-1.58582-2.74659V23.42955l1.58621-2.747,2.74735-1.586h3.17282L94.59588,20.683l1.58621,2.7466v3.17278Z"/></clipPath></defs><title>logo_megagon_labs</title><path class="b" d="M56.28647,58.042h-1.7V54.31116L52.1916,57.0906l-2.39491-2.77944V58.042h-1.7V49.98166L52.1916,54.5998l4.09487-4.61814V58.042Zm3.20213-.139a2.8159,2.8159,0,0,1-1.78015-2.77943,2.85451,2.85451,0,0,1,.52923-1.796,2.94849,2.94849,0,0,1,1.267-.9728,3.84671,3.84671,0,0,1,1.4006-.28864,3.27455,3.27455,0,0,1,1.46474.34209,2.85659,2.85659,0,0,1,1.60373,2.57633q0,.27793-.01069.481a2.44144,2.44144,0,0,1-.02138.25656H59.3015a1.09733,1.09733,0,0,0,.64149.84453,2.41017,2.41017,0,0,0,.96224.22449,1.75693,1.75693,0,0,0,.91948-.20846,2.70445,2.70445,0,0,0,.588-.47571l1.24022.71624a3.22627,3.22627,0,0,1-2.74774,1.36834,3.85437,3.85437,0,0,1-1.41663-.28864Zm.32609-4.11036a1.15439,1.15439,0,0,0-.47043.79642h2.94019a1.14521,1.14521,0,0,0-.21383-.53451,1.42631,1.42631,0,0,0-1.17608-.588,1.702,1.702,0,0,0-1.07985.32605ZM70.5223,59.52261a3.08342,3.08342,0,0,1-2.18642.73228A4.42171,4.42171,0,0,1,65.524,59.3676l.78049-1.13315a3.12641,3.12641,0,0,0,1.91379.6521q1.50751,0,1.50751-1.36834V57.422a2.51893,2.51893,0,0,1-1.6465.52381,3.32539,3.32539,0,0,1-1.63581-.39019A2.69821,2.69821,0,0,1,65.36362,56.492a3.14791,3.14791,0,0,1,0-2.9772,2.75358,2.75358,0,0,1,1.0745-1.06367,3.28156,3.28156,0,0,1,1.64115-.39553,2.51894,2.51894,0,0,1,1.64651.52381v-.41691h1.58235v5.35576a2.606,2.606,0,0,1-.78583,2.0044ZM68.99341,56.3904a1.53612,1.53612,0,0,0,.58269-.57727,1.64023,1.64023,0,0,0,0-1.61956,1.54778,1.54778,0,0,0-.58269-.57192,1.63332,1.63332,0,0,0-.8179-.20846,1.59464,1.59464,0,1,0,0,3.18566,1.63331,1.63331,0,0,0,.8179-.20845Zm8.35547,1.06366a1.69434,1.69434,0,0,1-.7003.4971,2.66044,2.66044,0,0,1-1.0852.21915,2.97669,2.97669,0,0,1-1.577-.40623,2.68255,2.68255,0,0,1-1.021-1.10643,3.605,3.605,0,0,1,0-3.11083,2.68255,2.68255,0,0,1,1.021-1.10643,2.97669,2.97669,0,0,1,1.577-.40623,2.604,2.604,0,0,1,1.0745.20846,1.79911,1.79911,0,0,1,.711.52916v-.60934h1.58235V58.042H77.34888v-.588Zm-.37421-3.55446a1.72643,1.72643,0,0,0-2.35749,0,1.69432,1.69432,0,0,0-.433,1.20263,1.66086,1.66086,0,0,0,.4437,1.18661,1.53441,1.53441,0,0,0,1.17073.47037A1.57484,1.57484,0,0,0,76.98,56.31556a1.66274,1.66274,0,0,0,.433-1.21333,1.68221,1.68221,0,0,0-.43836-1.20264Zm8.79382,5.623a3.08345,3.08345,0,0,1-2.18642.73228,4.42171,4.42171,0,0,1-2.81189-.88729l.78049-1.13315a3.12641,3.12641,0,0,0,1.91379.6521q1.5075,0,1.50751-1.36834V57.422a2.51893,2.51893,0,0,1-1.6465.52381,3.32537,3.32537,0,0,1-1.63581-.39019A2.69821,2.69821,0,0,1,80.60981,56.492a3.14791,3.14791,0,0,1,0-2.9772,2.75365,2.75365,0,0,1,1.0745-1.06367,3.28158,3.28158,0,0,1,1.64116-.39553,2.519,2.519,0,0,1,1.6465.52381v-.41691h1.58235v5.35576a2.606,2.606,0,0,1-.78583,2.0044Zm-1.5289-3.13221a1.53615,1.53615,0,0,0,.5827-.57727,1.64023,1.64023,0,0,0,0-1.61956,1.54788,1.54788,0,0,0-.5827-.57192,1.63329,1.63329,0,0,0-.8179-.20846,1.59464,1.59464,0,1,0,0,3.18566,1.63331,1.63331,0,0,0,.8179-.20845Zm5.20681,1.379a3.11779,3.11779,0,0,1-1.16-1.11712,2.96513,2.96513,0,0,1,0-3.06807,3.11781,3.11781,0,0,1,1.16-1.11713,3.32,3.32,0,0,1,3.20212,0,3.14771,3.14771,0,0,1,1.17073,1.11713,2.93381,2.93381,0,0,1,0,3.06807,3.14768,3.14768,0,0,1-1.17073,1.11712,3.31994,3.31994,0,0,1-3.20212,0Zm.78582-4.09433a1.581,1.581,0,0,0-.588.59865,1.67987,1.67987,0,0,0-.21382.83918,1.75745,1.75745,0,0,0,.20848.86055,1.55364,1.55364,0,0,0,.57734.59865,1.59119,1.59119,0,0,0,.8286.21915,1.57582,1.57582,0,0,0,1.4006-.82314,1.73086,1.73086,0,0,0,.21383-.85521,1.67977,1.67977,0,0,0-.21383-.83918,1.59306,1.59306,0,0,0-.58269-.59865,1.62587,1.62587,0,0,0-1.63046,0Zm10.24788-.96746a2.8052,2.8052,0,0,1,.55062,1.86009V58.042H99.39491V54.56773q0-1.18661-1.13331-1.18661a1.102,1.102,0,0,0-.79118.34743,1.5964,1.5964,0,0,0-.33144,1.20264V58.042H95.54593V52.16244H97.139v.52382a2.08183,2.08183,0,0,1,.727-.45967,2.31936,2.31936,0,0,1,.84463-.171,2.19319,2.19319,0,0,1,1.76946.65209ZM111.67953,58.042h-5.79484V50.22753h1.7v6.34994h4.09487V58.042Zm5.39925-.588a1.69447,1.69447,0,0,1-.7003.4971,2.66044,2.66044,0,0,1-1.0852.21915,2.97665,2.97665,0,0,1-1.577-.40623,2.68263,2.68263,0,0,1-1.02105-1.10643,3.605,3.605,0,0,1,0-3.11083,2.68263,2.68263,0,0,1,1.02105-1.10643,2.97665,2.97665,0,0,1,1.577-.40623,2.604,2.604,0,0,1,1.0745.20846,1.79918,1.79918,0,0,1,.711.52916v-.60934h1.58235V58.042h-1.58235v-.588Zm-.37422-3.55446a1.72643,1.72643,0,0,0-2.35749,0,1.69432,1.69432,0,0,0-.433,1.20263,1.66086,1.66086,0,0,0,.44371,1.18661,1.53439,1.53439,0,0,0,1.17073.47037,1.5748,1.5748,0,0,0,1.18141-.44365,1.6627,1.6627,0,0,0,.433-1.21333,1.68221,1.68221,0,0,0-.43836-1.20264Zm3.53892,4.14242V49.96028h1.58236v2.8115a1.79915,1.79915,0,0,1,.711-.52916,2.604,2.604,0,0,1,1.0745-.20846,2.97669,2.97669,0,0,1,1.577.40623,2.68261,2.68261,0,0,1,1.021,1.10643,3.605,3.605,0,0,1,0,3.11083,2.68261,2.68261,0,0,1-1.021,1.10643,2.97669,2.97669,0,0,1-1.577.40623,2.66044,2.66044,0,0,1-1.0852-.21915,1.69429,1.69429,0,0,1-.70029-.4971v.588Zm1.95121-1.72645a1.57486,1.57486,0,0,0,1.18143.44364,1.53444,1.53444,0,0,0,1.17073-.47037,1.66089,1.66089,0,0,0,.44369-1.18661,1.69432,1.69432,0,0,0-.433-1.20263,1.72642,1.72642,0,0,0-2.35748,0,1.68218,1.68218,0,0,0-.43837,1.20263,1.66271,1.66271,0,0,0,.433,1.21334Zm5.34045.94607.83394-1.11177a3.77681,3.77681,0,0,0,.89808.449,2.99975,2.99975,0,0,0,1.005.18173,1.12477,1.12477,0,0,0,.60408-.14966.43581.43581,0,0,0,.24056-.37416q0-.22449-.27263-.31536a3.083,3.083,0,0,0-.52924-.12828q-.25661-.03741-.33143-.04811a7.88428,7.88428,0,0,1-1.10658-.25656,2.07233,2.07233,0,0,1-.84464-.53451,1.44168,1.44168,0,0,1-.37955-1.05832,1.47309,1.47309,0,0,1,.8072-1.48593,3.82157,3.82157,0,0,1,1.61978-.37415,3.90591,3.90591,0,0,1,1.283.20311,4.20963,4.20963,0,0,1,1.16538.64141l-.83395,1.09039a5.08726,5.08726,0,0,0-.82325-.39553,2.424,2.424,0,0,0-.84462-.14967,1.21029,1.21029,0,0,0-.51856.1176.35939.35939,0,0,0-.25124.3207q0,.25656.34746.36347a4.58467,4.58467,0,0,0,.76444.16035,9.82034,9.82034,0,0,1,1.19747.26725,1.78837,1.78837,0,0,1,.79651.51847,1.53388,1.53388,0,0,1,.34748,1.07436,1.698,1.698,0,0,1-.6308,1.41644,2.824,2.824,0,0,1-1.78548.4971,4.29266,4.29266,0,0,1-2.75843-.91935Z"/><g class="c"><rect class="d" x="72.50141" y="7.25781" width="0.13876" height="35.51626"/><rect class="e" x="72.64016" y="7.25781" width="0.13876" height="35.51626"/><rect class="e" x="72.77892" y="7.25781" width="0.13875" height="35.51626"/><rect class="f" x="72.91767" y="7.25781" width="0.13875" height="35.51626"/><rect class="g" x="73.05642" y="7.25781" width="0.13876" height="35.51626"/><rect class="g" x="73.19518" y="7.25781" width="0.13876" height="35.51626"/><rect class="h" x="73.33393" y="7.25781" width="0.13875" height="35.51626"/><rect class="h" x="73.47269" y="7.25781" width="0.13876" height="35.51626"/><rect class="i" x="73.61144" y="7.25781" width="0.13875" height="35.51626"/><rect class="j" x="73.7502" y="7.25781" width="0.13876" height="35.51626"/><rect class="j" x="73.88895" y="7.25781" width="0.13876" height="35.51626"/><rect class="k" x="74.02771" y="7.25781" width="0.13875" height="35.51626"/><rect class="k" x="74.16646" y="7.25781" width="0.13876" height="35.51626"/><rect class="l" x="74.30521" y="7.25781" width="0.13876" height="35.51626"/><rect class="m" x="74.44397" y="7.25781" width="0.13875" height="35.51626"/><rect class="n" x="74.58272" y="7.25781" width="0.13875" height="35.51626"/><rect class="o" x="74.72147" y="7.25781" width="0.13876" height="35.51626"/><rect class="o" x="74.86023" y="7.25781" width="0.13876" height="35.51626"/><rect class="p" x="74.99898" y="7.25781" width="0.13875" height="35.51626"/><rect class="q" x="75.13774" y="7.25781" width="0.13875" height="35.51626"/><rect class="r" x="75.27649" y="7.25781" width="0.13876" height="35.51626"/><rect class="s" x="75.41524" y="7.25781" width="0.13876" height="35.51626"/><rect class="s" x="75.554" y="7.25781" width="0.13875" height="35.51626"/><rect class="t" x="75.69275" y="7.25781" width="0.13875" height="35.51626"/><rect class="u" x="75.8315" y="7.25781" width="0.13876" height="35.51626"/><rect class="v" x="75.97026" y="7.25781" width="0.13876" height="35.51626"/><rect class="w" x="76.10901" y="7.25781" width="0.13875" height="35.51626"/><rect class="w" x="76.24777" y="7.25781" width="0.13875" height="35.51626"/><rect class="x" x="76.38652" y="7.25781" width="0.13876" height="35.51626"/><rect class="x" x="76.52527" y="7.25781" width="0.13876" height="35.51626"/><rect class="y" x="76.66403" y="7.25781" width="0.13876" height="35.51626"/><rect class="z" x="76.80279" y="7.25781" width="0.13875" height="35.51626"/><rect class="aa" x="76.94154" y="7.25781" width="0.13875" height="35.51626"/><rect class="ab" x="77.08029" y="7.25781" width="0.13876" height="35.51626"/><rect class="ab" x="77.21905" y="7.25781" width="0.13875" height="35.51626"/><rect class="ac" x="77.3578" y="7.25781" width="0.13876" height="35.51626"/><rect class="ad" x="77.49655" y="7.25781" width="0.13875" height="35.51626"/><rect class="ae" x="77.63531" y="7.25781" width="0.13876" height="35.51626"/><rect class="af" x="77.77406" y="7.25781" width="0.13875" height="35.51626"/><rect class="af" x="77.91281" y="7.25781" width="0.13876" height="35.51626"/><rect class="ag" x="78.05157" y="7.25781" width="0.13875" height="35.51626"/><rect class="ah" x="78.19032" y="7.25781" width="0.13876" height="35.51626"/><rect class="ai" x="78.32908" y="7.25781" width="0.13875" height="35.51626"/><rect class="aj" x="78.46783" y="7.25781" width="0.13876" height="35.51626"/><rect class="ak" x="78.60659" y="7.25781" width="0.13875" height="35.51626"/><rect class="al" x="78.74534" y="7.25781" width="0.13876" height="35.51626"/><rect class="am" x="78.88409" y="7.25781" width="0.13875" height="35.51626"/><rect class="an" x="79.02285" y="7.25781" width="0.13875" height="35.51626"/><rect class="ao" x="79.1616" y="7.25781" width="0.13876" height="35.51626"/><rect class="ap" x="79.30035" y="7.25781" width="0.13876" height="35.51626"/><rect class="aq" x="79.43911" y="7.25781" width="0.13876" height="35.51626"/><rect class="ar" x="79.57786" y="7.25781" width="0.13875" height="35.51626"/><rect class="as" x="79.71662" y="7.25781" width="0.13875" height="35.51626"/><rect class="at" x="79.85537" y="7.25781" width="0.13876" height="35.51626"/><rect class="au" x="79.99413" y="7.25781" width="0.13876" height="35.51626"/><rect class="av" x="80.13288" y="7.25781" width="0.13875" height="35.51626"/><rect class="aw" x="80.27163" y="7.25781" width="0.13875" height="35.51626"/><rect class="ax" x="80.41039" y="7.25781" width="0.13876" height="35.51626"/><rect class="ay" x="80.54914" y="7.25781" width="0.13876" height="35.51626"/><rect class="az" x="80.6879" y="7.25781" width="0.13875" height="35.51626"/><rect class="az" x="80.82665" y="7.25781" width="0.13876" height="35.51626"/><rect class="ba" x="80.9654" y="7.25781" width="0.13876" height="35.51626"/><rect class="bb" x="81.10416" y="7.25781" width="0.13875" height="35.51626"/><rect class="bc" x="81.24291" y="7.25781" width="0.13876" height="35.51626"/><rect class="bd" x="81.38166" y="7.25781" width="0.13875" height="35.51626"/><rect class="bd" x="81.52042" y="7.25781" width="0.13876" height="35.51626"/><rect class="be" x="81.65917" y="7.25781" width="0.13875" height="35.51626"/><rect class="bf" x="81.79793" y="7.25781" width="0.13876" height="35.51626"/><rect class="bg" x="81.93668" y="7.25781" width="0.13875" height="35.51626"/><rect class="bh" x="82.07543" y="7.25781" width="0.13876" height="35.51626"/><rect class="bh" x="82.21419" y="7.25781" width="0.13875" height="35.51626"/><rect class="bi" x="82.35294" y="7.25781" width="0.13876" height="35.51626"/><rect class="bi" x="82.4917" y="7.25781" width="0.13875" height="35.51626"/><rect class="bj" x="82.63045" y="7.25781" width="0.13876" height="35.51626"/><rect class="bk" x="82.7692" y="7.25781" width="0.13875" height="35.51626"/><rect class="bk" x="82.90796" y="7.25781" width="0.13876" height="35.51626"/><rect class="bl" x="83.04671" y="7.25781" width="0.13875" height="35.51626"/><rect class="bl" x="83.18547" y="7.25781" width="0.13876" height="35.51626"/><rect class="bm" x="83.32422" y="7.25781" width="0.13876" height="35.51626"/><rect class="bn" x="83.46298" y="7.25781" width="0.13876" height="35.51626"/><rect class="bn" x="83.60173" y="7.25781" width="0.13875" height="35.51626"/><rect class="bo" x="83.74048" y="7.25781" width="0.13876" height="35.51626"/><rect class="bo" x="83.87924" y="7.25781" width="0.13876" height="35.51626"/><rect class="bp" x="84.01799" y="7.25781" width="0.13875" height="35.51626"/><rect class="bq" x="84.15674" y="7.25781" width="0.13876" height="35.51626"/><rect class="br" x="84.2955" y="7.25781" width="0.13876" height="35.51626"/><rect class="bs" x="84.43425" y="7.25781" width="0.13876" height="35.51626"/><rect class="bs" x="84.57301" y="7.25781" width="0.13876" height="35.51626"/><rect class="bt" x="84.71176" y="7.25781" width="0.13875" height="35.51626"/><rect class="bt" x="84.85051" y="7.25781" width="0.13876" height="35.51626"/><rect class="bu" x="84.98927" y="7.25781" width="0.13876" height="35.51626"/><rect class="bv" x="85.12802" y="7.25781" width="0.13875" height="35.51626"/><rect class="bv" x="85.26677" y="7.25781" width="0.13876" height="35.51626"/><rect class="bw" x="85.40553" y="7.25781" width="0.13876" height="35.51626"/><rect class="bw" x="85.54428" y="7.25781" width="0.13876" height="35.51626"/><rect class="bx" x="85.68304" y="7.25781" width="0.13875" height="35.51626"/><rect class="by" x="85.82179" y="7.25781" width="0.13876" height="35.51626"/><rect class="bz" x="85.96054" y="7.25781" width="0.13876" height="35.51626"/><rect class="ca" x="86.0993" y="7.25781" width="0.13876" height="35.51626"/><rect class="ca" x="86.23805" y="7.25781" width="0.13875" height="35.51626"/><rect class="cb" x="86.37681" y="7.25781" width="0.13876" height="35.51626"/><rect class="cc" x="86.51556" y="7.25781" width="0.13876" height="35.51626"/><rect class="cd" x="86.65432" y="7.25781" width="0.13876" height="35.51626"/><rect class="ce" x="86.79307" y="7.25781" width="0.13876" height="35.51626"/><rect class="ce" x="86.93183" y="7.25781" width="0.13875" height="35.51626"/><rect class="cf" x="87.07058" y="7.25781" width="0.13876" height="35.51626"/><rect class="cg" x="87.20933" y="7.25781" width="0.13876" height="35.51626"/><rect class="ch" x="87.34809" y="7.25781" width="0.13876" height="35.51626"/><rect class="ci" x="87.48684" y="7.25781" width="0.13875" height="35.51626"/><rect class="cj" x="87.62559" y="7.25781" width="0.13876" height="35.51626"/><rect class="ck" x="87.76435" y="7.25781" width="0.13876" height="35.51626"/><rect class="ck" x="87.9031" y="7.25781" width="0.13876" height="35.51626"/><rect class="cl" x="88.04186" y="7.25781" width="0.13875" height="35.51626"/><rect class="cm" x="88.18061" y="7.25781" width="0.13876" height="35.51626"/><rect class="cn" x="88.31936" y="7.25781" width="0.13876" height="35.51626"/><rect class="co" x="88.45812" y="7.25781" width="0.13875" height="35.51626"/><rect class="co" x="88.59687" y="7.25781" width="0.13876" height="35.51626"/><rect class="cp" x="88.73562" y="7.25781" width="0.13876" height="35.51626"/><rect class="cq" x="88.87438" y="7.25781" width="0.13876" height="35.51626"/><rect class="cr" x="89.01313" y="7.25781" width="0.13875" height="35.51626"/><rect class="cs" x="89.15188" y="7.25781" width="0.13876" height="35.51626"/><rect class="cs" x="89.29064" y="7.25781" width="0.13876" height="35.51626"/><rect class="ct" x="89.42939" y="7.25781" width="0.13876" height="35.51626"/><rect class="cu" x="89.56815" y="7.25781" width="0.13875" height="35.51626"/><rect class="cv" x="89.7069" y="7.25781" width="0.13876" height="35.51626"/><rect class="cw" x="89.84566" y="7.25781" width="0.13876" height="35.51626"/><rect class="cw" x="89.98441" y="7.25781" width="0.13876" height="35.51626"/><rect class="cx" x="90.12317" y="7.25781" width="0.13876" height="35.51626"/><rect class="cy" x="90.26192" y="7.25781" width="0.13875" height="35.51626"/><rect class="cz" x="90.40067" y="7.25781" width="0.13876" height="35.51626"/><rect class="da" x="90.53943" y="7.25781" width="0.13876" height="35.51626"/><rect class="db" x="90.67818" y="7.25781" width="0.13876" height="35.51626"/><rect class="dc" x="90.81694" y="7.25781" width="0.13875" height="35.51626"/><rect class="dd" x="90.95569" y="7.25781" width="0.13876" height="35.51626"/><rect class="de" x="91.09444" y="7.25781" width="0.13876" height="35.51626"/><rect class="df" x="91.2332" y="7.25781" width="0.13875" height="35.51626"/><rect class="dg" x="91.37195" y="7.25781" width="0.13876" height="35.51626"/><rect class="dh" x="91.5107" y="7.25781" width="0.13876" height="35.51626"/><rect class="di" x="91.64946" y="7.25781" width="0.13876" height="35.51626"/><rect class="dj" x="91.78821" y="7.25781" width="0.13875" height="35.51626"/><rect class="dk" x="91.92696" y="7.25781" width="0.13876" height="35.51626"/><rect class="dl" x="92.06572" y="7.25781" width="0.13876" height="35.51626"/><rect class="dl" x="92.20447" y="7.25781" width="0.13876" height="35.51626"/><rect class="dm" x="92.34323" y="7.25781" width="0.13875" height="35.51626"/><rect class="dn" x="92.48198" y="7.25781" width="0.13876" height="35.51626"/><rect class="do" x="92.62073" y="7.25781" width="0.13876" height="35.51626"/><rect class="dp" x="92.75949" y="7.25781" width="0.13876" height="35.51626"/><rect class="dq" x="92.89824" y="7.25781" width="0.13875" height="35.51626"/><rect class="dr" x="93.037" y="7.25781" width="0.13876" height="35.51626"/><rect class="ds" x="93.17575" y="7.25781" width="0.13876" height="35.51626"/><rect class="dt" x="93.31451" y="7.25781" width="0.13876" height="35.51626"/><rect class="du" x="93.45326" y="7.25781" width="0.13876" height="35.51626"/><rect class="du" x="93.59202" y="7.25781" width="0.13876" height="35.51626"/><rect class="dv" x="93.73077" y="7.25781" width="0.13875" height="35.51626"/><rect class="dv" x="93.86952" y="7.25781" width="0.13876" height="35.51626"/><rect class="dw" x="94.00828" y="7.25781" width="0.13876" height="35.51626"/><rect class="dx" x="94.14703" y="7.25781" width="0.13875" height="35.51626"/><rect class="dx" x="94.28578" y="7.25781" width="0.13876" height="35.51626"/><rect class="dy" x="94.42454" y="7.25781" width="0.13876" height="35.51626"/><rect class="dy" x="94.56329" y="7.25781" width="0.13876" height="35.51626"/><rect class="dz" x="94.70205" y="7.25781" width="0.13875" height="35.51626"/><rect class="ea" x="94.8408" y="7.25781" width="0.13876" height="35.51626"/><rect class="ea" x="94.97955" y="7.25781" width="0.13876" height="35.51626"/><rect class="eb" x="95.11831" y="7.25781" width="0.13876" height="35.51626"/><rect class="eb" x="95.25706" y="7.25781" width="0.13875" height="35.51626"/><rect class="ec" x="95.39581" y="7.25781" width="0.13876" height="35.51626"/><rect class="ed" x="95.53457" y="7.25781" width="0.13876" height="35.51626"/><rect class="ed" x="95.67332" y="7.25781" width="0.13876" height="35.51626"/><rect class="ee" x="95.81208" y="7.25781" width="0.13875" height="35.51626"/><rect class="ee" x="95.95083" y="7.25781" width="0.13876" height="35.51626"/><rect class="ef" x="96.08958" y="7.25781" width="0.13876" height="35.51626"/><rect class="ef" x="96.22834" y="7.25781" width="0.13876" height="35.51626"/><rect class="eg" x="96.3671" y="7.25781" width="0.13875" height="35.51626"/><rect class="eh" x="96.50585" y="7.25781" width="0.13876" height="35.51626"/><rect class="eh" x="96.6446" y="7.25781" width="0.13876" height="35.51626"/><rect class="ei" x="96.78336" y="7.25781" width="0.13876" height="35.51626"/><rect class="ei" x="96.92211" y="7.25781" width="0.13875" height="35.51626"/><rect class="ej" x="97.06086" y="7.25781" width="0.13876" height="35.51626"/><rect class="ek" x="97.19962" y="7.25781" width="0.13876" height="35.51626"/><rect class="ek" x="97.33837" y="7.25781" width="0.13875" height="35.51626"/><rect class="el" x="97.47712" y="7.25781" width="0.13876" height="35.51626"/><rect class="el" x="97.61588" y="7.25781" width="0.13876" height="35.51626"/><rect class="em" x="97.75463" y="7.25781" width="0.13876" height="35.51626"/><rect class="en" x="97.89339" y="7.25781" width="0.13875" height="35.51626"/><rect class="eo" x="98.03214" y="7.25781" width="0.13876" height="35.51626"/><rect class="ep" x="98.17089" y="7.25781" width="0.13876" height="35.51626"/><rect class="eq" x="98.30965" y="7.25781" width="0.13876" height="35.51626"/><rect class="er" x="98.4484" y="7.25781" width="0.13875" height="35.51626"/><rect class="es" x="98.58715" y="7.25781" width="0.13876" height="35.51626"/><rect class="et" x="98.72591" y="7.25781" width="0.13876" height="35.51626"/><rect class="eu" x="98.86466" y="7.25781" width="0.13876" height="35.51626"/><rect class="eu" x="99.00342" y="7.25781" width="0.13876" height="35.51626"/><rect class="ev" x="99.14217" y="7.25781" width="0.13876" height="35.51626"/><rect class="ev" x="99.28093" y="7.25781" width="0.13875" height="35.51626"/><rect class="ew" x="99.41968" y="7.25781" width="0.13876" height="35.51626"/><rect class="ex" x="99.55844" y="7.25781" width="0.13875" height="35.51626"/><rect class="ex" x="99.69719" y="7.25781" width="0.13876" height="35.51626"/><rect class="ey" x="99.83595" y="7.25781" width="0.13875" height="35.51626"/><rect class="ez" x="99.9747" y="7.25781" width="0.13876" height="35.51626"/><rect class="fa" x="100.11345" y="7.25781" width="0.13876" height="35.51626"/><rect class="fb" x="100.25221" y="7.25781" width="0.13876" height="35.51626"/><rect class="fc" x="100.39096" y="7.25781" width="0.13875" height="35.51626"/><rect class="fd" x="100.52971" y="7.25781" width="0.13876" height="35.51626"/><rect class="fd" x="100.66847" y="7.25781" width="0.13876" height="35.51626"/><rect class="fe" x="100.80722" y="7.25781" width="0.13875" height="35.51626"/><rect class="ff" x="100.94597" y="7.25781" width="0.13876" height="35.51626"/><rect class="fg" x="101.08473" y="7.25781" width="0.13876" height="35.51626"/><rect class="fh" x="101.22348" y="7.25781" width="0.13876" height="35.51626"/><rect class="fh" x="101.36224" y="7.25781" width="0.13875" height="35.51626"/><rect class="fi" x="101.50099" y="7.25781" width="0.13876" height="35.51626"/><rect class="fj" x="101.63974" y="7.25781" width="0.13876" height="35.51626"/><rect class="fk" x="101.7785" y="7.25781" width="0.13876" height="35.51626"/><rect class="fl" x="101.91725" y="7.25781" width="0.13875" height="35.51626"/><rect class="fm" x="102.056" y="7.25781" width="0.13876" height="35.51626"/><rect class="fn" x="102.19476" y="7.25781" width="0.13876" height="35.51626"/><rect class="fo" x="102.33351" y="7.25781" width="0.13876" height="35.51626"/><rect class="fp" x="102.47227" y="7.25781" width="0.13875" height="35.51626"/><rect class="fq" x="102.61102" y="7.25781" width="0.13876" height="35.51626"/><rect class="fr" x="102.74977" y="7.25781" width="0.13876" height="35.51626"/><rect class="fs" x="102.88853" y="7.25781" width="0.13876" height="35.51626"/><rect class="ft" x="103.02729" y="7.25781" width="0.13875" height="35.51626"/><rect class="fu" x="103.16604" y="7.25781" width="0.13876" height="35.51626"/><rect class="fv" x="103.30479" y="7.25781" width="0.13876" height="35.51626"/><rect class="fw" x="103.44355" y="7.25781" width="0.13876" height="35.51626"/><rect class="fx" x="103.5823" y="7.25781" width="0.13876" height="35.51626"/><rect class="fy" x="103.72106" y="7.25781" width="0.13876" height="35.51626"/><rect class="fz" x="103.85981" y="7.25781" width="0.13875" height="35.51626"/><rect class="ga" x="103.99856" y="7.25781" width="0.13876" height="35.51626"/><rect class="gb" x="104.13732" y="7.25781" width="0.13875" height="35.51626"/><rect class="gb" x="104.27607" y="7.25781" width="0.13876" height="35.51626"/><rect class="gc" x="104.41482" y="7.25781" width="0.13876" height="35.51626"/><rect class="gd" x="104.55358" y="7.25781" width="0.13876" height="35.51626"/><rect class="ge" x="104.69233" y="7.25781" width="0.13876" height="35.51626"/><rect class="gf" x="104.83109" y="7.25781" width="0.13875" height="35.51626"/><rect class="gf" x="104.96984" y="7.25781" width="0.13876" height="35.51626"/><rect class="gg" x="105.10859" y="7.25781" width="0.13875" height="35.51626"/><rect class="gh" x="105.24734" y="7.25781" width="0.13876" height="35.51626"/><rect class="gi" x="105.3861" y="7.25781" width="0.13876" height="35.51626"/><rect class="gj" x="105.52485" y="7.25781" width="0.13876" height="35.51626"/><rect class="gj" x="105.66361" y="7.25781" width="0.13876" height="35.51626"/><rect class="gk" x="105.80236" y="7.25781" width="0.13876" height="35.51626"/><rect class="gk" x="105.94112" y="7.25781" width="0.13875" height="35.51626"/><rect class="gl" x="106.07987" y="7.25781" width="0.13876" height="35.51626"/><rect class="gm" x="106.21863" y="7.25781" width="0.13875" height="35.51626"/><rect class="gm" x="106.35738" y="7.25781" width="0.13876" height="35.51626"/><rect class="gn" x="106.49613" y="7.25781" width="0.13876" height="35.51626"/><rect class="gn" x="106.63489" y="7.25781" width="0.13876" height="35.51626"/><rect class="go" x="106.77364" y="7.25781" width="0.13876" height="35.51626"/><rect class="gp" x="106.9124" y="7.25781" width="0.13876" height="35.51626"/><rect class="gq" x="107.05115" y="7.25781" width="0.13875" height="35.51626"/><rect class="gr" x="107.1899" y="7.25781" width="0.13876" height="35.51626"/><rect class="gr" x="107.32866" y="7.25781" width="0.13876" height="35.51626"/><rect class="gs" x="107.46741" y="7.25781" width="0.13876" height="35.51626"/><rect class="gs" x="107.60617" y="7.25781" width="0.13875" height="35.51626"/><rect class="gt" x="107.74492" y="7.25781" width="0.13876" height="35.51626"/><rect class="gu" x="107.88367" y="7.25781" width="0.13876" height="35.51626"/></g><g class="gv"><rect class="d" x="77.23755" y="11.99331" width="0.10175" height="26.04525"/><rect class="e" x="77.3393" y="11.99331" width="0.10175" height="26.04525"/><rect class="e" x="77.44105" y="11.99331" width="0.10175" height="26.04525"/><rect class="f" x="77.5428" y="11.99331" width="0.10175" height="26.04525"/><rect class="g" x="77.64456" y="11.99331" width="0.10175" height="26.04525"/><rect class="g" x="77.74631" y="11.99331" width="0.10175" height="26.04525"/><rect class="h" x="77.84806" y="11.99331" width="0.10175" height="26.04525"/><rect class="h" x="77.94982" y="11.99331" width="0.10175" height="26.04525"/><rect class="i" x="78.05157" y="11.99331" width="0.10175" height="26.04525"/><rect class="j" x="78.15332" y="11.99331" width="0.10175" height="26.04525"/><rect class="j" x="78.25507" y="11.99331" width="0.10175" height="26.04525"/><rect class="k" x="78.35683" y="11.99331" width="0.10175" height="26.04525"/><rect class="k" x="78.45858" y="11.99331" width="0.10175" height="26.04525"/><rect class="l" x="78.56033" y="11.99331" width="0.10175" height="26.04525"/><rect class="m" x="78.66209" y="11.99331" width="0.10175" height="26.04525"/><rect class="n" x="78.76384" y="11.99331" width="0.10175" height="26.04525"/><rect class="o" x="78.86559" y="11.99331" width="0.10175" height="26.04525"/><rect class="o" x="78.96734" y="11.99331" width="0.10175" height="26.04525"/><rect class="p" x="79.0691" y="11.99331" width="0.10175" height="26.04525"/><rect class="q" x="79.17085" y="11.99331" width="0.10175" height="26.04525"/><rect class="r" x="79.2726" y="11.99331" width="0.10175" height="26.04525"/><rect class="s" x="79.37436" y="11.99331" width="0.10175" height="26.04525"/><rect class="s" x="79.47611" y="11.99331" width="0.10175" height="26.04525"/><rect class="t" x="79.57786" y="11.99331" width="0.10175" height="26.04525"/><rect class="u" x="79.67962" y="11.99331" width="0.10175" height="26.04525"/><rect class="v" x="79.78137" y="11.99331" width="0.10175" height="26.04525"/><rect class="w" x="79.88312" y="11.99331" width="0.10175" height="26.04525"/><rect class="w" x="79.98487" y="11.99331" width="0.10175" height="26.04525"/><rect class="x" x="80.08663" y="11.99331" width="0.10175" height="26.04525"/><rect class="x" x="80.18838" y="11.99331" width="0.10175" height="26.04525"/><rect class="y" x="80.29013" y="11.99331" width="0.10175" height="26.04525"/><rect class="z" x="80.39189" y="11.99331" width="0.10175" height="26.04525"/><rect class="aa" x="80.49364" y="11.99331" width="0.10175" height="26.04525"/><rect class="ab" x="80.59539" y="11.99331" width="0.10175" height="26.04525"/><rect class="ab" x="80.69714" y="11.99331" width="0.10175" height="26.04525"/><rect class="ac" x="80.7989" y="11.99331" width="0.10175" height="26.04525"/><rect class="ad" x="80.90065" y="11.99331" width="0.10175" height="26.04525"/><rect class="ae" x="81.0024" y="11.99331" width="0.10175" height="26.04525"/><rect class="af" x="81.10416" y="11.99331" width="0.10175" height="26.04525"/><rect class="af" x="81.20591" y="11.99331" width="0.10175" height="26.04525"/><rect class="ag" x="81.30766" y="11.99331" width="0.10175" height="26.04525"/><rect class="ah" x="81.40941" y="11.99331" width="0.10175" height="26.04525"/><rect class="ai" x="81.51117" y="11.99331" width="0.10175" height="26.04525"/><rect class="aj" x="81.61292" y="11.99331" width="0.10175" height="26.04525"/><rect class="ak" x="81.71467" y="11.99331" width="0.10175" height="26.04525"/><rect class="al" x="81.81643" y="11.99331" width="0.10175" height="26.04525"/><rect class="am" x="81.91818" y="11.99331" width="0.10175" height="26.04525"/><rect class="an" x="82.01993" y="11.99331" width="0.10175" height="26.04525"/><rect class="ao" x="82.12169" y="11.99331" width="0.10175" height="26.04525"/><rect class="ap" x="82.22344" y="11.99331" width="0.10175" height="26.04525"/><rect class="aq" x="82.32519" y="11.99331" width="0.10175" height="26.04525"/><rect class="ar" x="82.42694" y="11.99331" width="0.10175" height="26.04525"/><rect class="as" x="82.5287" y="11.99331" width="0.10175" height="26.04525"/><rect class="at" x="82.63045" y="11.99331" width="0.10175" height="26.04525"/><rect class="au" x="82.7322" y="11.99331" width="0.10175" height="26.04525"/><rect class="av" x="82.83396" y="11.99331" width="0.10175" height="26.04525"/><rect class="aw" x="82.93571" y="11.99331" width="0.10175" height="26.04525"/><rect class="ax" x="83.03746" y="11.99331" width="0.10175" height="26.04525"/><rect class="ay" x="83.13921" y="11.99331" width="0.10175" height="26.04525"/><rect class="az" x="83.24097" y="11.99331" width="0.10175" height="26.04525"/><rect class="az" x="83.34272" y="11.99331" width="0.10175" height="26.04525"/><rect class="ba" x="83.44447" y="11.99331" width="0.10175" height="26.04525"/><rect class="bb" x="83.54623" y="11.99331" width="0.10175" height="26.04525"/><rect class="bc" x="83.64798" y="11.99331" width="0.10175" height="26.04525"/><rect class="bd" x="83.74973" y="11.99331" width="0.10175" height="26.04525"/><rect class="bd" x="83.85149" y="11.99331" width="0.10175" height="26.04525"/><rect class="be" x="83.95324" y="11.99331" width="0.10175" height="26.04525"/><rect class="bf" x="84.05499" y="11.99331" width="0.10175" height="26.04525"/><rect class="bg" x="84.15674" y="11.99331" width="0.10175" height="26.04525"/><rect class="bh" x="84.2585" y="11.99331" width="0.10175" height="26.04525"/><rect class="bh" x="84.36025" y="11.99331" width="0.10175" height="26.04525"/><rect class="bi" x="84.462" y="11.99331" width="0.10175" height="26.04525"/><rect class="bi" x="84.56376" y="11.99331" width="0.10175" height="26.04525"/><rect class="bj" x="84.66551" y="11.99331" width="0.10175" height="26.04525"/><rect class="bk" x="84.76726" y="11.99331" width="0.10175" height="26.04525"/><rect class="bk" x="84.86901" y="11.99331" width="0.10175" height="26.04525"/><rect class="bl" x="84.97077" y="11.99331" width="0.10175" height="26.04525"/><rect class="bl" x="85.07252" y="11.99331" width="0.10175" height="26.04525"/><rect class="bm" x="85.17427" y="11.99331" width="0.10175" height="26.04525"/><rect class="bn" x="85.27602" y="11.99331" width="0.10175" height="26.04525"/><rect class="bn" x="85.37778" y="11.99331" width="0.10175" height="26.04525"/><rect class="bo" x="85.47953" y="11.99331" width="0.10175" height="26.04525"/><rect class="bo" x="85.58129" y="11.99331" width="0.10175" height="26.04525"/><rect class="bp" x="85.68304" y="11.99331" width="0.10175" height="26.04525"/><rect class="bq" x="85.78479" y="11.99331" width="0.10175" height="26.04525"/><rect class="br" x="85.88654" y="11.99331" width="0.10175" height="26.04525"/><rect class="bs" x="85.9883" y="11.99331" width="0.10175" height="26.04525"/><rect class="bs" x="86.09005" y="11.99331" width="0.10175" height="26.04525"/><rect class="bt" x="86.1918" y="11.99331" width="0.10175" height="26.04525"/><rect class="bt" x="86.29356" y="11.99331" width="0.10175" height="26.04525"/><rect class="bu" x="86.39531" y="11.99331" width="0.10175" height="26.04525"/><rect class="bv" x="86.49706" y="11.99331" width="0.10175" height="26.04525"/><rect class="bv" x="86.59881" y="11.99331" width="0.10175" height="26.04525"/><rect class="bw" x="86.70057" y="11.99331" width="0.10175" height="26.04525"/><rect class="bw" x="86.80232" y="11.99331" width="0.10175" height="26.04525"/><rect class="bx" x="86.90407" y="11.99331" width="0.10175" height="26.04525"/><rect class="by" x="87.00582" y="11.99331" width="0.10175" height="26.04525"/><rect class="bz" x="87.10758" y="11.99331" width="0.10175" height="26.04525"/><rect class="ca" x="87.20933" y="11.99331" width="0.10175" height="26.04525"/><rect class="ca" x="87.31108" y="11.99331" width="0.10175" height="26.04525"/><rect class="cb" x="87.41284" y="11.99331" width="0.10175" height="26.04525"/><rect class="cc" x="87.51459" y="11.99331" width="0.10175" height="26.04525"/><rect class="cd" x="87.61634" y="11.99331" width="0.10175" height="26.04525"/><rect class="ce" x="87.7181" y="11.99331" width="0.10175" height="26.04525"/><rect class="ce" x="87.81985" y="11.99331" width="0.10175" height="26.04525"/><rect class="cf" x="87.9216" y="11.99331" width="0.10175" height="26.04525"/><rect class="cg" x="88.02336" y="11.99331" width="0.10175" height="26.04525"/><rect class="ch" x="88.12511" y="11.99331" width="0.10175" height="26.04525"/><rect class="ci" x="88.22686" y="11.99331" width="0.10175" height="26.04525"/><rect class="cj" x="88.32861" y="11.99331" width="0.10175" height="26.04525"/><rect class="ck" x="88.43037" y="11.99331" width="0.10175" height="26.04525"/><rect class="ck" x="88.53212" y="11.99331" width="0.10175" height="26.04525"/><rect class="cl" x="88.63387" y="11.99331" width="0.10175" height="26.04525"/><rect class="cm" x="88.73562" y="11.99331" width="0.10175" height="26.04525"/><rect class="cn" x="88.83738" y="11.99331" width="0.10175" height="26.04525"/><rect class="co" x="88.93913" y="11.99331" width="0.10175" height="26.04525"/><rect class="co" x="89.04088" y="11.99331" width="0.10175" height="26.04525"/><rect class="cp" x="89.14264" y="11.99331" width="0.10175" height="26.04525"/><rect class="cq" x="89.24439" y="11.99331" width="0.10175" height="26.04525"/><rect class="cr" x="89.34614" y="11.99331" width="0.10175" height="26.04525"/><rect class="cs" x="89.4479" y="11.99331" width="0.10175" height="26.04525"/><rect class="cs" x="89.54965" y="11.99331" width="0.10175" height="26.04525"/><rect class="ct" x="89.6514" y="11.99331" width="0.10175" height="26.04525"/><rect class="cu" x="89.75315" y="11.99331" width="0.10175" height="26.04525"/><rect class="cv" x="89.85491" y="11.99331" width="0.10175" height="26.04525"/><rect class="cw" x="89.95666" y="11.99331" width="0.10175" height="26.04525"/><rect class="cw" x="90.05841" y="11.99331" width="0.10175" height="26.04525"/><rect class="cx" x="90.16017" y="11.99331" width="0.10175" height="26.04525"/><rect class="cy" x="90.26192" y="11.99331" width="0.10175" height="26.04525"/><rect class="cz" x="90.36367" y="11.99331" width="0.10175" height="26.04525"/><rect class="da" x="90.46542" y="11.99331" width="0.10175" height="26.04525"/><rect class="db" x="90.56718" y="11.99331" width="0.10175" height="26.04525"/><rect class="dc" x="90.66893" y="11.99331" width="0.10175" height="26.04525"/><rect class="dd" x="90.77068" y="11.99331" width="0.10175" height="26.04525"/><rect class="de" x="90.87243" y="11.99331" width="0.10175" height="26.04525"/><rect class="df" x="90.97419" y="11.99331" width="0.10175" height="26.04525"/><rect class="dg" x="91.07594" y="11.99331" width="0.10175" height="26.04525"/><rect class="dh" x="91.1777" y="11.99331" width="0.10175" height="26.04525"/><rect class="di" x="91.27945" y="11.99331" width="0.10175" height="26.04525"/><rect class="dj" x="91.3812" y="11.99331" width="0.10175" height="26.04525"/><rect class="dk" x="91.48295" y="11.99331" width="0.10175" height="26.04525"/><rect class="dl" x="91.58471" y="11.99331" width="0.10175" height="26.04525"/><rect class="dl" x="91.68646" y="11.99331" width="0.10175" height="26.04525"/><rect class="dm" x="91.78821" y="11.99331" width="0.10175" height="26.04525"/><rect class="dn" x="91.88996" y="11.99331" width="0.10175" height="26.04525"/><rect class="do" x="91.99172" y="11.99331" width="0.10175" height="26.04525"/><rect class="dp" x="92.09347" y="11.99331" width="0.10175" height="26.04525"/><rect class="dq" x="92.19522" y="11.99331" width="0.10175" height="26.04525"/><rect class="dr" x="92.29698" y="11.99331" width="0.10175" height="26.04525"/><rect class="ds" x="92.39873" y="11.99331" width="0.10175" height="26.04525"/><rect class="dt" x="92.50048" y="11.99331" width="0.10175" height="26.04525"/><rect class="du" x="92.60223" y="11.99331" width="0.10175" height="26.04525"/><rect class="du" x="92.70399" y="11.99331" width="0.10175" height="26.04525"/><rect class="dv" x="92.80574" y="11.99331" width="0.10175" height="26.04525"/><rect class="dv" x="92.9075" y="11.99331" width="0.10175" height="26.04525"/><rect class="dw" x="93.00924" y="11.99331" width="0.10175" height="26.04525"/><rect class="dx" x="93.111" y="11.99331" width="0.10175" height="26.04525"/><rect class="dx" x="93.21275" y="11.99331" width="0.10175" height="26.04525"/><rect class="dy" x="93.31451" y="11.99331" width="0.10175" height="26.04525"/><rect class="dy" x="93.41626" y="11.99331" width="0.10175" height="26.04525"/><rect class="dz" x="93.51801" y="11.99331" width="0.10175" height="26.04525"/><rect class="ea" x="93.61977" y="11.99331" width="0.10175" height="26.04525"/><rect class="ea" x="93.72152" y="11.99331" width="0.10175" height="26.04525"/><rect class="eb" x="93.82327" y="11.99331" width="0.10175" height="26.04525"/><rect class="eb" x="93.92502" y="11.99331" width="0.10175" height="26.04525"/><rect class="ec" x="94.02678" y="11.99331" width="0.10175" height="26.04525"/><rect class="ed" x="94.12853" y="11.99331" width="0.10175" height="26.04525"/><rect class="ed" x="94.23028" y="11.99331" width="0.10175" height="26.04525"/><rect class="ee" x="94.33203" y="11.99331" width="0.10175" height="26.04525"/><rect class="ee" x="94.43379" y="11.99331" width="0.10175" height="26.04525"/><rect class="ef" x="94.53554" y="11.99331" width="0.10175" height="26.04525"/><rect class="ef" x="94.6373" y="11.99331" width="0.10175" height="26.04525"/><rect class="eg" x="94.73905" y="11.99331" width="0.10175" height="26.04525"/><rect class="eh" x="94.8408" y="11.99331" width="0.10175" height="26.04525"/><rect class="eh" x="94.94255" y="11.99331" width="0.10175" height="26.04525"/><rect class="ei" x="95.04431" y="11.99331" width="0.10175" height="26.04525"/><rect class="ei" x="95.14606" y="11.99331" width="0.10175" height="26.04525"/><rect class="ej" x="95.24781" y="11.99331" width="0.10175" height="26.04525"/><rect class="ek" x="95.34956" y="11.99331" width="0.10175" height="26.04525"/><rect class="ek" x="95.45132" y="11.99331" width="0.10175" height="26.04525"/><rect class="el" x="95.55307" y="11.99331" width="0.10175" height="26.04525"/><rect class="el" x="95.65482" y="11.99331" width="0.10175" height="26.04525"/><rect class="em" x="95.75658" y="11.99331" width="0.10175" height="26.04525"/><rect class="en" x="95.85833" y="11.99331" width="0.10175" height="26.04525"/><rect class="eo" x="95.96008" y="11.99331" width="0.10175" height="26.04525"/><rect class="ep" x="96.06183" y="11.99331" width="0.10175" height="26.04525"/><rect class="eq" x="96.16359" y="11.99331" width="0.10175" height="26.04525"/><rect class="er" x="96.26534" y="11.99331" width="0.10175" height="26.04525"/><rect class="es" x="96.36709" y="11.99331" width="0.10175" height="26.04525"/><rect class="et" x="96.46884" y="11.99331" width="0.10175" height="26.04525"/><rect class="eu" x="96.5706" y="11.99331" width="0.10175" height="26.04525"/><rect class="eu" x="96.67235" y="11.99331" width="0.10175" height="26.04525"/><rect class="ev" x="96.77411" y="11.99331" width="0.10175" height="26.04525"/><rect class="ev" x="96.87586" y="11.99331" width="0.10175" height="26.04525"/><rect class="ew" x="96.97761" y="11.99331" width="0.10175" height="26.04525"/><rect class="ex" x="97.07936" y="11.99331" width="0.10175" height="26.04525"/><rect class="ex" x="97.18112" y="11.99331" width="0.10175" height="26.04525"/><rect class="ey" x="97.28287" y="11.99331" width="0.10175" height="26.04525"/><rect class="ez" x="97.38462" y="11.99331" width="0.10175" height="26.04525"/><rect class="fa" x="97.48638" y="11.99331" width="0.10175" height="26.04525"/><rect class="fb" x="97.58813" y="11.99331" width="0.10175" height="26.04525"/><rect class="fc" x="97.68988" y="11.99331" width="0.10175" height="26.04525"/><rect class="fd" x="97.79163" y="11.99331" width="0.10175" height="26.04525"/><rect class="fd" x="97.89339" y="11.99331" width="0.10175" height="26.04525"/><rect class="fe" x="97.99514" y="11.99331" width="0.10175" height="26.04525"/><rect class="ff" x="98.09689" y="11.99331" width="0.10175" height="26.04525"/><rect class="fg" x="98.19864" y="11.99331" width="0.10175" height="26.04525"/><rect class="fh" x="98.3004" y="11.99331" width="0.10175" height="26.04525"/><rect class="fh" x="98.40215" y="11.99331" width="0.10175" height="26.04525"/><rect class="fi" x="98.50391" y="11.99331" width="0.10175" height="26.04525"/><rect class="fj" x="98.60565" y="11.99331" width="0.10175" height="26.04525"/><rect class="fk" x="98.70741" y="11.99331" width="0.10175" height="26.04525"/><rect class="fl" x="98.80916" y="11.99331" width="0.10175" height="26.04525"/><rect class="fm" x="98.91092" y="11.99331" width="0.10175" height="26.04525"/><rect class="fn" x="99.01267" y="11.99331" width="0.10175" height="26.04525"/><rect class="fo" x="99.11442" y="11.99331" width="0.10175" height="26.04525"/><rect class="fp" x="99.21618" y="11.99331" width="0.10175" height="26.04525"/><rect class="fq" x="99.31793" y="11.99331" width="0.10175" height="26.04525"/><rect class="fr" x="99.41968" y="11.99331" width="0.10175" height="26.04525"/><rect class="fs" x="99.52143" y="11.99331" width="0.10175" height="26.04525"/><rect class="ft" x="99.62319" y="11.99331" width="0.10175" height="26.04525"/><rect class="fu" x="99.72494" y="11.99331" width="0.10175" height="26.04525"/><rect class="fv" x="99.82669" y="11.99331" width="0.10175" height="26.04525"/><rect class="fw" x="99.92844" y="11.99331" width="0.10175" height="26.04525"/><rect class="fx" x="100.0302" y="11.99331" width="0.10175" height="26.04525"/><rect class="fy" x="100.13195" y="11.99331" width="0.10175" height="26.04525"/><rect class="fz" x="100.23371" y="11.99331" width="0.10175" height="26.04525"/><rect class="ga" x="100.33545" y="11.99331" width="0.10175" height="26.04525"/><rect class="gb" x="100.43721" y="11.99331" width="0.10175" height="26.04525"/><rect class="gb" x="100.53896" y="11.99331" width="0.10175" height="26.04525"/><rect class="gc" x="100.64072" y="11.99331" width="0.10175" height="26.04525"/><rect class="gd" x="100.74247" y="11.99331" width="0.10175" height="26.04525"/><rect class="ge" x="100.84422" y="11.99331" width="0.10175" height="26.04525"/><rect class="gf" x="100.94597" y="11.99331" width="0.10175" height="26.04525"/><rect class="gf" x="101.04773" y="11.99331" width="0.10175" height="26.04525"/><rect class="gg" x="101.14948" y="11.99331" width="0.10175" height="26.04525"/><rect class="gh" x="101.25123" y="11.99331" width="0.10175" height="26.04525"/><rect class="gi" x="101.35299" y="11.99331" width="0.10175" height="26.04525"/><rect class="gj" x="101.45474" y="11.99331" width="0.10175" height="26.04525"/><rect class="gj" x="101.55649" y="11.99331" width="0.10175" height="26.04525"/><rect class="gk" x="101.65824" y="11.99331" width="0.10175" height="26.04525"/><rect class="gk" x="101.76" y="11.99331" width="0.10175" height="26.04525"/><rect class="gl" x="101.86175" y="11.99331" width="0.10175" height="26.04525"/><rect class="gm" x="101.96351" y="11.99331" width="0.10175" height="26.04525"/><rect class="gm" x="102.06526" y="11.99331" width="0.10175" height="26.04525"/><rect class="gn" x="102.16701" y="11.99331" width="0.10175" height="26.04525"/><rect class="gn" x="102.26876" y="11.99331" width="0.10175" height="26.04525"/><rect class="go" x="102.37052" y="11.99331" width="0.10175" height="26.04525"/><rect class="gp" x="102.47227" y="11.99331" width="0.10175" height="26.04525"/><rect class="gq" x="102.57402" y="11.99331" width="0.10175" height="26.04525"/><rect class="gr" x="102.67577" y="11.99331" width="0.10175" height="26.04525"/><rect class="gr" x="102.77753" y="11.99331" width="0.10175" height="26.04525"/><rect class="gs" x="102.87928" y="11.99331" width="0.10175" height="26.04525"/><rect class="gs" x="102.98103" y="11.99331" width="0.10175" height="26.04525"/><rect class="gt" x="103.08278" y="11.99331" width="0.10175" height="26.04525"/><rect class="gu" x="103.18454" y="11.99331" width="0.10175" height="26.04525"/></g><g class="gw"><rect class="d" x="81.97368" y="16.72881" width="0.06475" height="16.57425"/><rect class="e" x="82.03843" y="16.72881" width="0.06475" height="16.57425"/><rect class="e" x="82.10318" y="16.72881" width="0.06475" height="16.57425"/><rect class="f" x="82.16794" y="16.72881" width="0.06475" height="16.57425"/><rect class="g" x="82.23269" y="16.72881" width="0.06475" height="16.57425"/><rect class="g" x="82.29744" y="16.72881" width="0.06475" height="16.57425"/><rect class="h" x="82.36219" y="16.72881" width="0.06475" height="16.57425"/><rect class="h" x="82.42695" y="16.72881" width="0.06475" height="16.57425"/><rect class="i" x="82.4917" y="16.72881" width="0.06475" height="16.57425"/><rect class="j" x="82.55645" y="16.72881" width="0.06475" height="16.57425"/><rect class="j" x="82.6212" y="16.72881" width="0.06475" height="16.57425"/><rect class="k" x="82.68595" y="16.72881" width="0.06475" height="16.57425"/><rect class="k" x="82.7507" y="16.72881" width="0.06475" height="16.57425"/><rect class="l" x="82.81546" y="16.72881" width="0.06475" height="16.57425"/><rect class="m" x="82.88021" y="16.72881" width="0.06475" height="16.57425"/><rect class="n" x="82.94496" y="16.72881" width="0.06475" height="16.57425"/><rect class="o" x="83.00971" y="16.72881" width="0.06475" height="16.57425"/><rect class="o" x="83.07446" y="16.72881" width="0.06475" height="16.57425"/><rect class="p" x="83.13922" y="16.72881" width="0.06475" height="16.57425"/><rect class="q" x="83.20397" y="16.72881" width="0.06475" height="16.57425"/><rect class="r" x="83.26872" y="16.72881" width="0.06475" height="16.57425"/><rect class="s" x="83.33347" y="16.72881" width="0.06475" height="16.57425"/><rect class="s" x="83.39822" y="16.72881" width="0.06475" height="16.57425"/><rect class="t" x="83.46298" y="16.72881" width="0.06475" height="16.57425"/><rect class="u" x="83.52773" y="16.72881" width="0.06475" height="16.57425"/><rect class="v" x="83.59248" y="16.72881" width="0.06475" height="16.57425"/><rect class="w" x="83.65723" y="16.72881" width="0.06475" height="16.57425"/><rect class="w" x="83.72198" y="16.72881" width="0.06475" height="16.57425"/><rect class="x" x="83.78673" y="16.72881" width="0.06475" height="16.57425"/><rect class="x" x="83.85149" y="16.72881" width="0.06475" height="16.57425"/><rect class="y" x="83.91624" y="16.72881" width="0.06475" height="16.57425"/><rect class="z" x="83.98099" y="16.72881" width="0.06475" height="16.57425"/><rect class="aa" x="84.04574" y="16.72881" width="0.06475" height="16.57425"/><rect class="ab" x="84.11049" y="16.72881" width="0.06475" height="16.57425"/><rect class="ab" x="84.17525" y="16.72881" width="0.06475" height="16.57425"/><rect class="ac" x="84.23999" y="16.72881" width="0.06475" height="16.57425"/><rect class="ad" x="84.30475" y="16.72881" width="0.06475" height="16.57425"/><rect class="ae" x="84.3695" y="16.72881" width="0.06475" height="16.57425"/><rect class="af" x="84.43425" y="16.72881" width="0.06475" height="16.57425"/><rect class="af" x="84.499" y="16.72881" width="0.06475" height="16.57425"/><rect class="ag" x="84.56376" y="16.72881" width="0.06475" height="16.57425"/><rect class="ah" x="84.62851" y="16.72881" width="0.06475" height="16.57425"/><rect class="ai" x="84.69326" y="16.72881" width="0.06475" height="16.57425"/><rect class="aj" x="84.75801" y="16.72881" width="0.06475" height="16.57425"/><rect class="ak" x="84.82276" y="16.72881" width="0.06475" height="16.57425"/><rect class="al" x="84.88751" y="16.72881" width="0.06475" height="16.57425"/><rect class="am" x="84.95227" y="16.72881" width="0.06475" height="16.57425"/><rect class="an" x="85.01702" y="16.72881" width="0.06475" height="16.57425"/><rect class="ao" x="85.08177" y="16.72881" width="0.06475" height="16.57425"/><rect class="ap" x="85.14652" y="16.72881" width="0.06475" height="16.57425"/><rect class="aq" x="85.21128" y="16.72881" width="0.06475" height="16.57425"/><rect class="ar" x="85.27602" y="16.72881" width="0.06475" height="16.57425"/><rect class="as" x="85.34078" y="16.72881" width="0.06475" height="16.57425"/><rect class="at" x="85.40553" y="16.72881" width="0.06475" height="16.57425"/><rect class="au" x="85.47028" y="16.72881" width="0.06475" height="16.57425"/><rect class="av" x="85.53503" y="16.72881" width="0.06475" height="16.57425"/><rect class="aw" x="85.59979" y="16.72881" width="0.06475" height="16.57425"/><rect class="ax" x="85.66454" y="16.72881" width="0.06475" height="16.57425"/><rect class="ay" x="85.72929" y="16.72881" width="0.06475" height="16.57425"/><rect class="az" x="85.79404" y="16.72881" width="0.06475" height="16.57425"/><rect class="az" x="85.8588" y="16.72881" width="0.06475" height="16.57425"/><rect class="ba" x="85.92354" y="16.72881" width="0.06475" height="16.57425"/><rect class="bb" x="85.9883" y="16.72881" width="0.06475" height="16.57425"/><rect class="bc" x="86.05305" y="16.72881" width="0.06475" height="16.57425"/><rect class="bd" x="86.1178" y="16.72881" width="0.06475" height="16.57425"/><rect class="bd" x="86.18255" y="16.72881" width="0.06475" height="16.57425"/><rect class="be" x="86.2473" y="16.72881" width="0.06475" height="16.57425"/><rect class="bf" x="86.31206" y="16.72881" width="0.06475" height="16.57425"/><rect class="bg" x="86.37681" y="16.72881" width="0.06475" height="16.57425"/><rect class="bh" x="86.44156" y="16.72881" width="0.06475" height="16.57425"/><rect class="bh" x="86.50631" y="16.72881" width="0.06475" height="16.57425"/><rect class="bi" x="86.57106" y="16.72881" width="0.06475" height="16.57425"/><rect class="bi" x="86.63581" y="16.72881" width="0.06475" height="16.57425"/><rect class="bj" x="86.70057" y="16.72881" width="0.06475" height="16.57425"/><rect class="bk" x="86.76532" y="16.72881" width="0.06475" height="16.57425"/><rect class="bk" x="86.83007" y="16.72881" width="0.06475" height="16.57425"/><rect class="bl" x="86.89482" y="16.72881" width="0.06475" height="16.57425"/><rect class="bl" x="86.95958" y="16.72881" width="0.06475" height="16.57425"/><rect class="bm" x="87.02432" y="16.72881" width="0.06475" height="16.57425"/><rect class="bn" x="87.08908" y="16.72881" width="0.06475" height="16.57425"/><rect class="bn" x="87.15383" y="16.72881" width="0.06475" height="16.57425"/><rect class="bo" x="87.21858" y="16.72881" width="0.06475" height="16.57425"/><rect class="bo" x="87.28333" y="16.72881" width="0.06475" height="16.57425"/><rect class="bp" x="87.34809" y="16.72881" width="0.06475" height="16.57425"/><rect class="bq" x="87.41284" y="16.72881" width="0.06475" height="16.57425"/><rect class="br" x="87.47759" y="16.72881" width="0.06475" height="16.57425"/><rect class="bs" x="87.54234" y="16.72881" width="0.06475" height="16.57425"/><rect class="bs" x="87.60709" y="16.72881" width="0.06475" height="16.57425"/><rect class="bt" x="87.67184" y="16.72881" width="0.06475" height="16.57425"/><rect class="bt" x="87.7366" y="16.72881" width="0.06475" height="16.57425"/><rect class="bu" x="87.80135" y="16.72881" width="0.06475" height="16.57425"/><rect class="bv" x="87.8661" y="16.72881" width="0.06475" height="16.57425"/><rect class="bv" x="87.93085" y="16.72881" width="0.06475" height="16.57425"/><rect class="bw" x="87.99561" y="16.72881" width="0.06475" height="16.57425"/><rect class="bw" x="88.06036" y="16.72881" width="0.06475" height="16.57425"/><rect class="bx" x="88.12511" y="16.72881" width="0.06475" height="16.57425"/><rect class="by" x="88.18986" y="16.72881" width="0.06475" height="16.57425"/><rect class="bz" x="88.25461" y="16.72881" width="0.06475" height="16.57425"/><rect class="ca" x="88.31936" y="16.72881" width="0.06475" height="16.57425"/><rect class="ca" x="88.38412" y="16.72881" width="0.06475" height="16.57425"/><rect class="cb" x="88.44887" y="16.72881" width="0.06475" height="16.57425"/><rect class="cc" x="88.51362" y="16.72881" width="0.06475" height="16.57425"/><rect class="cd" x="88.57837" y="16.72881" width="0.06475" height="16.57425"/><rect class="ce" x="88.64312" y="16.72881" width="0.06475" height="16.57425"/><rect class="ce" x="88.70787" y="16.72881" width="0.06475" height="16.57425"/><rect class="cf" x="88.77263" y="16.72881" width="0.06475" height="16.57425"/><rect class="cg" x="88.83738" y="16.72881" width="0.06475" height="16.57425"/><rect class="ch" x="88.90213" y="16.72881" width="0.06475" height="16.57425"/><rect class="ci" x="88.96688" y="16.72881" width="0.06475" height="16.57425"/><rect class="cj" x="89.03163" y="16.72881" width="0.06475" height="16.57425"/><rect class="ck" x="89.09639" y="16.72881" width="0.06475" height="16.57425"/><rect class="ck" x="89.16114" y="16.72881" width="0.06475" height="16.57425"/><rect class="cl" x="89.22589" y="16.72881" width="0.06475" height="16.57425"/><rect class="cm" x="89.29064" y="16.72881" width="0.06475" height="16.57425"/><rect class="cn" x="89.35539" y="16.72881" width="0.06475" height="16.57425"/><rect class="co" x="89.42014" y="16.72881" width="0.06475" height="16.57425"/><rect class="co" x="89.4849" y="16.72881" width="0.06475" height="16.57425"/><rect class="cp" x="89.54965" y="16.72881" width="0.06475" height="16.57425"/><rect class="cq" x="89.6144" y="16.72881" width="0.06475" height="16.57425"/><rect class="cr" x="89.67915" y="16.72881" width="0.06475" height="16.57425"/><rect class="cs" x="89.74391" y="16.72881" width="0.06475" height="16.57425"/><rect class="cs" x="89.80865" y="16.72881" width="0.06475" height="16.57425"/><rect class="ct" x="89.87341" y="16.72881" width="0.06475" height="16.57425"/><rect class="cu" x="89.93816" y="16.72881" width="0.06475" height="16.57425"/><rect class="cv" x="90.00291" y="16.72881" width="0.06475" height="16.57425"/><rect class="cw" x="90.06766" y="16.72881" width="0.06475" height="16.57425"/><rect class="cw" x="90.13242" y="16.72881" width="0.06475" height="16.57425"/><rect class="cx" x="90.19717" y="16.72881" width="0.06475" height="16.57425"/><rect class="cy" x="90.26192" y="16.72881" width="0.06475" height="16.57425"/><rect class="cz" x="90.32667" y="16.72881" width="0.06475" height="16.57425"/><rect class="da" x="90.39142" y="16.72881" width="0.06475" height="16.57425"/><rect class="db" x="90.45617" y="16.72881" width="0.06475" height="16.57425"/><rect class="dc" x="90.52093" y="16.72881" width="0.06475" height="16.57425"/><rect class="dd" x="90.58568" y="16.72881" width="0.06475" height="16.57425"/><rect class="de" x="90.65043" y="16.72881" width="0.06475" height="16.57425"/><rect class="df" x="90.71518" y="16.72881" width="0.06475" height="16.57425"/><rect class="dg" x="90.77994" y="16.72881" width="0.06475" height="16.57425"/><rect class="dh" x="90.84469" y="16.72881" width="0.06475" height="16.57425"/><rect class="di" x="90.90944" y="16.72881" width="0.06475" height="16.57425"/><rect class="dj" x="90.97419" y="16.72881" width="0.06475" height="16.57425"/><rect class="dk" x="91.03894" y="16.72881" width="0.06475" height="16.57425"/><rect class="dl" x="91.10369" y="16.72881" width="0.06475" height="16.57425"/><rect class="dl" x="91.16844" y="16.72881" width="0.06475" height="16.57425"/><rect class="dm" x="91.2332" y="16.72881" width="0.06475" height="16.57425"/><rect class="dn" x="91.29795" y="16.72881" width="0.06475" height="16.57425"/><rect class="do" x="91.3627" y="16.72881" width="0.06475" height="16.57425"/><rect class="dp" x="91.42745" y="16.72881" width="0.06475" height="16.57425"/><rect class="dq" x="91.49221" y="16.72881" width="0.06475" height="16.57425"/><rect class="dr" x="91.55695" y="16.72881" width="0.06475" height="16.57425"/><rect class="ds" x="91.62171" y="16.72881" width="0.06475" height="16.57425"/><rect class="dt" x="91.68646" y="16.72881" width="0.06475" height="16.57425"/><rect class="du" x="91.75121" y="16.72881" width="0.06475" height="16.57425"/><rect class="du" x="91.81596" y="16.72881" width="0.06475" height="16.57425"/><rect class="dv" x="91.88072" y="16.72881" width="0.06475" height="16.57425"/><rect class="dv" x="91.94547" y="16.72881" width="0.06475" height="16.57425"/><rect class="dw" x="92.01022" y="16.72881" width="0.06475" height="16.57425"/><rect class="dx" x="92.07497" y="16.72881" width="0.06475" height="16.57425"/><rect class="dx" x="92.13972" y="16.72881" width="0.06475" height="16.57425"/><rect class="dy" x="92.20447" y="16.72881" width="0.06475" height="16.57425"/><rect class="dy" x="92.26923" y="16.72881" width="0.06475" height="16.57425"/><rect class="dz" x="92.33398" y="16.72881" width="0.06475" height="16.57425"/><rect class="ea" x="92.39873" y="16.72881" width="0.06475" height="16.57425"/><rect class="ea" x="92.46348" y="16.72881" width="0.06475" height="16.57425"/><rect class="eb" x="92.52824" y="16.72881" width="0.06475" height="16.57425"/><rect class="eb" x="92.59298" y="16.72881" width="0.06475" height="16.57425"/><rect class="ec" x="92.65774" y="16.72881" width="0.06475" height="16.57425"/><rect class="ed" x="92.72249" y="16.72881" width="0.06475" height="16.57425"/><rect class="ed" x="92.78724" y="16.72881" width="0.06475" height="16.57425"/><rect class="ee" x="92.85199" y="16.72881" width="0.06475" height="16.57425"/><rect class="ee" x="92.91675" y="16.72881" width="0.06475" height="16.57425"/><rect class="ef" x="92.9815" y="16.72881" width="0.06475" height="16.57425"/><rect class="ef" x="93.04625" y="16.72881" width="0.06475" height="16.57425"/><rect class="eg" x="93.111" y="16.72881" width="0.06475" height="16.57425"/><rect class="eh" x="93.17575" y="16.72881" width="0.06475" height="16.57425"/><rect class="eh" x="93.2405" y="16.72881" width="0.06475" height="16.57425"/><rect class="ei" x="93.30526" y="16.72881" width="0.06475" height="16.57425"/><rect class="ei" x="93.37001" y="16.72881" width="0.06475" height="16.57425"/><rect class="ej" x="93.43476" y="16.72881" width="0.06475" height="16.57425"/><rect class="ek" x="93.49951" y="16.72881" width="0.06475" height="16.57425"/><rect class="ek" x="93.56426" y="16.72881" width="0.06475" height="16.57425"/><rect class="el" x="93.62902" y="16.72881" width="0.06475" height="16.57425"/><rect class="el" x="93.69376" y="16.72881" width="0.06475" height="16.57425"/><rect class="em" x="93.75852" y="16.72881" width="0.06475" height="16.57425"/><rect class="en" x="93.82327" y="16.72881" width="0.06475" height="16.57425"/><rect class="eo" x="93.88802" y="16.72881" width="0.06475" height="16.57425"/><rect class="ep" x="93.95277" y="16.72881" width="0.06475" height="16.57425"/><rect class="eq" x="94.01753" y="16.72881" width="0.06475" height="16.57425"/><rect class="er" x="94.08228" y="16.72881" width="0.06475" height="16.57425"/><rect class="es" x="94.14703" y="16.72881" width="0.06475" height="16.57425"/><rect class="et" x="94.21178" y="16.72881" width="0.06475" height="16.57425"/><rect class="eu" x="94.27653" y="16.72881" width="0.06475" height="16.57425"/><rect class="eu" x="94.34128" y="16.72881" width="0.06475" height="16.57425"/><rect class="ev" x="94.40604" y="16.72881" width="0.06475" height="16.57425"/><rect class="ev" x="94.47079" y="16.72881" width="0.06475" height="16.57425"/><rect class="ew" x="94.53554" y="16.72881" width="0.06475" height="16.57425"/><rect class="ex" x="94.60029" y="16.72881" width="0.06475" height="16.57425"/><rect class="ex" x="94.66505" y="16.72881" width="0.06475" height="16.57425"/><rect class="ey" x="94.7298" y="16.72881" width="0.06475" height="16.57425"/><rect class="ez" x="94.79455" y="16.72881" width="0.06475" height="16.57425"/><rect class="fa" x="94.8593" y="16.72881" width="0.06475" height="16.57425"/><rect class="fb" x="94.92405" y="16.72881" width="0.06475" height="16.57425"/><rect class="fc" x="94.9888" y="16.72881" width="0.06475" height="16.57425"/><rect class="fd" x="95.05356" y="16.72881" width="0.06475" height="16.57425"/><rect class="fd" x="95.11831" y="16.72881" width="0.06475" height="16.57425"/><rect class="fe" x="95.18306" y="16.72881" width="0.06475" height="16.57425"/><rect class="ff" x="95.24781" y="16.72881" width="0.06475" height="16.57425"/><rect class="fg" x="95.31257" y="16.72881" width="0.06475" height="16.57425"/><rect class="fh" x="95.37731" y="16.72881" width="0.06475" height="16.57425"/><rect class="fh" x="95.44207" y="16.72881" width="0.06475" height="16.57425"/><rect class="fi" x="95.50682" y="16.72881" width="0.06475" height="16.57425"/><rect class="fj" x="95.57157" y="16.72881" width="0.06475" height="16.57425"/><rect class="fk" x="95.63632" y="16.72881" width="0.06475" height="16.57425"/><rect class="fl" x="95.70108" y="16.72881" width="0.06475" height="16.57425"/><rect class="fm" x="95.76583" y="16.72881" width="0.06475" height="16.57425"/><rect class="fn" x="95.83058" y="16.72881" width="0.06475" height="16.57425"/><rect class="fo" x="95.89533" y="16.72881" width="0.06475" height="16.57425"/><rect class="fp" x="95.96008" y="16.72881" width="0.06475" height="16.57425"/><rect class="fq" x="96.02483" y="16.72881" width="0.06475" height="16.57425"/><rect class="fr" x="96.08958" y="16.72881" width="0.06475" height="16.57425"/><rect class="fs" x="96.15434" y="16.72881" width="0.06475" height="16.57425"/><rect class="ft" x="96.21909" y="16.72881" width="0.06475" height="16.57425"/><rect class="fu" x="96.28384" y="16.72881" width="0.06475" height="16.57425"/><rect class="fv" x="96.34859" y="16.72881" width="0.06475" height="16.57425"/><rect class="fw" x="96.41335" y="16.72881" width="0.06475" height="16.57425"/><rect class="fx" x="96.47809" y="16.72881" width="0.06475" height="16.57425"/><rect class="fy" x="96.54285" y="16.72881" width="0.06475" height="16.57425"/><rect class="fz" x="96.6076" y="16.72881" width="0.06475" height="16.57425"/><rect class="ga" x="96.67235" y="16.72881" width="0.06475" height="16.57425"/><rect class="gb" x="96.7371" y="16.72881" width="0.06475" height="16.57425"/><rect class="gb" x="96.80186" y="16.72881" width="0.06475" height="16.57425"/><rect class="gc" x="96.86661" y="16.72881" width="0.06475" height="16.57425"/><rect class="gd" x="96.93136" y="16.72881" width="0.06475" height="16.57425"/><rect class="ge" x="96.99611" y="16.72881" width="0.06475" height="16.57425"/><rect class="gf" x="97.06087" y="16.72881" width="0.06475" height="16.57425"/><rect class="gf" x="97.12561" y="16.72881" width="0.06475" height="16.57425"/><rect class="gg" x="97.19037" y="16.72881" width="0.06475" height="16.57425"/><rect class="gh" x="97.25512" y="16.72881" width="0.06475" height="16.57425"/><rect class="gi" x="97.31987" y="16.72881" width="0.06475" height="16.57425"/><rect class="gj" x="97.38462" y="16.72881" width="0.06475" height="16.57425"/><rect class="gj" x="97.44938" y="16.72881" width="0.06475" height="16.57425"/><rect class="gk" x="97.51412" y="16.72881" width="0.06475" height="16.57425"/><rect class="gk" x="97.57888" y="16.72881" width="0.06475" height="16.57425"/><rect class="gl" x="97.64363" y="16.72881" width="0.06475" height="16.57425"/><rect class="gm" x="97.70838" y="16.72881" width="0.06475" height="16.57425"/><rect class="gm" x="97.77313" y="16.72881" width="0.06475" height="16.57425"/><rect class="gn" x="97.83789" y="16.72881" width="0.06475" height="16.57425"/><rect class="gn" x="97.90264" y="16.72881" width="0.06475" height="16.57425"/><rect class="go" x="97.96739" y="16.72881" width="0.06475" height="16.57425"/><rect class="gp" x="98.03214" y="16.72881" width="0.06475" height="16.57425"/><rect class="gq" x="98.09689" y="16.72881" width="0.06475" height="16.57425"/><rect class="gr" x="98.16165" y="16.72881" width="0.06475" height="16.57425"/><rect class="gr" x="98.2264" y="16.72881" width="0.06475" height="16.57425"/><rect class="gs" x="98.29115" y="16.72881" width="0.06475" height="16.57425"/><rect class="gs" x="98.3559" y="16.72881" width="0.06475" height="16.57425"/><rect class="gt" x="98.42065" y="16.72881" width="0.06475" height="16.57425"/><rect class="gu" x="98.4854" y="16.72881" width="0.06475" height="16.57425"/></g></svg>