<svg xmlns="http://www.w3.org/2000/svg" viewBox="0 0 180.51692 63.49203"><defs><style>.cls-1{fill:#e61f19;}.cls-2{fill:#404040;}</style></defs><g id="tencent"><g id="_ff0000ff" data-name="#ff0000ff"><path class="cls-1" d="M50.71731,6.962h.40813Q48.204,21.39892,45.33415,35.8496c-.14121.49079-.05683,1.19167-.66472,1.37765.0706-.47528.16015-.94713.25659-1.41725C46.86334,26.19572,48.76622,16.57283,50.71731,6.962Z"/><path class="cls-1" d="M51.92448,6.962h.40813q-2.999,14.38526-5.93767,28.78084c-.15671.52006-.06027,1.27088-.694,1.48613.17393-1.08317.42708-2.15257.64061-3.22886C48.20827,24.98855,50.04054,15.97011,51.92448,6.962Z"/><path class="cls-1" d="M52.78551,6.962h.40641q-2.92148,14.43692-5.7913,28.88416c-.13776.49423-.06027,1.18822-.66472,1.38281.06889-.47184.15844-.94024.25315-1.40692C48.92809,26.20433,50.831,16.578,52.78551,6.962Z"/><path class="cls-1" d="M53.64654,6.962h.40813Q51.048,21.37825,48.105,35.80655c-.14983.50457-.062,1.22267-.68022,1.42242.0706-.46151.15843-.91958.25487-1.37592C49.67719,26.225,51.63345,16.58661,53.64654,6.962Z"/><path class="cls-1" d="M58.935,6.962h.59756c3.74892.08438,7.50819.06888,11.24334.45979A9.94888,9.94888,0,0,1,74.022,8.7805,9.0934,9.0934,0,0,1,77.7141,11.987c1.17616,2.06647,1.11245,4.5273,1.04528,6.828-.1257,1.44653-.15842,2.9034-.39779,4.33615a18.82325,18.82325,0,0,1-2.56071,5.97556,20.80651,20.80651,0,0,1-5.35733,5.84468,10.88938,10.88938,0,0,1-4.11746,1.939,14.79816,14.79816,0,0,1-3.20648.18943q-7.50389-.00516-15.00778-.00344Q51.17021,22.0731,54.22,7.0481c1.57224.00861,3.14449-.00344,4.715-.0861m.03444,4.98537C57.504,18.98028,56.09532,26.027,54.58162,33.04953c1.586-.01722,3.1686.17565,4.7529.06544a13.85569,13.85569,0,0,0,8.662-3.20648A16.97894,16.97894,0,0,0,72.944,20.20466c.13777-1.87016.09643-3.91769-1.02118-5.5106a7.25658,7.25658,0,0,0-5.00948-2.92578,47.53187,47.53187,0,0,0-7.62186-.32547C58.96255,11.33776,59.06587,11.78205,58.96944,11.94737Z"/><path class="cls-1" d="M25.415,7.1342H49.57386c-.35646,1.42243-.73015,2.84141-1.09867,4.26211-3.05322.031-6.10471-.05166-9.15793-.043Q36.33895,24.31265,33.3572,37.27031c-1.83917.00172-3.67833-.019-5.51749.04993Q30.57,24.335,33.30037,11.35326c-3.11005-.00861-6.21837.074-9.32842.043C24.45241,9.97561,24.93975,8.55663,25.415,7.1342Z"/></g><g id="_404040ff" data-name="#404040ff"><path class="cls-2" d="M91.8574,7.334a22.54134,22.54134,0,0,1,4.312-.19976h8.31929c-.20493,1.20373-.39091,2.40917-.59411,3.61289-.65439.30653-1.26228.84037-2.02515.78354q-4.213-.01033-8.42433-.00172a1.6218,1.6218,0,0,0-1.33632.67505A4.93931,4.93931,0,0,0,91.04114,14.527a3.94189,3.94189,0,0,0,1.20544,2.73808c2.23352,2.64681,5.22474,4.53936,7.38421,7.25677a7.498,7.498,0,0,1,2.00792,5.18686,7.0199,7.0199,0,0,1-2.13019,4.87,7.19652,7.19652,0,0,1-3.64905,2.268,25.23113,25.23113,0,0,1-4.84589.38229c-3.389.08094-6.778.04306-10.16705-.0086a3.15765,3.15765,0,0,1-1.16239-.49768,8.7873,8.7873,0,0,1,.985-3.75582q5.51748-.00776,11.035-.00172a2.40293,2.40293,0,0,0,1.89083-.68883,6.241,6.241,0,0,0,1.03151-2.25246,2.788,2.788,0,0,0-.1567-1.6945,4.0502,4.0502,0,0,0-1.21406-1.58258c-2.175-2.1853-4.33271-4.3861-6.50423-6.57311a13.319,13.319,0,0,1-2.00793-2.30585,5.39579,5.39579,0,0,1-.539-2.64681,6.92352,6.92352,0,0,1,1.19339-4.39987C86.83242,8.68234,89.4069,7.71454,91.8574,7.334Z"/><path class="cls-2" d="M111.91082,9.2644a21.6935,21.6935,0,0,1,11.46893-2.2163,14.54311,14.54311,0,0,1,7.93011,2.664,9.55494,9.55494,0,0,1,3.44756,6.20632,20.71087,20.71087,0,0,1-.49078,7.48064,11.9829,11.9829,0,0,1-1.7014,4.3c-.9368,1.3191-1.98209,2.55726-2.93439,3.866,1.33115.99191,2.67436,1.96832,4.00552,2.96023-.83348.94713-1.67557,1.88738-2.51249,2.83107-1.40865-.98674-2.81041-1.98554-4.22594-2.96023a22.42658,22.42658,0,0,1-5.67248,2.30584,20.33878,20.33878,0,0,1-9.926-.074,14.489,14.489,0,0,1-3.45618-1.56192,10.58762,10.58762,0,0,1-4.7064-6.735c-.19976-3.90909-.08783-7.99726,1.59635-11.60843a15.47511,15.47511,0,0,1,7.17756-7.45825m.51317,6.2132a15.9376,15.9376,0,0,0-3.30463,8.5311,11.66048,11.66048,0,0,0,.09126,3.48718,6.90592,6.90592,0,0,0,1.31394,2.65369,7.408,7.408,0,0,0,5.28673,2.66231,12.69424,12.69424,0,0,0,6.86587-1.74789q-3.36577-2.41261-6.735-4.82522c.9368-.8662,1.88393-1.72206,2.8259-2.58482q3.48719,2.43587,6.97781,4.86483A14.50205,14.50205,0,0,0,128.787,17.48725a7.48911,7.48911,0,0,0-3.30463-5.40384,7.353,7.353,0,0,0-4.84761-.86275A11.80947,11.80947,0,0,0,112.424,15.4776Z"/><path class="cls-2" d="M141.93154,7.18414c1.81678-.00861,3.63528-.031,5.45033.04994Q144.5534,20.07465,141.737,32.91693c4.93543.01205,9.87087,0,14.808.00689-.5614,1.44825-1.1245,2.89651-1.679,4.34649H134.8952Q138.41337,22.22636,141.93154,7.18414Z"/></g><path class="cls-2" d="M29.31734,49.23007l-1.44828,8.14011H26.85037l.58927-3.12629h-.67916c-.22972,1.1486-.49938,2.21733-.75912,3.12629H25.0026c.29968-.97892.56934-2.03755.79906-3.18616l.98876-5.53313h1.89763C29.19744,48.65089,29.39722,48.74069,29.31734,49.23007Zm-1.42827,2.59688h-.69916l-.27967,1.598h.67915Zm.21972-2.32714h-.49938l-.26967,1.51807h.69917l.24965-1.32837C28.31858,49.52975,28.25863,49.49981,28.10879,49.49981Zm4.065,6.67182H28.72807l-.13983-.77914h3.76533Zm2.66676-3.37585-.25974.87886a3.73533,3.73533,0,0,1-1.25842-.5294l-.23973,1.0588h.48938c.34962,0,.58935.05986.51939.47928-.11982.75912-.29959,1.78782-.46944,2.68686H30.91538l-.17977-.80907h1.93757l.27967-1.3684c.02993-.13975-.02994-.19962-.16977-.19962H29.37721l.31961-1.638a5.24449,5.24449,0,0,1-.96875.31953l.20971-.99877A4.012,4.012,0,0,0,30.6157,51.797H29.10755l.15985-.77914h1.8777a3.22,3.22,0,0,0,.20971-.45944H29.34728l.15976-.799h.68916l-.23964-1.19855h1.04871c.06987.39957.14975.769.23964,1.19855h.35963a8.54484,8.54484,0,0,0,.17978-1.36841H32.843a8.23476,8.23476,0,0,1-.17978,1.36841h.38957a9.64382,9.64382,0,0,0,.46945-1.19855H34.5709a10.80836,10.80836,0,0,1-.50939,1.19855h.73911l-.18978.799H32.42353c-.05.15976-.11991.3096-.17977.45944h2.67668l-.18978.77914H33.19257A2.95688,2.95688,0,0,0,34.84056,52.79578ZM32.054,54.204l.1997-.91889H30.21621l.46945.31953-.1099.59936Zm-.26966-2.407a3.733,3.733,0,0,1-.70918.729h1.54809a3.1284,3.1284,0,0,1-.46936-.729Z"/><path class="cls-2" d="M51.51068,55.35264c.40949-.29968.87886-.67924,1.31837-1.02887l-.23973,1.29845A24.72171,24.72171,0,0,1,50.00253,57.41L51.0113,51.9667H49.98252l.14984-.87886h2.13736Zm-.01-4.7942c-.1199-.69908-.24973-1.39833-.36955-2.09742h1.0387l.4195,2.09742ZM58.502,49.23007c-.40949,2.28728-.85893,4.864-1.26842,7.13125h1.23849l-.35955.92881H55.95517c.3096-1.72778.56934-3.246.79906-4.56431h-1.598l-.79906,4.56431H53.25847l.79906-4.56431H52.68922l.16976-.84892h1.34839l.37948-2.13745.96883.7191L55.306,51.8769h1.598c.13984-.80907.26975-1.53809.38957-2.15746.04995-.25965-.06-.28959-.28967-.28959H53.31843l-.19979-.87886h4.76418C58.4921,48.551,58.59191,48.73077,58.502,49.23007Z"/><path class="cls-2" d="M75.57163,56.27152h4.42456c-.43951-.79914-.85893-1.608-1.23849-2.37709h1.23849c.54933,1.04871,1.29836,2.24726,2.09742,3.47575H80.60539c-.14976-.25983-.28959-.51948-.42943-.77914l-.32961.59936H73.42427A32.71747,32.71747,0,0,0,76.88,52.74583H73.95358l.13984-.91888H82.523l-.13983.91888h-4.065A32.5157,32.5157,0,0,1,75.57163,56.27152Zm6.26224-6.45219H75.17206l.14984-.91888h6.66181Z"/><path class="cls-2" d="M101.07078,57.39c-.38965-.29951-.839-.59919-1.27843-.87886a7.17191,7.17191,0,0,1-2.497.87886l.30961-.98867a5.52874,5.52874,0,0,0,1.33829-.4095c-.38948-.23981-.7391-.43959-.98867-.58926l.6192-.859H97.50506l.10982-.799H99.123c.11-.14984.20988-.30961.29968-.45945h1.12859c-.09989.15977-.19979.30961-.29951.45945h1.59795c.32961,0,.41942.03985.41942.31952a1.34932,1.34932,0,0,1-.38949.89887,9.49529,9.49529,0,0,1-1.2384,1.01877c.37956.2198.749.43943,1.03862.6293Zm-2.26727-4.1348H97.68484a15.20328,15.20328,0,0,0,1.24849-1.8677h.9389A19.49852,19.49852,0,0,1,98.80351,53.25522Zm1.21856-2.16738H98.05448l.11973-.82908h1.96759l.27967-1.87762h.97875l-.26958,1.87762h1.99753l-.12983.82908h-1.97751l-.27967,1.9575H99.73231Zm-.96883-1.0287c-.22972-.49946-.4396-.94881-.66932-1.39833h.96883c.18986.38948.41958.819.70917,1.39833Zm.78905,5.46318a5.65009,5.65009,0,0,0,1.17854-.89887c.03986-.03985.03986-.07988-.0301-.07988H99.70238c-.16986.24973-.33954.46936-.46937.65923Zm6.39215-4.39462a13.83448,13.83448,0,0,1-1.37832,3.60557,19.06256,19.06256,0,0,0,1.31829,2.63691h-1.22849a14.89333,14.89333,0,0,1-.729-1.62806,14.11435,14.11435,0,0,1-1.3684,1.62806h-1.43819a17.23419,17.23419,0,0,0,2.37709-2.78658,18.4035,18.4035,0,0,1-.6293-2.12753,4.70723,4.70723,0,0,1-.5193.34963c.05986.12983.12982.26975.19978.4095h-1.09865c-.23982-.5992-.46954-1.20848-.66915-1.82768h.89887c.16968.39941.38948.83883.62912,1.32838l.15993-1.19855c.60911-.5294,1.01861-1.27843,1.44811-3.13621h.98884a13.86124,13.86124,0,0,1-.53932,1.84769h2.35708l-.0999.89887Zm-4.93394-1.06856a15.36645,15.36645,0,0,0,.84892-1.39833h.99876c-.22972.41942-.57934,1.01877-.819,1.39833Zm3.92509,1.06856h-.96883a4.13583,4.13583,0,0,1-1.05863,1.29844h.91888a10.62374,10.62374,0,0,0,.28959,1.0588A10.04391,10.04391,0,0,0,105.22559,51.1277Z"/><path class="cls-2" d="M123.69354,53.77453l-.50939,3.59565h-1.7779l-.26957-.84909h1.11867l.33953-2.35708c-.25965.09-.50939.17978-.749.25966l-.40949-.84893c.40949-.1199.84892-.24973,1.29827-.38948l.27967-2.02746h-1.06872l.13-.889h1.06855l.26975-1.88771h1.04871l-.26975,1.88771h.98884l-.12982.889H124.063l-.22972,1.66791c.32961-.10981.66915-.2198.99876-.33953l-.13975.91871C124.3827,53.5248,124.04316,53.6447,123.69354,53.77453Zm5.18368-2.517-.13992,1.02886h1.96759l-.11991.839h-1.9575l-.12983,1.0287h1.06873c.46936,0,.58926.12983.51931.60928l-.35955,2.60681h-4.23486l.46936-3.21609h1.50815l.13992-1.0287H126.0306a19.31667,19.31667,0,0,1-1.42827,4.24479h-1.16845c1.618-2.94651,1.9575-5.87284,2.29721-8.80926h4.64419c.48937,0,.58926.19978.53932.57934l-.29951,2.11727Zm-1.01878,0h-1.46829l-.17978,1.02886h1.50815Zm-1.21856-1.87762c-.03986.34962-.07988.70917-.12983,1.05863h3.21609l.12983-.91872c.02-.11-.02994-.13991-.14984-.13991Zm2.28728,5.58308H126.8696l-.2198,1.5882h2.14737L129.017,55.053C129.02689,54.983,129.007,54.963,128.92716,54.963Z"/><path class="cls-2" d="M154.93569,49.0703l-.09989.84893h-7.0613c-.1199,1.28852-.28959,2.34715-.45944,3.40578a20.20973,20.20973,0,0,1-1.10858,4.04517h-1.23857a21.485,21.485,0,0,0,1.24849-4.135c.20971-1.22849.38949-2.3971.5294-4.16491h3.49576q-.12007-.41949-.17978-.68916h1.25842c.03986.17978.09989.35955.20971.68916ZM150.701,50.938h3.80519l-.12983.87886h-4.1649c-.29952.50939-.58927.97892-.83884,1.35848H150.641l.17978-1.26851,1.01877.55934-.09989.70917h2.24726l-.12983.82891H151.6298l-.1199.86894h2.86646l-.12983.87885h-2.86646l-.21963,1.61814h-1.11867l.22972-1.61814h-3.15622l.12983-.87885h3.15622l.11991-.86894h-2.77666c.48937-.72919.9288-1.44828,1.3383-2.18739h-1.28836l.12983-.87886h1.618c.12982-.25965.25965-.51931.37956-.779h1.19855Z"/></g></svg>