<svg xmlns="http://www.w3.org/2000/svg" viewBox="0 0 180.52 63.49"><defs><style>.cls-1,.cls-3{fill:#ec6c00;}.cls-2{fill:#231815;}.cls-2,.cls-3{fill-rule:evenodd;}</style></defs><g id="Alibaba"><path class="cls-1" d="M51.75,30.78H47.81L53.89,19h4.37l5.8,11.75H59.68l-.88-2.12H52.7Zm6-4.67-1.88-4.28-2,4.28Z"/><path class="cls-1" d="M64.64,30.78V19h3.78V30.78Z"/><path class="cls-1" d="M70.71,21.44V19.05h3.78v2.39Zm0,9.34V22.6h3.78v8.18Z"/><path class="cls-1" d="M76.61,19h3.78v4.74a4.56,4.56,0,0,1,1.52-1.05,4.68,4.68,0,0,1,1.82-.34,4.1,4.1,0,0,1,3.11,1.23A4.57,4.57,0,0,1,88,26.89a3.94,3.94,0,0,1-1.15,3A4.24,4.24,0,0,1,83.78,31a4.72,4.72,0,0,1-1.91-.38,4,4,0,0,1-1.48-1.14c0,.27,0,.52,0,.74a2.9,2.9,0,0,1-.1.58H76.48a5.05,5.05,0,0,0,.1-.57c0-.24,0-.5,0-.8Zm7.58,7.69A2.64,2.64,0,0,0,83.68,25a1.7,1.7,0,0,0-1.38-.62,1.76,1.76,0,0,0-1.44.6,2.68,2.68,0,0,0-.5,1.75,2.57,2.57,0,0,0,.5,1.68,1.92,1.92,0,0,0,2.81,0A2.5,2.5,0,0,0,84.19,26.72Z"/><path class="cls-1" d="M96.38,29.58A3.27,3.27,0,0,1,95,30.63a5.65,5.65,0,0,1-2.09.34,4.87,4.87,0,0,1-2.68-.62,2,2,0,0,1-.94-1.76,2.32,2.32,0,0,1,1.62-2.24,15.45,15.45,0,0,1,5.42-.72s0-.05,0-.09a.46.46,0,0,0,0-.1A1.16,1.16,0,0,0,96,24.5a1.73,1.73,0,0,0-1.13-.31,2,2,0,0,0-1,.22,1,1,0,0,0-.44.68H89.84a2.22,2.22,0,0,1,1.29-2A8.67,8.67,0,0,1,95,22.4a7,7,0,0,1,3.72.78,2.61,2.61,0,0,1,1.22,2.36v4.17a5.29,5.29,0,0,0,0,.63,1.89,1.89,0,0,0,.12.44h-3.5a3,3,0,0,1-.15-.59A4.07,4.07,0,0,1,96.38,29.58Zm-.08-2.34a8.58,8.58,0,0,0-2.5.24.85.85,0,0,0-.67.83.73.73,0,0,0,.32.63,1.53,1.53,0,0,0,.92.23,2.06,2.06,0,0,0,1.45-.45,1.76,1.76,0,0,0,.48-1.35Z"/><path class="cls-1" d="M102,19h3.79v4.74a4.53,4.53,0,0,1,1.51-1.05,4.7,4.7,0,0,1,1.83-.34,4.09,4.09,0,0,1,3.1,1.23,4.54,4.54,0,0,1,1.18,3.28,4,4,0,0,1-1.16,3A4.23,4.23,0,0,1,109.21,31a4.72,4.72,0,0,1-1.91-.38,4,4,0,0,1-1.47-1.14c0,.27,0,.52,0,.74a3.76,3.76,0,0,1-.11.58h-3.78a5.05,5.05,0,0,0,.1-.57c0-.24,0-.5,0-.8Zm7.58,7.69a2.64,2.64,0,0,0-.51-1.71,1.7,1.7,0,0,0-1.38-.62,1.76,1.76,0,0,0-1.44.6,2.68,2.68,0,0,0-.49,1.75,2.51,2.51,0,0,0,.5,1.68,1.91,1.91,0,0,0,2.8,0A2.5,2.5,0,0,0,109.62,26.72Z"/><path class="cls-1" d="M121.81,29.58a3.27,3.27,0,0,1-1.4,1.05,5.61,5.61,0,0,1-2.09.34,4.9,4.9,0,0,1-2.68-.62,2,2,0,0,1-.94-1.76,2.32,2.32,0,0,1,1.62-2.24,15.47,15.47,0,0,1,5.43-.72.34.34,0,0,1,0-.09v-.1a1.15,1.15,0,0,0-.37-.94,1.76,1.76,0,0,0-1.14-.31,2,2,0,0,0-1,.22,1,1,0,0,0-.44.68h-3.49a2.22,2.22,0,0,1,1.29-2,8.72,8.72,0,0,1,3.87-.67,7,7,0,0,1,3.71.78,2.61,2.61,0,0,1,1.22,2.36v4.17a5.29,5.29,0,0,0,0,.63,1.89,1.89,0,0,0,.13.44H122a3,3,0,0,1-.15-.59A4.07,4.07,0,0,1,121.81,29.58Zm-.08-2.34a8.58,8.58,0,0,0-2.5.24.86.86,0,0,0-.67.83.72.72,0,0,0,.33.63,1.49,1.49,0,0,0,.91.23,2.06,2.06,0,0,0,1.45-.45,1.76,1.76,0,0,0,.48-1.35Z"/><path class="cls-1" d="M137.1,26.21V24.84h5v4.32a8.72,8.72,0,0,1-2.35,1.37,7.1,7.1,0,0,1-2.48.45,6.66,6.66,0,0,1-3.13-.73A5,5,0,0,1,132,28.12a6.7,6.7,0,0,1-.71-3.12,7.19,7.19,0,0,1,.71-3.18A4.75,4.75,0,0,1,134,19.63a6.4,6.4,0,0,1,3.08-.72,6.13,6.13,0,0,1,2.28.41A3.9,3.9,0,0,1,141,20.47a5,5,0,0,1,.88,1.91l-1.4.38a4.25,4.25,0,0,0-.65-1.4,2.65,2.65,0,0,0-1.11-.82,4,4,0,0,0-1.61-.31,4.59,4.59,0,0,0-1.82.33,3.26,3.26,0,0,0-1.25.85,4,4,0,0,0-.73,1.15,6.12,6.12,0,0,0-.45,2.36,5.74,5.74,0,0,0,.54,2.62A3.46,3.46,0,0,0,135,29.1a4.82,4.82,0,0,0,2.18.51,5.78,5.78,0,0,0,3.4-1.21V26.21Z"/><path class="cls-1" d="M144.12,30.78V22.32h1.3v1.29a3.5,3.5,0,0,1,.91-1.19,1.62,1.62,0,0,1,.93-.28,2.77,2.77,0,0,1,1.47.46l-.5,1.32a2.1,2.1,0,0,0-1-.3,1.35,1.35,0,0,0-.84.28,1.58,1.58,0,0,0-.54.78,5.59,5.59,0,0,0-.24,1.68v4.42Z"/><path class="cls-1" d="M149.29,26.55a4.34,4.34,0,0,1,1.31-3.47,3.92,3.92,0,0,1,2.66-.94,3.8,3.8,0,0,1,2.85,1.14,4.32,4.32,0,0,1,1.11,3.15,5.54,5.54,0,0,1-.49,2.57,3.45,3.45,0,0,1-1.43,1.45,4.07,4.07,0,0,1-2,.52,3.8,3.8,0,0,1-2.87-1.14A4.55,4.55,0,0,1,149.29,26.55Zm1.48,0a3.61,3.61,0,0,0,.71,2.43A2.35,2.35,0,0,0,155,29a3.73,3.73,0,0,0,.71-2.48,3.52,3.52,0,0,0-.71-2.38,2.28,2.28,0,0,0-1.77-.81,2.25,2.25,0,0,0-1.78.81A3.58,3.58,0,0,0,150.77,26.56Z"/><path class="cls-1" d="M164.67,30.78V29.53A3.09,3.09,0,0,1,162,31a3.44,3.44,0,0,1-1.4-.29,2.29,2.29,0,0,1-1-.72,2.61,2.61,0,0,1-.44-1.06,7.11,7.11,0,0,1-.09-1.34V22.32h1.44V27a8.09,8.09,0,0,0,.09,1.51,1.51,1.51,0,0,0,.57.89,1.8,1.8,0,0,0,1.08.32,2.37,2.37,0,0,0,1.21-.33,1.89,1.89,0,0,0,.8-.9,4.67,4.67,0,0,0,.23-1.65V22.32H166v8.46Z"/><path class="cls-1" d="M168.45,34V22.32h1.31v1.1a3,3,0,0,1,1-1,2.83,2.83,0,0,1,1.41-.32,3.34,3.34,0,0,1,1.91.55,3.47,3.47,0,0,1,1.25,1.58,5.7,5.7,0,0,1,.42,2.22,5.64,5.64,0,0,1-.46,2.33,3.56,3.56,0,0,1-1.35,1.6,3.5,3.5,0,0,1-1.87.55,2.73,2.73,0,0,1-1.29-.3,3,3,0,0,1-.93-.76V34Zm1.29-7.42A3.7,3.7,0,0,0,170.4,29a2,2,0,0,0,1.6.78,2.06,2.06,0,0,0,1.63-.81,3.82,3.82,0,0,0,.68-2.51,3.76,3.76,0,0,0-.66-2.42,2,2,0,0,0-1.59-.8,2,2,0,0,0-1.61.85A3.83,3.83,0,0,0,169.74,26.6Z"/><path class="cls-2" d="M10.51,41.27a1.79,1.79,0,0,1-.77-.4c-2.21-2.16.63-4.66,3.92-6.11V30.64a8.49,8.49,0,0,0,1.21.58l2.52-2.5-.84-2.14c7.37-2.55,10.33-3.52,16.33-4.53l-1.08-1,1.75-1c4,1.33,7.84,1.68,7.19,5.06.16-2.29-2.68-3.18-7-4.39l-.84.52,1.61,1.33A94.54,94.54,0,0,0,17.65,27l.72,1.87-2.63,2.58a11.34,11.34,0,0,0,9.81-1.67s.1-.07.1-.1a5.29,5.29,0,0,0-.86-.84,2.32,2.32,0,0,1,2.14,2.61h-.65a2.39,2.39,0,0,0-.19-1.16,12.55,12.55,0,0,1-11.66,1.82v3.19c-1.77.63-4.95,2.59-4.92,4.48A1.73,1.73,0,0,0,10.51,41.27Z"/><path class="cls-3" d="M25.51,40.45A30.29,30.29,0,0,1,11.89,44.3c-7.63-.16-8.82-5.22-5.2-10.52,3.4-5.34,8.81-10.17,17.42-13.17a31.74,31.74,0,0,1,9.7-1.94c5.09-.05,10,1.54,9.7,6.41-.18,3.74-5.57,9-8.42,12.79-1.21,1.65-1.42,2.73.66,2.63,7.53-.49,14.36-3.1,20.71-5.81C52.17,37.61,30,48.59,29.89,41.11a5.94,5.94,0,0,1,1.19-3,31.1,31.1,0,0,1,2.68-3.34C35.28,33,39,28.89,40.29,26.41c2.13-4.68-2.63-4.92-6.74-6.36l-1.75,1,1.08,1c-6,1-9,2-16.33,4.53l.84,2.14-2.52,2.5a6.28,6.28,0,0,1-1.21-.58v4.12c-3.29,1.45-6.13,4-3.92,6.11a1.79,1.79,0,0,0,.77.4h0C14.55,43.56,25.53,40.45,25.51,40.45Z"/><path class="cls-1" d="M49,42.32h.52a.93.93,0,0,0,.26,0,.26.26,0,0,0,.14-.11A.3.3,0,0,0,50,42a.26.26,0,0,0-.09-.21.45.45,0,0,0-.3-.09H49Zm-.25,1V41.52h.82a1.18,1.18,0,0,1,.37,0,.44.44,0,0,1,.2.18.52.52,0,0,1,0,.61.65.65,0,0,1-.4.17.36.36,0,0,1,.15.1,1,1,0,0,1,.2.24l.32.51h-.3L49.83,43l-.18-.25-.13-.13-.11-.05H49v.83h-.25"/><path class="cls-3" d="M49.49,44.28a1.76,1.76,0,1,0-1.76-1.75A1.75,1.75,0,0,0,49.49,44.28ZM48,42.53A1.49,1.49,0,1,1,49.49,44,1.49,1.49,0,0,1,48,42.53"/><path class="cls-3" d="M64.7,34.73v10a1.51,1.51,0,0,0,1.46-1.32v-.53H67a1.57,1.57,0,0,0,1.2-1.19V39.43c0-.41-.47-.71-.7-.88.23-.2.7-.53.7-.94V34.73Zm2,3.29a1,1,0,0,1-.31.61l-.11.11a.06.06,0,0,1,0,0h.47v2.88h-.58V36h.58Zm5.53,3.16V36.72H68.77v6.09h1.74a1.91,1.91,0,0,0,.89-.33,2.56,2.56,0,0,0,.44-.36A1.49,1.49,0,0,0,72.28,41.18Zm-1.38.5h-.75v-3.8h.75Zm-2.49-7V36h4.21v8.74a1.56,1.56,0,0,0,1.49-1.4V36c.31,0,.56-.89.56-1.22Z"/><path class="cls-3" d="M81.26,43.54v-.93h2.95c.43,0,.82-.73,1.05-1.13h-4v-.79h2.22a2.24,2.24,0,0,0,1.69-1.32V34.73H75.66v6h3.82v.79H75.66v1.13h3.82v.93H75.54v1.15h8.93c.36,0,.7-.73,1-1.15Zm0-5.27H82a.54.54,0,0,0,.33-.11c.15-.08.82-.93.91-1h-2v-1.3h2.16v3.72H81.26Zm-1.78,1.3H77.37v-1.3h2.11Zm0-2.42H77.37v-1.3h2.11Z"/><path class="cls-3" d="M88.28,43.4V40.59h6.09a2.24,2.24,0,0,0,1.56-1.36v-4.5H86.49V43.3a1.27,1.27,0,0,0,1.18,1.39h7.21c.54,0,1.19-.86,1.31-1.29Zm5.87-4.09h-2V36h2ZM88.3,36h2.1v3.3H88.3Z"/><path class="cls-3" d="M99.16,43.4V40.59h6.08a2.22,2.22,0,0,0,1.57-1.36v-4.5H97.37V43.3a1.27,1.27,0,0,0,1.18,1.39h7.21c.54,0,1.19-.86,1.31-1.29ZM105,39.31h-2V36h2ZM99.18,36h2.11v3.3H99.18Z"/><path class="cls-1" d="M113.32,41.33V41h.7v.27h4.29s-.1.58-1,.58h-3.2v1.55c0,1.17-.75,1.31-.75,1.31V41.91h-5.11v-.58Z"/><path class="cls-1" d="M110.22,42.81H111s-.8,1-1,1.29-.56.69-1,.69h-.34Z"/><path class="cls-1" d="M116.76,42.81H116s.8,1,1,1.29.56.69,1,.69h.35Z"/><path class="cls-1" d="M117.27,35.7c.91,0,1.09-.58,1.09-.58h-4.28l.31-.4h-.7l-.36.45h-2.88l.36-.45h-.73l-1.83,2.37H109v3.24a1,1,0,0,0,.19,0c1.13,0,1.22-.15,1.22-.15h6.83c.91,0,1-.54,1-.54H114v-1h3.25c.9,0,1-.57,1-.57H114v-.94h3.25c.9,0,1-.59,1-.59H114V35.7Zm-4,3.94h-3.63v-.91h3.63Zm0-1.48h-3.63v-.89h3.63Zm0-1.52h-3.63v-.32l.18-.27.25-.31h3.2Z"/><path class="cls-1" d="M120.31,34.76V44.82h8.46c.64,0,.88-.6.85-1.23V34.76Zm8.62,8.76c0,.36-.08.65-.55.65h-7.44V35.35h8Z"/><path class="cls-1" d="M124.25,39l-2.14,3.86a1,1,0,0,0,1-.55l1.82-3.3Z"/><path class="cls-1" d="M126.78,42.09c0,.21-.08.32-.23.32h-.71V43h.91c.56,0,.74-.2.71-.83V38.38a.67.67,0,0,0,.75-.58h-.75V36.51h-.68V37.8H122v.63h4.82Z"/></g></svg>