<?xml version="1.0" encoding="utf-8"?>
<!-- Generator: Adobe Illustrator 22.1.0, SVG Export Plug-In . SVG Version: 6.00 Build 0)  -->
<svg version="1.1" id="Layer_1" xmlns="http://www.w3.org/2000/svg" xmlns:xlink="http://www.w3.org/1999/xlink" x="0px" y="0px"
	 viewBox="0 0 140.4 64.7" style="enable-background:new 0 0 140.4 64.7;" xml:space="preserve">
<style type="text/css">
	.st0{fill:#0091BD;}
	.st1{fill:#323E48;}
</style>
<path class="st0" d="M31.689,1.002h9.397v40.486h-9.397v-4.199c-4.099,4.798-9.197,5.498-12.096,5.498
	C7.097,42.787,0,32.391,0,21.295C0,8.099,8.997,0.002,19.693,0.002c2.999,0,8.197,0.8,11.996,5.798V1.002z M9.597,21.394
	c0,6.998,4.398,12.895,11.296,12.895c5.998,0,11.396-4.298,11.396-12.795c0-8.797-5.498-13.095-11.396-13.095
	C13.995,8.399,9.597,14.197,9.597,21.394z M52.281,1.002h9.397V4.7c1.1-1.3,2.599-2.599,3.899-3.399c1.799-1.1,3.699-1.3,5.798-1.3
	c2.299,0,4.798,0.4,7.397,1.899l-3.799,8.597c-2.099-1.3-3.799-1.4-4.798-1.4c-1.999,0-3.999,0.3-5.898,2.199
	c-2.599,2.799-2.599,6.598-2.599,9.297v20.993h-9.397V1.002z M84.97,1.002h9.397V4.8c3.199-3.799,6.898-4.798,9.996-4.798
	c4.199,0,8.197,1.999,10.496,5.998c3.399-4.798,8.497-5.998,11.996-5.998c4.898,0,9.197,2.299,11.496,6.298
	c0.8,1.3,2.099,4.298,2.099,10.196v24.991h-9.397V19.195c0-4.498-0.5-6.298-0.9-7.197c-0.6-1.499-1.999-3.599-5.398-3.599
	c-2.299,0-4.298,1.3-5.598,2.999c-1.599,2.299-1.799,5.798-1.799,9.197v20.893h-9.397V19.195c0-4.498-0.5-6.298-0.9-7.197
	c-0.6-1.499-1.999-3.599-5.398-3.599c-2.299,0-4.298,1.3-5.598,2.999c-1.599,2.299-1.799,5.798-1.799,9.197v20.893H84.87V1.002
	L84.97,1.002z"/>
<g>
	<path class="st1" d="M7.511,51.938v12.494H5.974V51.938H2.6v-1.47h8.318v1.47L7.511,51.938z"/>
	<path class="st1" d="M15.227,50.468c0.935,0,2.338,0.067,3.374,0.768c0.802,0.534,1.537,1.603,1.537,3.107
		c0,2.138-1.403,3.708-3.508,3.842l4.443,6.247h-1.871l-4.243-6.113h-0.401v6.113h-1.537V50.468H15.227z M14.526,56.915h0.969
		c1.938,0,3.073-0.935,3.073-2.539c0-0.768-0.234-1.537-1.102-2.038c-0.635-0.367-1.336-0.401-2.004-0.401h-0.935L14.526,56.915z"/>
	<path class="st1" d="M30.728,51.938h-5.679v4.142h5.512v1.47h-5.512v5.412h5.679v1.47h-7.249V50.468h7.249V51.938z"/>
	<path class="st1" d="M41.251,60.49h-5.946l-1.67,3.942h-1.704L38.344,49.8l6.247,14.632h-1.704L41.251,60.49z M40.65,59.02
		l-2.338-5.579l-2.372,5.579H40.65z"/>
	<path class="st1" d="M52.575,53.241c-0.2-0.367-0.501-0.802-0.802-1.036c-0.267-0.2-0.768-0.468-1.57-0.468
		c-1.37,0-2.338,0.869-2.338,2.138c0,0.534,0.134,0.869,0.535,1.203c0.434,0.434,0.935,0.635,1.47,0.869l1.336,0.601
		c0.802,0.367,1.57,0.735,2.138,1.303c0.702,0.702,1.002,1.537,1.002,2.539c0,2.572-1.904,4.276-4.41,4.276
		c-0.935,0-2.071-0.2-3.04-1.136c-0.702-0.668-1.102-1.637-1.303-2.472l1.503-0.434c0.1,0.735,0.434,1.37,0.835,1.771
		c0.601,0.601,1.303,0.768,2.004,0.768c1.904,0,2.806-1.37,2.806-2.773c0-0.635-0.2-1.169-0.702-1.637
		c-0.401-0.367-0.935-0.635-1.67-0.969l-1.269-0.601c-0.535-0.267-1.236-0.534-1.871-1.136c-0.601-0.601-0.969-1.236-0.969-2.272
		c0-2.138,1.637-3.608,3.909-3.608c0.869,0,1.537,0.167,2.238,0.635c0.568,0.367,1.036,0.935,1.37,1.537L52.575,53.241z"/>
	<path class="st1" d="M58.722,59.02c0,1.169,0,2.439,1.102,3.374c0.568,0.468,1.537,0.802,2.305,0.802
		c0.768,0,1.737-0.301,2.305-0.802c1.102-0.935,1.102-2.205,1.102-3.374v-8.552h1.537v8.986c0,1.169-0.134,2.305-0.869,3.341
		c-0.835,1.136-2.305,1.871-4.076,1.871s-3.24-0.735-4.076-1.871c-0.768-1.036-0.869-2.171-0.869-3.341v-8.986h1.537L58.722,59.02z"
		/>
	<path class="st1" d="M72.92,50.468c0.935,0,2.338,0.067,3.374,0.768c0.802,0.534,1.537,1.603,1.537,3.107
		c0,2.138-1.403,3.708-3.508,3.842l4.443,6.247h-1.871l-4.243-6.113h-0.401v6.113h-1.537V50.468H72.92z M72.218,56.915h0.969
		c1.938,0,3.073-0.935,3.073-2.539c0-0.768-0.234-1.537-1.102-2.038c-0.635-0.367-1.336-0.401-2.004-0.401h-0.935L72.218,56.915z"/>
	<path class="st1" d="M88.387,51.938h-5.679v4.142h5.512v1.47h-5.512v5.412h5.679v1.47h-7.249V50.468h7.249V51.938z"/>
	<path class="st1" d="M96.104,50.468h2.84c1.403,0,3.374,0.134,5.145,1.637c1.269,1.069,2.372,2.84,2.372,5.345
		c0,2.94-1.436,4.51-2.439,5.345c-1.269,1.102-2.606,1.603-5.111,1.603h-2.84v-13.93H96.104z M97.674,62.962h1.37
		c1.102,0,2.639-0.134,4.009-1.269c1.036-0.869,1.871-2.272,1.871-4.243c0-3.341-2.338-5.512-5.879-5.512h-1.37V62.962z"/>
	<path class="st1" d="M117.016,60.49h-5.946l-1.67,3.942h-1.704l6.414-14.632l6.247,14.632h-1.704L117.016,60.49z M116.414,59.02
		l-2.338-5.579l-2.372,5.579H116.414z"/>
	<path class="st1" d="M124.833,51.938v12.494h-1.537V51.938h-3.374v-1.47h8.285v1.47L124.833,51.938z"/>
	<path class="st1" d="M137.059,60.49h-5.946l-1.67,3.942h-1.704l6.414-14.632l6.247,14.632h-1.704L137.059,60.49z M136.458,59.02
		l-2.338-5.579l-2.372,5.579H136.458z"/>
</g>
</svg>
