<svg xmlns="http://www.w3.org/2000/svg" xmlns:xlink="http://www.w3.org/1999/xlink" viewBox="0 0 180.52 63.49"><defs><style>.cls-1,.cls-2{fill:none;}.cls-2{clip-path:url(#clip-path);clip-rule:evenodd;}.cls-3{clip-path:url(#clip-path-2);}.cls-4{fill:#21b3e6;}</style><clipPath id="clip-path"><rect class="cls-1" x="9.03" y="12.4" width="162.47" height="38.68"/></clipPath><clipPath id="clip-path-2"><path class="cls-2" d="M108.05,25.54h0a.78.78,0,0,0-.33-.07,1,1,0,0,0-.51.14,1,1,0,0,0-.36.42h0l-3.51,9.61-2.71-6.44h0a.87.87,0,0,0-.37-.41,1,1,0,0,0-.53-.15.89.89,0,0,0-.5.15.9.9,0,0,0-.36.41h0l-2.72,6.45L92.61,26h0a.84.84,0,0,0-.34-.42.92.92,0,0,0-.51-.15.84.84,0,0,0-.35.07h0a.91.91,0,0,0-.53.84.83.83,0,0,0,.07.34h0l4.34,11.67h0a.87.87,0,0,0,.15.26.66.66,0,0,0,.21.15l.07.06a.4.4,0,0,0,.13,0,.81.81,0,0,0,.31.06.94.94,0,0,0,.49-.15A.85.85,0,0,0,97,38.4h0l2.74-6.56,2.76,6.54h0a.9.9,0,0,0,.3.41,1,1,0,0,0,.45.18h.12a1,1,0,0,0,.31-.05,1.57,1.57,0,0,0,.23-.13,1.09,1.09,0,0,0,.33-.44h0l4.32-11.61a1,1,0,0,0,.06-.34.93.93,0,0,0-.55-.84ZM88.18,32.2a5.13,5.13,0,0,0-1.36-3.51,4.32,4.32,0,0,0-6.44,0A5.13,5.13,0,0,0,79,32.2a5.06,5.06,0,0,0,1.36,3.49,4.34,4.34,0,0,0,6.44,0,5.06,5.06,0,0,0,1.36-3.49Zm0-4.75a7,7,0,0,1,0,9.51,6.15,6.15,0,0,1-9.1,0,7,7,0,0,1,0-9.51,6.15,6.15,0,0,1,9.1,0Zm-18.3-2a5.5,5.5,0,0,0-3.73,1.46v-.54a.94.94,0,0,0-.26-.64.85.85,0,0,0-.64-.28.92.92,0,0,0-.92.92V38.32l0,0h0a.67.67,0,0,0,.06.12A1,1,0,0,0,65,39l0,0h.19a.93.93,0,0,0,.4-.09.78.78,0,0,0,.28-.24h0l0,0h0a.62.62,0,0,0,.11-.19,1,1,0,0,0,.06-.19V31a3.84,3.84,0,0,1,1.12-2.63,3.69,3.69,0,0,1,5.24,0A3.65,3.65,0,0,1,73.57,31v7a.93.93,0,0,0,.28.66.93.93,0,0,0,1.29,0,.93.93,0,0,0,.28-.66V31a5.58,5.58,0,0,0-5.56-5.55Zm90.69,5.44A4.69,4.69,0,0,0,156,27.27a4.74,4.74,0,0,0-4.58,3.63Zm2,.87v.09a.84.84,0,0,1-.28.63,1,1,0,0,1-.64.23H151.32a4.79,4.79,0,0,0,4.67,4.4h.61a4,4,0,0,0,2.25-.72,5.71,5.71,0,0,0,1.69-1.77.89.89,0,0,1,.77-.44.88.88,0,0,1,.47.13h0a1,1,0,0,1,.42.8.9.9,0,0,1-.13.47h0A7.58,7.58,0,0,1,159.79,38a5.85,5.85,0,0,1-3.19,1H156a6.49,6.49,0,0,1-4.63-2,6.9,6.9,0,0,1,0-9.53,6.47,6.47,0,0,1,4.66-2,6.34,6.34,0,0,1,4.48,1.83,7,7,0,0,1,2.05,4.48v0ZM120.22,19.88a.94.94,0,0,0-.65.27.91.91,0,0,0-.27.65V38.05a.88.88,0,0,0,.27.64.91.91,0,0,0,.65.28.93.93,0,0,0,.94-.92V20.8a.93.93,0,0,0-.94-.92Zm-60.16,12A23.1,23.1,0,0,0,57.63,31a16.93,16.93,0,0,1-2.12-.77,2,2,0,0,1-.64-.49.88.88,0,0,1-.22-.61,1.48,1.48,0,0,1,.26-.85,2.64,2.64,0,0,1,1.14-.83,3.74,3.74,0,0,1,1.3-.26,3.55,3.55,0,0,1,2.21.7l.66.52a2.82,2.82,0,0,0,.31.21.88.88,0,0,0,.37.09.7.7,0,0,0,.47-.19.72.72,0,0,0,.17-.22.86.86,0,0,0,.05-.27.94.94,0,0,0-.13-.46,3.12,3.12,0,0,0-.62-.74,6.17,6.17,0,0,0-1.52-1,4.39,4.39,0,0,0-1.78-.43,5.87,5.87,0,0,0-3.34.88,3.09,3.09,0,0,0-1.52,2.8v.1a2.75,2.75,0,0,0,.57,1.74,4.83,4.83,0,0,0,2.13,1.38c.79.29,1.57.46,2.07.63a9.42,9.42,0,0,1,2,.82,2.31,2.31,0,0,1,.63.55,1.12,1.12,0,0,1,.23.69v0A1.57,1.57,0,0,1,60,36a2.64,2.64,0,0,1-1.27.86,4.33,4.33,0,0,1-1.36.25,5.48,5.48,0,0,1-2.57-.57c-.29-.15-.53-.29-.74-.41a1.77,1.77,0,0,0-.31-.15.72.72,0,0,0-.33-.07.66.66,0,0,0-.23,0,.69.69,0,0,0-.2.13,1.05,1.05,0,0,0-.2.27.67.67,0,0,0-.07.31.84.84,0,0,0,.16.49,2.57,2.57,0,0,0,.65.61,8.31,8.31,0,0,0,1,.56,7.32,7.32,0,0,0,2.82.63h0a5.58,5.58,0,0,0,3.4-1h0A3.67,3.67,0,0,0,62.26,35a3.25,3.25,0,0,0-.41-1.65,4,4,0,0,0-1.79-1.49Zm74,.33a5.14,5.14,0,0,0-1.36-3.52,4.34,4.34,0,0,0-6.44,0,5.15,5.15,0,0,0-1.37,3.52,5.08,5.08,0,0,0,1.37,3.5,4.37,4.37,0,0,0,6.45,0,5.11,5.11,0,0,0,1.35-3.5Zm1.56-6.51a1,1,0,0,1,.28.66v11.7a.92.92,0,0,1-1.84,0V36.91A6.15,6.15,0,0,1,125,37a7,7,0,0,1,0-9.52,6.19,6.19,0,0,1,9.14,0V26.35a1,1,0,0,1,.28-.66.93.93,0,0,1,.64-.25.9.9,0,0,1,.64.25Zm13,1.19a.91.91,0,0,0,.29-.66.85.85,0,0,0-.29-.64h0a.89.89,0,0,0-.64-.27,1,1,0,0,0-.65.27l-7.19,7V20.8a.93.93,0,0,0-1-.92.94.94,0,0,0-.92.92V38.05a1,1,0,0,0,.92.92.94.94,0,0,0,1-.92V35.2l2.34-2.34,4.78,5.76a.64.64,0,0,0,.33.27A1,1,0,0,0,148,39a1,1,0,0,0,.6-.2h0a1,1,0,0,0,.3-.69,1,1,0,0,0-.23-.62h0l-4.86-5.91,4.81-4.65Zm-32.22-7h-.36a4.84,4.84,0,0,0-1.53.22,2.79,2.79,0,0,0-1.25.82h0a3.28,3.28,0,0,0-.73,1.38,7.59,7.59,0,0,0-.2,1.81v1.32H110.9a.9.9,0,0,0-.91.9,1,1,0,0,0,.27.68.94.94,0,0,0,.65.29h1.44V38.1a.91.91,0,0,0,.27.65,1,1,0,0,0,.67.26.91.91,0,0,0,.89-.91V27.34h1.56a.94.94,0,0,0,.65-.29,1,1,0,0,0,.28-.66v0a.91.91,0,0,0-.92-.88h-1.57V24.16a5.27,5.27,0,0,1,.16-1.33,1.58,1.58,0,0,1,.3-.64,1,1,0,0,1,.45-.28,3.11,3.11,0,0,1,.92-.11h.41a.94.94,0,0,0,0-1.88ZM23.77,32.81a2.5,2.5,0,0,0,.1-.72,2.26,2.26,0,0,0-.08-.51,2.17,2.17,0,0,0-1-1.32L15.3,26a2.2,2.2,0,0,0-2.2,3.8l4.17,2.41L13.1,34.57a2.2,2.2,0,0,0,2.2,3.81l7.46-4.31a2.19,2.19,0,0,0,1-1.26Zm2,4a2.07,2.07,0,0,0-1.27.29l-7.47,4.3a2.2,2.2,0,1,0,2.2,3.81l4.18-2.41v4.82a2.2,2.2,0,1,0,4.4,0V39a2.2,2.2,0,0,0-2-2.19Zm7.65-9.37a2.25,2.25,0,0,0,1.28-.29l7.47-4.31A2.2,2.2,0,0,0,40,19.07l-4.18,2.42V16.66a2.2,2.2,0,0,0-4.4,0v8.62a2.2,2.2,0,0,0,2,2.2Zm-16.39-4.6,7.47,4.31a2.21,2.21,0,0,0,3.31-1.91V16.66a2.2,2.2,0,0,0-4.4,0v4.83l-4.18-2.42a2.2,2.2,0,1,0-2.2,3.81Zm14,9.27a.68.68,0,0,0-.17-.4l-.9-.89a.62.62,0,0,0-.39-.16h0a.62.62,0,0,0-.39.16l-.9.89a.67.67,0,0,0-.16.4v0a.62.62,0,0,0,.16.39l.9.9a.68.68,0,0,0,.39.16h0a.68.68,0,0,0,.39-.16l.9-.9a.63.63,0,0,0,.17-.39v0Zm2.48.86-3.11,3.1a.62.62,0,0,1-.39.16h-.91a.62.62,0,0,1-.39-.16L25.67,33a.64.64,0,0,1-.16-.39v-.91a.6.6,0,0,1,.16-.39l3.1-3.11a.62.62,0,0,1,.39-.16h.91a.62.62,0,0,1,.39.16l3.11,3.11a.6.6,0,0,1,.16.39v.91a.64.64,0,0,1-.16.39Zm8.62,8.43-7.47-4.3a2.1,2.1,0,0,0-1.28-.29,2.19,2.19,0,0,0-2,2.19v8.62a2.2,2.2,0,0,0,4.4,0V42.84L40,45.25a2.2,2.2,0,0,0,2.2-3.81Zm3.94-11.69L42,32.16l4.17,2.41a2.2,2.2,0,1,1-2.19,3.81l-7.47-4.31a2.18,2.18,0,0,1-1-1.26,2.2,2.2,0,0,1-.1-.72,2.26,2.26,0,0,1,.08-.51,2.19,2.19,0,0,1,1-1.32L43.94,26a2.19,2.19,0,1,1,2.19,3.8Zm121.14-4.3a2.16,2.16,0,1,1-2.16-2.22,2.1,2.1,0,0,1,2.16,2.22Zm-.43,0a1.7,1.7,0,0,0-1.73-1.81,1.68,1.68,0,0,0-1.72,1.81,1.73,1.73,0,1,0,3.45,0Zm-2.58-1h.92c.51,0,.84.28.84.7a.66.66,0,0,1-.33.59l.36.53v.1h-.52l-.36-.5h-.41v.5h-.5V24.45Zm.91.47h-.41v.5h.41c.19,0,.32-.08.32-.25s-.12-.25-.32-.25Z"/></clipPath></defs><g id="Alibaba"><g class="cls-3"><rect class="cls-4" x="9.03" y="11.49" width="161.22" height="41.35"/></g></g></svg>