<svg xmlns="http://www.w3.org/2000/svg" viewBox="0 0 285.00049 74.82714"><defs><style>.a{fill:#f03;}</style></defs><title>アートボード 6</title><path class="a" d="M183.0435,46.9277c-.7051.168-3.2988,1.0572-4.0586,1.272-.0762,2.394-.4629,13.0864-.4629,13.0864-.2109,4.9776-2.373,8.2749-8.0957,10.4644l-2.0664-.5078c2.792-1.6587,4.0176-3.1133,4.3731-4.3262.5703-1.5703.8574-5.207.8574-11.9126,0,0-.0645-5.0581-.1895-6.7651-.8574-.14021-4.375-.9995-5.4609-1.2408l-.0508-1.5898c2.2422.06639,7.1348.1367,9.0606.1367,1.9277,0,4.2734-.0957,6.2382-.1367Z"/><path class="a" d="M274.37359,50.1763c-.418.0991-1.6172.3745-2.6738.5976-.06449,1.7261.1337,14.4263.1562,17.4605,0,.436-.4883.6587-.8848.2636-2.748-2.687-11.50389-12.60541-14.41989-16.2041-.00781,2.2481.11329,11.28669.13669,12.9624,1.0957.3028,3.6368.9102,4.1075,1.0054l.1054,1.8071c-2.2129-.0234-9.5263-.0156-9.6601,0l.0273-1.7534c.9463-.3969,1.8418-.7251,2.6934-1.0591.1152-1.0605.1015-13.5688.1074-14.3725-.7227-.0654-2.1641-.104-3.1582-.1509V48.55859c1.1992-.023,4.9082-.01319,6.9414,0,2.5273,2.874,8.582,9.626,11.6523,13.05911.0313-2.8999-.1679-9.68611-.2089-10.8575-.5215-.0957-1.7129-.2133-3.0235-.4848l-.1699-1.707c.5176.0468,3.8184.0986,4.4336.0986.6172,0,3.3672-.1646,3.9355-.21141Z"/><path class="a" d="M222.45949,55.2622c0,2.4082-2.24219,3.4058-4.6875,3.7993v1.6987c5.1524-.5214,8.4395-2.5698,8.4395-5.5859v-.145c0-3.5093-2.3301-6.5542-7.82819-6.6631,0,0-1.97651-.0791-3.121-.0791H207.856l.3184,1.9282c1.0332.1138,2.4004.2266,3.2675.2871.0782,2.41019.3223,12.3511.1582,15.1714-.58779.1294-2.5332.522-3.2753.7075l-.1836,1.6875c.7343-.0463,11.3574-.0444,12.1406,0l-.0938-1.4545c-.7568-.20171-3.4863-.6958-4.17969-.8653-.09371-.665-.28711-14.7309-.24411-15.3423a21.62169,21.62169,0,0,1,3.99811.2832c2.10349.5606,2.69719,2.8282,2.69719,4.2481"/><path class="a" d="M79.212,10.1758c-1.3985.1357-7.2071,1.4375-9.1621,1.8554-2.0923.5596-22.1626,16.2598-23.4175,19.8858-.2788,1.2578,0,14.7578,0,14.7578l11.3457.75979-.3994,3.74411c-1.6324-.1138-12.1602-.0928-18.7593-.0928-3.3462,0-13.5571.3741-17.0039.2735l.4297-3.5684a25.79179,25.79179,0,0,0,7.4467-.6943c2.0122-.5342,3.4493-1.335,3.4493-3.3516V32.0322c-.6973-2.0918-17.3892-23.1064-21.71-26.4521C10.1763,5.1582,1.9517,4.2617,0,3.8457L.4063.3281H38.4961l-.5503,3.2373c-1.6723.419-9.7343.57519-11.8256,1.1299,5.4375,8.0899,14.0405,18.5039,16.832,22.5508,1.5327-2.2324,16.1284-12.4492,16.5464-15.6543-2.0918-.416-9.0225-1.416-10.1348-1.416l-.6616-3.584H81.5899Z"/><path class="a" d="M160.3404,40.708c-6.001-.35741-16.5322-.208-22.7407,0l.3671-3.1758c.9346-.0937,5.8414-.8711,7.086-1.0498V25.6172c-2.9878,0-19.6787.3613-22.312,1.0351V36.415s7.1909.8272,8.8681,1.0059l-.3847,3.2959c-6.5454-.36621-19.5747-.3789-25.7637-.0215l.4053-3.5371c1.9409-.0518,7.1367-.6484,8.3481-.8369.189-2.4229.2788-6.25.2788-10.2569V21.1172c0-1.6768-.0898-6.5264-.1855-8.207-1.4273-.004-7.3892-.5635-9.0703-.6543l.4101-3.1329c5.3828.3008,21.9849.294,26.5625.0127l-.4697,2.917c-1.3003.0703-7.1924.9424-8.999.9453v8.6641h22.312V9.0059c-1.6431-.1709-5.6641-1.0665-7.44-1.15431l.3462-2.91119c3.7305.2754,18.479.2305,22.4283,0l-.2754,3.0557c-1.2129.0957-5.5411.834-6.9629.9287V36.5801s6.3008.7676,7.6093.9521Z"/><path class="a" d="M272.87159,43.9775l-4.1162.168.792-6.959,4.1016.1983,3.8359-.1446-.80659,6.8125Zm4.51571-12.4756h-5.99611V0h13.6093l-1.2226,4.7334Z"/><path class="a" d="M186.4263,37.3574c-.5.0147-.9941.044-1.4805.0664-.4882-.0224-.9804-.0517-1.4824-.0664-5.0449-.1406-14.7832-3.0176-14.7832-11.707,0-.1319-.0019-.418-.0019-.4346s.0019-.3076.0019-.4385c0-8.6923,9.7383-11.5703,14.7832-11.708.502-.0136.9942-.0439,1.4824-.0674.4864.0235.9805.0538,1.4805.0674,5.0449.1377,14.78519,3.0157,14.78519,11.708,0,.1309.0019.419.0019.4385,0,.0166-.0019.3027-.0019.4346,0,8.6894-9.74029,11.5664-14.78519,11.707m23.36329-12.3437c0-9.9873-9.57229-16.0479-24.13869-16.3506,0,0-.5195-.0049-.7051-.0049-.1875,0-.705.0049-.705.0049-15.4571.3232-24.0078,6.4199-24.0078,16.3994,0,.0508-.0059.1045-.0059.1533,0,.05079.002.0957.0059.1475.0976,9.3984,9.4394,16.0947,24.0078,16.3994,0,0,.5175.0078.705.00489.1856.00291.7051-.00489.7051-.00489,14.5664-.3047,23.96289-6.5996,24.13669-16.3594,0-.0508.002-.3408.002-.3896"/><path class="a" d="M241.565,34.1455c-.7461.0527-1.4863.0752-2.22069.082-.73441-.0068-1.47271-.0293-2.21881-.082-5.5097-.377-15.5019-3.7588-15.7109-13.0996.209-9.3428,10.2012-12.5762,15.7109-12.9541.7461-.0479,1.4844-.0723,2.21881-.0791.73439.0068,1.47459.0312,2.22069.0791,5.5117.3779,15.5019,3.6113,15.7109,12.9541-.209,9.3408-10.1992,12.7226-15.7109,13.0996m25.0918-13.0928c0-.0595-.0059-.1826-.0059-.1826-.3691-10.4473-10.4355-17.1982-26.64259-17.542,0,0-.43941-.0107-.664-.0107-.21881,0-.66021.0107-.66021.0107-16.2129.3438-26.3203,6.6348-26.6425,17.542v.3467c.3222,10.9111,10.4296,17.3516,26.6425,17.6934,0,0,.4414.0126.66021.0097.22459.0029.664-.0097.664-.0097,16.20709-.3418,26.32039-6.7823,26.64259-17.6934,0,0,.0059-.1055.0059-.1641"/><path class="a" d="M79.0406,32.0019c.5288-1.4082,5.2715-11.4824,5.2715-11.4824L88.774,32.0019Zm24.4131,13.1973c-1.6885-2.7705-8.0611-18.47261-10.9121-25.5762l5.2309-.81641L98.398,16.123H90.4419l.0064.0264c-3.023.044-15.3399-.0674-16.6939-.1465l-.226,2.794,6.3242,1.51269S70.5977,38.6045,68.751,41.2422c-1.644.35739-5.6631,1.3232-7.1694,1.499l-.4341,3.3789c1.2466-.1758,17.398-.0849,18.8931,0l.3457-3.0488-5.6299-1.333s2.5571-5.3174,2.9092-5.9336c1.8467-.3545,12.3452-.5117,12.3452-.5117l3.7378,10.1523s-4.4502.6865-6.2085.7725l-.3955,3.3315c1.3178,0,22.6474-.0864,23.2627,0l.3574-2.99271c-1.5801-.08689-5.8159-1.09179-7.311-1.35739"/><path class="a" d="M246.58259,65.79c-2.1094-4.3989-5.6426-13.0381-6.5899-15.3696l2.51961-.3374.17379-1.6895-10.4219.3628-.0371,1.4141,2.7031.46919c-1.7851,3.89851-6.3808,13.85891-7.1816,15.03031-.69529.2466-1.5547.5122-2.3926.8184l-.1699,1.5805c2.3926-.1333,7.5547-.0463,8.3633,0l.0371-1.4179-2.5879-.7364s1.6133-3.9008,2.1953-5.0761c2.0117-.0274,7.31841.0234,7.31841.0234l1.97459,5.1724s-1.8379.3901-3.2032.6518l-.2353,1.3828c.71391,0,10.1455-.0463,10.4795,0l.1816-1.6347C248.8423,66.25,246.58259,65.79,246.58259,65.79ZM233.8873,59.104c.41789-1.0278,3.14059-7.4087,3.14059-7.4087l2.8828,7.4321Z"/><path class="a" d="M202.93409,65.7915c-1.3203-2.75-4.9101-11.3462-6.54879-15.375l2.72849-.4902.0762-1.5308-10.57619.3608-.0156,1.4004,2.7031.4693c-1.7851,3.8965-6.4023,13.8745-7.2031,15.0459-.875.3222-1.6426.5566-2.3926.8183l-.1699,1.5806c2.3633-.0796,7.5566-.0464,8.3633,0l.039-1.4199-2.5898-.7364s1.6152-3.9008,2.1973-5.0742c2.0097-.0293,7.3164.0235,7.3164.0235l1.97459,5.1704s-1.83789.3921-3.20319.6518l-.2343,1.3848c.7129,0,10.14649-.0483,10.47849,0l.1816-1.6348C205.19389,66.25,202.93409,65.7915,202.93409,65.7915ZM190.2369,59.106c.4199-1.0298,3.1425-7.4107,3.1425-7.4107l2.8809,7.4321Z"/></svg>