<svg xmlns="http://www.w3.org/2000/svg" viewBox="0 0 180.51692 63.49203"><defs><style>.a{fill:#10aa50;}.b{fill:#b8c4c2;}.c{fill:#12924f;}.d{fill:#21313c;}</style></defs><title>logo_mongodb</title><path class="a" d="M27.949,27.366c-2.26127-9.97559-6.97434-12.63121-8.17661-14.50847a21.35268,21.35268,0,0,1-1.31452-2.57291,2.61883,2.61883,0,0,1-.93346,2.11652c-1.51244,1.34849-7.93587,6.58295-8.47644,17.91736-.50366,10.56787,7.769,17.08434,8.86193,17.75785a2.42821,2.42821,0,0,0,2.36319-.37073c3.98787-2.73686,9.43648-10.03319,7.68034-20.33962"/><path class="b" d="M18.80048,42.449a21.7268,21.7268,0,0,1-.88619,5.63029s.34709,2.4902.59079,5.1281h.86256a47.96118,47.96118,0,0,1,.94085-5.52246C19.19188,47.13551,18.84331,44.74426,18.80048,42.449Z"/><path class="c" d="M20.307,47.68643h0c-1.12842-.52138-1.45484-2.96284-1.505-5.23741a107.20386,107.20386,0,0,0,.2437-11.27681c-.05908-1.97326.02806-18.27627-.48593-20.66309a19.83478,19.83478,0,0,0,1.21261,2.34694c1.20227,1.87873,5.91682,4.53435,8.17661,14.50994C29.70952,37.65471,24.29045,44.93184,20.307,47.68643Z"/><path class="d" d="M169.03986,44.07962a2.45033,2.45033,0,1,1,2.45032-2.4843A2.41932,2.41932,0,0,1,169.137,44.079q-.04854.0013-.09709.00067m0-4.67911a2.23026,2.23026,0,1,0,2.21545,2.245l0-.0088a2.19333,2.19333,0,0,0-2.15-2.23586q-.03276-.00064-.06552-.00031m.59079,3.77814-.63215-1.36326h-.50956v1.36326h-.37072V40.077h.91425c.68089,0,.96448.29539.96448.867a.7537.7537,0,0,1-.613.82563l.65284,1.40462Zm-1.12694-1.68377h.53615c.43423,0,.59967-.14769.59967-.54353s-.158-.53024-.64693-.53024h-.48889Z"/><path class="d" d="M132.57151,41.84641a5.62552,5.62552,0,0,0,3.15633.74883,6.14392,6.14392,0,0,0,4.44869-1.59072c1.477-1.34258,2.49316-3.39707,2.49316-6.67747,0-3.15189-1.19932-5.71-3.66-7.20771a9.79055,9.79055,0,0,0-5.23888-1.217,4.34911,4.34911,0,0,0-1.54494.18758.81084.81084,0,0,0-.285.4431c-.062.56126-.062,4.83566-.062,7.36279,0,2.59064,0,6.20336.062,6.64645a1.91247,1.91247,0,0,0,.63067,1.31009m-6.29787-17.35315c.53615,0,2.5744.09305,3.52262.09305,1.77239,0,2.99681-.09305,6.3097-.09305a10.21471,10.21471,0,0,1,6.78381,2.183,9.08473,9.08473,0,0,1,3.10168,7.14567,9.27294,9.27294,0,0,1-3.85052,8.01858c-1.92008,1.43563-4.41767,2.2465-7.97574,2.2465-1.8935,0-5.14436-.062-7.85759-.09305h-.05611c-.127-.24961.23188-1.22295.45343-1.24806a4.01374,4.01374,0,0,0,1.27317-.25256c.57307-.23484.70747-.52729.771-1.55675.09453-1.93486.06351-4.24339.06351-6.865,0-1.87134.031-5.52246-.031-6.67747-.096-.96595-.50365-1.21556-1.32929-1.40314a17.169,17.169,0,0,0-1.77239-.28062c-.062-.18758.42242-1.0339.58046-1.217"/><path class="d" d="M153.8121,26.0825c-.12554.031-.28358.34414-.28358.49922-.03249,1.124-.06351,4.05581-.06351,6.08372a.20088.20088,0,0,0,.158.15656c.40913.031,1.41938.06351,2.27161.06351a5.39649,5.39649,0,0,0,2.27161-.34414,2.94189,2.94189,0,0,0,1.477-2.77674c0-2.71471-1.8935-3.74417-4.70126-3.74417a8.4706,8.4706,0,0,0-1.13581.062m7.1634,12.48056c0-2.74572-2.02052-4.30542-5.713-4.30542a14.42438,14.42438,0,0,0-1.60845.031c-.09452.031-.189.09305-.189.15656,0,1.96588-.03249,5.1163.06351,6.36435a2.10577,2.10577,0,0,0,.91425,1.49767,6.34691,6.34691,0,0,0,2.42965.34266,3.79237,3.79237,0,0,0,4.10308-4.08683M148.11092,24.55381c.28506,0,1.124.09305,3.27006.09305,2.019,0,3.66-.062,5.61256-.062,2.42964,0,5.77355.87438,5.77355,4.493a4.37838,4.37838,0,0,1-2.90229,3.90073c-.09453.031-.09453.093,0,.12407,2.33513.5908,4.38517,2.02791,4.38517,4.77363,0,2.68369-1.67194,4.36894-4.1016,5.42941a13.02177,13.02177,0,0,1-5.16946.8729c-1.41939,0-5.22411-.14769-7.33917-.12406-.22154-.093.20235-1.093.39141-1.24806a5.8168,5.8168,0,0,0,1.4312-.2245c.75622-.1861.84632-.42981.94085-1.55379.06351-.96743.06351-4.431.06351-6.89607,0-3.37049.03248-5.64653,0-6.77052-.031-.8729-.34709-1.155-.94675-1.31009-.47264-.09453-1.26135-.18758-1.892-.28063-.158-.15656.32788-1.093.48445-1.217"/><path class="d" d="M34.93659,44.07962a1.36769,1.36769,0,0,1-.096-.63068.802.802,0,0,1,.096-.42094,10.71893,10.71893,0,0,0,1.21113-.24666c.5583-.13884.768-.4431.80053-1.155.09157-1.68229.09748-4.83861.065-7.05705v-.065a.89889.89889,0,0,0-.2954-.79314,6.34207,6.34207,0,0,0-1.67343-.7385c-.26438-.07828-.4106-.21712-.40322-.37959s.17429-.35447.51843-.42241a19.90652,19.90652,0,0,0,4.25077-1.09888.62329.62329,0,0,1,.12555.44309c0,.09748-.01477.20087-.02511.30722-.02659.31312-.05613.66907-.05613,1.02355a.23337.23337,0,0,0,.39583.13441,7.83693,7.83693,0,0,1,4.21976-1.90532A3.62914,3.62914,0,0,1,47.296,33.05388a.2171.2171,0,0,0,.18314.10782.20974.20974,0,0,0,.17134-.09157,8.45245,8.45245,0,0,1,4.37189-1.99541c2.58178,0,4.12523,1.93338,4.12523,5.16946,0,.93051-.00886,2.11062-.01773,3.211-.00738.96595-.01477,1.87135-.01477,2.49759a.86337.86337,0,0,0,.50957.65726,6.52956,6.52956,0,0,0,1.61287.39731h.02659a2.39987,2.39987,0,0,1-.16247,1.056c-.17134,0-.40765-.01477-.703-.02954-.53615-.02659-1.27169-.06351-2.12687-.06351-1.71626,0-2.61279.03249-3.46944.08862a2.59692,2.59692,0,0,1-.00887-1.05014,9.08974,9.08974,0,0,0,1.05162-.22894c.54649-.18019.70452-.42832.7385-1.15352.01329-.51547.11225-5.05722-.06351-6.13542a2.74538,2.74538,0,0,0-2.84616-2.42669,5.01027,5.01027,0,0,0-2.83878,1.08263.41361.41361,0,0,0-.10339.26734v.02215a11.6134,11.6134,0,0,1,.12407,2.28786c0,.5908,0,1.2067-.00738,1.8226-.00739,1.25249-.0133,2.43408.00738,3.32766a.83761.83761,0,0,0,.66465.87142c.161.03545.288.06647.41651.096.24666.06056.50365.12259.88619.18315a1.697,1.697,0,0,1-.01477.78576.62919.62919,0,0,1-.11077.26733c-.95414-.03249-1.93338-.06056-3.34686-.06056-.42833,0-1.12695.01773-1.74433.034-.5007.0133-.97333.02659-1.24215.02807a1.21707,1.21707,0,0,1-.09452-.54353.94239.94239,0,0,1,.099-.50809l.37959-.06942c.33085-.05908.61738-.1093.8862-.17724.46672-.1477.64249-.40174.67646-.997a46.897,46.897,0,0,0-.034-6.39094,2.62293,2.62293,0,0,0-2.71914-2.42226,5.11619,5.11619,0,0,0-2.83878,1.08116.8655.8655,0,0,0-.26142.64249v1.65275c0,2.00871-.0133,4.50925.03545,5.59041a.88555.88555,0,0,0,.77246.87437c.13736.03988.37368.07828.6484.12407.158.02658.33084.05465.50956.08714a2.23923,2.23923,0,0,1-.08419,1.056c-.27472,0-.61295-.01772-.99992-.034-.5908-.02659-1.32929-.05908-2.16379-.05908-.98663,0-1.67343.03249-2.22435.05908-.37072.01772-.69123.03249-1.01174.034"/><path class="d" d="M66.61064,32.40992a2.69108,2.69108,0,0,0-1.50654.4239c-1.09592.66612-1.65423,1.99689-1.65423,3.95242,0,3.66,1.833,6.21665,4.45756,6.21665a2.80626,2.80626,0,0,0,1.923-.68089c.80644-.65726,1.23476-2.00132,1.23476-3.883,0-3.60533-1.79159-6.02907-4.45755-6.02907m.50513,11.95032c-4.74114,0-6.42933-3.47831-6.42933-6.73212a6.01952,6.01952,0,0,1,2.762-5.28319,8.43512,8.43512,0,0,1,4.267-1.26135A5.96782,5.96782,0,0,1,73.85675,37.411a6.54641,6.54641,0,0,1-2.91853,5.78093,8.2782,8.2782,0,0,1-3.8254,1.1683"/><path class="d" d="M114.87866,32.40992a2.68362,2.68362,0,0,0-1.50948.4239c-1.09593.66612-1.65423,1.99689-1.65423,3.95242,0,3.66,1.83294,6.21665,4.45755,6.21665a2.80632,2.80632,0,0,0,1.929-.68089c.80644-.65726,1.23328-2.00132,1.23328-3.883,0-3.60533-1.79011-6.02907-4.45607-6.02907m.50512,11.95032c-4.74113,0-6.42933-3.47831-6.42933-6.73064a6.01661,6.01661,0,0,1,2.76345-5.28467,8.41892,8.41892,0,0,1,4.26555-1.26135,5.96821,5.96821,0,0,1,6.14427,6.32595,6.5413,6.5413,0,0,1-2.91853,5.78094,8.26185,8.26185,0,0,1-3.82541,1.16977"/><path class="d" d="M98.91535,32.28585c-1.46075,0-2.406,1.15353-2.406,2.93921s.81382,3.90811,3.10167,3.90811a2.22615,2.22615,0,0,0,1.45779-.56273,3.6479,3.6479,0,0,0,.8862-2.56553c0-2.32921-1.13433-3.71906-3.03227-3.71906m-.18906,12.324a2.40611,2.40611,0,0,0-1.18159.2954c-1.15648.7385-1.69263,1.477-1.69263,2.33512a2.49336,2.49336,0,0,0,.9822,2.01018A4.97934,4.97934,0,0,0,100.19,50.27411c2.83435,0,4.10455-1.52426,4.10455-3.03374a2.15064,2.15064,0,0,0-1.61287-2.15493,12.654,12.654,0,0,0-3.94356-.47411m.18906,7.23725a6.11939,6.11939,0,0,1-3.97458-1.16535,3.72453,3.72453,0,0,1-1.477-2.759,2.15787,2.15787,0,0,1,.55831-1.40314,14.67877,14.67877,0,0,1,2.57-2.05893.13589.13589,0,0,0,.08271-.12554.13146.13146,0,0,0-.10044-.13A2.71442,2.71442,0,0,1,94.765,42.43424a.15235.15235,0,0,0-.0133-.06942.41.41,0,0,1,.16543-.50956c.18314-.13.47558-.30426.78871-.48888a10.61742,10.61742,0,0,0,1.26874-.82564.20824.20824,0,0,0-.05317-.32493,4.0801,4.0801,0,0,1-2.90967-4.28327,4.25818,4.25818,0,0,1,1.78715-3.5049,8.1527,8.1527,0,0,1,3.99822-1.35588H99.871a8.24324,8.24324,0,0,1,3.05145.67942,4.85048,4.85048,0,0,0,1.80488.28654,2.43179,2.43179,0,0,0,1.95258-.7385,1.69456,1.69456,0,0,1,.10339.5583,2.10026,2.10026,0,0,1-.35153,1.282,1.593,1.593,0,0,1-1.21261.52728,1.01025,1.01025,0,0,1-.1477-.00738,3.97951,3.97951,0,0,1-.73849-.12259l-.12112.04283c-.0384.05613-.01329.11816.01773.19792a.25123.25123,0,0,1,.01772.04874,8.64456,8.64456,0,0,1,.17576,1.19636,4.46917,4.46917,0,0,1-1.88464,4.03809A6.43387,6.43387,0,0,1,99.289,40.3192h0c-.0251,0-.1477.01034-.37811.031-.14769.0133-.3397.031-.36776.031h-.02807c-.21268.05908-.768.32346-.768.8153,0,.40765.25109.91426,1.45188,1.00583l.7769.05465a23.89819,23.89819,0,0,1,4.49152.56273,3.11052,3.11052,0,0,1,2.07812,2.99386c0,2.0604-1.46517,3.99821-3.91845,5.18276a8.51642,8.51642,0,0,1-3.70577.83154"/><path class="d" d="M91.66924,42.98074a5.63615,5.63615,0,0,1-1.799-.46821.827.827,0,0,1-.22155-.4431c-.06351-.96743-.06351-3.77518-.06351-5.61256a6.705,6.705,0,0,0-.8862-3.74417,3.79764,3.79764,0,0,0-3.21835-1.68524,7.4732,7.4732,0,0,0-4.22715,1.99689c-.03249.031-.24075.22893-.23632-.07828s.0517-.93051.08124-1.32929a.68386.68386,0,0,0-.20678-.579,18.80792,18.80792,0,0,1-4.29213,1.124c-.67056.13-.84041.77542-.12407.99844h.01034a6.12363,6.12363,0,0,1,1.62469.71486.85224.85224,0,0,1,.25256.77985c.031,2.08994.031,5.30387-.06351,7.05115-.031.6868-.22154.93641-.72668,1.062l.04727-.01625a9.81565,9.81565,0,0,1-1.1683.2186,1.70133,1.70133,0,0,0,0,1.248c.31608,0,1.92009-.093,3.24938-.093,1.82851,0,2.77526.093,3.24937.093a1.74117,1.74117,0,0,0,.127-1.248,6.64669,6.64669,0,0,1-1.29532-.18758c-.50365-.12407-.63067-.37516-.66169-.93494-.062-1.46813-.062-4.58753-.062-6.71a1.24945,1.24945,0,0,1,.34561-1.03389,4.15787,4.15787,0,0,1,2.58769-.93494,2.82349,2.82349,0,0,1,1.92009.65431,2.67338,2.67338,0,0,1,.90391,1.76353c.12554,1.18159.09305,3.55806.09305,5.61256,0,1.124-.09305,1.40609-.50365,1.53016a5.0962,5.0962,0,0,1-1.29384.24961,1.70194,1.70194,0,0,0,0,1.24806c.81973,0,1.77239-.09306,3.15485-.09306,1.73546,0,2.84025.09306,3.28186.09306a1.73634,1.73634,0,0,0,.127-1.24806"/></svg>