<svg xmlns="http://www.w3.org/2000/svg" viewBox="0 0 180.51692 63.49203"><defs><style>.cls-1{fill:#00265d;}.cls-2{fill:#ee7800;}</style></defs><g id="springer"><path class="cls-1" d="M49.22067,41.834H24.84224V40.33607h2.0661c.36159-4.8554,5.00951-6.66308,7.592-10.58795h-2.9952c-1.44609.51627-3.61593,3.71824-3.61593,5.57772H24.11905l.05194-1.54911-1.24018,1.0327-3.30557-3.822a.7964.7964,0,0,1-.15482-.36145.62838.62838,0,0,1,.0518-.25857l5.217-7.07575.929-2.78915,1.395-.51642,1.44609-2.01431L27.993,14.4596a3.29509,3.29509,0,0,1,3.40845.6193,17.98685,17.98685,0,0,0-.05108-2.16913,3.12666,3.12666,0,0,1,3.77,2.58252,17.88653,17.88653,0,0,1,1.85948.25857.83982.83982,0,0,1,.775-.56822.76031.76031,0,0,1,.77412.77485v.20676a15.011,15.011,0,0,1,3.04787,1.44609A.73569.73569,0,0,1,42.19614,17.3a.76048.76048,0,0,1,.77485.77485.63074.63074,0,0,1-.15483.46519A13.292,13.292,0,0,1,45.089,21.07073a.95228.95228,0,0,1,.36159-.10374.8059.8059,0,0,1,.82593.775.69257.69257,0,0,1-.41268.67182,14.50238,14.50238,0,0,1,1.23946,3.04714.30946.30946,0,0,1,.20677-.05194.76042.76042,0,0,1,.77413.775.74666.74666,0,0,1-.5675.77485c.20605,1.08463.36159,2.16913.46447,3.30556a.806.806,0,0,1,.82608.775.84157.84157,0,0,1-.77414.82593c0,1.08463-.05194,2.27287-.15482,3.40931a.8346.8346,0,0,1,.723.82607.80609.80609,0,0,1-.82678.77484h-.0518c-.20605,1.13644-.41268,2.27216-.67125,3.46054h2.16913Zm-3.719-1.44609c2.99592-12.34441-.51642-22.15823-10.07153-23.29467a12.57522,12.57522,0,0,1,.0518,1.34321c0,.62-.0518,1.13629-.0518,1.13629l-1.49731-.25842c.05108-.51642.15483-4.02861-1.08521-4.80288a19.52475,19.52475,0,0,1-.41268,3.71824l-1.395-.25785a2.08626,2.08626,0,0,0-1.34249-2.16913l.36159,2.53072-.87858,1.29127.41339,1.18752-2.73735.92981-.775,2.22093L21.2781,30.57405l1.80825,2.16927,2.01431-1.70394.46462.30965v2.53073h1.08449a10.14787,10.14787,0,0,1,3.35752-4.95843l-.775-.92981,1.13643-.98147,1.08464,1.34306s3.87379,0,3.87379-.0518a10.698,10.698,0,0,0,.92967-4.49323h1.498c0,5.8881-2.94412,8.2122-6.61113,11.82813-1.34321,1.34235-2.53145,2.78843-2.68628,4.75166ZM23.96422,28.97313a3.99246,3.99246,0,0,1-.41325,2.22108l-1.08463-.4134a3.42247,3.42247,0,0,0,.56821-1.85948Zm5.93932-5.73326-2.324,1.23946-.15482-1.91071,2.4277-.25842Z"/><path class="cls-2" d="M49.22067,49.47793H24.84224V46.482H49.22067Z"/><path class="cls-1" d="M65.95944,42.24735a11.73664,11.73664,0,0,1-5.01022-1.13644,32.57157,32.57157,0,0,1-.51627-5.01022l1.18823-.20663c.67125,2.53058,1.60091,5.01023,4.69986,5.01023a3.17464,3.17464,0,0,0,3.46039-3.35751c0-5.31988-8.83221-4.13164-8.83221-10.2783,0-2.78915,2.27287-5.31988,6.30149-5.31988a12.94272,12.94272,0,0,1,4.23538.87787c.103,1.08464.20662,2.32468.25785,4.49395l-1.08463.0518c-.51629-1.8084-1.34235-4.02933-3.97682-4.02933a2.76243,2.76243,0,0,0-2.944,2.944c0,4.90734,8.98705,3.87393,8.98705,10.27829C72.72556,39.613,69.98806,42.24735,65.95944,42.24735Zm14.72031-.20663a6.96491,6.96491,0,0,1-1.91128-.36159v4.85468c0,1.75646.20662,1.91128,2.58252,2.118v.98089H74.06862v-.98089c1.85947-.20677,2.0143-.36159,2.0143-2.118V32.74332c0-1.80768-.0518-1.85948-1.80768-2.01445V29.851a34.27055,34.27055,0,0,0,4.49323-1.29126v1.96251l2.78915-1.44609a2.09657,2.09657,0,0,1,1.08463-.25785c3.20255,0,5.01023,2.78857,5.01023,5.4747A7.644,7.644,0,0,1,80.67975,42.04072ZM81.351,30.72887a5.84921,5.84921,0,0,0-2.58252.98161v7.644A3.55575,3.55575,0,0,0,81.40279,40.439c1.498,0,3.46039-1.13572,3.46039-5.00951C84.86318,32.1751,83.3135,30.72887,81.351,30.72887Zm16.11459,1.29141a1.38954,1.38954,0,0,0-1.23946-.51642c-.67125,0-1.498.77484-2.06625,2.3759v4.80345c0,1.75574.20678,1.91128,2.4277,2.06611v1.03284H89.563V40.74932c1.7566-.15483,1.96322-.31037,1.96322-2.06611V32.84692c0-1.75646-.15482-1.75646-1.75645-2.06611v-.87787a27.30376,27.30376,0,0,0,4.39006-1.13643v3.0988h.05194c.92968-1.70451,2.22093-3.047,3.4086-3.047a1.6811,1.6811,0,0,1,1.75645,1.60091C99.37686,31.60688,98.1374,32.64029,97.46558,32.02028Zm9.86548,9.76188h-6.61114V40.74932c1.75588-.15483,2.01431-.31037,2.01431-2.16913V33.00174c0-2.0143-.15483-2.0143-1.85948-2.22093v-.87787a31.757,31.757,0,0,0,4.49324-1.13643v9.81368c0,1.85876.15481,2.0143,1.96307,2.16913Zm-3.40917-15.753a1.78226,1.78226,0,0,1,0-3.56414,1.78225,1.78225,0,1,1,0,3.56414Zm19.21411,15.753h-6.09486V40.74932c1.44623-.15483,1.65285-.31037,1.65285-1.96308V33.72479c0-1.85948-.82678-2.99592-2.3759-2.99592a4.85191,4.85191,0,0,0-2.89289,1.44623v6.61114c0,1.65271.15555,1.80825,1.60163,1.96308v1.03284h-6.30148V40.74932c1.75588-.15483,2.0143-.31037,2.0143-1.96308V32.84692c0-1.75646-.10288-1.85948-1.65271-2.06611v-.87787a26.65847,26.65847,0,0,0,4.33826-1.13643v2.0661c.672-.56822,2.63447-2.0143,4.13236-2.0143a3.636,3.636,0,0,1,3.77,3.97681v5.99112c0,1.65271.25857,1.80825,1.8084,1.96308Zm14.71958-12.29261a4.18519,4.18519,0,0,1-1.23946,1.60091l-1.49789-.15482a5.05545,5.05545,0,0,1,.72305,2.58252c0,3.15075-2.84038,4.8554-5.42289,4.8554-.15484,0-.56822-.0518-.92981-.0518a1.787,1.787,0,0,0-1.13631,1.39415c0,.46533.4652,1.03341,1.70452,1.03341h3.09894c1.80768,0,4.23538.878,4.23538,3.77019,0,3.30556-3.46054,6.09471-7.48915,6.09471-3.51219,0-5.37167-2.16913-5.37167-3.92558,0-1.13572.56822-2.01431,2.99591-3.87379-.87858-.30965-2.42769-1.18752-2.32467-2.84038a8.15082,8.15082,0,0,0,2.73736-2.0143,4.31754,4.31754,0,0,1-2.68556-3.97681,5.32657,5.32657,0,0,1,5.4747-5.165,6.414,6.414,0,0,1,2.99592.723c1.34306-.0518,2.68555-.20662,3.92558-.36145ZM133.77575,43.332a10.49141,10.49141,0,0,0-3.30557-.31052,2.99271,2.99271,0,0,0-3.20254,2.893c0,1.75574,1.54983,3.0988,3.87378,3.0988,2.58253,0,4.02861-1.70466,4.02861-3.40931A2.41386,2.41386,0,0,0,133.77575,43.332Zm-3.30557-13.27422c-1.0845,0-2.32467,1.13644-2.32467,3.30557s1.13644,3.719,2.68626,3.719c1.13572,0,2.22093-.98161,2.22093-3.35751C133.0527,31.71048,132.07109,30.05777,130.47018,30.05777Zm18.23192,4.545c-.46462.0518-4.02861.30965-7.28237.41325.103,3.40859,2.11732,4.85468,4.13235,4.85468a3.81378,3.81378,0,0,0,2.9952-1.34234l.67181.92967a6.4437,6.4437,0,0,1-4.64863,2.63375c-3.66716,0-5.7852-2.78858-5.7852-6.09415,0-4.02861,3.04785-7.17935,6.09485-7.17935a4.62981,4.62981,0,0,1,4.545,4.59683C149.42514,34.18941,149.27032,34.49978,148.7021,34.6028Zm-4.3902-4.49323c-1.18752,0-2.4277,1.29126-2.73735,3.51162l4.442-.103c.56822,0,.67124-.15482.67124-.67124A2.59311,2.59311,0,0,0,144.3119,30.10957ZM159.187,32.02028a1.76109,1.76109,0,0,0-1.23946-.51642c-.6711,0-1.54969.77484-2.11718,2.3759v4.80345c0,1.75574.2059,1.91128,2.427,2.06611v1.03284H151.1816V40.74932c1.80769-.15483,1.96251-.31037,1.96251-2.06611V32.84692c0-1.75646-.103-1.75646-1.75574-2.06611v-.87787a25.38193,25.38193,0,0,0,4.442-1.13643v3.0988h.05107c.87787-1.70451,2.16914-3.047,3.40932-3.047a1.71519,1.71519,0,0,1,1.75573,1.60091C161.0465,31.60688,159.75524,32.64029,159.187,32.02028Z"/></g></svg>