<svg xmlns="http://www.w3.org/2000/svg" viewBox="0 0 180.52 31.59"><defs><style>.cls-1{fill:#b4b4b5;}.cls-2{fill:#231815;}.cls-3{fill:#888;}</style></defs><g id="dbsj"><rect class="cls-1" x="5.83" y="2.84" width="15.19" height="3.64"/><rect class="cls-1" x="21.02" y="6.49" width="9.1" height="3.64"/><rect class="cls-1" x="5.83" y="6.48" width="15.19" height="0.01"/><rect class="cls-1" x="5.83" y="10.15" width="9.2" height="3.64"/><rect class="cls-1" x="21.02" y="13.8" width="12.05" height="3.64"/><rect class="cls-1" x="21.02" y="13.79" width="12.05" height="0.01"/><rect class="cls-1" x="5.83" y="17.46" width="9.2" height="3.64"/><rect class="cls-1" x="5.83" y="24.86" width="15.19" height="3.64"/><rect class="cls-1" x="21.02" y="21.11" width="9.1" height="3.64"/><path class="cls-2" d="M39.94,14.16h6c3.58,0,6.28,2.25,6.28,6.84,0,4-2.06,7-6.28,7h-6Zm3,11.27h2.71c1.76,0,3.45-1.08,3.45-4.14,0-2.79-1-4.57-4-4.57H43Z"/><path class="cls-2" d="M53.51,14.16H60c2.63,0,4.41.85,4.41,3.43a3,3,0,0,1-1.87,2.89A3.37,3.37,0,0,1,65.09,24c0,2.81-2.38,4-4.88,4h-6.7Zm3,5.6h3.08c1.07,0,1.86-.48,1.86-1.65s-1-1.58-2.09-1.58H56.55Zm0,5.87h3.26c1.2,0,2.24-.39,2.24-1.82s-.89-2-2.19-2H56.55Z"/><path class="cls-2" d="M69.22,23.4c0,1.84,1.43,2.56,3.06,2.56,1.06,0,2.69-.31,2.69-1.73S72.9,22.49,70.86,22,66.74,20.61,66.74,18c0-2.83,2.67-4.19,5.17-4.19,2.88,0,5.54,1.26,5.54,4.46h-3c-.09-1.67-1.27-2.09-2.73-2.09-1,0-2.09.4-2.09,1.56s.66,1.21,4.13,2.1c1,.25,4.1.89,4.1,4,0,2.54-2,4.44-5.75,4.44-3.06,0-5.92-1.51-5.89-4.92Z"/><path class="cls-2" d="M87.81,23.63c0,1.78-.49,4.69-4.61,4.69-2.31,0-4.55-1.26-4.55-4.28v-1.2H81.4v.62c0,1.33.33,2.3,1.76,2.3,1.61,0,1.61-1.29,1.61-2.26V14.16h3Z"/><path class="cls-3" d="M93.36,14.84H92.22v-.38h2.72v.38H93.81v3h-.45Z"/><path class="cls-3" d="M95.41,14.46h.46v1.46h1.78V14.46h.46v3.4h-.46V16.3H95.87v1.56h-.46Z"/><path class="cls-3" d="M98.94,14.46h2.35v.38H99.4v1.08h1.76v.38H99.4v1.18h1.91v.38H98.94Z"/><path class="cls-3" d="M103.37,14.46h1.16a1.44,1.44,0,0,1,1.63,1.62c0,1.14-.5,1.78-1.63,1.78h-1.16Zm.45,3h.75c.31,0,1.14-.09,1.14-1.34,0-.81-.3-1.3-1.13-1.3h-.76Z"/><path class="cls-3" d="M107.73,14.46h.5l1.33,3.4h-.5l-.37-1h-1.44l-.38,1h-.46Zm-.33,2h1.15L108,14.87h0Z"/><path class="cls-3" d="M110.48,14.84h-1.14v-.38h2.72v.38h-1.13v3h-.45Z"/><path class="cls-3" d="M113.17,14.46h.5l1.33,3.4h-.5l-.37-1h-1.44l-.38,1h-.47Zm-.34,2H114l-.56-1.58h0Z"/><path class="cls-3" d="M115.52,14.46h1.23a2.09,2.09,0,0,1,.9.12.81.81,0,0,1,.4.71.78.78,0,0,1-.5.76h0a.78.78,0,0,1,.64.82,1,1,0,0,1-1,1h-1.64Zm.45,1.46h.91c.51,0,.72-.19.72-.54s-.33-.54-.72-.54H116Zm0,1.56h1.13a.58.58,0,0,0,.64-.61c0-.44-.35-.57-.74-.57h-1Z"/><path class="cls-3" d="M119.89,14.46h.5l1.33,3.4h-.5l-.37-1h-1.44l-.38,1h-.46Zm-.33,2h1.15l-.57-1.58h0Z"/><path class="cls-3" d="M124.21,15.45a.74.74,0,0,0-.84-.69c-.38,0-.76.14-.76.58s.54.48,1.09.6,1.08.32,1.08,1-.71,1-1.33,1-1.4-.37-1.4-1.2h.43c0,.57.47.82,1,.82s.86-.13.86-.62-.54-.55-1.09-.67-1.09-.27-1.09-.9.62-1,1.24-1a1.1,1.1,0,0,1,1.25,1.07Z"/><path class="cls-3" d="M125.42,14.46h2.35v.38h-1.89v1.08h1.76v.38h-1.76v1.18h1.9v.38h-2.36Z"/><path class="cls-3" d="M131.81,15.45a.74.74,0,0,0-.84-.69c-.38,0-.76.14-.76.58s.54.48,1.09.6,1.08.32,1.08,1-.71,1-1.33,1-1.4-.37-1.4-1.2h.43c0,.57.47.82,1,.82s.86-.13.86-.62-.54-.55-1.09-.67-1.09-.27-1.09-.9.62-1,1.24-1a1.1,1.1,0,0,1,1.25,1.07Z"/><path class="cls-3" d="M134.46,14.38a1.63,1.63,0,0,1,1.62,1.78,1.63,1.63,0,1,1-3.25,0A1.64,1.64,0,0,1,134.46,14.38Zm0,3.18c.82,0,1.17-.72,1.17-1.4s-.35-1.4-1.17-1.4-1.18.71-1.18,1.4A1.24,1.24,0,0,0,134.46,17.56Z"/><path class="cls-3" d="M139.13,15.48a.91.91,0,0,0-1-.72c-.81,0-1.15.67-1.15,1.37s.34,1.43,1.16,1.43a1,1,0,0,0,1-1h.45a1.39,1.39,0,0,1-1.47,1.36,1.56,1.56,0,0,1-1.57-1.77,1.61,1.61,0,0,1,1.61-1.79,1.3,1.3,0,0,1,1.4,1.1Z"/><path class="cls-3" d="M140.38,14.46h.45v3.4h-.45Z"/><path class="cls-3" d="M141.69,14.46H144v.38h-1.9v1.08h1.77v.38h-1.77v1.18h1.91v.38h-2.36Z"/><path class="cls-3" d="M145.46,14.84h-1.13v-.38H147v.38h-1.13v3h-.45Z"/><path class="cls-3" d="M148.92,16.47v1.39h-.45V16.47l-1.32-2h.54l1,1.62,1-1.62h.52Z"/><path class="cls-3" d="M153.54,14.38a1.63,1.63,0,0,1,1.63,1.78,1.63,1.63,0,1,1-3.25,0A1.63,1.63,0,0,1,153.54,14.38Zm0,3.18a1.24,1.24,0,0,0,1.18-1.4c0-.69-.35-1.4-1.18-1.4s-1.17.71-1.17,1.4S152.72,17.56,153.54,17.56Z"/><path class="cls-3" d="M155.82,14.46h2.23v.38h-1.78v1.08h1.56v.38h-1.56v1.56h-.45Z"/><path class="cls-3" d="M161.8,17a.88.88,0,0,1-1,.93.89.89,0,0,1-1-1v-.21h.45v.14c0,.4.1.68.55.68s.54-.24.54-.62V14.46h.45Z"/><path class="cls-3" d="M163.66,14.46h.5l1.33,3.4H165l-.38-1h-1.43l-.38,1h-.47Zm-.34,2h1.15l-.56-1.58h0Z"/><path class="cls-3" d="M166,14.46h1.49a.93.93,0,0,1,1,1,.93.93,0,0,1-1,1h-1v1.39H166Zm.45,1.63h.89c.51,0,.74-.22.74-.63s-.23-.62-.74-.62h-.89Z"/><path class="cls-3" d="M169.64,14.46h.49l1.33,3.4H171l-.37-1h-1.44l-.38,1h-.46Zm-.34,2h1.15l-.57-1.58h0Z"/><path class="cls-3" d="M172,14.46h.48l1.79,2.76h0V14.46h.43v3.4h-.5l-1.77-2.73h0v2.73H172Z"/><path class="cls-2" d="M94.31,27.8v.5H93.18v-7h6v7H98.09v-.5ZM98.09,24v-1.7H94.31V24Zm0,2.78V25H94.31v1.8Z"/><path class="cls-2" d="M106.71,27.33h-1.36v1.31h-1.08V27.33H103v-.92a7.35,7.35,0,0,1-1.36,1.42,2.59,2.59,0,0,0-.95-.7,9.79,9.79,0,0,0,3.09-3.82h-2.89v-1h3.39V20.73l1,.07s.22,0,.22.12-.09.12-.18.17v1.26h3.4v1h-3a9.87,9.87,0,0,0,3.2,3.63,2.57,2.57,0,0,0-.81.83,10.1,10.1,0,0,1-1.44-1.39Zm-2.44-2.94a12,12,0,0,1-1.24,2h1.24Zm2.42,2a11.43,11.43,0,0,1-1.34-1.9v1.9Z"/><path class="cls-2" d="M109.75,24.51V23.46h7.32v1.05h-2.9a4,4,0,0,1-1,2.8,4.46,4.46,0,0,1-1.91,1.22,3.83,3.83,0,0,0-.87-.91c2.32-.65,2.56-2.07,2.59-3.11Zm6.07-3.3v1.06H110.9V21.21Zm.62.27a9.74,9.74,0,0,1,.86.85c-.11.12-.15.17-.51.61a5.74,5.74,0,0,0-.89-.91Zm.4-1a9.44,9.44,0,0,1,.9.89,3.56,3.56,0,0,0-.52.55,5.63,5.63,0,0,0-.88-.88Z"/><path class="cls-2" d="M124.56,24.11v1.22h-6.32V24.11Z"/><path class="cls-2" d="M128.68,23.83c.44.25.91.53,1.51,1a7.61,7.61,0,0,0,.74-1.57h-2.25a10.19,10.19,0,0,1-1.9,2,5.88,5.88,0,0,0-.92-.79,7.85,7.85,0,0,0,2.85-3.68l1.15.37c.1,0,.15.05.15.1s-.15.11-.2.12c-.14.26-.27.49-.47.83h2a1.4,1.4,0,0,0,.58-.09l.53.47a3,3,0,0,0-.18.36,12.34,12.34,0,0,1-1.23,2.55,4.33,4.33,0,0,1,.86.9,11.75,11.75,0,0,0-.72,1,7.15,7.15,0,0,0-.84-1,8.5,8.5,0,0,1-3.3,2.19,5,5,0,0,0-.8-1,7.39,7.39,0,0,0,3.24-1.94,15.88,15.88,0,0,0-1.55-1Z"/><path class="cls-2" d="M133.47,25a9.74,9.74,0,0,0,1.59-1.61c1-1.21,1.35-1.47,1.86-1.47s.8.25,1.78,1.46a19.37,19.37,0,0,0,3,3,8.66,8.66,0,0,0-.77,1.06,35.31,35.31,0,0,1-3.06-3.4c-.65-.82-.71-.88-.94-.88s-.36.16-.78.67-1.22,1.47-1.54,1.94c0,.1,0,.2-.11.2s-.07,0-.12-.08Zm6.31-3.52a4.72,4.72,0,0,1,.92.92c-.11.1-.35.38-.52.57a6.94,6.94,0,0,0-.91-.94Zm.87-.8a7.39,7.39,0,0,1,.89.88,5.65,5.65,0,0,0-.51.56,7.83,7.83,0,0,0-.89-.93Z"/><path class="cls-2" d="M148.62,24.11v1.22h-6.31V24.11Z"/><path class="cls-2" d="M150.3,22.5V21.41h4.38a2.32,2.32,0,0,0,.59-.07l.59.63a2.8,2.8,0,0,0-.33.55,13.69,13.69,0,0,1-1.11,2.19,19.59,19.59,0,0,1,2.69,2.49l-.89,1a11.82,11.82,0,0,0-2.44-2.56,10.11,10.11,0,0,1-3.45,2.68,3.06,3.06,0,0,0-.82-1,7.62,7.62,0,0,0,4.68-4.8Z"/><path class="cls-2" d="M165.76,25.7v.89h-3.28v1.17c0,.91-.64.94-2,.92a3.77,3.77,0,0,0-.33-1l.94,0c.37,0,.37-.05.37-.5v-.6H158V25.7h3.38v-.63l.45.06c.28-.21.62-.48.76-.6h-3v-.87h4.29l.31.61a13.11,13.11,0,0,1-1.71,1.43Zm-4.22-3.4a5.73,5.73,0,0,0-.85-1.27l.92-.42a6.84,6.84,0,0,1,.86,1.26l-.81.43h1.27a8.47,8.47,0,0,0,1-1.51l1,.34c.05,0,.13.05.13.13s-.13.12-.29.14c-.3.47-.51.75-.62.9h1.48v2.19h-1V23.13h-5.52v1.36h-1V22.3h1.31a7.24,7.24,0,0,0-.74-1.05l.87-.45a5.3,5.3,0,0,1,.85,1.2,4.85,4.85,0,0,0-.56.3Z"/><path class="cls-2" d="M172.69,24.39h-4.37v-.75a9,9,0,0,1-1.12.6,3.53,3.53,0,0,0-.8-.86A7.3,7.3,0,0,0,170,20.62l1.25.18c.08,0,.13.06.13.11s-.1.11-.2.13a8,8,0,0,0,3.5,2.22,3,3,0,0,0-.72.9,9,9,0,0,1-1.25-.62Zm-5.7,3,1.33-.08a10,10,0,0,0,.71-1.46h-2v-1h7.11v1h-2a12.21,12.21,0,0,1,2,2.14,4.49,4.49,0,0,0-.84.75,8,8,0,0,0-.63-.9c-.52.08-1.76.23-2.31.29l-2.74.29c-.06.13-.1.23-.2.23s-.1,0-.12-.2Zm5.53-3.95a9.43,9.43,0,0,1-2-1.66,12.4,12.4,0,0,1-1.87,1.66Zm-.76,2.41h-1.33a.08.08,0,0,1,0,.06c0,.09-.18.12-.25.13-.12.29-.48.91-.64,1.18,1.08-.1,1.2-.1,2.27-.22a6.32,6.32,0,0,0-.69-.62Z"/></g></svg>