<svg xmlns="http://www.w3.org/2000/svg" viewBox="0 0 180.51692 63.49203"><defs><style>.a{fill:none;}.b{fill:#3e3a39;}.c{fill:#e50027;}</style></defs><title>logo_hitachi</title><rect class="a" x="9.32881" y="0.00225" width="161.8593" height="63.48753"/><path class="b" d="M126.52291,14.4407s-.0004,7.26065,0,7.20929h9.6461c0,.02632-.00836-7.211,0-7.20929-.00836-.00167,4.72823,0,4.7775,0,0,0,.01587,18.0107,0,18.0295-.00626.00126-4.7725.00126-4.7775,0V24.53581c0,.02254-9.6461,0-9.6461,0,.00753.03006-.0004,7.93941,0,7.93439h-4.77417s.0259-18.0295,0-18.0295Z"/><path class="b" d="M81.1954,14.4407c.00124.05263,0,3.06708,0,3.06708h-7.302V32.4702H69.11711V17.50778H61.81674s.00879-3.06332,0-3.06708C61.82553,14.44446,81.1954,14.4407,81.1954,14.4407Z"/><path class="b" d="M99.75954,32.4702c.01546.00126-5.35184,0-5.318,0,.00794,0-1.5613-3.877-1.5613-3.877h-8.9519s-1.53876,3.882-1.56132,3.877c.00376.005-5.31758,0-5.31758,0L85.475,14.4407c0,.01086,5.85682,0,5.85682,0ZM88.403,17.50778l-3.32313,8.19964h6.65044L88.403,17.50778"/><rect class="b" x="144.72826" y="14.4407" width="4.7792" height="18.0295"/><path class="b" d="M37.12513,14.4407s-.005,7.26065,0,7.20929H46.7662c0,.02632-.00584-7.211,0-7.20929-.00584-.00167,4.72781,0,4.77751,0,0,0,.01546,18.0107,0,18.0295-.005.00126-4.77334.00126-4.77751,0V24.53581c0,.02254-9.64107,0-9.64107,0,.00374.03006-.005,7.93941,0,7.93439H32.34719s.02631-18.0295,0-18.0295Z"/><rect class="b" x="55.33089" y="14.4407" width="4.77377" height="18.0295"/><path class="b" d="M99.58912,27.473a11.64988,11.64988,0,0,1-.64157-3.83938,10.1972,10.1972,0,0,1,1.2418-5.24951,8.04114,8.04114,0,0,1,4.09836-3.43257,14.98853,14.98853,0,0,1,11.321.31078,5.83678,5.83678,0,0,1,3.40665,4.16643,9.59272,9.59272,0,0,1,.17042,1.142h-5.01226a4.30711,4.30711,0,0,0-.25938-1.38713,3.47631,3.47631,0,0,0-2.24047-2.0851,7.1067,7.1067,0,0,0-4.45632.09523,4.30989,4.30989,0,0,0-2.608,2.64523,11.43684,11.43684,0,0,0-.65243,3.79469,11.79289,11.79289,0,0,0,.45528,3.169,4.28392,4.28392,0,0,0,2.60887,2.8457,7.26368,7.26368,0,0,0,2.56127.47491,7.10812,7.10812,0,0,0,2.20664-.34335,3.42223,3.42223,0,0,0,2.08886-1.87207,4.74188,4.74188,0,0,0,.39222-1.93222h5.03229a9.36181,9.36181,0,0,1-.24183,1.70919,5.78829,5.78829,0,0,1-3.33817,3.97721,15.79029,15.79029,0,0,1-6.14,1.25433,16.14429,16.14429,0,0,1-4.846-.74683A7.84817,7.84817,0,0,1,99.58912,27.473Z"/><path class="b" d="M28.06923,37.51378l-4.25249.38845v.629l.13492.0163c1.71126.20173,1.71126.20173,1.71126,1.436v8.9143h2.5738V37.49875Z"/><path class="b" d="M37.0938,40.88452a3.56711,3.56711,0,0,0-2.96769,1.723V40.85822l-.17626.02757-3.4526.54007v.604l.14827.00124c1.0931.03133,1.3295.26065,1.3295,1.28941v5.57865h2.15109v-4.1063c0-1.09141,1.028-2.50111,2.11853-2.50111,1.03209,0,1.08472.85836,1.08472,2.25929v4.34812h2.15276V43.32048A2.17589,2.17589,0,0,0,37.0938,40.88452Z"/><path class="b" d="M45.50936,43.9984c-.84663-.41477-1.57843-.77439-1.57843-1.35959,0-.66537.7978-.7368,1.14112-.7368a4.01384,4.01384,0,0,1,2.01367.693l.33792.20549L47.4203,42.526V41.189l-.26482-.05763a8.84838,8.84838,0,0,0-1.95561-.24686c-2.02663,0-3.23667.86839-3.23667,2.32445,0,1.30694,1.25767,1.92345,2.36621,2.466.86293.42354,1.67826.82076,1.67826,1.45106,0,.5927-.52378.93226-1.43559.93226a4.62146,4.62146,0,0,1-2.35826-.81949l-.23182-.14034v1.6578l.15789.03509a9.98062,9.98062,0,0,0,2.35826.28695c2.17615,0,3.47683-.89345,3.47683-2.38834C47.975,45.20885,46.66511,44.566,45.50936,43.9984Z"/><path class="b" d="M54.9675,40.88452a3.15716,3.15716,0,0,0-2.26679,1.109V40.85822l-.17626.02757-3.43383.54007v.60147l.14829.00374c1.07512.03133,1.2915.24938,1.2915,1.28941v8.88173h2.15193V48.15607a2.6297,2.6297,0,0,0,2.2104.92225c2.2505,0,3.4409-1.45982,3.4409-4.21782C58.33364,42.33182,57.10733,40.88452,54.9675,40.88452Zm-.609,1.17914c1.46819,0,1.63778,1.5964,1.63778,2.79684,0,2.0425-.53006,3.03618-1.61981,3.03618-1.39924,0-1.69413-1.3082-1.69413-2.40464v-.66661C52.68234,43.99714,52.84524,42.06366,54.3585,42.06366Z"/><path class="b" d="M59.83733,41.42586v.60147l.14786.00374c1.06009.03133,1.27478.24938,1.27478,1.28941v5.57865h2.15069V40.85822l-.17586.02757Z"/><path class="b" d="M62.35348,39.9109a1.2755,1.2755,0,0,0,1.3529-1.17538A1.2581,1.2581,0,0,0,62.371,37.579a1.17344,1.17344,0,1,0-.01754,2.33195Z"/><path class="b" d="M72.42226,42.65761V40.986l-.12863-.0188a6.84748,6.84748,0,0,0-1.02084-.0827,2.44367,2.44367,0,0,0-2.19327,1.59139V40.85822l-.17543.02757-3.43466.54007v.604l.14912.00124c1.08808.03133,1.30945.24938,1.30945,1.28941v5.57865h2.15152V44.87679a2.06963,2.06963,0,0,1,2.248-2.26052,2.8339,2.8339,0,0,1,.74724.1441l.34837.09773Z"/><path class="b" d="M80.93392,44.13123c0-2.15529-1.19959-3.24671-3.56873-3.24671-2.67445,0-4.03235,1.28691-4.03235,3.82938,0,2.73293,1.74926,4.36442,4.67852,4.36442a8.41465,8.41465,0,0,0,2.631-.43984l.12572-.04009V47.5571l-.20592.07393a5.24315,5.24315,0,0,1-1.68369.26565c-2.29686,0-3.15395-1.91093-3.20284-3.61385h5.25828Zm-3.64307-2.39211c1.15448,0,1.451.832,1.48447,1.59015H75.6794A1.62585,1.62585,0,0,1,77.29085,41.73912Z"/><path class="b" d="M100.5494,40.88452A3.42441,3.42441,0,0,0,97.59927,42.6V37.23436l-.17042.02254-3.4213.421v.60524l.1462.005c1.06427.04763,1.29316.282,1.29316,1.32324v9.28771h2.15236v-4.0073a2.4881,2.4881,0,0,1,2.027-2.60011c1.19541,0,1.19541.89845,1.19541,1.69415v4.91326h2.15193V43.74278C102.97365,42.88566,102.97365,40.88452,100.5494,40.88452Z"/><path class="b" d="M112.64564,44.13123c0-2.15529-1.2021-3.24671-3.56832-3.24671-2.67527,0-4.03027,1.28691-4.03027,3.82938,0,2.73293,1.74721,4.36442,4.67644,4.36442a8.414,8.414,0,0,0,2.63061-.43984l.12613-.04009V47.5571l-.2055.07393a5.25035,5.25035,0,0,1-1.68412.26565c-2.29812,0-3.15478-1.91093-3.202-3.61385h5.257Zm-3.64308-2.39211c1.15491,0,1.45063.832,1.48322,1.59015H107.392A1.62348,1.62348,0,0,1,109.00256,41.73912Z"/><path class="b" d="M88.48655,38.629v2.43848h-1.441v.95232h1.441v4.82054c0,2.07509,1.3387,2.24175,2.95766,2.24175a7.93952,7.93952,0,0,0,1.26184-.13159l.12906-.0188v-.96986l-.18546.04134a3.11346,3.11346,0,0,1-.65117.0614c-1.29357,0-1.36083-.38092-1.36083-1.48237V42.0198H93.0569v-.95232H90.63765V38.629Z"/><path class="b" d="M130.83554,37.69047H128.679v8.51332c-.44608-.6754-5.61873-8.51332-5.61873-8.51332h-4.9709v.64031l.429.07143c1.31071.22305,1.41763.23932,1.41763,1.515v8.982h2.30982V39.98357c.44778.67666,5.89442,8.91556,5.89442,8.91556h2.84822V37.69047Z"/><path class="b" d="M140.61446,44.13623c0-2.15653-1.20044-3.24794-3.56832-3.24794-2.67487,0-4.03027,1.2894-4.03027,3.83188,0,2.72917,1.7472,4.36192,4.67644,4.36192a8.35388,8.35388,0,0,0,2.631-.43858l.12571-.0401v-1.04l-.20424.07267a5.33213,5.33213,0,0,1-1.68412.26566c-2.29938,0-3.15521-1.91218-3.20367-3.61259h5.25744Zm-3.64182-2.39085c1.15364,0,1.4502.83079,1.48362,1.59015h-3.09591A1.6242,1.6242,0,0,1,136.97264,41.74538Z"/><path class="b" d="M152.48056,38.62526v2.44222H151.04v.95232h1.4406v4.82054c0,2.07509,1.34077,2.24175,2.95975,2.24175a7.92453,7.92453,0,0,0,1.25974-.13159l.13032-.0188v-.96986l-.18629.04134a3.10654,3.10654,0,0,1-.65076.0614c-1.29567,0-1.36083-.38092-1.36083-1.48237V42.0198h2.41841v-.95232h-2.41841V38.62526Z"/><path class="b" d="M148.14413,43.62248l2.2129-2.56H148.0823L145.983,43.4884l-1.85288-2.42092h-3.29555v.62027l.14453.00877a2.19847,2.19847,0,0,1,2.0667,1.1879l1.3483,1.79188-2.20289,2.545h2.27725l.9849-1.13654,2.12352,2.8194h2.55125l-4.04321-5.28166Z"/><polygon class="c" points="152.451 38.629 150.175 38.629 152.931 35.444 155.206 35.444 152.451 38.629"/></svg>