<svg xmlns="http://www.w3.org/2000/svg" viewBox="0 0 180.52 63.49"><defs><style>.cls-1{fill:#c74634;}</style></defs><g id="Oracle"><path class="cls-1" d="M81.07,34.49h9.56l-5-8.15L76.31,41.06H72.08L83.36,23.4a2.69,2.69,0,0,1,4.39,0L99.07,41.06H94.85l-2-3.29H83.18l-2.11-3.28m43.84,3.28V22.43h-3.59V39.28a1.71,1.71,0,0,0,.54,1.23,1.82,1.82,0,0,0,1.3.55h16.32l2.13-3.29h-16.7M65.66,35a6.3,6.3,0,0,0,0-12.6H50V41.06h3.58V25.72H65.42a3,3,0,0,1,0,6H55.32L66,41.06h5.19L64,35h1.63M28,41.06H38.78a9.32,9.32,0,0,0,0-18.63H28a9.32,9.32,0,1,0,0,18.63m10.58-3.28H28.19a6,6,0,1,1,0-12.06H38.53a6,6,0,0,1,0,12.06m68,3.28h11l2.09-3.28h-12.9a6,6,0,0,1,0-12.06h10.5l2.12-3.29H106.55a9.32,9.32,0,1,0,0,18.63m43.8-3.28a6,6,0,0,1-5.8-4.39h15.31L162,30.11H144.55a6,6,0,0,1,5.8-4.39h10.51l2.1-3.29H150.11a9.32,9.32,0,0,0,0,18.63h11.06l2.1-3.28H150.35"/></g></svg>