<svg xmlns="http://www.w3.org/2000/svg" viewBox="0 0 180.51692 63.49203"><defs><style>.cls-1{fill:#737373;}.cls-2{fill:#f25022;}.cls-3{fill:#7fba00;}.cls-4{fill:#00a4ef;}.cls-5{fill:#ffb900;}</style></defs><g id="Microsoft"><path class="cls-1" d="M76.55877,21.35253V42.1389H72.94931V25.84611h-.05792L66.44076,42.1389H64.04918l-6.61-16.29279h-.04352V42.1389h-3.334V21.35253h5.17484L65.20882,36.7612h.0867L71.6012,21.35253Zm3.01826,1.5801a1.90978,1.90978,0,0,1,.6307-1.45691,2.1266,2.1266,0,0,1,1.50009-.58718,2.09764,2.09764,0,0,1,1.53659.60158,1.95574,1.95574,0,0,1,.60894,1.44251A1.88087,1.88087,0,0,1,83.23,24.36744a2.15252,2.15252,0,0,1-1.52219.57982,2.111,2.111,0,0,1-1.51448-.58685A1.89765,1.89765,0,0,1,79.577,22.93263Zm3.87024,4.3051V42.1389H79.93958V27.23773ZM94.08718,39.58764a4.84424,4.84424,0,0,0,1.72472-.36222,7.25275,7.25275,0,0,0,1.73946-.95677V41.53a7.02565,7.02565,0,0,1-1.90617.72477,10.38572,10.38572,0,0,1-2.341.24639,7.089,7.089,0,0,1-7.40706-7.39234,8.49766,8.49766,0,0,1,2.102-5.92169,7.616,7.616,0,0,1,5.95751-2.3263,8.14414,8.14414,0,0,1,1.99321.25375,6.657,6.657,0,0,1,1.60153.58685v3.36307a7.17377,7.17377,0,0,0-1.65978-.92061,4.79125,4.79125,0,0,0-1.73209-.32606,4.39627,4.39627,0,0,0-3.34834,1.3481,5.07551,5.07551,0,0,0-1.2758,3.63826,4.84306,4.84306,0,0,0,1.22492,3.52242A4.42221,4.42221,0,0,0,94.08718,39.58764Zm13.45129-12.59629a4.44506,4.44506,0,0,1,.75389.05791,3.14918,3.14918,0,0,1,.56543.145v3.55121a3.06135,3.06135,0,0,0-.80445-.384,3.98485,3.98485,0,0,0-1.28283-.18111,2.723,2.723,0,0,0-2.18168,1.087,5.22235,5.22235,0,0,0-.89148,3.34834V42.1389h-3.508V27.23773h3.508v2.34806h.05791a4.11266,4.11266,0,0,1,1.44955-1.90616A3.93272,3.93272,0,0,1,107.53847,26.99135Zm1.50913,7.91423a8.07053,8.07053,0,0,1,2.08727-5.85608,7.6868,7.6868,0,0,1,5.79817-2.15992,7.14468,7.14468,0,0,1,5.45771,2.08024,7.84947,7.84947,0,0,1,1.96408,5.61706,7.91938,7.91938,0,0,1-2.08727,5.76905,7.56077,7.56077,0,0,1-5.68234,2.14519,7.43184,7.43184,0,0,1-5.5009-2.03639A7.51116,7.51116,0,0,1,109.0476,34.90558Zm3.653-.11583a5.32408,5.32408,0,0,0,1.0582,3.56594,3.77355,3.77355,0,0,0,3.02931,1.23195,3.53222,3.53222,0,0,0,2.91348-1.23195,5.69724,5.69724,0,0,0,1.00028-3.653,5.4995,5.4995,0,0,0-1.03644-3.63122,3.59921,3.59921,0,0,0-2.90611-1.22458,3.67491,3.67491,0,0,0-2.99349,1.28283A5.58248,5.58248,0,0,0,112.70058,34.78975Zm16.87227-3.63825a1.50311,1.50311,0,0,0,.47839,1.18139,8.18478,8.18478,0,0,0,2.11639,1.07963,7.173,7.173,0,0,1,2.94964,1.89177,3.9223,3.9223,0,0,1,.848,2.54389,4.08917,4.08917,0,0,1-1.61625,3.37747,6.86533,6.86533,0,0,1-4.37039,1.27547,10.51881,10.51881,0,0,1-2.05112-.22463,9.1375,9.1375,0,0,1-1.90616-.57246V38.25426a8.642,8.642,0,0,0,2.05848,1.05786,6.03024,6.03024,0,0,0,2.00024.39168,3.564,3.564,0,0,0,1.75418-.33343,1.19168,1.19168,0,0,0,.56508-1.11611,1.55,1.55,0,0,0-.58684-1.22492,8.7017,8.7017,0,0,0-2.2252-1.1526,6.87284,6.87284,0,0,1-2.75413-1.82616,4.00032,4.00032,0,0,1-.81181-2.58038,4.07728,4.07728,0,0,1,1.60186-3.31219,6.39122,6.39122,0,0,1,4.15312-1.29722,10.05163,10.05163,0,0,1,1.75385.17374,7.75745,7.75745,0,0,1,1.62362.44959v3.33395a7.4925,7.4925,0,0,0-1.62362-.79741,5.41646,5.41646,0,0,0-1.84089-.33343,2.68334,2.68334,0,0,0-1.55834.39134A1.24112,1.24112,0,0,0,129.57285,31.1515Zm7.89951,3.75408a8.07049,8.07049,0,0,1,2.08727-5.85608,7.6868,7.6868,0,0,1,5.79817-2.15992,7.1447,7.1447,0,0,1,5.45771,2.08024,7.84947,7.84947,0,0,1,1.96408,5.61706,7.91938,7.91938,0,0,1-2.08727,5.76905A7.56077,7.56077,0,0,1,145.01,42.50112a7.43181,7.43181,0,0,1-5.5009-2.03639A7.51112,7.51112,0,0,1,137.47236,34.90558Zm3.653-.11583a5.32408,5.32408,0,0,0,1.0582,3.56594,3.77355,3.77355,0,0,0,3.02931,1.23195,3.53225,3.53225,0,0,0,2.91348-1.23195,5.6973,5.6973,0,0,0,1.00028-3.653,5.4995,5.4995,0,0,0-1.03644-3.63122,3.59921,3.59921,0,0,0-2.90611-1.22458,3.6749,3.6749,0,0,0-2.99349,1.28283A5.58248,5.58248,0,0,0,141.12534,34.78975Zm23.29177-4.682h-5.22438V42.1389h-3.55121V30.1077h-2.49335v-2.87h2.49335V25.16486a5.15623,5.15623,0,0,1,1.52921-3.84849,5.36308,5.36308,0,0,1,3.9208-1.50043,8.70325,8.70325,0,0,1,1.13084.06528,4.485,4.485,0,0,1,.86973.19551v3.02964a3.63145,3.63145,0,0,0-.60894-.24639,3.16666,3.16666,0,0,0-.99995-.145,2.11931,2.11931,0,0,0-1.69627.68862,3.03908,3.03908,0,0,0-.59421,2.03638v1.7977h5.22438V23.88906l3.52242-1.0726v4.42127h3.55155v2.87h-3.55155v6.97219a2.93874,2.93874,0,0,0,.50014,1.94232,1.99571,1.99571,0,0,0,1.57274.56543,2.34446,2.34446,0,0,0,.73213-.145,3.43662,3.43662,0,0,0,.74654-.34782v2.89908a4.12587,4.12587,0,0,1-1.10909.34783,7.56708,7.56708,0,0,1-1.52922.15935,4.34986,4.34986,0,0,1-3.32658-1.18106,5.03332,5.03332,0,0,1-1.10908-3.55891Z"/><rect class="cls-2" x="9.02585" y="14.42461" width="16.46473" height="16.46473"/><rect class="cls-3" x="27.20392" y="14.42461" width="16.46473" height="16.46473"/><rect class="cls-4" x="9.02585" y="32.60269" width="16.46473" height="16.46473"/><rect class="cls-5" x="27.20392" y="32.60269" width="16.46473" height="16.46473"/></g></svg>