<svg xmlns="http://www.w3.org/2000/svg" viewBox="0 0 180.51692 63.49203"><defs><style>.a{fill:#d1d1d1;}.b{fill:none;stroke:#939393;stroke-miterlimit:10;stroke-width:0.25px;}.c{fill:#3c3d3d;}</style></defs><title>logo_unknown</title><rect class="a" width="180.51692" height="63.49203"/><rect class="b" x="67.01625" y="-50.00886" width="46.48438" height="163.50977" transform="translate(122.00446 -58.51242) rotate(90)"/><path class="c" d="M29.39418,17.02141l-1.61133,6.00488-5.64453,8.00684H17.63441l-1.86132-8.00684,1.61132-6.00488h4.00391l-.80078,3.00293h4.00293l.81055-3.00293Z"/><path class="c" d="M30.38539,31.03313q-1.57178,0-1.57129-1.24121a3.12384,3.12384,0,0,1,.10938-.76075l3.21289-12.00976H40.1432l-1.87109,7.00586a1.40055,1.40055,0,0,0-.06055.37988q0,.62109.791.62109h3.002l-1.34082,5.00391a1.21267,1.21267,0,0,1-1.27148,1.001Z"/><path class="c" d="M54.94594,29.02141a2.42581,2.42581,0,0,1-2.542,2.01172H42.39516l3.75293-14.01172H56.16664q1.57177,0,1.57129,1.251a3.00788,3.00788,0,0,1-.11035.751Zm-3.46778-4.72363a3.33387,3.33387,0,0,0,1.20508-1.77149,2.52035,2.52035,0,0,0,.10059-.68066,1.80539,1.80539,0,0,0-.35059-1.09082,1.84356,1.84356,0,0,0-1.581-.73047,3.12083,3.12083,0,0,0-1.9668.73047,3.32663,3.32663,0,0,0-1.206,1.77148,2.55649,2.55649,0,0,0-.09961.68067,1.77248,1.77248,0,0,0,.36035,1.09082,1.816,1.816,0,0,0,1.57129.73046A3.12485,3.12485,0,0,0,51.47816,24.29778Z"/><path class="c" d="M66.41566,31.03313H56.40688L60.1598,17.02141H70.16859q1.58057,0,1.58106,1.251a3.00788,3.00788,0,0,1-.11035.751l-.81055,3.002a2.7769,2.7769,0,0,1-2.042,2.002,1.39978,1.39978,0,0,1,1.06152,1.37109,2.49728,2.49728,0,0,1-.08984.63086l-.80078,3.002A2.42285,2.42285,0,0,1,66.41566,31.03313ZM63.778,28.80168a3.33023,3.33023,0,0,0,1.206-1.77148,2.5621,2.5621,0,0,0,.09961-.68067,1.80458,1.80458,0,0,0-.34961-1.09082,1.84491,1.84491,0,0,0-1.582-.73144,3.12155,3.12155,0,0,0-1.96582.73144,3.323,3.323,0,0,0-1.206,1.77149,2.519,2.519,0,0,0-.10059.67969,1.77329,1.77329,0,0,0,.36035,1.09179,1.81954,1.81954,0,0,0,1.57129.73047A3.12645,3.12645,0,0,0,63.778,28.80168Zm2.6123-6.00586a3.32849,3.32849,0,0,0,1.20606-1.77148,2.55,2.55,0,0,0,.09961-.67969,1.80248,1.80248,0,0,0-.34961-1.09082,1.84492,1.84492,0,0,0-1.582-.73144,3.11954,3.11954,0,0,0-1.96582.73144,3.319,3.319,0,0,0-1.20606,1.77051,2.52616,2.52616,0,0,0-.10058.68066,1.76841,1.76841,0,0,0,.36035,1.09082,1.81663,1.81663,0,0,0,1.57129.73145A3.122,3.122,0,0,0,66.39027,22.79582Z"/><path class="c" d="M81.10707,21.02434a1.3949,1.3949,0,0,0,.06055-.37988q0-.61963-.791-.62012H73.37074l.80078-3.00293H84.18031q1.58056,0,1.58106,1.251a3.00788,3.00788,0,0,1-.11035.751L84.57,23.02629a2.4074,2.4074,0,0,1-2.53125,2.002h-1.001a1.212,1.212,0,0,0-1.27148,1.001l-.27051,1.001h4.00391l-1.07129,4.00293H70.41859l1.88184-7.00586a2.40859,2.40859,0,0,1,2.53223-2.002h5.0039A1.21018,1.21018,0,0,0,81.10707,21.02434Z"/><path class="c" d="M86.43227,31.03313q-1.57179,0-1.57129-1.24121a3.12427,3.12427,0,0,1,.10937-.76075L87.653,19.02336a2.40774,2.40774,0,0,1,2.53223-2.002H98.192q1.58056,0,1.58106,1.251a3.00747,3.00747,0,0,1-.11036.751L96.99086,29.03117a2.43738,2.43738,0,0,1-2.55176,2.002Zm7.581-6.73535a3.33037,3.33037,0,0,0,1.20606-1.77149,2.5568,2.5568,0,0,0,.0996-.68066,1.80459,1.80459,0,0,0-.3496-1.09082,1.84423,1.84423,0,0,0-1.582-.73047,3.11826,3.11826,0,0,0-1.96582.73047,3.32669,3.32669,0,0,0-1.20605,1.77148,2.52081,2.52081,0,0,0-.10059.68067,1.77254,1.77254,0,0,0,.36035,1.09082,1.816,1.816,0,0,0,1.57129.73046A3.12087,3.12087,0,0,0,94.01332,24.29778Z"/><path class="c" d="M109.13051,21.02434a1.39486,1.39486,0,0,0,.06054-.37988q0-.61963-.791-.62012h-7.00586l.80078-3.00293h10.00879q1.58056,0,1.58105,1.251a3.00741,3.00741,0,0,1-.11035.751l-1.081,4.00293a2.40741,2.40741,0,0,1-2.53125,2.002h-1.001a1.212,1.212,0,0,0-1.27148,1.001l-.27051,1.001h4.00391l-1.07129,4.00293H98.442l1.88184-7.00586a2.40858,2.40858,0,0,1,2.53222-2.002H107.86A1.21018,1.21018,0,0,0,109.13051,21.02434Z"/><path class="c" d="M114.4557,31.03313q-1.57177,0-1.57129-1.24121a3.12433,3.12433,0,0,1,.10938-.76075l2.68262-10.00781a2.40774,2.40774,0,0,1,2.53222-2.002h8.00684q1.58057,0,1.58105,1.251a3.00788,3.00788,0,0,1-.11035.751L125.0143,29.03117a2.43739,2.43739,0,0,1-2.55176,2.002Zm7.58106-6.73535a3.33029,3.33029,0,0,0,1.20605-1.77149,2.55642,2.55642,0,0,0,.09961-.68066,1.80453,1.80453,0,0,0-.34961-1.09082,1.84419,1.84419,0,0,0-1.582-.73047,3.11826,3.11826,0,0,0-1.96582.73047,3.32663,3.32663,0,0,0-1.206,1.77148,2.52042,2.52042,0,0,0-.10059.68067,1.77254,1.77254,0,0,0,.36035,1.09082,1.816,1.816,0,0,0,1.57129.73046A3.12087,3.12087,0,0,0,122.03676,24.29778Z"/><path class="c" d="M83.654,33.90617a2.40241,2.40241,0,0,1,2.52246-2.002H96.194l-.7998,3.00293H89.8893a1.34274,1.34274,0,0,0-1.27149,1,1.23461,1.23461,0,0,0-.02929.27051,1.264,1.264,0,0,0,.25976.73047l3.10254,1.502a2.52066,2.52066,0,0,1,1.80176,2.27148,2.88051,2.88051,0,0,1-.10059.73047l-.66992,2.502a2.42284,2.42284,0,0,1-2.542,2.002H80.43129L81.77211,40.912H85.275a1.21266,1.21266,0,0,0,1.27148-1.001,1.22814,1.22814,0,0,0,.03028-.27051,1.2679,1.2679,0,0,0-.26075-.73047l-2.60156-1.501a1.16737,1.16737,0,0,1-.66113-1.05078,1.86646,1.86646,0,0,1,.06055-.45117Z"/><path class="c" d="M104.111,42.71281h-4.00293l-.86133,3.20313H94.443l3.00293-11.209h8.00586q1.26123,0,1.26172.99023a2.38881,2.38881,0,0,1-.09082.61035l-1.501,5.60547A.95951.95951,0,0,1,104.111,42.71281Zm-3.418-1.38574a2.63652,2.63652,0,0,0,.96582-1.416,2.17832,2.17832,0,0,0,.07031-.53028,1.48883,1.48883,0,0,0-.28027-.89062,1.47,1.47,0,0,0-1.26074-.58106,2.489,2.489,0,0,0-1.57129.58594,2.6398,2.6398,0,0,0-.96094,1.416,1.95122,1.95122,0,0,0-.08008.54,1.39872,1.39872,0,0,0,.29.87109,1.43634,1.43634,0,0,0,1.251.59082A2.51176,2.51176,0,0,0,100.693,41.32707Z"/><path class="c" d="M107.654,45.91594q-1.26123,0-1.26172-.99121a2.40048,2.40048,0,0,1,.09082-.61035l2.1416-8.00684A1.93469,1.93469,0,0,1,110.6559,34.707h6.40527q1.26123,0,1.26172.99023a2.38837,2.38837,0,0,1-.09082.61035l-2.13184,8.00684a1.94935,1.94935,0,0,1-2.041,1.60156Zm6.06445-5.38965a2.64337,2.64337,0,0,0,.96094-1.416,1.95131,1.95131,0,0,0,.08007-.54,1.43809,1.43809,0,0,0-1.541-1.46192,2.51182,2.51182,0,0,0-1.57617.58594,2.63649,2.63649,0,0,0-.96582,1.416,2.17779,2.17779,0,0,0-.07032.53027,1.44737,1.44737,0,0,0,.28028.88086,1.46242,1.46242,0,0,0,1.26074.59082A2.491,2.491,0,0,0,113.7184,40.52629Z"/><path class="c" d="M124.0768,45.91594l1.28125-4.80371a1.352,1.352,0,0,0,.04-.30078q0-.49952-.63086-.5h-2.40137l-1.501,5.60449h-3.20312l3.00293-11.209h8.00586q1.26123,0,1.26172.99023a2.38881,2.38881,0,0,1-.09082.61035l-2.57129,9.6084Z"/><path class="c" d="M132.58461,36.30754a1.92934,1.92934,0,0,1,2.02148-1.60058h8.01661l-.64063,2.40136h-4.40332a1.0771,1.0771,0,0,0-1.02051.80078.68238.68238,0,0,0-.03027.2002,1.01351,1.01351,0,0,0,.21973.60059l2.48242,1.20117a2,2,0,0,1,1.43066,1.81152,2.35454,2.35454,0,0,1-.08008.59082l-.53027,2.001a1.93549,1.93549,0,0,1-2.03125,1.60156h-8.00684l1.07129-4.00293h2.80176a.97645.97645,0,0,0,1.02149-.80078.7097.7097,0,0,0,.02929-.2002,1.01351,1.01351,0,0,0-.21972-.60058l-2.082-1.20117a.94888.94888,0,0,1-.53027-.85059,1.39527,1.39527,0,0,1,.04981-.35059Z"/><path class="c" d="M143.22328,45.91594q-1.26123,0-1.26172-.99121a2.40092,2.40092,0,0,1,.09082-.61035l2.1416-8.00684a1.93469,1.93469,0,0,1,2.03125-1.60058h6.40528q1.26123,0,1.26172.99023a2.38881,2.38881,0,0,1-.09082.61035l-2.13184,8.00684a1.94936,1.94936,0,0,1-2.041,1.60156Zm6.06445-5.38965a2.64326,2.64326,0,0,0,.96094-1.416,1.95133,1.95133,0,0,0,.08008-.54,1.43809,1.43809,0,0,0-1.541-1.46192,2.51182,2.51182,0,0,0-1.57617.58594,2.63654,2.63654,0,0,0-.96582,1.416,2.17824,2.17824,0,0,0-.07031.53027,1.44742,1.44742,0,0,0,.28027.88086,1.46243,1.46243,0,0,0,1.26075.59082A2.49092,2.49092,0,0,0,149.28773,40.52629Z"/><path class="c" d="M159.93617,42.71281h-1.04l-.86133,3.20313h-4.80371L156.234,34.707h8.00586q1.26123,0,1.26172.99023a2.38837,2.38837,0,0,1-.09082.61035l-1.501,5.60547a.9595.9595,0,0,1-1.01074.7998h-.96093l1.70117,3.20313h-2.001Zm-.45508-1.38574a2.63646,2.63646,0,0,0,.96582-1.416,2.17786,2.17786,0,0,0,.07032-.53028,1.48878,1.48878,0,0,0-.28028-.89062,1.47,1.47,0,0,0-1.26074-.58106,2.489,2.489,0,0,0-1.57129.58594,2.63986,2.63986,0,0,0-.96094,1.416,1.9512,1.9512,0,0,0-.08007.54,1.39872,1.39872,0,0,0,.29.87109,1.43632,1.43632,0,0,0,1.251.59082A2.51176,2.51176,0,0,0,159.48109,41.32707Z"/></svg>