<svg xmlns="http://www.w3.org/2000/svg" viewBox="0 0 180.51692 63.49203"><defs><style>.a{fill:#d1d1d1;}.b{fill:none;stroke:#939393;stroke-miterlimit:10;stroke-width:0.25px;}.c{fill:#3c3d3d;}</style></defs><title>logo_unknown</title><rect class="a" width="180.51692" height="63.49203"/><rect class="b" x="8.50356" y="8.50383" width="163.50976" height="46.48438"/><path class="c" d="M29.39418,17.02141l-1.61133,6.00488-5.64453,8.00684H17.63441l-1.86132-8.00684,1.61132-6.00488h4.00391l-.80078,3.00293h4.00293l.81055-3.00293Z"/><path class="c" d="M30.38539,31.03313q-1.57178,0-1.57129-1.24121a3.12371,3.12371,0,0,1,.10938-.76075l3.21289-12.00976H40.1432l-1.87109,7.00586a1.40074,1.40074,0,0,0-.06055.37988q0,.62109.791.62109h3.002l-1.34082,5.00391a1.21268,1.21268,0,0,1-1.27148,1.001Z"/><path class="c" d="M54.94594,29.02141a2.42582,2.42582,0,0,1-2.542,2.01172H42.39516l3.75293-14.01172H56.16664q1.57177,0,1.57129,1.251a3.00775,3.00775,0,0,1-.11035.751Zm-3.46778-4.72363a3.33393,3.33393,0,0,0,1.20508-1.77149,2.52036,2.52036,0,0,0,.10058-.68066,1.80537,1.80537,0,0,0-.35058-1.09082,1.84356,1.84356,0,0,0-1.581-.73047,3.12081,3.12081,0,0,0-1.9668.73047,3.32664,3.32664,0,0,0-1.206,1.77148,2.557,2.557,0,0,0-.09961.68067,1.77254,1.77254,0,0,0,.36035,1.09082,1.816,1.816,0,0,0,1.57129.73046A3.12489,3.12489,0,0,0,51.47816,24.29778Z"/><path class="c" d="M66.41566,31.03313H56.40688L60.1598,17.02141H70.16859q1.58057,0,1.58106,1.251a3.00775,3.00775,0,0,1-.11035.751l-.81055,3.002a2.77687,2.77687,0,0,1-2.042,2.002,1.39977,1.39977,0,0,1,1.06152,1.37109,2.49723,2.49723,0,0,1-.08984.63086l-.80078,3.002A2.42284,2.42284,0,0,1,66.41566,31.03313ZM63.778,28.80168a3.33029,3.33029,0,0,0,1.206-1.77148,2.5624,2.5624,0,0,0,.09961-.68067,1.80456,1.80456,0,0,0-.34961-1.09082,1.84488,1.84488,0,0,0-1.582-.73144,3.12151,3.12151,0,0,0-1.96582.73144,3.323,3.323,0,0,0-1.206,1.77149,2.51887,2.51887,0,0,0-.10059.67969,1.77325,1.77325,0,0,0,.36035,1.09179,1.81956,1.81956,0,0,0,1.57129.73047A3.12646,3.12646,0,0,0,63.778,28.80168Zm2.6123-6.00586a3.32848,3.32848,0,0,0,1.20606-1.77148,2.55053,2.55053,0,0,0,.09961-.67969,1.80247,1.80247,0,0,0-.34961-1.09082,1.845,1.845,0,0,0-1.582-.73144,3.11955,3.11955,0,0,0-1.96582.73144,3.319,3.319,0,0,0-1.20606,1.77051,2.52644,2.52644,0,0,0-.10058.68066,1.76846,1.76846,0,0,0,.36035,1.09082,1.81665,1.81665,0,0,0,1.5713.73145,3.12205,3.12205,0,0,0,1.96672-.73145Z"/><path class="c" d="M81.10707,21.02434a1.39483,1.39483,0,0,0,.06055-.37988q0-.61963-.791-.62012H73.37074l.80078-3.00293H84.18031q1.58056,0,1.58107,1.251a3.00776,3.00776,0,0,1-.11036.751L84.57,23.02629a2.40739,2.40739,0,0,1-2.53125,2.002h-1.001a1.212,1.212,0,0,0-1.27148,1.001l-.2705,1.001h4.00391l-1.07129,4.00293H70.41859l1.88184-7.00586a2.40859,2.40859,0,0,1,2.53223-2.002h5.0039A1.21017,1.21017,0,0,0,81.10707,21.02434Z"/><path class="c" d="M86.43227,31.03313q-1.5718,0-1.57129-1.24121a3.12424,3.12424,0,0,1,.10936-.76075L87.653,19.02336a2.40774,2.40774,0,0,1,2.53223-2.002H98.192q1.58055,0,1.58106,1.251a3.0073,3.0073,0,0,1-.11036.751L96.99086,29.03117a2.43737,2.43737,0,0,1-2.55176,2.002Zm7.581-6.73535a3.33038,3.33038,0,0,0,1.20606-1.77149,2.55687,2.55687,0,0,0,.0996-.68066,1.80463,1.80463,0,0,0-.3496-1.09082,1.84424,1.84424,0,0,0-1.582-.73047,3.11825,3.11825,0,0,0-1.96582.73047,3.32664,3.32664,0,0,0-1.20605,1.77148,2.52089,2.52089,0,0,0-.10059.68067,1.77254,1.77254,0,0,0,.36035,1.09082,1.816,1.816,0,0,0,1.57129.73046,3.12083,3.12083,0,0,0,1.96681-.73046Z"/><path class="c" d="M109.13051,21.02434a1.39482,1.39482,0,0,0,.06054-.37988q0-.61963-.791-.62012h-7.00586l.80078-3.00293h10.00879q1.58056,0,1.581,1.251a3.00776,3.00776,0,0,1-.11036.751l-1.081,4.00293a2.40741,2.40741,0,0,1-2.53125,2.002h-1.001a1.212,1.212,0,0,0-1.27147,1.001l-.27051,1.001h4.00391l-1.07129,4.00293H98.442l1.88184-7.00586a2.40859,2.40859,0,0,1,2.53222-2.002H107.86A1.21019,1.21019,0,0,0,109.13051,21.02434Z"/><path class="c" d="M114.4557,31.03313q-1.57176,0-1.57129-1.24121a3.12428,3.12428,0,0,1,.10939-.76075l2.68261-10.00781a2.40774,2.40774,0,0,1,2.53222-2.002h8.00684q1.58058,0,1.58105,1.251a3.0073,3.0073,0,0,1-.11036.751L125.0143,29.03117a2.43739,2.43739,0,0,1-2.55176,2.002Zm7.58107-6.73535a3.33025,3.33025,0,0,0,1.206-1.77149,2.55648,2.55648,0,0,0,.09961-.68066,1.80456,1.80456,0,0,0-.34961-1.09082,1.84419,1.84419,0,0,0-1.582-.73047,3.11829,3.11829,0,0,0-1.96582.73047,3.32664,3.32664,0,0,0-1.206,1.77148,2.52044,2.52044,0,0,0-.10059.68067,1.77248,1.77248,0,0,0,.36035,1.09082,1.816,1.816,0,0,0,1.57129.73046A3.12094,3.12094,0,0,0,122.03677,24.29778Z"/><path class="c" d="M83.654,33.90617a2.40241,2.40241,0,0,1,2.52246-2.002H96.194l-.7998,3.00293H89.8893a1.34274,1.34274,0,0,0-1.27149,1,1.23423,1.23423,0,0,0-.02929.27051,1.264,1.264,0,0,0,.25975.73047l3.10254,1.502a2.52066,2.52066,0,0,1,1.80176,2.27148,2.88042,2.88042,0,0,1-.10059.73047l-.66992,2.502a2.42285,2.42285,0,0,1-2.542,2.002H80.43129l1.34082-5.004H85.275a1.21266,1.21266,0,0,0,1.27148-1.001,1.228,1.228,0,0,0,.03028-.27051A1.26787,1.26787,0,0,0,86.316,38.91l-2.60156-1.501a1.16737,1.16737,0,0,1-.66114-1.05078,1.86721,1.86721,0,0,1,.06055-.45117Z"/><path class="c" d="M104.111,42.71281h-4.00293l-.86133,3.20313H94.443l3.00293-11.209h8.00586q1.26123,0,1.26172.99023a2.38908,2.38908,0,0,1-.09082.61035l-1.501,5.60547A.95952.95952,0,0,1,104.111,42.71281Zm-3.418-1.38574a2.63648,2.63648,0,0,0,.96582-1.416,2.17786,2.17786,0,0,0,.07031-.53028,1.48885,1.48885,0,0,0-.28027-.89062,1.47,1.47,0,0,0-1.26074-.58106,2.489,2.489,0,0,0-1.57129.58594,2.63981,2.63981,0,0,0-.96094,1.416,1.95157,1.95157,0,0,0-.08008.54,1.39876,1.39876,0,0,0,.29.87109,1.43633,1.43633,0,0,0,1.251.59082A2.51172,2.51172,0,0,0,100.693,41.32707Z"/><path class="c" d="M107.654,45.91594q-1.26123,0-1.26172-.99121a2.40075,2.40075,0,0,1,.09082-.61035l2.1416-8.00684a1.9347,1.9347,0,0,1,2.0312-1.60054h6.40527q1.26125,0,1.26172.99023a2.38813,2.38813,0,0,1-.09082.61035l-2.13184,8.00684a1.94935,1.94935,0,0,1-2.041,1.60156Zm6.06445-5.38965a2.64333,2.64333,0,0,0,.96094-1.416,1.95156,1.95156,0,0,0,.08007-.54,1.43809,1.43809,0,0,0-1.41029-1.46536q-.0654-.00126-.13071.00344a2.51177,2.51177,0,0,0-1.57617.58594,2.63643,2.63643,0,0,0-.96582,1.416,2.17731,2.17731,0,0,0-.07032.53027,1.44734,1.44734,0,0,0,.28028.88086,1.46241,1.46241,0,0,0,1.26074.59082,2.491,2.491,0,0,0,1.57123-.586Z"/><path class="c" d="M124.0768,45.91594l1.28125-4.80371a1.35275,1.35275,0,0,0,.04-.30078q0-.49952-.63086-.5h-2.40137l-1.501,5.60449h-3.20311l3.00292-11.209h8.00587q1.26123,0,1.26172.99023a2.38864,2.38864,0,0,1-.09082.61035l-2.57129,9.6084Z"/><path class="c" d="M132.58461,36.30754a1.92935,1.92935,0,0,1,2.02148-1.60058h8.01662l-.64062,2.40136h-4.40332a1.0771,1.0771,0,0,0-1.02051.80078.68248.68248,0,0,0-.03028.2002,1.01349,1.01349,0,0,0,.21973.60059l2.48242,1.20117a2,2,0,0,1,1.43067,1.81152,2.355,2.355,0,0,1-.08008.59082l-.53027,2.001A1.93549,1.93549,0,0,1,138.0192,45.916h-8.00684l1.07129-4.00293h2.80176a.97645.97645,0,0,0,1.02148-.80078.7098.7098,0,0,0,.0293-.2002,1.01359,1.01359,0,0,0-.21973-.60058l-2.082-1.20116a.94887.94887,0,0,1-.53027-.85059,1.39518,1.39518,0,0,1,.0498-.35059Z"/><path class="c" d="M143.22328,45.91594q-1.26123,0-1.26172-.99121a2.40119,2.40119,0,0,1,.09082-.61035l2.1416-8.00684a1.93469,1.93469,0,0,1,2.03125-1.60058h6.40528q1.26123,0,1.26172.99023a2.38908,2.38908,0,0,1-.09082.61035l-2.13184,8.00684a1.94936,1.94936,0,0,1-2.041,1.60156Zm6.06445-5.38965a2.64322,2.64322,0,0,0,.96094-1.416,1.95082,1.95082,0,0,0,.08008-.54,1.43809,1.43809,0,0,0-1.41029-1.46536q-.0654-.00126-.13071.00344a2.51179,2.51179,0,0,0-1.57617.58594,2.63648,2.63648,0,0,0-.96582,1.416,2.1773,2.1773,0,0,0-.07031.53027,1.44726,1.44726,0,0,0,.28027.88086,1.46245,1.46245,0,0,0,1.26076.59082A2.49089,2.49089,0,0,0,149.28773,40.52629Z"/><path class="c" d="M159.93617,42.71281h-1.04l-.86133,3.20313h-4.80371L156.234,34.707h8.00586q1.26123,0,1.26172.99023a2.38813,2.38813,0,0,1-.09082.61035l-1.501,5.60547a.95949.95949,0,0,1-1.01074.7998h-.96094l1.70118,3.20313h-2.001Zm-.45508-1.38574a2.63633,2.63633,0,0,0,.96582-1.416,2.17788,2.17788,0,0,0,.07032-.53028,1.48884,1.48884,0,0,0-.28028-.89062,1.47,1.47,0,0,0-1.26074-.58106,2.489,2.489,0,0,0-1.57129.58594,2.6399,2.6399,0,0,0-.96094,1.416,1.95117,1.95117,0,0,0-.08006.54,1.39864,1.39864,0,0,0,.29.87109,1.43628,1.43628,0,0,0,1.251.59082A2.51172,2.51172,0,0,0,159.48109,41.32707Z"/></svg>