<svg xmlns="http://www.w3.org/2000/svg" viewBox="0 0 180.52 63.49"><defs><style>.cls-1{fill:none;}.cls-2{fill:#abafb4;}</style></defs><g id="Oracle"><rect class="cls-1" x="59.46" width="62.71" height="63.49"/></g><g id="Apple"><path class="cls-2" d="M96.42,23.69c-2.56-.19-4.74,1.44-6,1.44s-3.14-1.4-5.15-1.36a7.65,7.65,0,0,0-6.45,3.91c-2.74,4.77-.7,11.83,2,15.7,1.31,1.89,2.87,4,4.92,3.95s2.72-1.28,5.1-1.28,3.06,1.28,5.15,1.24,3.47-1.93,4.77-3.83A17.53,17.53,0,0,0,103,39a6.9,6.9,0,0,1-4.19-6.31,7.06,7.06,0,0,1,3.37-5.93A7.34,7.34,0,0,0,96.42,23.69Z"/><path class="cls-2" d="M94.84,21.14a6.86,6.86,0,0,0,1.62-5,7,7,0,0,0-4.59,2.36,6.52,6.52,0,0,0-1.65,4.82A5.75,5.75,0,0,0,94.84,21.14Z"/></g></svg>