<svg xmlns="http://www.w3.org/2000/svg" viewBox="0 0 180.52 63.49"><defs><style>.cls-1{fill:#2932e1;}.cls-2{fill:#fff;}.cls-3{fill:#e10602;}</style></defs><g id="Baidu"><path class="cls-1" d="M104.18,37.45c-1.17-1.11-4.42-3.31-6.9-7.4a8.51,8.51,0,0,0-15,0c-2.47,4.09-5.73,6.29-6.9,7.4-1.47,1.39-7.68,4.69-6.33,11.9a8.91,8.91,0,0,0,8.08,7.43,28.07,28.07,0,0,0,8.58-1,18.54,18.54,0,0,1,8.12,0,28.12,28.12,0,0,0,8.59,1,8.89,8.89,0,0,0,8.07-7.43C111.86,42.14,105.65,38.84,104.18,37.45Z"/><path class="cls-1" d="M73,33.25c3.69-.51,5-4.28,4.6-7.9-.33-3.2-2.48-6.85-6-6.53S66,22.48,66.05,26.41C66.08,30.15,68.67,33.84,73,33.25Z"/><path class="cls-1" d="M83.26,21.58c3.66-.34,5-4.09,4.87-7.78C88,9.75,85.81,6.5,82.31,6.68c-3.12.17-5.64,3.3-5.76,7.46C76.41,18.5,79.2,22,83.26,21.58Z"/><path class="cls-1" d="M106.63,33.25c-3.7-.51-5-4.28-4.61-7.9.33-3.2,2.49-6.85,6-6.53s5.51,3.66,5.49,7.59C113.51,30.15,110.91,33.84,106.63,33.25Z"/><path class="cls-1" d="M96.32,21.58c-3.66-.34-5-4.09-4.87-7.78.1-4.05,2.32-7.3,5.83-7.12,3.11.17,5.63,3.3,5.76,7.46C103.17,18.5,100.38,22,96.32,21.58Z"/><path class="cls-2" d="M86.79,48.81H81.56a2.91,2.91,0,0,1-2.92-3,2.85,2.85,0,0,1,2.83-3h5.11V39.38H81.49a6.12,6.12,0,0,0-6.34,6.3c0,3.84,2.4,6.54,6.57,6.54h5.07Z"/><path class="cls-2" d="M90.71,39.27h3.41v7.94c0,1.24.49,1.6,1.14,1.6h3.53V39.27h3.43V52.22H95c-2.94,0-4.27-1.58-4.27-3.91Z"/><polygon class="cls-2" points="88.01 52.22 88.01 33.92 88.01 33.92 84.49 33.92 84.49 33.92 84.48 52.22 88.01 52.22 88.01 52.22"/><path class="cls-3" d="M57.21,55.27h5.56V36.22H57.21Zm0-26v4.85h5.56V29.26Z"/><path class="cls-3" d="M49.19,51.56H41.83a1.81,1.81,0,0,1-1.81-2A1.94,1.94,0,0,1,42,47.48h7.24Zm-1-15.35H36.3v4H46.71c1.5,0,2.48.8,2.48,2.16v1.41h-8.7c-3.34,0-5.68,2-5.68,5.75,0,4,2.38,5.8,5.68,5.8h14V41.68C54.54,38.41,51.94,36.21,48.17,36.21Z"/><path class="cls-3" d="M23.26,39.74H15.69V34.25h7.55c2.12,0,3.38,1,3.38,2.6C26.62,39,25.36,39.74,23.26,39.74Zm.32,10.9H15.69v-5.7h7.86C25.6,44.94,27,46,27,47.84S25.63,50.64,23.58,50.64Zm9.9-2.06c0-3.14-1.55-5.5-4-6.24,2.19-.94,3.11-2.8,3.11-5.82,0-4-3.29-7.43-10-7.43H9.87V55.55h14C30.17,55.55,33.48,53.12,33.48,48.58Z"/><path class="cls-3" d="M136.11,40.17v3.69H121.58V40.17Zm0,10.21c0,.76-.41,1.2-1,1.2H121.58v-4h14.56ZM142,33.73v-4H115.64v4h10l-.87,2.63h-8v19h20.45a3.19,3.19,0,0,0,3.5-3.41V36.41H130.18l.87-2.68Z"/><path class="cls-3" d="M168.31,34h-4v.93h-8.17V34h-4v.93h-2.33v3.27h2.33v5.14h14.26a1.87,1.87,0,0,0,1.87-1.87V38.15h2.33V34.88h-2.33Zm-4,5.37a.7.7,0,0,1-.7.7h-7.47V38.15h8.17Z"/><path class="cls-3" d="M161.06,29.74v-1.4h-4.67v1.4H144.94V49.13c0,3.62-.57,5.45-1,6.31h4.23a23.14,23.14,0,0,0,.74-6.31V33h21.73V29.74Z"/><path class="cls-3" d="M164,51.47c2.64-1.41,5.75-3.18,5.75-3.18v-3.6H150.55v3.6s3.11,1.77,5.74,3.18a9.55,9.55,0,0,1-2.67.73h-4v3.24H154c.48,0,1.78,0,6.09-2h0c4.3,2,5.6,2,6.08,2h4.43V52.2h-4A9.55,9.55,0,0,1,164,51.47Zm-3.83-1.66s-3.3-1.48-4.58-2.17h9.15C163.43,48.33,160.13,49.81,160.13,49.81Z"/></g></svg>