<svg xmlns="http://www.w3.org/2000/svg" viewBox="0 0 180.51692 63.49203"><defs><style>.a{fill:#0091bd;}.b{fill:#323e48;}</style></defs><title>logo_arm_td</title><path class="a" d="M56.99067,5.49161h7.95992V39.787H56.99067V36.23045a13.1373,13.1373,0,0,1-10.24628,4.65741c-10.585,0-16.59729-8.80673-16.59729-18.20621,0-11.17776,7.6212-18.03684,16.682-18.03684a12.44477,12.44477,0,0,1,10.1616,4.91144ZM38.27638,22.76633c0,5.9276,3.72592,10.92373,9.56885,10.92373,5.0808,0,9.65352-3.64124,9.65352-10.83905,0-7.45184-4.6574-11.09308-9.65353-11.09308C42.0023,11.75793,38.27638,16.66937,38.27638,22.76633ZM74.43475,5.49161h7.95993V8.62477A14.93633,14.93633,0,0,1,85.6972,5.74565a8.93609,8.93609,0,0,1,4.91144-1.10084A12.124,12.124,0,0,1,96.875,6.25373l-3.21785,7.28248a7.32963,7.32963,0,0,0-4.06464-1.18552,6.428,6.428,0,0,0-4.99612,1.863c-2.20168,2.371-2.20168,5.58888-2.20168,7.87524V39.8717H74.43475Zm27.69038,0h7.95992V8.70945a10.67759,10.67759,0,0,1,8.468-4.06464,10.04656,10.04656,0,0,1,8.89141,5.0808,12.26366,12.26366,0,0,1,10.1616-5.0808,10.95353,10.95353,0,0,1,9.73821,5.33484c.67744,1.10084,1.77828,3.64124,1.77828,8.63736v21.17h-7.95991V20.90337c0-3.8106-.4234-5.33484-.76212-6.097a4.58658,4.58658,0,0,0-4.57272-3.04848,6.09318,6.09318,0,0,0-4.74208,2.5404c-1.35489,1.94764-1.52425,4.91144-1.52425,7.79056V39.787h-7.95991V20.90337c0-3.8106-.4234-5.33484-.76212-6.097a4.58658,4.58658,0,0,0-4.57272-3.04848,6.09318,6.09318,0,0,0-4.74208,2.5404c-1.35488,1.94764-1.52424,4.91144-1.52424,7.79056V39.787h-7.95993V5.49161Z"/><path class="b" d="M36.50942,48.63981V59.22338H35.2077V48.63981H32.34957V47.39468h7.04628v1.24513Z"/><path class="b" d="M43.04634,47.39468a5.19966,5.19966,0,0,1,2.85813.65086,3.28307,3.28307,0,0,1-1.6696,5.886l3.76368,5.29179H46.41384L42.82,54.04479h-.33958v5.17859H41.17865V47.39468Zm-.59427,5.46158h.82065c1.64131,0,2.60345-.79235,2.60345-2.15067a1.83766,1.83766,0,0,0-.93385-1.7262,3.27331,3.27331,0,0,0-1.6979-.33958h-.79235Z"/><path class="b" d="M56.17677,48.63981H51.36605v3.509h4.66922v1.24513H51.36605v4.58433h4.81072v1.24512H50.036V47.39468h6.14074Z"/><path class="b" d="M65.09074,55.88418h-5.0371l-1.41492,3.3392H57.19551l5.43328-12.39467,5.29179,12.39467H66.47737Zm-.50937-1.24513-1.98088-4.72582-2.00918,4.72582Z"/><path class="b" d="M74.68387,49.74344a3.031,3.031,0,0,0-.67916-.87725,2.16281,2.16281,0,0,0-1.33-.39617,1.8174,1.8174,0,0,0-1.98088,1.81109,1.16329,1.16329,0,0,0,.45277,1.01874,3.71722,3.71722,0,0,0,1.24513.73576l1.13193.50937a6.08569,6.08569,0,0,1,1.81109,1.10363,2.87848,2.87848,0,0,1,.849,2.15067,3.79037,3.79037,0,0,1-6.31053,2.66,4.31124,4.31124,0,0,1-1.10364-2.09408l1.27343-.36788a2.66571,2.66571,0,0,0,.70746,1.49981,2.26939,2.26939,0,0,0,1.6979.65086,2.2457,2.2457,0,0,0,2.37706-2.34876,1.78447,1.78447,0,0,0-.59427-1.38662,5.32983,5.32983,0,0,0-1.41492-.82065l-1.07533-.50937a5.78293,5.78293,0,0,1-1.58471-.96214,2.48989,2.48989,0,0,1-.82065-1.92429A3.05994,3.05994,0,0,1,72.64639,47.14a3.16269,3.16269,0,0,1,1.896.53767,3.67609,3.67609,0,0,1,1.16023,1.30172Z"/><path class="b" d="M79.89076,54.63905a3.35114,3.35114,0,0,0,.93384,2.85813,3.39357,3.39357,0,0,0,1.95259.67916,3.20482,3.20482,0,0,0,1.95258-.67916,3.35114,3.35114,0,0,0,.93384-2.85813V47.39468h1.30173v7.61225a4.63386,4.63386,0,0,1-.73576,2.82983,4.553,4.553,0,0,1-6.9048,0,4.451,4.451,0,0,1-.73576-2.82984V47.39468h1.30173Z"/><path class="b" d="M91.91755,47.39468a5.19969,5.19969,0,0,1,2.85814.65086,3.28307,3.28307,0,0,1-1.6696,5.886l3.76367,5.29179H95.28505l-3.59389-5.17859h-.33958v5.17859H90.04985V47.39468Zm-.59426,5.46158h.82065c1.6413,0,2.60345-.79235,2.60345-2.15067a1.83768,1.83768,0,0,0-.93385-1.7262,3.27331,3.27331,0,0,0-1.6979-.33958h-.79235Z"/><path class="b" d="M105.01968,48.63981H100.209v3.509h4.66922v1.24513H100.209v4.58433h4.81072v1.24512H98.87893V47.39468h6.14075Z"/><path class="b" d="M111.55659,47.39468H113.962a6.36639,6.36639,0,0,1,4.35794,1.38662,5.764,5.764,0,0,1,2.00918,4.52773,5.56306,5.56306,0,0,1-2.06577,4.52773,5.85,5.85,0,0,1-4.32964,1.35832H111.5283V47.39468Zm1.33,10.58358h1.16023a5.08814,5.08814,0,0,0,3.3958-1.07534,4.54524,4.54524,0,0,0,1.58471-3.59389c0-2.82983-1.98089-4.66922-4.98051-4.66922h-1.16023Z"/><path class="b" d="M129.27135,55.88418h-5.0371l-1.41492,3.3392h-1.44322l5.43329-12.39467,5.29178,12.39467H130.658Zm-.50937-1.24513-1.98088-4.72582-2.00919,4.72582Z"/><path class="b" d="M135.89316,48.63981V59.22338h-1.30171V48.63981h-2.85813V47.39468h7.018v1.24513Z"/><path class="b" d="M146.25034,55.88418h-5.03709l-1.41492,3.3392h-1.44321l5.43328-12.39467,5.29179,12.39467H147.637Zm-.50936-1.24513-1.98089-4.72582-2.00917,4.72582Z"/></svg>