<svg xmlns="http://www.w3.org/2000/svg" viewBox="0 0 180.51692 63.49203"><defs><style>.a{fill:#231815;}.b{fill:#fff;}</style></defs><title>logo_cygames</title><rect class="a" width="180.51692" height="63.49203"/><path class="b" d="M63.34127,29.679c-.485-.30489-.41524-.59216-.06158-.65a5.184,5.184,0,0,1,2.40865.634c.26468.15243.54088.40831.64431.25756.08461-.12355-.16877-.41167-.39387-.62484-1.8527-1.56918-3.95585-1.85689-4.23937-2.33725-.14219-.32079-.09317-.71779.82334-1.08423a3.23513,3.23513,0,0,1,1.74089-.1826c.18343.04816.249-.14825-.10093-.31659-1.66655-.59008-2.6262.09422-3.9946.111-.78878.01216-1.27834-.18384-1.18767-.79358.42089-1.63411,3.21292-1.67391,4.42679-2.06254,2.30123-.64158,3.26026-3.28119,3.50755-3.97848.1652-.46567-.057-.371-.3298.00588-2.33976,2.98051-3.909,2.72964-5.42225,2.78534-3.661-.0892-4.70526,2.4185-4.77208,2.58977-.06617.17087-.19746.19727-.21482-.35218-.02052-.65331-.13674-.79822-.18428-.513a5.3607,5.3607,0,0,1-1.52813,3.17231v.37523a5.14912,5.14912,0,0,1-2.49661,1.01892c-.9785.15159-.32142,1.48165-.13987,1.637a1.12276,1.12276,0,0,1,.55865-.51677l.42864.51677.16457-.65707c.3072-.0423.60265-.06239.70063-.06784l.219.43219.23494-.4636.18951.374.23954-.47365a.61837.61837,0,0,1,.13631.00293c.32875.0624.518.66629.25525,1.01095l-.36454-.24247.02783.59761c-.05172.05654-.10448.116-.156.17839l-.25085-.16666.02282.48495a.72261.72261,0,0,0-.07434.78312l.65563-.24875a.17566.17566,0,0,1-.07518-.16709c-.00816-.26676.70943-.88448,1.16946-1.14037.1493-.06113.2632-.175.77663.29065s.437.31952.26133-.37734c0,0-.06115-.26131.3346-.13946.38132.1177,1.32755.68767.58464,2.28449a6.10572,6.10572,0,0,1-1.90359,1.97794,1.64159,1.64159,0,0,0-.7132,1.387.37526.37526,0,0,0,.24793.6575h.023a1.49271,1.49271,0,0,1,0,2.23589h-.023a.37517.37517,0,0,0-.37588.37524l.00189.03184a.82365.82365,0,0,0-.2255,1.48459v.37105h-.3652l-.89033,1.542.89033,1.54238H64.73583l.89012-1.54238-.89012-1.542h-.3652v-.37105a.8238.8238,0,0,0-.2255-1.48459l.00167-.03184a.37512.37512,0,0,0-.37566-.37524H63.7479a1.49227,1.49227,0,0,1,0-2.23589h.02324a.3755.3755,0,0,0,.0735-.74376,3.28092,3.28092,0,0,0,.17756-1.36608c-.08332-.56622-.34318-.82626-.37124-1.114a.40553.40553,0,0,1,.5015-.46445c1.61839.33419,2.88794,2.39463,3.113,2.31128s-.0333-.7513-.95965-2.03614A9.79534,9.79534,0,0,0,63.34127,29.679Z"/><polygon class="b" points="84.074 33.736 81.918 29.454 80.098 29.454 83.167 35.54 81.382 39.077 83.084 39.077 87.938 29.454 86.235 29.454 84.074 33.736"/><path class="b" d="M111.33987,29.1664a2.62668,2.62668,0,0,0-1.73734.63991,2.61859,2.61859,0,0,0-1.73671-.63991,2.54227,2.54227,0,0,0-1.64249.61143l-.91484-.32415v6.611h1.63537V31.6008a.91946.91946,0,0,1,1.8389,0v4.46386h1.635V31.6008a.92134.92134,0,0,1,1.84264,0v4.46386h1.63516V31.71807A2.55751,2.55751,0,0,0,111.33987,29.1664Z"/><path class="b" d="M91.651,29.1664a3.59257,3.59257,0,1,0,1.9415,6.61306A1.95039,1.95039,0,0,1,90.09544,36.785h-1.837A3.59678,3.59678,0,0,0,95.248,35.59686V29.45368l-1.43182.44223A3.59444,3.59444,0,0,0,91.651,29.1664Zm1.96119,3.59779a2.01938,2.01938,0,1,1,0-.00754Z"/><path class="b" d="M100.16559,29.1664A3.59257,3.59257,0,1,0,102.332,35.622v.44267h1.43015v-6.611l-1.43015.44223A3.58561,3.58561,0,0,0,100.16559,29.1664Zm.11433,5.63226a2.04376,2.04376,0,0,1-2.04283-2.03948,2.044,2.044,0,1,1,4.0865,0A2.04448,2.04448,0,0,1,100.27992,34.79866Z"/><path class="b" d="M118.73919,29.1664a3.59257,3.59257,0,1,0,3.33354,4.9467H120.3775a2.028,2.028,0,0,1-3.54064-.86479h5.46265a3.50893,3.50893,0,0,0,.04041-.48913A3.60228,3.60228,0,0,0,118.73919,29.1664Zm-1.85228,2.93946a2.03027,2.03027,0,0,1,3.87858,0Z"/><path class="b" d="M75.26705,34.72034a3.00229,3.00229,0,1,1,0-6.00457,2.62632,2.62632,0,0,1,2.12911,1.03232h1.94757a4.63424,4.63424,0,1,0,.12646,3.65014H77.601A2.65024,2.65024,0,0,1,75.26705,34.72034Z"/><path class="b" d="M126.51564,32.03425c-1.12842-.14156-1.448-.477-1.448-.84217,0-.36437.36057-.717,1.23688-.717.85476,0,1.27836.387,1.39186.71445H129.427c-.34339-1.42848-1.44272-2.042-3.06445-2.042-1.0945,0-2.93383.43345-2.93383,2.16136,0,1.72582,2.12787,2.0596,2.94073,2.16136,1.12632.14154,1.56166.47824,1.56166.84385,0,.36226-.557.71865-1.42975.71487-1.01911,0-1.55035-.39534-1.63683-.93767h-1.68876c.15307,1.53989,1.60207,2.26439,3.26613,2.26439,1.0947,0,3.12855-.43051,3.12855-2.15926C129.57049,32.47188,127.32494,32.13852,126.51564,32.03425Z"/></svg>