<svg xmlns="http://www.w3.org/2000/svg" viewBox="0 0 180.51692 63.49203"><defs><style>.a{fill:#0091bd;}.b{fill:#323e48;}</style></defs><title>logo_arm_td</title><path class="a" d="M55.27256,4.09468h8.37886V40.19511H55.27256V36.45137A13.82878,13.82878,0,0,1,44.487,41.3539c-11.14211,0-17.47083-9.27024-17.47083-19.16443,0-11.76607,8.02232-18.98615,17.56-18.98615A13.09976,13.09976,0,0,1,55.27256,8.37326ZM35.57331,22.27861c0,6.23958,3.922,11.49865,10.07246,11.49865,5.34822,0,10.16161-3.83288,10.16161-11.40952,0-7.844-4.90253-11.67693-10.16161-11.67693C39.49533,10.69081,35.5733,15.86075,35.57331,22.27861ZM73.63475,4.09468h8.37887V7.39275A15.72194,15.72194,0,0,1,85.49,4.3621,9.40636,9.40636,0,0,1,90.6599,3.20332,12.762,12.762,0,0,1,97.256,4.89692l-3.38721,7.66577a7.7154,7.7154,0,0,0-4.27857-1.24792,6.7663,6.7663,0,0,0-5.25908,1.961c-2.31755,2.49583-2.31755,5.883-2.31755,8.28973V40.28426H73.63475Zm29.14776,0h8.37887v3.3872a11.23955,11.23955,0,0,1,8.91368-4.27857,10.57533,10.57533,0,0,1,9.35938,5.34822,12.90914,12.90914,0,0,1,10.69643-5.34822,11.53,11.53,0,0,1,10.25074,5.61563c.71309,1.15877,1.87188,3.83288,1.87188,9.092V40.19511h-8.37886V20.31759c0-4.01116-.44569-5.61562-.80223-6.41785a4.828,4.828,0,0,0-4.81339-3.20893,6.41389,6.41389,0,0,0-4.99167,2.67411c-1.42619,2.05015-1.60446,5.16994-1.60446,8.20059v18.6296H123.284V20.31759c0-4.01116-.44569-5.61562-.80223-6.41785a4.828,4.828,0,0,0-4.81339-3.20893,6.41388,6.41388,0,0,0-4.99167,2.67411c-1.42618,2.05015-1.60446,5.16994-1.60446,8.20059v18.6296H102.6934V4.09468Z"/><path class="b" d="M33.71335,49.51384V60.65445H32.34311V49.51384H29.33455V48.20318h7.41714v1.31066Z"/><path class="b" d="M40.59431,48.20318a5.4733,5.4733,0,0,1,3.00856.68512,3.45586,3.45586,0,0,1-1.75747,6.19584l3.96177,5.57031H44.13905L40.356,55.2033h-.35746v5.45115H38.62833V48.20318Zm-.62554,5.749h.86384c1.72769,0,2.74047-.834,2.74047-2.26386a1.93438,1.93438,0,0,0-.983-1.81705,3.44557,3.44557,0,0,0-1.78727-.35746h-.834Z"/><path class="b" d="M54.41582,49.51384H49.3519v3.69368h4.915v1.31066h-4.915v4.82561h5.06392v1.31066H47.95188V48.20318h6.46394Z"/><path class="b" d="M63.799,57.1395H58.49674l-1.48939,3.51495H55.48818l5.71924-13.047,5.57031,13.047H65.25855Zm-.53618-1.31066-2.08514-4.97455L59.0627,55.82884Z"/><path class="b" d="M73.897,50.67556a3.191,3.191,0,0,0-.7149-.92342,2.27674,2.27674,0,0,0-1.4-.417,1.91306,1.91306,0,0,0-2.08514,1.90641,1.22451,1.22451,0,0,0,.47661,1.07236,3.91288,3.91288,0,0,0,1.31065.77448l1.19151.53618a6.40587,6.40587,0,0,1,1.90641,1.16172,3.03,3.03,0,0,1,.89363,2.26386,3.98986,3.98986,0,0,1-6.64266,2.8,4.53815,4.53815,0,0,1-1.16172-2.20429l1.34045-.38724a2.80607,2.80607,0,0,0,.74469,1.57875,2.38888,2.38888,0,0,0,1.78726.68511,2.36389,2.36389,0,0,0,2.50217-2.47238,1.87839,1.87839,0,0,0-.62554-1.4596,5.61055,5.61055,0,0,0-1.48939-.86384L70.799,54.19051a6.08727,6.08727,0,0,1-1.66811-1.01278,2.621,2.621,0,0,1-.86385-2.02557,3.221,3.221,0,0,1,3.48517-3.21707,3.32909,3.32909,0,0,1,1.99578.566,3.8696,3.8696,0,0,1,1.2213,1.37023Z"/><path class="b" d="M79.37792,55.82884a3.52753,3.52753,0,0,0,.983,3.00856,3.57215,3.57215,0,0,0,2.05535.7149,3.37358,3.37358,0,0,0,2.05535-.7149,3.52753,3.52753,0,0,0,.983-3.00856V48.20318h1.37024v8.0129a4.87768,4.87768,0,0,1-.77449,2.97877,4.79264,4.79264,0,0,1-7.26821,0,4.68527,4.68527,0,0,1-.77448-2.97877v-8.0129H79.3779Z"/><path class="b" d="M92.0377,48.20318a5.47332,5.47332,0,0,1,3.00856.68512,3.45587,3.45587,0,0,1-1.75748,6.19584l3.96177,5.57031H95.58243l-3.783-5.45115h-.35746v5.45115H90.0717V48.20318Zm-.62555,5.749H92.276c1.72769,0,2.74048-.834,2.74048-2.26386a1.9344,1.9344,0,0,0-.983-1.81705,3.44557,3.44557,0,0,0-1.78727-.35746h-.83405Z"/><path class="b" d="M105.8294,49.51384h-5.06391v3.69368h4.915v1.31066h-4.915v4.82561h5.06391v1.31066H99.36547V48.20318h6.46393Z"/><path class="b" d="M112.71037,48.20318h2.532a6.70147,6.70147,0,0,1,4.58731,1.4596,6.06738,6.06738,0,0,1,2.11493,4.766,5.85588,5.85588,0,0,1-2.1745,4.766,6.158,6.158,0,0,1-4.55752,1.42981h-2.532V48.20318Zm1.4,11.14061h1.2213a5.35594,5.35594,0,0,0,3.57453-1.13193,4.78446,4.78446,0,0,0,1.66811-3.783c0-2.97878-2.08514-4.915-5.24264-4.915h-1.2213Z"/><path class="b" d="M131.35748,57.1395h-5.30221l-1.48939,3.51495h-1.51917l5.71924-13.047,5.5703,13.047h-1.51917Zm-.53618-1.31066-2.08514-4.97455-2.11493,4.97455Z"/><path class="b" d="M138.32781,49.51384V60.65445h-1.37023V49.51384H133.949V48.20318h7.38735v1.31066Z"/><path class="b" d="M149.23011,57.1395H143.9279l-1.48939,3.51495h-1.51916l5.71924-13.047,5.57031,13.047h-1.51917Zm-.53618-1.31066-2.08514-4.97455-2.11492,4.97455Z"/></svg>