<svg xmlns="http://www.w3.org/2000/svg" viewBox="0 0 180.51692 63.49203"><defs><style>.a{fill:none;}.b,.c{fill:#e61e1e;}.b{fill-rule:evenodd;}</style></defs><title>logo_toshiba</title><rect class="a" y="0.9756" width="180.51692" height="61.54083"/><path class="b" d="M147.43974,33.64551l2.05158-7.08774h.0331l2.05069,7.08774Zm6.53732,8.35731h6.02625l-6.21576-20.51361h-8.55829l-6.21684,20.51361h6.02537l1.10014-3.79717h6.74095Z"/><path class="b" d="M46.70136,31.746c0-1.12806.02791-1.79391.05243-2.28832.1573-3.16568,1.40846-3.53609,3.83832-3.53609s3.68121.37041,3.8385,3.53609c.02434.49441.05243,1.16026.05243,2.28832,0,1.12877-.02809,1.79457-.05243,2.28832-.15729,3.16639-1.40863,3.537-3.8385,3.537s-3.681-.37059-3.83832-3.537C46.72927,33.54061,46.70136,32.87481,46.70136,31.746Zm3.89075,10.62652c6.18623,0,9.1753-1.08869,9.599-6.67117.10129-1.32883.1215-2.69363.1215-3.95535s-.02021-2.62653-.1215-3.95554c-.42373-5.5814-3.4128-6.67009-9.599-6.67009-6.18695,0-9.17511,1.08869-9.59975,6.67009-.10056,1.329-.1206,2.69377-.1206,3.95554s.02,2.62652.1206,3.95535C41.417,41.28387,44.40516,42.37256,50.59211,42.37256Z"/><polygon class="b" points="20.514 21.489 20.514 26.603 26.645 26.603 26.645 42.003 32.781 42.003 32.781 26.603 38.913 26.603 38.913 21.489 20.514 21.489"/><rect class="c" x="108.82548" y="21.48921" width="5.82173" height="20.51361"/><polygon class="b" points="91.22 28.979 91.22 21.489 85.433 21.489 85.433 42.003 91.22 42.003 91.22 34.094 97.946 34.094 97.946 42.003 103.734 42.003 103.734 21.489 97.946 21.489 97.946 28.979 91.22 28.979"/><path class="b" d="M125.5935,26.1802h4.01226a1.50364,1.50364,0,0,1,1.69852,1.6915,1.55162,1.55162,0,0,1-1.69852,1.65849H125.5935Zm0,7.39714h4.01226c1.62426,0,1.96336.71125,1.96336,1.86722a1.72242,1.72242,0,0,1-1.96336,1.86714H125.5935Zm8.20274-2.29351c2.5766-.66138,3.33246-2.20368,3.33246-4.42633,0-4.50954-2.83786-5.36829-6.86945-5.36829H119.80577V42.00282h10.9726c5.051,0,6.74883-2.17376,6.74883-5.51945C137.5272,34.1496,136.99234,32.09118,133.79624,31.28383Z"/><path class="b" d="M63.68607,35.27246h5.51772c.00518.9951.13276,1.6627.61519,2.02707.55043.414,1.04235.54953,2.6718.54953,1.56843,0,3.287,0,3.287-1.931,0-1.52459-.95931-1.87246-2.733-1.96676-4.39573-.23424-5.986-.35825-7.62512-1.57452-1.115-.82743-1.69423-2.44382-1.69423-4.62907,0-3.71342,1.29573-5.01613,3.16389-5.923,1.92918-.93856,9.49936-.93856,11.53591,0,2.56193,1.17941,2.63619,3.73525,2.63619,6.103H75.55679c-.01056-1.20486-.28309-1.54664-.50588-1.77368a3.71519,3.71519,0,0,0-2.561-.61252c-1.42151,0-3.06851.0646-3.06851,1.79122,0,1.31666.56976,1.86709,2.06822,1.96318,2.05319.13385,6.10392.26394,7.54638,1.11589,2.02724,1.19874,2.548,2.81871,2.548,5.46169,0,3.81914-1.36569,4.94276-3.267,5.78075-2.19312.969-9.52567.969-11.90918-.07337C63.7394,40.41528,63.68607,38.09636,63.68607,35.27246Z"/></svg>