<svg xmlns="http://www.w3.org/2000/svg" viewBox="0 0 180.52 63.49"><defs><style>.cls-1{fill:#b4b4b5;}.cls-2{fill:#231815;}.cls-3{fill:#888;}</style></defs><g id="dbsj"><rect class="cls-1" x="5.83" y="18.8" width="15.19" height="3.64"/><rect class="cls-1" x="21.02" y="22.45" width="9.1" height="3.64"/><rect class="cls-1" x="5.83" y="22.44" width="15.19" height="0.01"/><rect class="cls-1" x="5.83" y="26.1" width="9.2" height="3.64"/><rect class="cls-1" x="21.02" y="29.75" width="12.05" height="3.64"/><rect class="cls-1" x="21.02" y="29.74" width="12.05" height="0.01"/><rect class="cls-1" x="5.83" y="33.41" width="9.2" height="3.64"/><rect class="cls-1" x="5.83" y="40.81" width="15.19" height="3.64"/><rect class="cls-1" x="21.02" y="37.06" width="9.1" height="3.64"/><path class="cls-2" d="M39.94,30.11h6c3.58,0,6.28,2.25,6.28,6.84,0,4-2.06,7-6.28,7h-6Zm3,11.28h2.71c1.76,0,3.45-1.09,3.45-4.15,0-2.79-1-4.57-4-4.57H43Z"/><path class="cls-2" d="M53.51,30.11H60c2.63,0,4.41.86,4.41,3.43a3,3,0,0,1-1.87,2.89,3.37,3.37,0,0,1,2.53,3.5c0,2.81-2.38,4-4.88,4h-6.7Zm3,5.6h3.08c1.07,0,1.86-.48,1.86-1.64,0-1.32-1-1.59-2.09-1.59H56.55Zm0,5.87h3.26c1.2,0,2.24-.39,2.24-1.82s-.89-2-2.19-2H56.55Z"/><path class="cls-2" d="M69.22,39.35c0,1.84,1.43,2.56,3.06,2.56,1.06,0,2.69-.31,2.69-1.73s-2.07-1.74-4.11-2.28S66.74,36.56,66.74,34c0-2.83,2.67-4.18,5.17-4.18,2.88,0,5.54,1.25,5.54,4.45h-3c-.09-1.67-1.27-2.09-2.73-2.09-1,0-2.09.41-2.09,1.57s.66,1.2,4.13,2.09c1,.25,4.1.89,4.1,4,0,2.53-2,4.43-5.75,4.43-3.06,0-5.92-1.51-5.89-4.92Z"/><path class="cls-2" d="M87.81,39.58c0,1.79-.49,4.69-4.61,4.69-2.31,0-4.55-1.26-4.55-4.28v-1.2H81.4v.62c0,1.34.33,2.3,1.76,2.3,1.61,0,1.61-1.29,1.61-2.26V30.11h3Z"/><path class="cls-3" d="M93.36,30.79H92.22v-.38h2.72v.38H93.81v3h-.45Z"/><path class="cls-3" d="M95.41,30.41h.46v1.46h1.78V30.41h.46v3.4h-.46V32.25H95.87v1.56h-.46Z"/><path class="cls-3" d="M98.94,30.41h2.35v.38H99.4v1.08h1.76v.38H99.4v1.18h1.91v.38H98.94Z"/><path class="cls-3" d="M103.37,30.41h1.16A1.45,1.45,0,0,1,106.16,32c0,1.14-.5,1.78-1.63,1.78h-1.16Zm.45,3h.75c.31,0,1.14-.09,1.14-1.34,0-.81-.3-1.3-1.13-1.3h-.76Z"/><path class="cls-3" d="M107.73,30.41h.5l1.33,3.4h-.5l-.37-1h-1.44l-.38,1h-.46Zm-.33,2h1.15L108,30.82h0Z"/><path class="cls-3" d="M110.48,30.79h-1.14v-.38h2.72v.38h-1.13v3h-.45Z"/><path class="cls-3" d="M113.17,30.41h.5l1.33,3.4h-.5l-.37-1h-1.44l-.38,1h-.47Zm-.34,2H114l-.56-1.59h0Z"/><path class="cls-3" d="M115.52,30.41h1.23a2,2,0,0,1,.9.13.78.78,0,0,1,.4.7.79.79,0,0,1-.5.77h0a.77.77,0,0,1,.64.81,1,1,0,0,1-1,1h-1.64Zm.45,1.46h.91c.51,0,.72-.18.72-.54s-.33-.54-.72-.54H116Zm0,1.56h1.13a.58.58,0,0,0,.64-.61c0-.44-.35-.57-.74-.57h-1Z"/><path class="cls-3" d="M119.89,30.41h.5l1.33,3.4h-.5l-.37-1h-1.44l-.38,1h-.46Zm-.33,2h1.15l-.57-1.59h0Z"/><path class="cls-3" d="M124.21,31.41a.74.74,0,0,0-.84-.7c-.38,0-.76.14-.76.58s.54.48,1.09.61,1.08.31,1.08,1-.71,1-1.33,1-1.4-.37-1.4-1.2h.43c0,.57.47.82,1,.82s.86-.13.86-.62-.54-.55-1.09-.66-1.09-.28-1.09-.9.62-1,1.24-1a1.1,1.1,0,0,1,1.25,1.08Z"/><path class="cls-3" d="M125.42,30.41h2.35v.38h-1.89v1.08h1.76v.38h-1.76v1.18h1.9v.38h-2.36Z"/><path class="cls-3" d="M131.81,31.41a.74.74,0,0,0-.84-.7c-.38,0-.76.14-.76.58s.54.48,1.09.61,1.08.31,1.08,1-.71,1-1.33,1-1.4-.37-1.4-1.2h.43c0,.57.47.82,1,.82s.86-.13.86-.62-.54-.55-1.09-.66-1.09-.28-1.09-.9.62-1,1.24-1a1.1,1.1,0,0,1,1.25,1.08Z"/><path class="cls-3" d="M134.46,30.33a1.79,1.79,0,1,1-1.63,1.78A1.63,1.63,0,0,1,134.46,30.33Zm0,3.18c.82,0,1.17-.71,1.17-1.4s-.35-1.4-1.17-1.4a1.24,1.24,0,0,0-1.18,1.4C133.28,32.8,133.63,33.51,134.46,33.51Z"/><path class="cls-3" d="M139.13,31.43a.91.91,0,0,0-1-.72c-.81,0-1.15.67-1.15,1.38s.34,1.42,1.16,1.42a1,1,0,0,0,1-1h.45a1.38,1.38,0,0,1-1.47,1.36,1.56,1.56,0,0,1-1.57-1.77,1.61,1.61,0,0,1,1.61-1.79,1.3,1.3,0,0,1,1.4,1.1Z"/><path class="cls-3" d="M140.38,30.41h.45v3.4h-.45Z"/><path class="cls-3" d="M141.69,30.41H144v.38h-1.9v1.08h1.77v.38h-1.77v1.18h1.91v.38h-2.36Z"/><path class="cls-3" d="M145.46,30.79h-1.13v-.38H147v.38h-1.13v3h-.45Z"/><path class="cls-3" d="M148.92,32.42v1.39h-.45V32.42l-1.32-2h.54l1,1.62,1-1.62h.52Z"/><path class="cls-3" d="M153.54,30.33a1.79,1.79,0,1,1-1.62,1.78A1.63,1.63,0,0,1,153.54,30.33Zm0,3.18c.83,0,1.18-.71,1.18-1.4a1.24,1.24,0,0,0-1.18-1.4c-.82,0-1.17.72-1.17,1.4S152.72,33.51,153.54,33.51Z"/><path class="cls-3" d="M155.82,30.41h2.23v.38h-1.78v1.08h1.56v.38h-1.56v1.56h-.45Z"/><path class="cls-3" d="M161.8,33a.88.88,0,0,1-1,.93.89.89,0,0,1-1-1v-.21h.45v.14c0,.4.1.68.55.68s.54-.24.54-.61V30.41h.45Z"/><path class="cls-3" d="M163.66,30.41h.5l1.33,3.4H165l-.38-1h-1.43l-.38,1h-.47Zm-.34,2h1.15l-.56-1.59h0Z"/><path class="cls-3" d="M166,30.41h1.49a1,1,0,1,1,0,2h-1v1.39H166Zm.45,1.63h.89c.51,0,.74-.22.74-.62s-.23-.63-.74-.63h-.89Z"/><path class="cls-3" d="M169.64,30.41h.49l1.33,3.4H171l-.37-1h-1.44l-.38,1h-.46Zm-.34,2h1.15l-.57-1.59h0Z"/><path class="cls-3" d="M172,30.41h.48l1.79,2.76h0V30.41h.43v3.4h-.5l-1.77-2.73h0v2.73H172Z"/><path class="cls-2" d="M94.31,43.75v.51H93.18v-7h6v7H98.09v-.5Zm3.78-3.82V38.24H94.31v1.69Zm0,2.79V40.91H94.31v1.81Z"/><path class="cls-2" d="M106.71,43.28h-1.36v1.31h-1.08V43.28H103v-.92a7.35,7.35,0,0,1-1.36,1.42,2.43,2.43,0,0,0-.95-.69,9.81,9.81,0,0,0,3.09-3.83h-2.89v-.95h3.39V36.69l1,.06s.22,0,.22.13-.09.12-.18.16v1.27h3.4v.95h-3a9.87,9.87,0,0,0,3.2,3.63,2.57,2.57,0,0,0-.81.83,9.59,9.59,0,0,1-1.44-1.39Zm-2.44-2.94a12,12,0,0,1-1.24,2h1.24Zm2.42,2a11.43,11.43,0,0,1-1.34-1.9v1.9Z"/><path class="cls-2" d="M109.75,40.47v-1h7.32v1h-2.9a3.9,3.9,0,0,1-1,2.79,4.46,4.46,0,0,1-1.91,1.22,4,4,0,0,0-.87-.91c2.32-.65,2.56-2.07,2.59-3.1Zm6.07-3.31v1.06H110.9V37.16Zm.62.28a8.36,8.36,0,0,1,.86.84c-.11.12-.15.17-.51.61a6,6,0,0,0-.89-.9Zm.4-1a10.79,10.79,0,0,1,.9.89,4.09,4.09,0,0,0-.52.55,5.63,5.63,0,0,0-.88-.88Z"/><path class="cls-2" d="M124.56,40.06v1.23h-6.32V40.06Z"/><path class="cls-2" d="M128.68,39.79a17.5,17.5,0,0,1,1.51.94,7.61,7.61,0,0,0,.74-1.57h-2.25a10.19,10.19,0,0,1-1.9,2,5.83,5.83,0,0,0-.92-.78,7.88,7.88,0,0,0,2.85-3.69l1.15.37c.1,0,.15,0,.15.1s-.15.12-.2.12c-.14.26-.27.5-.47.83h2a1.66,1.66,0,0,0,.58-.08l.53.46a3,3,0,0,0-.18.36,12.34,12.34,0,0,1-1.23,2.55,4.92,4.92,0,0,1,.86.9,11.75,11.75,0,0,0-.72,1,8.64,8.64,0,0,0-.84-1,8.5,8.5,0,0,1-3.3,2.19,5.34,5.34,0,0,0-.8-1,7.39,7.39,0,0,0,3.24-1.94,15.88,15.88,0,0,0-1.55-1Z"/><path class="cls-2" d="M133.47,41a9.74,9.74,0,0,0,1.59-1.61c1-1.2,1.35-1.47,1.86-1.47s.8.25,1.78,1.46a19.37,19.37,0,0,0,3,3,8.66,8.66,0,0,0-.77,1.06,34.09,34.09,0,0,1-3.06-3.4c-.65-.81-.71-.87-.94-.87s-.36.15-.78.66-1.22,1.47-1.54,2c0,.09,0,.19-.11.19s-.07,0-.12-.08Zm6.31-3.52a4.72,4.72,0,0,1,.92.92c-.11.11-.35.38-.52.57a6.94,6.94,0,0,0-.91-.94Zm.87-.8a8.21,8.21,0,0,1,.89.88,5.65,5.65,0,0,0-.51.56,7,7,0,0,0-.89-.92Z"/><path class="cls-2" d="M148.62,40.06v1.23h-6.31V40.06Z"/><path class="cls-2" d="M150.3,38.45V37.36h4.38a2.32,2.32,0,0,0,.59-.07l.59.63a2.8,2.8,0,0,0-.33.55,14.19,14.19,0,0,1-1.11,2.2,19.48,19.48,0,0,1,2.69,2.48l-.89,1a11.6,11.6,0,0,0-2.44-2.57,10.12,10.12,0,0,1-3.45,2.69,3,3,0,0,0-.82-1,7.62,7.62,0,0,0,4.68-4.8Z"/><path class="cls-2" d="M165.76,41.66v.88h-3.28v1.17c0,.91-.64.94-2,.93a3.83,3.83,0,0,0-.33-1l.94,0c.37,0,.37-.06.37-.5v-.61H158v-.88h3.38V41l.45.06.76-.61h-3v-.87h4.29l.31.62a14.93,14.93,0,0,1-1.71,1.43Zm-4.22-3.41a5.47,5.47,0,0,0-.85-1.26l.92-.43a6.84,6.84,0,0,1,.86,1.26l-.81.43h1.27a8.77,8.77,0,0,0,1-1.5l1,.33c.05,0,.13.05.13.13s-.13.12-.29.14c-.3.47-.51.75-.62.9h1.48v2.19h-1V39.08h-5.52v1.36h-1V38.25h1.31a7.24,7.24,0,0,0-.74-1l.87-.45a5.3,5.3,0,0,1,.85,1.2,4.85,4.85,0,0,0-.56.3Z"/><path class="cls-2" d="M172.69,40.35h-4.37v-.76a9,9,0,0,1-1.12.6,3.94,3.94,0,0,0-.8-.86A7.3,7.3,0,0,0,170,36.57l1.25.18a.13.13,0,0,1,.13.12c0,.07-.1.1-.2.13a8,8,0,0,0,3.5,2.21,3,3,0,0,0-.72.9,9,9,0,0,1-1.25-.62Zm-5.7,3,1.33-.07A10.45,10.45,0,0,0,169,41.8h-2v-.95h7.11v.95h-2a12.21,12.21,0,0,1,2,2.14,4.14,4.14,0,0,0-.84.76,7.55,7.55,0,0,0-.63-.91c-.52.08-1.76.23-2.31.29s-2.36.25-2.74.3c-.06.13-.1.22-.2.22s-.1-.05-.12-.2Zm5.53-4a9.71,9.71,0,0,1-2-1.65,12.33,12.33,0,0,1-1.87,1.65Zm-.76,2.41h-1.33a.1.1,0,0,1,0,.06c0,.1-.18.12-.25.13-.12.29-.48.91-.64,1.18,1.08-.09,1.2-.1,2.27-.21a5.31,5.31,0,0,0-.69-.63Z"/></g></svg>