<svg xmlns="http://www.w3.org/2000/svg" viewBox="0 0 180.51692 63.49203"><defs><style>.a{fill:#1752a3;}</style></defs><title>logo_tencent</title><polygon class="a" points="114.85 27.608 109.929 27.608 111.865 30.385 114.36 30.385 112.262 42.33 116.632 42.33 118.734 30.385 124.185 30.385 115.579 23.462 114.85 27.608"/><polygon class="a" points="29.425 20.828 9.569 20.828 9.026 23.955 16.735 23.955 13.506 42.33 17.877 42.33 21.107 23.955 28.883 23.955 29.425 20.828"/><path class="a" d="M32.658,27.27769c-5.55569,0-9.11186,3.49665-9.81815,7.55834-.7821,4.51134,1.9894,7.8129,7.59557,7.8129a13.91253,13.91253,0,0,0,6.75329-1.52912l.5921-3.36433a11.226,11.226,0,0,1-6.2339,2.07733c-2.79485,0-5.01728-1.16395-4.66749-3.83366H38.42889a7.36229,7.36229,0,0,0,.42738-1.56413C39.41569,31.21151,38.27233,27.27769,32.658,27.27769Zm2.26536,6.12654H27.32205a4.898,4.898,0,0,1,4.62237-3.58709C34.87014,29.81714,35.17893,32.0412,34.92337,33.40423Z"/><path class="a" d="M51.961,27.27769A7.57838,7.57838,0,0,0,46.2268,29.5513h-.102l-3.84756-2.27361c-.14153,1.27576-.331,3.00759-.62672,4.70845L39.85515,42.32959h4.36956l1.51966-8.66232a3.57185,3.57185,0,0,1,.4056-1.18083A4.39665,4.39665,0,0,1,49.90888,30.303c2.38649,0,3.035,1.60836,2.669,3.71986l-1.46127,8.30678h4.37057L57.02582,33.586C57.83465,28.93028,54.97188,27.27769,51.961,27.27769Z"/><path class="a" d="M104.39272,27.27769a7.57783,7.57783,0,0,0-5.73423,2.27361h-.10176l-3.84736-2.27361c-.14173,1.27576-.33179,3.00759-.62789,4.70845L92.28684,42.32959h4.36879l1.52067-8.66232a3.56641,3.56641,0,0,1,.40419-1.18083,4.39932,4.39932,0,0,1,3.75987-2.18349c2.38771,0,3.035,1.60836,2.66878,3.71986l-1.45966,8.30678h4.37l1.53765-8.74358C110.26556,28.93028,107.40357,27.27769,104.39272,27.27769Z"/><path class="a" d="M85.08934,27.27769c-5.55529,0-9.11129,3.49665-9.81759,7.55834-.7823,4.51134,1.9894,7.8129,7.59578,7.8129a13.91846,13.91846,0,0,0,6.75369-1.52912l.59108-3.36433A11.223,11.223,0,0,1,83.978,39.83281c-2.79347,0-5.01411-1.16395-4.66652-3.83366H90.86277a7.50886,7.50886,0,0,0,.42641-1.56413C91.84738,31.21151,90.70325,27.27769,85.08934,27.27769Zm2.26612,6.12654H79.75414a4.89775,4.89775,0,0,1,4.62059-3.58709C87.30162,29.81714,87.61083,32.0412,87.35546,33.40423Z"/><path class="a" d="M58.86,34.77088c-.7924,4.56883,2.40688,7.87562,7.82146,7.87562a19.69225,19.69225,0,0,0,5.69743-.98014l.70746-3.93419a6.74209,6.74209,0,0,1-5.03746,1.97194c-2.975,0-5.22692-1.73183-4.70314-4.75025.45552-2.69788,3.01086-4.77195,6.34178-4.77195a5.44348,5.44348,0,0,1,4.35809,1.98157l.67779-4.00214a12.3982,12.3982,0,0,0-4.672-.87578C63.97688,27.28556,59.62608,30.36452,58.86,34.77088Z"/><path class="a" d="M136.11964,22.80368c-1.19262,6.54721-2.26352,13.02128-3.48049,19.54407H130.181c.48678-2.45826,1.04658-5.06242,1.4603-7.472h-1.75235c-.53546,2.53115-1.09526,5.06242-1.63071,7.472H125.8c2.06883-6.59581,3.09107-13.38635,4.25934-20.88272h4.6C135.85189,21.465,136.33868,21.65977,136.11964,22.80368Zm-3.38312,6.25516h-1.67936c-.24339,1.26551-.51115,2.57986-.77884,3.89408h1.75236Zm.51115-5.57363h-1.217c-.19467,1.1682-.38942,2.38511-.63281,3.65075h1.65506l.60846-3.18838C133.7344,23.58251,133.58837,23.48521,133.24767,23.48521Zm9.71117,15.99062H134.708l-.34077-1.87415h9.0054V37.626Zm2.72594-7.253-.5598,2.53126h1.19256c.80326,0,1.38736.17033,1.24134,1.1682-.26776,1.80115-.75454,4.308-1.1439,6.42549h-6.47415L139.4054,40.425h4.77036c.2191-1.02218.48679-2.26352.63282-3.28569.04871-.34077-.09732-.4625-.43809-.4625H136.29l.73013-3.91851a11.27216,11.27216,0,0,1-2.31216.73014l.51108-2.36083a8.06181,8.06181,0,0,0,3.99158-2.14191h-3.60216l.41378-1.84974h4.454a4.12192,4.12192,0,0,0,.53546-1.09519h-4.81908l.365-1.92274h1.72807l-.63282-2.84769h2.45826l.5841,2.84769h.85185a14.25331,14.25331,0,0,0,.4868-3.26146h2.50691a17.84793,17.84793,0,0,1-.43813,3.26146h.99788c.38948-.87622.77884-1.92282,1.0953-2.84769h2.50686c-.34077.87622-.77885,1.94712-1.19262,2.84769h1.75242l-.46237,1.92274h-5.23293a7.01308,7.01308,0,0,1-.46243,1.09519h6.42548l-.43807,1.84974H145.344a7.34034,7.34034,0,0,0,4.21062,2.40954l-.82756,2.0932A10.08344,10.08344,0,0,1,145.68478,32.2228Zm-2.53121.34077h-5.33022l1.60634.73012-.29206,1.46037h3.52916Zm.90052-1.82545a8.90511,8.90511,0,0,1-1.11961-1.75242H142.034a10.51854,10.51854,0,0,1-1.84974,1.75242Z"/><path class="a" d="M151.41481,27.11167h5.11113c-.51109,3.40741-1.09519,6.86355-1.75242,10.31969.97358-.73025,1.99588-1.5091,2.92075-2.31223l-.53551,3.13966a44.41162,44.41162,0,0,1-6.30375,4.40542c.94928-4.40542,1.82543-9.07847,2.45825-13.38634h-2.28781Zm6.0117-1.14391c-.36506-1.70371-.82755-3.4805-1.21692-5.13549h-2.75031c.36507,1.67936.75455,3.48038,1.0709,5.13549Zm12.48578-4.47837H158.54612l.48679,2.16614h8.49425c.5598,0,.82744.073.70584.70583-.31648,1.75242-.65725,3.52915-.998,5.25715h-3.69947l.63282-3.69947-2.57986-1.509-.94929,5.20843h-2.75031l-.36506,2.16621h2.70171c-.5598,3.50485-1.24134,7.0826-1.94717,10.58745h2.94505c.68141-3.52916,1.36294-7.0583,1.947-10.58745h3.67517c-.60852,3.52915-1.28992,7.1556-1.97147,10.58745h5.20857l.90045-2.1905h-2.77461c1.09532-5.57363,2.23922-11.3906,3.2128-17.01288C171.64041,21.95182,171.397,21.48939,169.91229,21.48939Z"/></svg>