<svg xmlns="http://www.w3.org/2000/svg" viewBox="0 0 180.51692 63.49203"><defs><style>.a{fill:#008bd5;}</style></defs><title>アートボード 14</title><path class="a" d="M34.03089,10.56769h0L25.93654,25.49657l.18749-.0741c6.50154-3.305,17.30995-8.1189,25.69885-8.49433l.02513-.13627L37.93994,9.401A2.9275,2.9275,0,0,0,34.03089,10.56769Z"/><path class="a" d="M25.36807,26.49055l-.02622.01038L20.0922,36.12819a2.7385,2.7385,0,0,0-.21371,2.1519,2.81018,2.81018,0,0,0,1.40533,1.66532l10.269,5.34521.03794-.02344c10.97522-6.45141,17.32005-12.90175,16.5546-16.82689-.33916-1.71487-2.05355-2.86906-4.95732-3.34146a37.20606,37.20606,0,0,0-12.03134.68277A74.45611,74.45611,0,0,1,46.17711,23.142c5.706-.28007,9.26363.76837,10.01566,2.95677.99361,2.90231-2.83294,7.47864-10.50044,12.56394A103.11718,103.11718,0,0,1,32.803,45.80449l-.135.06484,14.78784,7.69386a2.92633,2.92633,0,0,0,3.909-1.16506l8.97023-16.45688-.106-.09592a53.60128,53.60128,0,0,1-16.60488,8.82735c11.5041-7.258,18.41461-14.506,18.41461-19.28777a4.35205,4.35205,0,0,0-.05855-.74,4.289,4.289,0,0,0-2.352-3.10554C54.29209,18.56729,40.84154,20.50938,25.36807,26.49055Z"/><path class="a" d="M112.56237,39.49774l-.826,8.66677h-8.412l3.24731-34.106h8.41372l-1.74323,18.28,9.202-9.0763h6.78045l-8.1143,8.07466,8.95243,16.8276h-8.63064l-5.9321-11.53044Z"/><path class="a" d="M160.76639,23.30347l-11.706,25.87293a9.86026,9.86026,0,0,1-4.61394,4.24034c-2.07541,1.03955-6.34342,1.005-6.92672,1.005h-5.32131L132.868,50.801h4.46415c.58506,0,2.09444-.08265,2.2148-1.32874a3.58557,3.58557,0,0,0-.16865-1.33544l-6.55682-24.83337h9.0816l3.34547,16.42829,6.44157-16.42829Z"/><path class="a" d="M100.64317,38.54436c.5352-5.03215-3.26475-8.97306-7.81489-10.21562-1.95329-.52656-4.8307-1.22882-4.8307-1.22882s-4.30237-.857-5.65508-1.68983a2.82533,2.82533,0,0,1-1.46285-3.01857c.20654-2.1822,2.67264-3.40062,6.10428-3.40062h15.06182l.50771-5.92365s-11.06926-.03084-12.92614-.03084a42.567,42.567,0,0,0-8.06444.826A14.96894,14.96894,0,0,0,75.8322,16.912,11.65235,11.65235,0,0,0,72.163,25.25166c.03965,6.14375,4.688,8.47751,7.87693,9.23123,3.19056.75724,5.896,1.38017,7.35178,1.74849a11.19565,11.19565,0,0,1,3.51764,1.28382,3.50539,3.50539,0,0,1,1.05841,3.23885c-.28566,1.5247-2.46434,3.07355-6.087,3.07355l-15.00666.02749-.549,5.92365H85.621a19.22928,19.22928,0,0,0,5.73068-.96731,15.66721,15.66721,0,0,0,5.67922-2.90825C99.05468,44.06163,100.237,42.36828,100.64317,38.54436Z"/></svg>