<svg xmlns="http://www.w3.org/2000/svg" viewBox="0 0 180.51692 63.49203"><defs><style>.a{fill:#f90;}.a,.b{fill-rule:evenodd;}.b{fill:#232f3e;}</style></defs><title>logo_amazon</title><path class="a" d="M109.81585,45.55488C100.37619,52.521,86.69164,56.22535,74.907,56.22535A63.17433,63.17433,0,0,1,32.26429,39.95827c-.88368-.79827-.09563-1.8878.96675-1.2699A85.83293,85.83293,0,0,0,75.8988,50.00942a84.88513,84.88513,0,0,0,32.545-6.66c1.59582-.67687,2.93363,1.05137,1.37205,2.20544Z"/><path class="a" d="M113.74369,41.07016c-1.20734-1.54545-7.98024-.73239-11.02368-.36771-.92158.11057-1.06446-.69512-.23379-1.2783,5.4038-3.795,14.25723-2.69949,15.28626-1.42861,1.03613,1.28143-.27276,10.15824-5.33589,14.39425-.77932.65107-1.52026.30368-1.17428-.5565,1.13944-2.84561,3.68991-9.21621,2.48138-10.76313Z"/><path class="b" d="M102.93434,12.61413V8.92635a.91113.91113,0,0,1,.93516-.93345l16.52844-.00173a.9206.9206,0,0,1,.95287.9303v3.16276a5.194,5.194,0,0,1-1.24453,2.32158l-8.56176,12.22367a18.33765,18.33765,0,0,1,9.42727,2.02509,1.684,1.684,0,0,1,.87673,1.43889v3.93523c0,.54148-.59334,1.16935-1.21739.8423a19.03459,19.03459,0,0,0-17.463.03322c-.575.30572-1.17605-.31272-1.17605-.85569V30.30847a4.44574,4.44574,0,0,1,.61518-2.53447l9.91907-14.23033-8.63675-.001a.91958.91958,0,0,1-.95523-.92859Z"/><path class="b" d="M135.62516,12.7845c-3.70822,0-3.942,5.04918-3.942,8.19955,0,3.14959-.04663,9.88335,3.89656,9.88335,3.89594,0,4.0831-5.43062,4.0831-8.742a23.84125,23.84125,0,0,0-.75215-6.84327,3.14661,3.14661,0,0,0-3.28549-2.49761ZM135.5797,7.516c7.46246,0,11.49834,6.409,11.49834,14.55448,0,7.87336-4.45741,14.12012-11.49834,14.12012-7.32256,0-11.313-6.40976-11.313-14.3917,0-8.03769,4.03647-14.2829,11.313-14.2829Z"/><path class="b" d="M94.8301,35.582a1.07393,1.07393,0,0,1-1.18785.117A13.10527,13.10527,0,0,1,90.76,32.34845c-2.76064,2.81148-4.71541,3.65524-8.29019,3.65524-4.23307,0-7.52624-2.61315-7.52624-7.83724a8.53958,8.53958,0,0,1,5.36247-8.218c2.72759-1.19789,6.53852-1.41539,9.45384-1.74264,0,0,.24384-3.15073-.61045-4.29919A3.524,3.524,0,0,0,86.32737,12.6a3.82881,3.82881,0,0,0-4.02525,2.95843c-.10213.55786-.51422,1.02645-.94815.9797l-4.81519-.52167a.8866.8866,0,0,1-.751-1.05172c1.12-5.91223,6.45882-7.69809,11.24448-7.69809,2.446,0,5.64467.65215,7.57346,2.50354,2.4454,2.28569,2.211,5.334,2.211,8.6548v7.83235c0,2.35755.97827,3.39065,1.89691,4.65963a.94954.94954,0,0,1-.01535,1.3368C97.67045,33.115,94.8301,35.582,94.8301,35.582ZM89.75987,23.32228c0,1.96019.04782,3.5916-.93988,5.33424a4.08557,4.08557,0,0,1-3.48092,2.28572c-1.9282,0-3.05761-1.4701-3.05761-3.64733,0-4.2826,3.84224-5.06071,7.47841-5.06071v1.08808Z"/><path class="b" d="M28.912,35.582a1.07379,1.07379,0,0,1-1.18776.117A13.09993,13.09993,0,0,1,24.842,32.34845c-2.76088,2.81148-4.71534,3.65524-8.29014,3.65524-4.23347,0-7.526-2.61315-7.526-7.83724a8.53935,8.53935,0,0,1,5.36226-8.218c2.72766-1.19789,6.53854-1.41539,9.454-1.74264,0,0,.24341-3.15073-.61068-4.29919A3.52458,3.52458,0,0,0,20.40913,12.6a3.82869,3.82869,0,0,0-4.025,2.95843c-.10221.55786-.514,1.02645-.94794.9797l-4.81557-.52167a.88649.88649,0,0,1-.75093-1.05172c1.11978-5.91223,6.45876-7.69809,11.24476-7.69809,2.446,0,5.64468.65215,7.57342,2.50354,2.44526,2.28569,2.21088,5.334,2.21088,8.6548v7.83235c0,2.35755.97833,3.39065,1.897,4.65963a.9492.9492,0,0,1-.01565,1.3368C31.75273,33.115,28.912,35.582,28.912,35.582ZM23.84215,23.32228c0,1.96019.04729,3.5916-.94043,5.33424a4.08492,4.08492,0,0,1-3.48091,2.28572c-1.928,0-3.05741-1.4701-3.05741-3.64733,0-4.2826,3.84233-5.06071,7.47875-5.06071v1.08808Z"/><path class="b" d="M43.61682,21.038c0-2.98683-.14116-7.113,3.47342-7.113,3.56658,0,3.09733,4.235,3.09733,7.113l.005,13.68183a.94306.94306,0,0,0,.90305.92661h5.02253a.948.948,0,0,0,.96917-.9285V21.038a15.627,15.627,0,0,1,.46924-4.94207A3.33577,3.33577,0,0,1,60.56171,13.978a2.62122,2.62122,0,0,1,2.95618,2.22771A32.98752,32.98752,0,0,1,63.659,21.038l.00178,13.68183a.94217.94217,0,0,0,.90176.92661h5.02205a.94808.94808,0,0,0,.97-.9285l.00471-16.28619c0-2.77008.32767-5.919-1.26814-8.0917a7.42633,7.42633,0,0,0-12.767,1.95524C55.11629,9.0369,53.14447,7.516,50.00006,7.516c-3.09733,0-5.39741,1.52095-6.61755,4.77935h-.09465V8.99977a.93938.93938,0,0,0-.93937-.93934H37.65641a.93933.93933,0,0,0-.93931.93934V34.70716a.93929.93929,0,0,0,.93931.93929h5.02094a.93929.93929,0,0,0,.93935-.93929L43.61682,21.038Z"/><path class="b" d="M157.73863,34.70716a.93917.93917,0,0,1-.9393.93929H151.7781a.93955.93955,0,0,1-.93931-.93929V8.99977a.93959.93959,0,0,1,.93931-.93934h4.64278a.92465.92465,0,0,1,.93932.73378v3.93534h.09682c1.40867-3.53084,3.37876-5.2136,6.852-5.2136a6.59115,6.59115,0,0,1,5.86786,3.04164c1.31419,2.06325,1.31419,5.53835,1.31419,8.03693V34.83438a.95447.95447,0,0,1-.96412.81207h-5.04011a.947.947,0,0,1-.895-.81207l.00827-15.594c0-5.21713-1.999-5.37044-3.15266-5.37044a3.43988,3.43988,0,0,0-2.8935,2.02556,11.66374,11.66374,0,0,0-.8159,4.9267l.00059,13.88494Z"/></svg>