<svg xmlns="http://www.w3.org/2000/svg" viewBox="0 0 180.51692 63.49203"><defs><style>.a{fill:#f03;}</style></defs><title>logo_yahoo_j</title><path class="a" d="M113.43444,38.064c-.40306.096-1.88571.60434-2.32.72712-.04356,1.3685-.26461,7.48066-.26461,7.48066-.12056,2.84538-1.35649,4.73023-4.62779,5.98183l-1.18123-.29028c1.596-.94817,2.2966-1.77967,2.49982-2.473.326-.89764.49012-2.97651.49012-6.80967,0,0-.03687-2.89139-.10833-3.86718-.49012-.08014-2.5009-.57135-3.12164-.70928l-.029-.90879c1.28172.03795,4.0785.07814,5.17936.07814,1.10194,0,2.44283-.0547,3.566-.07814Z"/><path class="a" d="M165.642,39.921c-.23894.05665-.92445.21408-1.52844.34161-.03686.9867.07643,8.24659.08929,9.98105,0,.24923-.27913.37653-.50578.15068-1.57086-1.536-6.576-7.2057-8.24293-9.26284-.00446,1.28509.06476,6.45187.07814,7.40977.62634.17309,2.07893.5203,2.348.57472l.06026,1.033c-1.265-.01338-5.44558-.00892-5.52207,0l.01561-1.00231c.54094-.22688,1.05284-.41449,1.53964-.60542.06586-.60622.058-7.75641.0614-8.21584-.41312-.03738-1.23708-.05945-1.80534-.08626V38.99627c.6855-.01315,2.8057-.00754,3.968,0,1.4447,1.64288,4.90578,5.50257,6.66087,7.465.0179-1.65768-.096-5.53692-.11941-6.20653-.29811-.05471-.97916-.12193-1.72834-.27713l-.09712-.97578c.29588.02675,2.18273.05636,2.5344.05636.35282,0,1.92482-.09409,2.24968-.12085Z"/><path class="a" d="M135.966,42.82829c0,1.37662-1.28172,1.94688-2.67954,2.17182v.971c2.94529-.29805,4.82432-1.469,4.82432-3.1931v-.08289c0-2.006-1.332-3.74662-4.47488-3.80887,0,0-1.12984-.04522-1.78407-.04522h-4.23371l.182,1.10223c.59062.06506,1.37216.12954,1.86782.16412.04471,1.37775.18424,7.06033.09044,8.67252-.336.074-1.44807.29839-1.87228.40443l-.105.96464c.41975-.02647,6.49229-.02539,6.94,0l-.05362-.83145c-.43261-.1153-1.9929-.39774-2.38926-.49464-.05357-.38013-.16412-8.42071-.13954-8.77021a12.35957,12.35957,0,0,1,2.28546.16189A2.39093,2.39093,0,0,1,135.966,42.643"/><path class="a" d="M54.08062,17.05529c-.79943.07757-4.11983.82172-5.23738,1.06061-1.196.31989-12.66894,9.29469-13.38629,11.36744-.15937.719,0,8.43609,0,8.43609l6.48561.43432L41.71425,40.494c-.93313-.065-6.9512-.053-10.72349-.053-1.9128,0-7.74972.21385-9.72.15634l.24564-2.03982a14.74348,14.74348,0,0,0,4.2568-.39689c1.15024-.30537,1.97174-.76313,1.97174-1.9159V29.54919c-.3986-1.19575-9.94029-13.20845-12.41022-15.121-.71734-.24117-5.41882-.75365-6.53448-.99145L9.03246,11.426H30.806l-.31457,1.85055c-.95594.23952-5.56447.3288-6.75994.6459,3.10827,4.62447,8.02606,10.57749,9.62178,12.89084.87615-1.27612,9.21957-7.11641,9.45852-8.94856-1.19575-.2378-5.15759-.80943-5.79342-.80943l-.37819-2.04875H55.43992Z"/><path class="a" d="M100.45653,34.50859c-3.43039-.20431-9.4504-.1189-12.9994,0l.20985-1.8154c.53425-.05356,3.33915-.498,4.05061-.60011V25.88215c-1.70793,0-11.249.20653-12.75434.5917v5.58071s4.11058.47285,5.06932.575l-.2199,1.88406c-3.74159-.20934-11.18961-.21659-14.72746-.01229l.23168-2.02193c1.10949-.02961,4.0796-.37065,4.77208-.47841.108-1.385.15937-3.57272.15937-5.86321v-2.828c0-.95851-.05133-3.73072-.106-4.69141-.81589-.00229-4.22393-.32212-5.18491-.374l.23443-1.79088c3.077.17195,12.56736.16806,15.18408.00726l-.2685,1.66746c-.7433.04019-4.11143.53871-5.14415.54037v4.95271H91.71759V16.38653c-.93925-.09769-3.2378-.60965-4.253-.65985l.1979-1.66414c2.13249.15743,10.56326.13177,12.82083,0l-.15744,1.74675c-.69333.05471-3.16749.47675-3.98024.53088V32.14893s3.60176.43879,4.34975.54426Z"/><path class="a" d="M164.78341,36.37755l-2.353.096.45274-3.978,2.34462.11336,2.19274-.08266-.46108,3.89427Zm2.58134-7.1315h-3.42759V11.23843h7.77956l-.69888,2.70579Z"/><path class="a" d="M115.36817,32.59327c-.28581.0084-.56826.02515-.84631.038-.27907-.0128-.56043-.02955-.84739-.038-2.88385-.08038-8.45061-1.725-8.45061-6.69215,0-.07539-.00108-.23894-.00108-.24843s.00108-.17583.00108-.25066c0-4.96883,5.56676-6.614,8.45061-6.69271.287-.00778.56832-.0251.84739-.03853.278.01343.5605.03075.84631.03853,2.88384.07871,8.45175,1.72388,8.45175,6.69271,0,.07483.00109.23951.00109.25066,0,.00949-.00109.173-.00109.24843,0,4.96718-5.56791,6.61177-8.45175,6.69215m13.3553-7.05611c0-5.7091-5.47187-9.17355-13.79855-9.34659,0,0-.297-.0028-.40306-.0028-.10717,0-.403.0028-.403.0028-8.83583.18476-13.72372,3.66985-13.72372,9.37449,0,.029-.00337.05974-.00337.08763,0,.029.00114.05471.00337.08432.05579,5.37246,5.3959,9.20031,13.72372,9.37448,0,0,.29583.00446.403.0028.1061.00166.40306-.0028.40306-.0028,8.32668-.17417,13.69806-3.77256,13.79741-9.35162,0-.029.00114-.19481.00114-.22271"/><path class="a" d="M146.88743,30.75723c-.4265.03012-.84962.043-1.26943.04687-.41981-.00388-.84185-.01675-1.26835-.04687-3.14954-.21551-8.86144-2.14867-8.98091-7.4882.11947-5.34068,5.83137-7.189,8.98091-7.405.4265-.02738.84854-.04133,1.26835-.04522.41981.00389.84293.01784,1.26943.04522,3.15069.216,8.86144,2.06435,8.98091,7.405-.11947,5.33953-5.83022,7.27269-8.98091,7.4882m14.34337-7.48432c0-.034-.00337-.10438-.00337-.10438-.211-5.972-5.9653-9.83111-15.22986-10.02763,0,0-.25118-.00612-.37957-.00612-.12508,0-.3774.00612-.3774.00612-9.26787.19652-15.04562,3.79269-15.22981,10.02763v.19819c.18419,6.23718,5.96194,9.9188,15.22981,10.11418,0,0,.25232.0072.3774.00555.12839.00165.37957-.00555.37957-.00555,9.26456-.19538,15.04568-3.877,15.22986-10.11418,0,0,.00337-.06031.00337-.09381"/><path class="a" d="M53.98265,29.53187c.30228-.805,3.01337-6.56375,3.01337-6.56375l2.55059,6.56375Zm13.9554,7.54405c-.96521-1.58372-4.608-10.55961-6.23775-14.62027l2.99017-.46669.35756-1.534H60.5l.00366.01509c-1.72806.02515-8.76884-.03853-9.54284-.08374l-.12919,1.59715,3.61514.8647s-5.29043,10.458-6.34607,11.96584c-.93977.20429-3.23723.75639-4.09829.85688l-.24814,1.9315c.7126-.10049,9.94532-.04853,10.8,0l.19762-1.7428-3.21826-.762s1.46173-3.03962,1.663-3.39186c1.05564-.20265,7.057-.29251,7.057-.29251l2.13666,5.80342s-2.5439.39243-3.549.44159l-.22609,1.9044c.75331,0,12.94607-.04939,13.2978,0l.2043-1.71074c-.90324-.04967-3.32458-.6241-4.17923-.77593"/><path class="a" d="M149.75567,48.84636c-1.20581-2.51457-3.22551-7.453-3.767-8.78581l1.4403-.19287.09934-.96578-5.95753.20739-.02121.80835,1.54519.2682c-1.02043,2.22853-3.64749,7.92225-4.10526,8.59187-.39745.141-.88872.29279-1.3677.46782l-.09712.90348c1.3677-.0762,4.31854-.02647,4.78077,0l.0212-.81053-1.47933-.42095s.92222-2.22984,1.25491-2.90168c1.15-.01566,4.18346.01337,4.18346.01337l1.12875,2.95673s-1.05061.223-1.83106.3726l-.13451.79046c.4081,0,5.79953-.02647,5.99046,0l.10381-.93446C151.0474,49.10931,149.75567,48.84636,149.75567,48.84636Zm-7.25708-3.822c.23888-.58752,1.79527-4.23508,1.79527-4.23508l1.64791,4.24846Z"/><path class="a" d="M124.80462,48.84722c-.75473-1.572-2.80679-6.4859-3.74352-8.7889l1.5597-.28022.04356-.87506-6.04574.20625-.00892.80052,1.5452.26826c-1.02043,2.22738-3.65979,7.93117-4.11756,8.60078-.50018.18418-.939.31817-1.36769.46777l-.09712.90353c1.35094-.0455,4.31963-.02653,4.78076,0l.02229-.81167-1.48042-.42095s.92331-2.22984,1.25606-2.9006c1.14881-.01674,4.18231.01344,4.18231.01344l1.12875,2.95558s-1.0506.22414-1.83105.3726l-.13394.7916c.40752,0,5.8001-.02761,5.98988,0l.10381-.93451C126.0964,49.10931,124.80462,48.84722,124.80462,48.84722Zm-7.25818-3.82167c.24-.58867,1.79637-4.23623,1.79637-4.23623l1.64683,4.24846Z"/></svg>