<svg xmlns="http://www.w3.org/2000/svg" viewBox="0 0 180.51692 63.49203"><defs><style>.cls-1{fill:#068cd9;}.cls-2{fill:#eb4537;}.cls-3{fill:#ffb837;}.cls-4{fill:#08ba59;}</style></defs><g id="google"><path class="cls-1" d="M30.07159,46.49322A21.03225,21.03225,0,0,1,9.02585,25.75111,21.03224,21.03224,0,0,1,30.07159,5.009a19.76371,19.76371,0,0,1,14.21558,5.71675l-3.9966,3.99661a14.449,14.449,0,0,0-10.219-4.0473,14.878,14.878,0,0,0-14.8738,15.07605A14.878,14.878,0,0,0,30.07159,40.8269a13.88124,13.88124,0,0,0,10.47218-4.14817,11.82244,11.82244,0,0,0,3.08571-7.13327H30.105V23.87914h19.0392a18.496,18.496,0,0,1,.30312,3.54142c0,4.24955-1.16358,9.51111-4.907,13.25478C40.89783,44.46944,36.24353,46.49322,30.07159,46.49322Z"/><path class="cls-2" d="M78.0288,33.13731a13.40669,13.40669,0,0,1-26.81318,0,13.40669,13.40669,0,0,1,26.81318,0Zm-5.86882,0c0-4.80611-3.49073-8.09459-7.53777-8.09459s-7.53776,3.28848-7.53776,8.09459c0,4.75543,3.49072,8.09434,7.53776,8.09434S72.16,37.89274,72.16,33.13731Z"/><path class="cls-3" d="M107.01269,33.13731a13.40669,13.40669,0,0,1-26.81318,0,13.40669,13.40669,0,0,1,26.81318,0Zm-5.86882,0c0-4.80611-3.49073-8.09459-7.53777-8.09459s-7.53777,3.28848-7.53777,8.09459c0,4.75543,3.49073,8.09434,7.53777,8.09434S101.14387,37.89274,101.14387,33.13731Z"/><path class="cls-1" d="M134.71052,20.65216V44.57082c0,9.86492-5.77773,13.91221-12.6578,13.91221a12.7271,12.7271,0,0,1-11.838-7.89208L115.324,48.4663a7.39058,7.39058,0,0,0,6.72877,4.75543c4.4011,0,7.13326-2.73191,7.13326-7.84166V43.45768h-.20225a9.105,9.105,0,0,1-7.0324,3.03554c-6.67782,0-12.79933-5.81788-12.79933-13.30547,0-7.53777,6.12151-13.40634,12.79933-13.40634a9.2549,9.2549,0,0,1,7.0324,2.98485h.20225v-2.1141Zm-5.12,12.53559c0-4.70474-3.13666-8.145-7.13327-8.145-4.047,0-7.43638,3.44029-7.43638,8.145,0,4.65456,3.38934,8.0439,7.43638,8.0439C126.45382,41.23165,129.59048,37.84231,129.59048,33.18775Z"/><path class="cls-4" d="M144.26821,6.42551V45.6837h-5.86883V6.42551Z"/><path class="cls-2" d="M166.685,37.53868l4.55292,3.03528A13.285,13.285,0,0,1,160.108,46.49322a13.06637,13.06637,0,0,1-13.25059-13.35591c0-7.94277,5.71283-13.3559,12.5929-13.3559,6.931,0,10.32036,5.51425,11.4335,8.4991l.60727,1.51789-17.85865,7.38621a6.79359,6.79359,0,0,0,6.47557,4.047A7.62788,7.62788,0,0,0,166.685,37.53868ZM152.6711,32.73256l11.93939-4.95793a5.17235,5.17235,0,0,0-4.95793-2.833A7.32558,7.32558,0,0,0,152.6711,32.73256Z"/></g></svg>