<svg xmlns="http://www.w3.org/2000/svg" viewBox="0 0 180.52 63.49"><defs><style>.cls-1{fill:#426ab2;}</style></defs><g id="IBM"><path id="IBM_" data-name="IBM®" class="cls-1" d="M26.66,52.05H49.72v3.29H26.66Zm0-3H49.72V45.76H26.66Zm6.59-6.29h9.88V39.47H33.25Zm0-6.29h9.88V33.18H33.25Zm0-6.29h9.88V26.89H33.25Zm9.88-9.58H33.25v3.29h9.88Zm-16.47-3H49.72V14.3H26.66Zm0-6.29H49.72V8H26.66ZM53,49.05H88.17a12.48,12.48,0,0,0,1.33-3.29H53Zm32.4-15.87H59.61v3.29H88.17A12.43,12.43,0,0,0,85.42,33.18ZM59.61,26.89v3.29H85.42a12.43,12.43,0,0,0,2.75-3.29ZM88.17,14.3H53v3.3H89.5A12.68,12.68,0,0,0,88.17,14.3ZM77.28,8H53v3.3H85.77A12.53,12.53,0,0,0,77.28,8ZM59.61,23.89h9.88V20.6H59.61Zm19.17,0H89.42a12.74,12.74,0,0,0,.44-3.29H78.78ZM59.61,42.76h9.88V39.47H59.61Zm19.17-3.29v3.29H89.86a12.74,12.74,0,0,0-.44-3.29ZM53,55.34H77.28a12.54,12.54,0,0,0,8.49-3.29H53Zm65.89,0,1.15-3.29h-2.29Zm-2.19-6.29h4.39l1.16-3.29h-6.71Zm-2.21-6.29h8.81l1.16-3.29H113.36Zm-2.21-6.29h13.23l1.16-3.29H111.15ZM99.15,23.89H117L115.8,20.6H99.15Zm23.92-6.29h22.21V14.3H124.22ZM126.41,8l-1.15,3.3h20V8ZM92.56,55.34H109V52.05H92.56Zm0-6.29H109V45.76H92.56Zm6.59-6.29H109V39.47H99.15Zm0-6.29H109V33.18H99.15ZM138.69,20.6H122l-1.14,3.29h17.8Zm-9.89,9.58h9.89V26.89H119.84l-.92,2.66L118,26.89H99.15v3.29H109v-3l1.07,3h17.64l1.06-3Zm9.89,3H128.8v3.29h9.89Zm-9.89,9.58h9.89V39.47H128.8Zm0,6.29h16.48V45.76H128.8Zm0,6.29h16.48V52.05H128.8Zm-14-37.74-1.14-3.3H92.56v3.3Zm-2.19-6.29L111.43,8H92.56v3.3Zm36.26,41.58a2.52,2.52,0,1,1,2.51,2.59A2.53,2.53,0,0,1,148.83,52.89Zm4.44.16v-.33a1.93,1.93,0,0,0-3.85,0v.33a1.93,1.93,0,0,0,3.85,0ZM151,54.22h-.64V51.59h1.19a.79.79,0,0,1,.89.83.76.76,0,0,1-.47.79l.59,1h-.71l-.49-.91H151Zm.48-1.38c.2,0,.31-.09.31-.28v-.19c0-.19-.11-.28-.31-.28H151v.75Z"/></g></svg>