<svg xmlns="http://www.w3.org/2000/svg" viewBox="0 0 180.51692 63.49203"><defs><style>.a{fill:#f03;}</style></defs><title>logo_yahoo_j</title><path class="a" d="M114.65423,38.39652c-.42428.10109-1.985.63614-2.44215.76539-.04585,1.44052-.27854,7.87437-.27854,7.87437-.1269,2.99513-1.42789,4.97919-4.87135,6.29666l-1.24341-.30555c1.68-.99808,2.41748-1.87334,2.63139-2.60317.34317-.94488.51592-3.13317.51592-7.16807,0,0-.03881-3.04357-.114-4.07071-.51591-.08437-2.63253-.60143-3.28594-.74662l-.03057-.95662c1.34918.04,4.29317.08226,5.452.08226,1.15994,0,2.5714-.05759,3.75367-.08226Z"/><path class="a" d="M169.60956,40.35127c-.25152.05963-.97311.22535-1.60889.35959-.0388,1.03863.08046,8.68062.094,10.50637,0,.26235-.29382.39635-.5324.15861-1.65353-1.61682-6.92214-7.58495-8.67676-9.75036-.0047,1.35273.06816,6.79145.08224,7.79976.65931.1822,2.18835.54769,2.47158.605l.06342,1.08737c-1.33155-.01408-5.73219-.00938-5.8127,0l.01643-1.05506c.56941-.23882,1.10825-.4363,1.62068-.63728.06932-.63813.06107-8.16465.06462-8.64825-.43486-.03935-1.30218-.06258-1.90035-.0908V39.37786c.72158-.01384,2.95337-.00794,4.17679,0,1.52073,1.72935,5.164,5.79218,7.01144,7.858.01884-1.74493-.101-5.82834-.1257-6.53319-.31379-.05759-1.03068-.12835-1.8193-.29172l-.10223-1.02714c.31145.02816,2.29761.05933,2.66779.05933.37138,0,2.02612-.099,2.36808-.12721Z"/><path class="a" d="M138.3717,43.41157c0,1.44907-1.34917,2.04935-2.82057,2.28612v1.02215c3.10031-.31374,5.07823-1.54631,5.07823-3.36116v-.08725c0-2.11162-1.40207-3.94381-4.71039-4.00933,0,0-1.18931-.0476-1.878-.0476h-4.45654l.19159,1.16024c.6217.06848,1.44438.13635,1.96613.17275.04705,1.45027.19393,7.43193.09519,9.129-.35368.07786-1.52428.3141-1.97082.42572l-.11047,1.0154c.44184-.02786,6.834-.02671,7.30526,0l-.05644-.8752c-.45538-.12137-2.09778-.41868-2.515-.52067-.05639-.40015-.17276-8.86391-.14689-9.2318a13.01025,13.01025,0,0,1,2.40575.17041,2.51676,2.51676,0,0,1,1.623,2.55617"/><path class="a" d="M52.17653,16.28209c-.84151.08165-4.33667.865-5.513,1.11644-1.259.33672-13.33572,9.78388-14.09083,11.96572-.16776.75685,0,8.88009,0,8.88009l6.827.45718-.24033,2.25292c-.98224-.06848-7.31706-.05584-11.28788-.05584-2.01348,0-8.1576.2251-10.23162.16457l.25856-2.14719a15.51958,15.51958,0,0,0,4.48084-.41777c1.21079-.32144,2.07552-.8033,2.07552-2.01673V29.43357c-.41958-1.25868-10.46346-13.90363-13.06338-15.91681-.7551-.25387-5.704-.79331-6.87841-1.04363l.24449-2.11662H27.67687l-.33112,1.948c-1.00626.25212-5.85735.3461-7.11573.67988,3.27187,4.86787,8.44848,11.13421,10.12819,13.56932.92226-1.34329,9.70481-7.491,9.95633-9.41954-1.25868-.25032-5.429-.852-6.09833-.852l-.3981-2.15657H53.60736Z"/><path class="a" d="M100.99327,34.654c-3.61093-.21506-9.94779-.12516-13.68358,0l.22089-1.91095c.56237-.05638,3.5149-.52416,4.26381-.63169V25.57352c-1.79783,0-11.84111.2174-13.42563.62284V32.0708s4.32693.49774,5.33614.60527l-.23149,1.98321c-3.93851-.22035-11.77852-.228-15.50258-.01293l.24388-2.12836c1.16788-.03116,4.29431-.39015,5.02323-.50358.11373-1.45791.16776-3.76076.16776-6.1718V22.86577c0-1.009-.054-3.92708-.11162-4.93833-.85884-.00241-4.44624-.33907-5.4578-.39371l.24677-1.88513c3.239.181,13.2288.1769,15.98324.00764l-.28263,1.75522c-.78242.0423-4.32782.56707-5.4149.56881v5.21338H91.79439V15.57814c-.98869-.10284-3.40822-.64174-4.47682-.69458l.20832-1.75172c2.24472.16571,11.11922.13869,13.49561,0l-.16572,1.83868c-.72983.05758-3.3342.50183-4.18973.55882v16.6408s3.79133.46188,4.57869.5729Z"/><path class="a" d="M168.70577,36.62132l-2.47681.10109.47657-4.18739,2.468.11933,2.30815-.087-.48535,4.09923Zm2.71721-7.50685h-3.608V10.15909h8.189l-.73567,2.84819Z"/><path class="a" d="M116.68974,32.63786c-.30086.00884-.59818.02647-.89086.03995-.29376-.01348-.58993-.03111-.892-.03995-3.03563-.0846-8.89538-1.81576-8.89538-7.04436,0-.07937-.00114-.25152-.00114-.26151s.00114-.18509.00114-.26386c0-5.23034,5.85975-6.9621,8.89538-7.045.30206-.00818.59823-.02641.892-.04055.29268.01414.59.03237.89086.04055,3.03562.08286,8.89657,1.81462,8.89657,7.045,0,.07877.00115.25213.00115.26386,0,.01-.00115.18214-.00115.26151,0,5.2286-5.861,6.95976-8.89657,7.04436m14.0582-7.42748c0-6.00958-5.75985-9.65637-14.52478-9.83851,0,0-.3126-.003-.42428-.003-.11281,0-.42421.003-.42421.003-9.30088.19447-14.446,3.863-14.446,9.86788,0,.03056-.00355.06288-.00355.09224,0,.03056.0012.05758.00355.08875.05873,5.65523,5.67989,9.68454,14.446,9.86788,0,0,.3114.0047.42421.00295.11168.00175.42428-.00295.42428-.00295,8.76493-.18334,14.419-3.97112,14.52358-9.84381,0-.03056.0012-.20506.0012-.23443"/><path class="a" d="M149.8679,30.70519c-.44894.03171-.89434.04525-1.33624.04934-.44191-.00409-.88616-.01763-1.3351-.04934-3.31531-.22685-9.32784-2.26176-9.4536-7.88232.12576-5.62177,6.13829-7.56738,9.4536-7.79477.44894-.02882.89319-.0435,1.3351-.04759.4419.00409.8873.01877,1.33624.04759,3.31651.22739,9.32784,2.173,9.4536,7.79477-.12576,5.62056-6.13709,7.65547-9.4536,7.88232M164.96619,22.827c0-.0358-.00355-.10987-.00355-.10987-.22209-6.28637-6.27927-10.34854-16.03143-10.55541,0,0-.26441-.00644-.39955-.00644-.13166,0-.39726.00644-.39726.00644-9.75566.20687-15.8375,3.9923-16.03138,10.55541v.20861c.19388,6.56545,6.27572,10.44084,16.03138,10.64651,0,0,.2656.00758.39726.00584.13514.00174.39955-.00584.39955-.00584,9.75216-.20567,15.83756-4.08106,16.03143-10.64651,0,0,.00355-.06348.00355-.09874"/><path class="a" d="M52.07339,29.41534c.31819-.84735,3.172-6.90922,3.172-6.90922l2.68482,6.90922Zm14.6899,7.9411c-1.016-1.66707-4.85054-11.11538-6.566-15.38976l3.14755-.49125.37638-1.61478H58.93381l.00385.01589c-1.819.02647-9.23036-.04056-10.04509-.08815l-.136,1.68121,3.80541.91021s-5.56888,11.00846-6.68008,12.59562c-.98923.215-3.40761.7962-4.314.902l-.26121,2.03316c.75011-.10579,10.46876-.05109,11.36839,0l.208-1.83453-3.38764-.8021s1.53867-3.19959,1.75053-3.57038c1.11121-.21331,7.42838-.3079,7.42838-.3079l2.24912,6.10887s-2.67778.41308-3.73579.46483l-.238,2.00463c.79295,0,13.62744-.052,13.99768,0l.21505-1.80078c-.95078-.05228-3.49955-.65695-4.39919-.81677"/><path class="a" d="M152.8871,49.74638c-1.26927-2.64692-3.39527-7.84531-3.96529-9.24823l1.51611-.203.10457-1.01661-6.27108.21831-.02233.85089,1.62652.28232c-1.07414,2.34582-3.83947,8.33922-4.32133,9.04407-.41837.14839-.9355.3082-1.43968.49245l-.10223.951c1.43968-.08021,4.54583-.02786,5.03238,0l.02232-.85318-1.55719-.44311s.97075-2.34719,1.321-3.0544c1.21048-.01648,4.40365.01408,4.40365.01408l1.18815,3.11235s-1.10591.23473-1.92744.3922l-.14158.83206c.42957,0,6.10477-.02786,6.30574,0l.10928-.98363C154.24682,50.02317,152.8871,49.74638,152.8871,49.74638Zm-7.639-4.02311c.25145-.61845,1.88976-4.458,1.88976-4.458l1.73464,4.47206Z"/><path class="a" d="M126.62284,49.74728c-.79445-1.65473-2.95452-6.82726-3.94055-9.25147l1.64179-.295.04585-.92111-6.36393.2171-.00939.84265,1.62652.28239c-1.07414,2.34461-3.85241,8.34859-4.33427,9.05345-.5265.19387-.98839.33491-1.43968.49239l-.10223.95108c1.422-.0479,4.547-.02792,5.03238,0l.02347-.85439-1.55834-.44311s.9719-2.34719,1.32216-3.05325c1.20928-.01763,4.40244.01414,4.40244.01414l1.18816,3.11114s-1.1059.23593-1.92743.3922l-.141.83327c.429,0,6.10538-.02907,6.30515,0l.10927-.9837C127.98261,50.02317,126.62284,49.74728,126.62284,49.74728Zm-7.64019-4.02281c.25267-.61965,1.89092-4.45918,1.89092-4.45918l1.7335,4.47206Z"/></svg>