<svg xmlns="http://www.w3.org/2000/svg" viewBox="0 0 841.88976 238.11024"><defs><style>.a{fill:#231815;}.b,.d{fill:#fff;}.b{opacity:0.7;}.c{fill:none;stroke:#231815;stroke-linecap:round;stroke-linejoin:round;stroke-width:0.6535px;}.e{fill:#e2356b;}.f{fill:#f692ab;}</style></defs><title>vldb2020-banner</title><path class="a" d="M14.78516,210.34668H17.0293v-8.0625h2.73633v8.0625h5.918c.07422-.76367.09864-1.50391.12305-2.31738l2.76172.123A25.73148,25.73148,0,0,1,25.709,219.7666l-2.4414-1.332a17.48508,17.48508,0,0,0,1.94726-5.15332H14.78516Z"/><path class="a" d="M45.97363,219.86523h-2.7373v-1.06054H37.83594c-3.501,0-4.75879-1.84961-4.75879-5.376v-1.75H30.2168v-2.959h2.86035v-2.93457H31.47461v-2.93457H45.70215v2.93457h-9.8877v2.93457H45.97363Zm-8.08789-4.01953h5.35059v-4.167H35.81445v1.75C35.81445,215.08105,36.2832,215.8457,37.88574,215.8457Z"/><path class="a" d="M61.207,208.54688H55.97949v1.52832c0,3.23046-.46875,8.53222-5.77051,9.44433l-.64062-2.959c3.42773,0,3.67383-3.94532,3.67383-6.48535v-1.52832H48.01465V205.6123h5.22754v-4.38867h2.7373v4.38867H61.207Z"/><path class="a" d="M68.3291,208.00488H78.71v2.9336H77.625v3.00879c0,3.52636-1.25781,5.35058-4.75879,5.35058h-.41894l-.69141-2.93457h1.06055c1.60351,0,2.07129-.78906,2.07129-2.416v-3.00879H68.3291v2.66308a13.01749,13.01749,0,0,1-1.5293,6.13965l-2.54-1.23242a9.049,9.049,0,0,0,1.332-4.88281v-2.6875H62.46v-2.9336H65.5918V201.9873h2.7373Z"/><path class="a" d="M89.65039,202.85059h11.31836v2.93457h-4.291v10.57812h5.79493v2.93457H88.14648v-2.93457H93.916V205.78516H89.65039Z"/><path class="a" d="M107.20313,219.29785h-2.73731v-15.9043h5.27637v-2.16992h2.76172v2.16992h5.86914v2.9336h-.5918v7.62012c0,3.52636-1.25781,5.35058-4.75977,5.35058h-.36914l-.69043-2.93457h1.01075c1.60254,0,2.07129-.78906,2.07129-2.416v-7.62012h-7.84082Z"/><path class="a" d="M133.1875,208.54688H127.96v1.52832c0,3.23046-.46875,8.53222-5.77051,9.44433l-.64062-2.959c3.42773,0,3.67383-3.94532,3.67383-6.48535v-1.52832h-5.22754V205.6123h5.22754v-4.38867H127.96v4.38867h5.22754Z"/><path class="a" d="M134.88477,202.85059h11.81054v2.93457h-7.19922v2.90918H149.6543v2.959H139.49609v2.29395c0,1.62695.44336,2.416,2.0459,2.416h7.22559l-.666,2.93457h-6.6084c-3.50195,0-4.75878-1.82422-4.75878-5.35058v-2.29395H134.3916v-2.959h2.34278v-2.90918h-1.84961Z"/><path class="a" d="M150.75977,203.24512h2.31836v-2.02149h2.76171v2.02149H165.752l.46875,2.66308a39.63749,39.63749,0,0,1-8.4082,5.86914l-1.43066-2.49121a27.47415,27.47415,0,0,0,5.15332-3.10644h-5.69532v13.11816h-2.76171V206.17969h-2.31836Zm9.9375,8.335a59.40914,59.40914,0,0,1,5.20312,6.68262l-2.26953,1.77539a49.81822,49.81822,0,0,0-5.20215-6.68262Z"/><path class="a" d="M170.58008,219.29785h-2.73731v-15.9043h5.27637v-2.16992h2.76172v2.16992H181.75v2.9336h-.5918v7.62012c0,3.52636-1.25781,5.35058-4.75976,5.35058h-.36914l-.69043-2.93457h1.01074c1.60254,0,2.07129-.78906,2.07129-2.416v-7.62012h-7.84082Z"/><path class="a" d="M183.05176,217.794l7.15039-15.707,2.51562,1.1836-5.79492,12.57519,7.10156-1.92285-2.04687-4.61133,2.56445-1.15918,4.73438,10.45508-2.54,1.15918-1.47852-3.15625-11.14648,2.83594Z"/><path class="a" d="M213.59863,208.54688h-5.22754v1.52832c0,3.23046-.46875,8.53222-5.7705,9.44433l-.64063-2.959c3.42676,0,3.67383-3.94532,3.67383-6.48535v-1.52832h-5.22754V205.6123h5.22754v-4.38867h2.7373v4.38867h5.22754Z"/><path class="a" d="M216.50391,202.85059h11.31836v2.93457h-4.291v10.57812h5.79492v2.93457H215v-2.93457h5.76953V205.78516h-4.26562Z"/><path class="a" d="M244.63477,219.29785h-2.73731v-1.18359h-7.84082v1.18359h-2.7373V202.85059h13.31543Zm-2.73731-4.11816v-9.39453h-7.84082v9.39453Z"/><path class="a" d="M249.88281,219.29785h-2.7373v-15.9043h5.27637v-2.16992h2.76171v2.16992h5.86914v2.9336h-.59179v7.62012c0,3.52636-1.25781,5.35058-4.75977,5.35058H255.332l-.69043-2.93457h1.01074c1.60254,0,2.07129-.78906,2.07129-2.416v-7.62012h-7.84082Z"/><path class="a" d="M262.35449,217.794l7.15039-15.707,2.51563,1.1836-5.79492,12.57519,7.10156-1.92285-2.04688-4.61133,2.56446-1.15918,4.73437,10.45508-2.54,1.15918-1.47851-3.15625-11.14649,2.83594Z"/><path class="a" d="M279.61035,217.34961l.83887-.2959V202.85059h2.73633v13.09375a38.26947,38.26947,0,0,0,8.38379-4.75879l1.62793,2.3916a44.52585,44.52585,0,0,1-12.52637,6.48535Z"/><path class="a" d="M314.27344,205.78516h-9.61719v8.16211c0,1.62695.44336,2.416,2.07129,2.416h7.249v2.93457h-7.29883c-3.501,0-4.75878-1.82422-4.75878-5.35058V202.85059h12.35449Z"/><path class="a" d="M330.001,219.29785h-2.73731v-1.18359h-7.84179v1.18359h-2.73633V202.85059H330.001Zm-2.73731-4.11816v-9.39453h-7.84179v9.39453Z"/><path class="a" d="M335.24805,219.29785h-2.73633v-15.9043h5.27637v-2.16992h2.76171v2.16992H346.419v2.9336h-.5918v7.62012c0,3.52636-1.25781,5.35058-4.75879,5.35058h-.37012l-.69043-2.93457h1.01074c1.60254,0,2.07129-.78906,2.07129-2.416v-7.62012h-7.84179Z"/><path class="a" d="M360.3457,204.94629a53.76112,53.76112,0,0,1-5.62207.86328v2.88477h7.07715v2.959h-7.07715v2.29395c0,3.52636-1.25781,5.35058-4.75879,5.35058h-.22265l-.51758-2.93457h.69043c1.60254,0,2.07129-.78906,2.07129-2.416v-2.29395h-3.45215v-2.959h3.45215v-2.6875q-1.73877.0747-3.625.07421l-.27149-2.93457A69.82489,69.82489,0,0,0,359.877,202.0127Z"/><path class="a" d="M363.66992,202.85059h11.81055v2.93457h-7.19922v2.90918h10.1582v2.959h-10.1582v2.29395c0,1.62695.44336,2.416,2.0459,2.416h7.22558l-.666,2.93457h-6.6084c-3.502,0-4.75879-1.82422-4.75879-5.35058v-2.29395h-2.34277v-2.959h2.34277v-2.90918h-1.84961Z"/><path class="a" d="M379.54492,203.24512h2.31836v-2.02149H384.625v2.02149h9.91211l.46875,2.66308a39.63774,39.63774,0,0,1-8.4082,5.86914l-1.43067-2.49121a27.47415,27.47415,0,0,0,5.15332-3.10644H384.625v13.11816h-2.76172V206.17969h-2.31836Zm9.9375,8.335a59.4092,59.4092,0,0,1,5.20313,6.68262l-2.26953,1.77539a49.81822,49.81822,0,0,0-5.20215-6.68262Z"/><path class="a" d="M396.5293,202.85059h11.81054v2.93457h-7.19921v2.90918h10.1582v2.959h-10.1582v2.29395c0,1.62695.44335,2.416,2.04589,2.416h7.22559l-.666,2.93457H403.1377c-3.502,0-4.75879-1.82422-4.75879-5.35058v-2.29395h-2.34278v-2.959h2.34278v-2.90918H396.5293Z"/><path class="a" d="M415.90625,219.29785H413.169v-15.9043h5.27636v-2.16992H421.207v2.16992h5.86914v2.9336h-.59179v7.62012c0,3.52636-1.25782,5.35058-4.75977,5.35058h-.36914l-.69043-2.93457h1.01074c1.60254,0,2.07129-.78906,2.07129-2.416v-7.62012h-7.84082Z"/><path class="a" d="M441.27344,205.78516h-9.61621v8.16211c0,1.62695.44433,2.416,2.07129,2.416h7.25v2.93457h-7.29883c-3.502,0-4.75977-1.82422-4.75977-5.35058V202.85059h12.35352Z"/><path class="a" d="M443.58789,202.85059h11.81055v2.93457h-7.19922v2.90918h10.1582v2.959h-10.1582v2.29395c0,1.62695.44336,2.416,2.0459,2.416h7.22558l-.666,2.93457h-6.6084c-3.50195,0-4.75879-1.82422-4.75879-5.35058v-2.29395h-2.34277v-2.959h2.34277v-2.90918h-1.84961Z"/><path class="a" d="M481.40625,219.29785H478.669v-1.18359h-7.84082v1.18359h-2.73731V202.85059h13.31543Zm-2.7373-4.11816v-9.39453h-7.84082v9.39453Z"/><path class="a" d="M486.6543,219.29785H483.917v-15.9043h5.27637v-2.16992h2.76172v2.16992h5.86914v2.9336h-.5918v7.62012c0,3.52636-1.25781,5.35058-4.75976,5.35058h-.36914l-.69043-2.93457h1.01074c1.60254,0,2.07129-.78906,2.07129-2.416v-7.62012H486.6543Z"/><path class="a" d="M517.49023,202.43164a95.06081,95.06081,0,0,1,3.00879,12.37793,45.17632,45.17632,0,0,0,4.8086-12.64941l2.63769.83886c-1.01074,5.17774-4.53711,13.66016-7.668,17.16211l-2.21972-1.67675a6.69182,6.69182,0,0,0,.41894-.56739c-1.084-4.7832-2.46484-10.30664-3.79687-14.77051Z"/><path class="a" d="M529.39648,202.85059H541.207v2.93457h-7.19922v2.90918H544.166v2.959H534.00781v2.29395c0,1.62695.44336,2.416,2.0459,2.416h7.22559l-.666,2.93457h-6.6084c-3.50195,0-4.75879-1.82422-4.75879-5.35058v-2.29395h-2.34277v-2.959h2.34277v-2.90918h-1.84961Z"/><path class="a" d="M545.27148,203.24512h2.31836v-2.02149h2.76172v2.02149h9.91211l.46875,2.66308a39.63774,39.63774,0,0,1-8.4082,5.86914l-1.43067-2.49121a27.47392,27.47392,0,0,0,5.15333-3.10644h-5.69532v13.11816h-2.76172V206.17969h-2.31836Zm9.9375,8.335a59.4092,59.4092,0,0,1,5.20313,6.68262l-2.26953,1.77539a49.81822,49.81822,0,0,0-5.20215-6.68262Z"/><path class="a" d="M563.5625,202.08691a33.99809,33.99809,0,0,1,5.35059,6.63282l-2.31739,1.62695a27.78471,27.78471,0,0,0-4.98144-6.08984Zm-.98633,15.06543c5.15332-2.66308,9.56738-8.85254,11.293-14.7705l2.56445.83886c-1.4541,6.28809-6.90429,13.56153-12.37793,16.5459Z"/><path class="a" d="M585.35254,217.34961l.83887-.2959V202.85059h2.73632v13.09375a38.26924,38.26924,0,0,0,8.38379-4.75879l1.62793,2.3916a44.52566,44.52566,0,0,1-12.52636,6.48535Z"/><path class="a" d="M599.25586,217.794l7.15039-15.707,2.51563,1.1836L603.127,215.8457l7.10157-1.92285-2.04688-4.61133,2.56445-1.15918,4.73438,10.45508-2.53906,1.15918-1.48047-3.15625-11.14453,2.83594Z"/><path class="a" d="M616.31445,203.24512h2.31836v-2.02149h2.76172v2.02149h9.91211l.46875,2.66308a39.63774,39.63774,0,0,1-8.4082,5.86914l-1.43067-2.49121a27.47383,27.47383,0,0,0,5.15332-3.10644h-5.69531v13.11816h-2.76172V206.17969h-2.31836Zm9.9375,8.335a59.4092,59.4092,0,0,1,5.20313,6.68262l-2.26953,1.77539a49.81822,49.81822,0,0,0-5.20215-6.68262Z"/><path class="a" d="M643.18652,219.93848v-1.42969c-5.59765-.46875-10.03613-3.37793-10.03613-10.28223v-5.376h13.31543v2.93457H635.8877v2.61425c0,4.78321,3.3291,6.95313,7.29882,7.19922v-5.27636h2.73731v9.61621Z"/><path class="a" d="M648.55762,202.85059h11.81152v2.93457H653.168v2.90918h10.16016v2.959H653.168v2.29395c0,1.62695.44433,2.416,2.04687,2.416h7.22461l-.665,2.93457H655.166c-3.502,0-4.75977-1.82422-4.75977-5.35058v-2.29395h-2.3418v-2.959h2.3418v-2.90918h-1.84863Z"/><path class="a" d="M683.49023,205.78516h-7.8164v6.06543H672.9375v-9H686.252v5.376c0,6.9043-5.6709,10.57813-11.81054,11.07129l-.86328-2.91015c4.85742,0,9.9121-2.90918,9.9121-7.98829Z"/><path class="a" d="M687.77734,217.794l7.15039-15.707,2.51563,1.1836-5.79492,12.57519,7.10156-1.92285-2.04687-4.61133,2.56445-1.15918,4.73437,10.45508-2.53906,1.15918-1.48047-3.15625-11.14453,2.83594Z"/><path class="a" d="M718.32422,208.54688h-5.22754v1.52832c0,3.23046-.46875,8.53222-5.77051,9.44433l-.64062-2.959c3.42773,0,3.67383-3.94532,3.67383-6.48535v-1.52832h-5.22754V205.6123h5.22754v-4.38867h2.7373v4.38867h5.22754Z"/><path class="a" d="M719.33105,217.794l7.1504-15.707,2.51562,1.1836-5.79492,12.57519,7.10156-1.92285-2.04687-4.61133,2.56445-1.15918,4.73437,10.45508-2.54,1.15918-1.47852-3.15625-11.14648,2.83594Z"/><path class="a" d="M760.28125,213.94727c0,3.52636-1.25781,5.35058-4.73437,5.35058h-2.86133v-2.93457h2.81152c1.60254,0,2.04688-.78906,2.04688-2.416v-2.31836H753.5v-5.84375h-2.36719v4.29c0,3.23046-.46875,8.53222-5.77051,9.44433l-.64062-2.959c3.42676,0,3.67383-3.94532,3.67383-6.48535v-4.29H745.165v-2.93457h11.07129v5.81933h4.04492Z"/><path class="a" d="M761.73047,217.794l7.15039-15.707,2.51562,1.1836-5.79492,12.57519,7.10157-1.92285-2.04688-4.61133,2.56445-1.15918,4.73438,10.45508L775.416,219.7666l-1.48047-3.15625L762.791,219.44629Z"/><path class="a" d="M793.3125,211.60449v2.34278c0,3.52636-1.25781,5.35058-4.75879,5.35058H779.874v-2.93457h8.62989c1.62793,0,2.07226-.78906,2.07226-2.416v-2.34278h-6.3623c-2.21973,0-3.42774-1.30664-3.42774-3.67383v-2.1455h-1.65136v-2.93457h14.27636v2.93457h-9.88769v2.1455c0,.49317.14844.71485.69043.71485h9.9375v2.959Z"/><path class="a" d="M796.02051,202.85059H807.832v2.93457h-7.20117v2.90918H810.791v2.959H800.63086v2.29395c0,1.62695.44434,2.416,2.04687,2.416h7.22461l-.665,2.93457h-6.60839c-3.502,0-4.75977-1.82422-4.75977-5.35058v-2.29395h-2.3418v-2.959h2.3418v-2.90918h-1.84863Z"/><path class="a" d="M826.419,211.60449v2.34278c0,3.52636-1.25684,5.35058-4.75879,5.35058h-8.67969v-2.93457h8.63086c1.627,0,2.07031-.78906,2.07031-2.416v-2.34278h-6.36133c-2.21875,0-3.42773-1.30664-3.42773-3.67383v-2.1455h-1.65235v-2.93457h14.27735v2.93457h-9.8877v2.1455c0,.49317.14746.71485.69043.71485h9.9375v2.959Z"/><path class="b" d="M212.81142,94.77628a57.30739,57.30739,0,1,1-66.28835-46.62841,57.31049,57.31049,0,0,1,66.28835,46.62841"/><path class="a" d="M14.24862,127.89155c33.91193-21.29225,36.71479-24.2918,53.50968-35.677s37.74143-26.18433,73.73477-32.25989c35.99266-6.07557,78.82355,2.3075,94.67087,3.75629,15.84667,1.44883,43.95815,3.32632,64.52179-7.78577,20.56359-11.11269,37.66433-20.92891,46.46629-29.30085-17.55752,12.83925-44.92991,28.58856-70.762,30.6595-18.11429,1.45142-40.52271-2.235-48.79142-3.90009-8.27-1.66445-37.001-10.68271-72.55585-7.04863-35.17059,3.59492-51.39953,8.99868-83.89145,35.1732-32.4919,26.1752-56.90263,46.38328-56.90263,46.38328"/><path class="c" d="M14.24862,127.89155c33.91193-21.29225,36.71479-24.2918,53.50968-35.677s37.74143-26.18433,73.73477-32.25989c35.99266-6.07557,78.82355,2.3075,94.67087,3.75629,15.84667,1.44883,43.95815,3.32632,64.52179-7.78577,20.56359-11.11269,37.66433-20.92891,46.46629-29.30085-17.55752,12.83925-44.92991,28.58856-70.762,30.6595-18.11429,1.45142-40.52271-2.235-48.79142-3.90009-8.27-1.66445-37.001-10.68271-72.55585-7.04863-35.17059,3.59492-51.39953,8.99868-83.89145,35.1732C38.65935,107.68347,14.24862,127.89155,14.24862,127.89155Z"/><path class="a" d="M23.3446,64.50517C43.81606,54.38054,79.22189,46.86468,93.85893,44.95385c16.75046-2.18725,56.074.364,76.48667,6.652,20.4133,6.288,58.98665,11.53489,67.72127,11.5989,8.73531.06406,36.62-5.87952,43.423-10.77026,6.80357-4.89078,20.63024-15.49771,27.21228-21.6556-7.28324,6.29514-38.491,23.07826-62.79523,22.86651-24.41988-.2124-44.349-2.18856-85.03048-15.25461-18.59331-5.97229-47.44065-4.59211-72.8689-.31889C67.35962,41.54257,23.3446,64.50517,23.3446,64.50517"/><path class="c" d="M23.3446,64.50517C43.81606,54.38054,79.22189,46.86468,93.85893,44.95385c16.75046-2.18725,56.074.364,76.48667,6.652,20.4133,6.288,58.98665,11.53489,67.72127,11.5989,8.73531.06406,36.62-5.87952,43.423-10.77026,6.80357-4.89078,20.63024-15.49771,27.21228-21.6556-7.28324,6.29514-38.491,23.07826-62.79523,22.86651-24.41988-.2124-44.349-2.18856-85.03048-15.25461-18.59331-5.97229-47.44065-4.59211-72.8689-.31889C67.35962,41.54257,23.3446,64.50517,23.3446,64.50517Z"/><path class="a" d="M231.97811,61.066c8.268-2.578,33.88969-15.04416,39.73982-20.4218,5.25933-4.8339,7.58777-7.63935,13.52673-14.30112-6.1141,6.50426-23.61478,21.09033-46.62444,28.24155Z"/><path class="c" d="M231.97811,61.066c8.268-2.578,33.88969-15.04416,39.73982-20.4218,5.25933-4.8339,7.58777-7.63935,13.52673-14.30112-6.1141,6.50426-23.61478,21.09033-46.62444,28.24155Z"/><path class="a" d="M248.881,62.02811c-.09345,16.13094-5.57894,48.78883-9.91749,58.42072,7.17734-16.46683,11.68322-37.54735,12.18184-44.13982.49862-6.59313.47967-14.75858.47967-14.75858Z"/><path class="c" d="M248.881,62.02811c-.09345,16.13094-5.57894,48.78883-9.91749,58.42072,7.17734-16.46683,11.68322-37.54735,12.18184-44.13982.49862-6.59313.47967-14.75858.47967-14.75858Z"/><path class="a" d="M261.94909,64.0444c-3.34722,16.6178-16.49559,47.84125-22.97109,56.48769,10.81864-14.854,20.17673-38.71385,21.88758-43.52424a107.84382,107.84382,0,0,0,3.21388-13.481Z"/><path class="c" d="M261.94909,64.0444c-3.34722,16.6178-16.49559,47.84125-22.97109,56.48769,10.81864-14.854,20.17673-38.71385,21.88758-43.52424a107.84382,107.84382,0,0,0,3.21388-13.481Z"/><path class="a" d="M108.29162,182.71772c3.10934-4.21439,7.41391-12.57263,13.04185-12.35567,8.27587.31825,22.081,4.17,26.3,4.2523,7.64266.14966,22.53129-.12089,32.14357-3.34851,11.03627-3.706,21.54779-8.37849,29.58712-15.68263a180.77014,180.77014,0,0,0,14.28935-14.27436,137.216,137.216,0,0,0,8.08245-11.22512,118.43,118.43,0,0,1-17.7359,23.94023c-1.03516,1.06388.89529,7.31786,8.9771,20.4525-10.36251-12.31645-15.10559-14.688-15.76758-14.10639a36.63391,36.63391,0,0,1-3.46289,2.69763c-1.458,1.08547,2.62117,8.60984,10.51148,18.82728-9.69593-9.69267-16.887-14.575-17.8398-14.03518-4.27976,2.42122-11.05852,5.775-16.00482,7.07085-21.26218,5.57238-31.86519,4.18172-47.291,1.05148-4.72087-.95737-9.38095-2.16766-13.37644-1.83894-5.24365.432-11.45449,8.57453-11.45449,8.57453"/><path class="a" d="M108.27219,182.7438c1.75727-2.548,3.31519-5.10315,5.2293-7.48319a19.46938,19.46938,0,0,1,3.19886-3.23287A7.49926,7.49926,0,0,1,120.871,170.328a33.36213,33.36213,0,0,1,4.5405.33458c1.507.17971,3.00411.42739,4.5.67965,2.99042.513,5.96121,1.126,8.93332,1.72522,1.48539.3006,2.97211.59861,4.46208.87046a30.25274,30.25274,0,0,0,4.49019.581c3.03026.04639,6.06118.02417,9.08949-.09018a106.02435,106.02435,0,0,0,18.03586-2.00492c.74109-.15032,1.47495-.33461,2.20491-.52934.73583-.17514,1.45207-.41432,2.17548-.63389,1.43966-.462,2.86755-.97568,4.29085-1.48868,2.846-1.03774,5.66063-2.16112,8.4151-3.41648a68.82129,68.82129,0,0,0,15.46764-9.38553c1.15929-.96782,2.2781-1.98532,3.38838-3.0185,1.109-1.03188,2.21537-2.067,3.30474-3.11915q3.276-3.14856,6.39972-6.44872c1.03645-1.10244,2.06177-2.22057,3.05378-3.359.97111-1.14493,1.87031-2.36892,2.76691-3.58705,1.77622-2.45062,3.51714-4.93522,5.1587-7.474a.2227.2227,0,0,1,.38163.22936,125.41524,125.41524,0,0,1-7.06035,11.11273,113.81472,113.81472,0,0,1-8.23737,10.27364c-.73123.81949-1.48931,1.61478-2.24735,2.41009-.22285.22873-.30844.30846-.35092.55941a2.64584,2.64584,0,0,0-.0144.74629,9.10576,9.10576,0,0,0,.31434,1.56251,38.97026,38.97026,0,0,0,2.45848,6.037c1.92256,3.92294,4.13661,7.70473,6.42712,11.43294a.2845.2845,0,0,1-.46.332c-2.57741-3.04464-5.23584-6.0259-8.09226-8.79868a43.13624,43.13624,0,0,0-4.50847-3.8746c-.40062-.28688-.80774-.562-1.2273-.8051a4.83853,4.83853,0,0,0-1.27365-.55548.63484.63484,0,0,0-.23525-.01438c-.004.00327-.02353.002-.01113.00261.00459.00066.01308-.01763-.0209.015l-.14116.12351-.57117.49339c-.38295.32675-.78416.64566-1.192.943l-1.209.88354-.3.22218a.41185.41185,0,0,0-.13526.16077,1.31714,1.31714,0,0,0-.05619.577,9.71323,9.71323,0,0,0,.90115,2.72835,47.35478,47.35478,0,0,0,2.91134,5.18615c2.13236,3.36224,4.4843,6.58988,6.91728,9.7502a.32509.32509,0,0,1-.48753.428,132.31525,132.31525,0,0,0-10.765-9.73713c-.945-.75218-1.90693-1.48343-2.8924-2.17614a20.26913,20.26913,0,0,0-3.0525-1.84939,2.09864,2.09864,0,0,0-.71819-.21239c-.02613-.00393-.02876.00129-.02154.00065,0,0,.00522-.0072-.00459-.00458l-.04966.0281-.19867.11176-.3993.22219-1.60431.87111q-1.61253.85377-3.25509,1.652c-2.19051,1.06194-4.415,2.0559-6.69771,2.91853-1.14035.43131-2.29964.82143-3.48052,1.14884-1.18087.3163-2.36043.58946-3.54.88616a112.462,112.462,0,0,1-14.35929,2.546,74.9553,74.9553,0,0,1-14.57953.08952,131.35229,131.35229,0,0,1-14.39067-2.28919c-2.3833-.47052-4.747-1.02731-7.12639-1.475a27.863,27.863,0,0,0-7.20024-.59468,8.65517,8.65517,0,0,0-3.37139,1.17631,18.57373,18.57373,0,0,0-2.959,2.08268,41.18714,41.18714,0,0,0-5.0901,5.22341m.03923-.05229c.017-.0405.00523-.06731.02417-.0843l.07058-.08952.1405-.179.28688-.35356.58685-.69661q.595-.6901,1.21943-1.35406a32.39779,32.39779,0,0,1,2.63227-2.52054,18.59779,18.59779,0,0,1,2.96166-2.13041,8.84376,8.84376,0,0,1,3.43936-1.23641,28.06739,28.06739,0,0,1,7.27148.52476c2.39571.42348,4.75875.97764,7.13945,1.43182a131.23889,131.23889,0,0,0,14.36256,2.20883,74.52359,74.52359,0,0,0,14.492-.16469,111.85834,111.85834,0,0,0,14.27825-2.60811c1.1711-.30126,2.35521-.58162,3.5165-.89988,1.156-.32674,2.29769-.71687,3.42432-1.14948,2.25326-.86589,4.45881-1.86379,6.62974-2.93095,1.08611-.5326,2.16044-1.08871,3.2276-1.65661l1.59522-.86588.39535-.22089.198-.11044a.79852.79852,0,0,1,.35355-.10784,2.48343,2.48343,0,0,1,1.02208.266,20.74614,20.74614,0,0,1,3.16618,1.9141c1.00051.70316,1.97094,1.44161,2.92375,2.20031a132.728,132.728,0,0,1,10.81932,9.78745l-.48753.428c-2.4408-3.17274-4.80123-6.41213-6.95-9.80051a47.95891,47.95891,0,0,1-2.95183-5.262,10.07654,10.07654,0,0,1-.95412-2.94464,1.9078,1.9078,0,0,1,.11372-.89595,1.13322,1.13322,0,0,1,.14574-.23134,1.34351,1.34351,0,0,1,.19146-.17775l.30257-.22351,1.21291-.88091c.39994-.29081.78221-.59207,1.15993-.91293l.56527-.4849.13984-.12221a.7769.7769,0,0,1,.13334-.0928.55065.55065,0,0,1,.1627-.06208,1.17569,1.17569,0,0,1,.50584.00849,5.29682,5.29682,0,0,1,1.46578.6326c.44437.25878.86458.545,1.2756.841a43.68147,43.68147,0,0,1,4.56667,3.94452c2.87213,2.80351,5.53119,5.80306,8.10861,8.864l-.45941.33263c-2.2866-3.74455-4.49738-7.54266-6.42194-11.49763a39.57509,39.57509,0,0,1-2.47674-6.13177,9.47569,9.47569,0,0,1-.32807-1.656,3.10871,3.10871,0,0,1,.02485-.89072,1.31867,1.31867,0,0,1,.183-.47313,3.06071,3.06071,0,0,1,.30258-.34113c.75545-.78943,1.51089-1.57949,2.24149-2.39312a113.49052,113.49052,0,0,0,8.2236-10.21153,125.11984,125.11984,0,0,0,7.05777-11.05587l.38167.22936c-1.65727,2.55-3.40278,5.03063-5.19072,7.48517-.90315,1.22138-1.80239,2.44212-2.795,3.608-1.0031,1.14493-2.03041,2.26046-3.0734,3.36485q-3.12991,3.30833-6.4278,6.44872c-1.09265,1.05214-2.2036,2.08661-3.31651,3.11717-1.11159,1.03059-2.23822,2.05068-3.40928,3.0244a69.23226,69.23226,0,0,1-15.567,9.40187c-2.7676,1.25145-5.59267,2.36893-8.44713,3.40144-1.42984.50973-2.85774,1.01882-4.30589,1.47953-.72864.21957-1.45142.45811-2.19247.63194-.73518.19343-1.473.37706-2.218.5254a106.32592,106.32592,0,0,1-18.08617,1.9592c-3.03288.10585-6.06707.11894-9.1006.06338a30.33765,30.33765,0,0,1-4.52024-.596c-1.492-.27709-2.978-.57964-4.46274-.88483-2.9708-.60709-5.93834-1.22924-8.92417-1.75008-1.49324-.25617-2.98844-.50775-4.49148-.69139a33.35183,33.35183,0,0,0-4.51894-.347,7.39774,7.39774,0,0,0-4.11246,1.66512,19.345,19.345,0,0,0-3.19039,3.208c-.95539,1.175-1.82978,2.414-2.68129,3.66743l-1.2704,1.886-.643.93842c-.20978.313-.432.57443-.66722.88091"/><path class="a" d="M146.69734,47.00273c-.41693.06342-.83323.12875-1.2508.20194A56.715,56.715,0,0,0,99.29719,112.806c.07256.41759.15161.83191.2333,1.24557a59.24877,59.24877,0,0,1,47.16685-67.04885"/><path class="c" d="M146.69734,47.00273c-.41693.06342-.83323.12875-1.2508.20194A56.715,56.715,0,0,0,99.29719,112.806c.07256.41759.15161.83191.2333,1.24557A59.24877,59.24877,0,0,1,146.69734,47.00273Z"/><path class="a" d="M147.94377,46.76943c-.41759.07256-.83191.15229-1.24623.23334a56.71446,56.71446,0,1,1-47.16683,67.04881c.064.41693.12873.83452.20192,1.25211a59.25044,59.25044,0,0,0,68.53426,48.21177c32.23832-5.61158,54.28732-41.8565,48.67507-74.0955-5.61157-32.23832-36.75923-48.26209-68.99819-42.65053"/><path class="c" d="M147.94377,46.76943c-.41759.07256-.83191.15229-1.24623.23334a56.71446,56.71446,0,1,1-47.16683,67.04881c.064.41693.12873.83452.20192,1.25211a59.25044,59.25044,0,0,0,68.53426,48.21177c32.23832-5.61158,54.28732-41.8565,48.67507-74.0955C211.33039,57.18164,180.18273,41.15787,147.94377,46.76943Z"/><path class="a" d="M153.19024,70.31138c-.27121.0412-.54242.08368-.81426.13138a36.91945,36.91945,0,0,0-30.04065,42.70278c.04707.27185.09934.54174.15227.811a38.56693,38.56693,0,0,1,30.70264-43.64515"/><path class="c" d="M153.19024,70.31138c-.27121.0412-.54242.08368-.81426.13138a36.91945,36.91945,0,0,0-30.04065,42.70278c.04707.27185.09934.54174.15227.811A38.56693,38.56693,0,0,1,153.19024,70.31138Z"/><path class="a" d="M152.47035,70.42617c-.26076.04511-.5202.09545-.77832.14575a35.43,35.43,0,1,1-29.46555,41.88592c.03921.26074.08037.52084.12547.78223a37.01449,37.01449,0,1,0,30.1184-42.8139"/><path class="c" d="M165.33861,103.04172a9.12071,9.12071,0,1,1-10.55007-7.42111A9.12121,9.12121,0,0,1,165.33861,103.04172Z"/><path class="a" d="M97.57079,175.60838a28.25994,28.25994,0,0,1,4.66662-5.16654c1.07695-1.06063,3.738-2.24476,1.64747-3.59621-2.64471-1.71018-6.31409,8.76275-6.31409,8.76275"/><path class="a" d="M97.74085,175.19661a.93474.93474,0,0,0-.00263-.19865.19892.19892,0,0,1,.03464-.18168l.44764-.56593c.31107-.38361.62017-.76721.94692-1.141a20.89472,20.89472,0,0,1,2.1121-2.08988c.37316-.32741.6901-.662,1.09331-1.00051.3921-.31825.796-.594,1.17172-.894a2.65835,2.65835,0,0,0,.89006-1.009c.17057-.38165-.1405-.76655-.50777-1.03579a1.14539,1.14539,0,0,0-.58031-.26532,1.26676,1.26676,0,0,0-.63258.13528,3.58851,3.58851,0,0,0-1.0848.89594,14.3947,14.3947,0,0,0-1.62852,2.416,40.82863,40.82863,0,0,0-2.25978,4.93455m-.25617.65807.08625-.24636a41.80988,41.80988,0,0,1,2.28593-5.42338,14.543,14.543,0,0,1,1.5867-2.49832,3.82108,3.82108,0,0,1,1.14427-.99265,1.54952,1.54952,0,0,1,.78355-.1843,1.45325,1.45325,0,0,1,.74891.30715,1.8302,1.8302,0,0,1,.56331.56724.96737.96737,0,0,1,.10063.84561,2.96149,2.96149,0,0,1-.98024,1.21095c-.38229.32216-.78028.61165-1.141.92207-.34179.30062-.694.68553-1.04951,1.01489a20.40981,20.40981,0,0,0-2.00885,2.101c-.3091.37316-.60514.76133-.90052,1.14819l-.449.59991a1.919,1.919,0,0,1-.40778.40518c-.132.09409-.25682.16011-.36268.22283"/><path class="a" d="M101.99211,180.40746a39.47876,39.47876,0,0,1,6.516-7.21394c1.5037-1.4815,5.21949-3.13419,2.301-5.02149-3.69291-2.38787-8.817,12.23543-8.817,12.23543"/><path class="a" d="M102.19278,179.91624c.02024-.08757.04509-.1673.05423-.23527a.56765.56765,0,0,1,.12287-.298l.62539-.79727c.43-.53585.86-1.073,1.31352-1.59387a29.06668,29.06668,0,0,1,2.92768-2.92114c.51756-.45744.96782-.9345,1.51873-1.39913.54044-.44308,1.10375-.83125,1.62981-1.25473a3.75726,3.75726,0,0,0,1.26-1.44879c.24963-.577-.22089-1.14755-.73845-1.52068a1.64984,1.64984,0,0,0-.845-.37838,1.81664,1.81664,0,0,0-.91359.19865,5.07593,5.07593,0,0,0-1.52657,1.26976,20.19435,20.19435,0,0,0-2.26566,3.39034,57.086,57.086,0,0,0-3.16293,6.9885m-.28427.728.08364-.23657a58.27705,58.27705,0,0,1,3.22044-7.55768,20.31947,20.31947,0,0,1,2.22319-3.472,5.32164,5.32164,0,0,1,1.586-1.36713,2.12037,2.12037,0,0,1,1.0652-.247,1.96268,1.96268,0,0,1,1.01228.42086,2.3855,2.3855,0,0,1,.41561.34047,1.68984,1.68984,0,0,1,.34831.4326,1.242,1.242,0,0,1,.132,1.124,4.06576,4.06576,0,0,1-1.35145,1.65074c-.53194.44568-1.09.84694-1.5991,1.28216-.48881.42738-.9737.95476-1.47364,1.41483a28.38957,28.38957,0,0,0-2.82573,2.93158c-.43456.52084-.85085,1.06194-1.26712,1.60108l-.6267.83125a2.967,2.967,0,0,1-.49535.52148c-.16207.13-.315.232-.44764.32936"/><path class="a" d="M114.11181,142.20949c-1.99972-6.28076-8.336-14.98992,1.61544-23.092,9.9508-8.10141,19.88528-8.387,23.89709-12.04525,4.01117-3.65764,12.90135-11.91849,12.67523-20.14211-.22675-8.22361-3.55893-9.36527.79793-14.59912,4.35622-5.23388,16.50081-2.11014,24.26435-1.81933,7.76355.29013,10.75526-8.236,14.27894-6.78331a14.834,14.834,0,0,0,6.72711,1.06652s-22.57706-18.939-32.139-18.49269c-9.56262.447-37.98715-.87244-53.80309,21.10927-15.81595,21.98235-14.16392,41.48663-12.35894,50.00367,1.805,8.51637,14.045,24.79434,14.045,24.79434"/><path class="c" d="M114.11181,142.20949c-1.99972-6.28076-8.336-14.98992,1.61544-23.092,9.9508-8.10141,19.88528-8.387,23.89709-12.04525,4.01117-3.65764,12.90135-11.91849,12.67523-20.14211-.22675-8.22361-3.55893-9.36527.79793-14.59912,4.35622-5.23388,16.50081-2.11014,24.26435-1.81933,7.76355.29013,10.75526-8.236,14.27894-6.78331a14.834,14.834,0,0,0,6.72711,1.06652s-22.57706-18.939-32.139-18.49269c-9.56262.447-37.98715-.87244-53.80309,21.10927-15.81595,21.98235-14.16392,41.48663-12.35894,50.00367C101.87179,125.93152,114.11181,142.20949,114.11181,142.20949Z"/><path class="a" d="M31.27974,36.88405c11.72832-5.96967,68.299-25.14721,121.53682-21.15631,53.23715,3.99155,72.365,9.50121,83.12094,12.04787C246.69277,30.323,317.67239,51.608,322.99842,53.99392S231.76819,23.18481,195.54418,18.196c46.19247,8.65493,75.39792,14.01167,105.01706,19.58012-36.2711-8.21316-94.36114-22.27057-128.76386-23.59,0,0-45.45924-3.47007-76.46116,2.76233C47.66291,26.532,31.27974,36.88405,31.27974,36.88405"/><path class="c" d="M31.27974,36.88405c11.72832-5.96967,68.299-25.14721,121.53682-21.15631,53.23715,3.99155,72.365,9.50121,83.12094,12.04787C246.69277,30.323,317.67239,51.608,322.99842,53.99392S231.76819,23.18481,195.54418,18.196c46.19247,8.65493,75.39792,14.01167,105.01706,19.58012-36.2711-8.21316-94.36114-22.27057-128.76386-23.59,0,0-45.45924-3.47007-76.46116,2.76233C47.66291,26.532,31.27974,36.88405,31.27974,36.88405Z"/><path class="a" d="M189.92328,98.76245a34.075,34.075,0,1,0-27.72661,39.41437A34.0748,34.0748,0,0,0,189.92328,98.76245Zm-32.00581,14.82934a9.12077,9.12077,0,1,1,7.42117-10.55006A9.12116,9.12116,0,0,1,157.91747,113.59179Z"/><path class="a" d="M775.69811,181.36262a15.612,15.612,0,0,0,15.08008-11.57275s37.1897-127.01538,37.1897-129.679c0-12.48388-9.18359-25.12158-26.73535-25.12158H768.962a32.84057,32.84057,0,0,0-12.29816,2.313,29.87471,29.87471,0,0,0-11.904-2.313h-41.3457a19.46568,19.46568,0,0,0-6.54962,1.13824,31.509,31.509,0,0,0-8.57734-1.13824h-32.2705a32.84053,32.84053,0,0,0-12.29816,2.313,29.87471,29.87471,0,0,0-11.904-2.313h-41.3457a19.46574,19.46574,0,0,0-6.54963,1.13824,31.509,31.509,0,0,0-8.57733-1.13824h-41.3457a19.46854,19.46854,0,0,0-6.53845,1.13373,31.4234,31.4234,0,0,0-8.54749-1.13373H477.52306a19.46193,19.46193,0,0,0-11.08667,3.473,19.50637,19.50637,0,0,0-11.09936-3.473H421.04992a19.49377,19.49377,0,0,0-4.50226.53589,19.5002,19.5002,0,0,0-4.53338-.53589H393.90246a19.47279,19.47279,0,0,0-7.08106,1.32861,19.4972,19.4972,0,0,0-7.07714-1.32861H361.59191a19.5146,19.5146,0,0,0-18.85107,14.46973L336.00451,54.63a19.51707,19.51707,0,0,0-.15527,9.47021L343.5133,97.0157a19.57022,19.57022,0,0,0,.55591,1.90161,19.49754,19.49754,0,0,0-1.32886,3.51636l-7.98682,29.85009A19.51515,19.51515,0,0,0,344.878,154.7823l-1.53467,5.74512a19.515,19.515,0,0,0,18.85351,24.55127h213.186c13.7998,0,24.63183-8.29493,28.26855-21.64747.00977-.03564,8.60254-32.311,8.60254-32.311a29.93571,29.93571,0,0,0,1.07813-7.78955,24.53453,24.53453,0,0,0-2.71656-11.22559H656.074L642.288,161.7093a15.61153,15.61153,0,0,0,15.0791,19.65332Z"/><path class="d" d="M356.665,92.59033a5.85436,5.85436,0,0,1-5.70166-4.52685L343.29932,55.148a5.85318,5.85318,0,0,1,.04638-2.84131l6.73633-25.1709a5.85437,5.85437,0,0,1,5.65527-4.34082h18.15235a5.85418,5.85418,0,0,1,5.65674,7.36279l-1.26368,4.73877h2.01465l2.09864-7.77294a5.85427,5.85427,0,0,1,5.65185-4.32862h18.11182a5.85459,5.85459,0,0,1,5.65722,7.36182l-6.6958,25.13037a5.85888,5.85888,0,0,1-.87255,1.86621L381.01367,90.10938a5.85412,5.85412,0,0,1-4.78467,2.48095Z"/><path class="d" d="M408.74121,92.59033c-9.61035,0-13.03467-5.8999-13.03467-11.4209a18.85942,18.85942,0,0,1,.67432-4.78564l13.15869-49.24561a5.85376,5.85376,0,0,1,5.65576-4.34326h34.28711a5.85418,5.85418,0,0,1,5.65674,7.36279l-6.6416,24.90772h8.48779a5.85427,5.85427,0,0,1,5.65576,7.36621l-5.60693,20.97559a11.82785,11.82785,0,0,1-11.98877,9.1831Z"/><path class="d" d="M456.13867,92.59033a5.85445,5.85445,0,0,1-5.65576-7.3667L466.0127,27.13721a5.85428,5.85428,0,0,1,5.65576-4.34229h41.3872c9.61036,0,13.03418,5.9209,13.03418,11.46143a18.65,18.65,0,0,1-.68261,4.77783l-10.8125,40.3042c-2.28125,8.543-8.3584,13.25195-17.11035,13.25195Zm35.05371-44.37158a5.36274,5.36274,0,0,0-3.46582,1.41846,6.50812,6.50812,0,0,0-2.417,3.5205,4.28525,4.28525,0,0,0-.16309,1.06592.68139.68139,0,0,0,.13379.499q.03076.04174.06153.085c.09472.13232.18457.25781.88867.25781a5.6814,5.6814,0,0,0,3.5-1.4292,6.47,6.47,0,0,0,2.42285-3.51172,4.25859,4.25859,0,0,0,.16309-1.064.85068.85068,0,0,0-.17188-.59131C492.07129,48.37061,491.958,48.21875,491.19238,48.21875Z"/><path class="d" d="M512.61133,92.59033a5.85431,5.85431,0,0,1-5.65528-7.3667l15.53028-58.08642a5.85328,5.85328,0,0,1,5.65527-4.34229h41.3457c9.64063,0,13.0752,5.9209,13.0752,11.46143a18.64958,18.64958,0,0,1-.68262,4.77783l-3.2705,12.1167a19.43184,19.43184,0,0,1-3.99219,7.87207,12.58266,12.58266,0,0,1,.40234,3.228,19.48073,19.48073,0,0,1-.71973,5.00683l-3.23046,12.1128c-2.28711,8.52783-8.36329,13.21972-17.11231,13.21972Zm28.19629-26.21972a5.68134,5.68134,0,0,0-3.5,1.42919,6.47367,6.47367,0,0,0-2.42285,3.51026,4.28223,4.28223,0,0,0-.16309,1.06543.67612.67612,0,0,0,.13086.49512c.15039.20605.25391.34668.99316.34668a5.59237,5.59237,0,0,0,3.46485-1.41749,6.50977,6.50977,0,0,0,2.418-3.52343,4.27644,4.27644,0,0,0,.16211-1.064,1.03454,1.03454,0,0,0-.14258-.60351C541.64258,66.4834,541.46777,66.37061,540.80762,66.37061ZM551.33594,42.168a5.68132,5.68132,0,0,0-3.5,1.4292,6.464,6.464,0,0,0-2.42188,3.5083,4.2737,4.2737,0,0,0-.16406,1.06738.67435.67435,0,0,0,.13184.4961c.02148.02929.043.0581.06347.08789.09473.13232.18457.25781.88867.25781a5.67429,5.67429,0,0,0,3.49805-1.42871,6.45823,6.45823,0,0,0,2.42285-3.51026,4.24985,4.24985,0,0,0,.16407-1.06591,1.03455,1.03455,0,0,0-.14258-.60352C552.1709,42.28076,551.99609,42.168,551.33594,42.168Z"/><path class="d" d="M569.084,92.59033a5.8544,5.8544,0,0,1-5.65429-7.37012l7.78515-29.043a18.00874,18.00874,0,0,1,5.76172-9.50782,5.848,5.848,0,0,1-1.68847-5.81884L578.959,27.13574a5.85481,5.85481,0,0,1,5.65528-4.34082H625.96c9.64063,0,13.0752,5.9209,13.0752,11.46143a18.65,18.65,0,0,1-.68262,4.77783l-4.36035,16.15039a18.00217,18.00217,0,0,1-5.75879,9.49756,5.86093,5.86093,0,0,1,1.68652,5.82178l-4.75976,17.74853a5.85356,5.85356,0,0,1-5.6543,4.33789Z"/><path class="d" d="M634.63281,92.59033c-9.61035,0-13.03515-5.8999-13.03515-11.4209a18.83957,18.83957,0,0,1,.6748-4.78808l10.81934-40.373c2.24414-8.51269,8.30859-13.21338,17.07031-13.21338h32.27051c9.64062,0,13.07519,5.9209,13.07519,11.46143a18.65294,18.65294,0,0,1-.68261,4.77783L684.05566,79.37207c-2.3291,8.53467-8.418,13.21826-17.15332,13.21826ZM662.627,48.21875a5.36274,5.36274,0,0,0-3.46582,1.41846,6.50812,6.50812,0,0,0-2.417,3.5205,4.3061,4.3061,0,0,0-.16211,1.06592.67435.67435,0,0,0,.13184.4961l.06445.08935c.09473.13184.18359.25635.88672.25635a5.6767,5.6767,0,0,0,3.499-1.42871,6.45823,6.45823,0,0,0,2.42285-3.51026,4.24985,4.24985,0,0,0,.16407-1.06591.85068.85068,0,0,0-.17188-.59131C663.50488,48.36963,663.39258,48.21875,662.627,48.21875Z"/><path class="d" d="M682.0293,92.59033a5.85441,5.85441,0,0,1-5.6543-7.37012l7.78516-29.043a18.00868,18.00868,0,0,1,5.76172-9.50782,5.84789,5.84789,0,0,1-1.68848-5.81884l3.6709-13.71485a5.85479,5.85479,0,0,1,5.65527-4.34082h41.3457c9.64063,0,13.0752,5.9209,13.0752,11.46143a18.64958,18.64958,0,0,1-.68262,4.77783L746.9375,55.18457a18.002,18.002,0,0,1-5.75879,9.49756,5.86093,5.86093,0,0,1,1.68652,5.82178l-4.75976,17.74853a5.85356,5.85356,0,0,1-5.6543,4.33789Z"/><path class="d" d="M747.57813,92.59033c-9.61036,0-13.03516-5.8999-13.03516-11.4209a18.83957,18.83957,0,0,1,.6748-4.78808l10.81934-40.373c2.24414-8.51269,8.30859-13.21338,17.07031-13.21338h32.27051c9.64062,0,13.0752,5.9209,13.0752,11.46143a18.653,18.653,0,0,1-.68262,4.77783L797.001,79.37207c-2.3291,8.53467-8.418,13.21826-17.15332,13.21826Zm27.99414-44.37158a5.36273,5.36273,0,0,0-3.46582,1.41846,6.50814,6.50814,0,0,0-2.417,3.5205,4.3061,4.3061,0,0,0-.16211,1.06592.67435.67435,0,0,0,.13184.4961l.06445.08935c.09473.13184.1836.25635.88672.25635a5.67675,5.67675,0,0,0,3.499-1.42871,6.45834,6.45834,0,0,0,2.42285-3.51026,4.25017,4.25017,0,0,0,.16406-1.06591.85068.85068,0,0,0-.17188-.59131C776.4502,48.36963,776.33789,48.21875,775.57227,48.21875Z"/><path class="d" d="M356.34229,165.564a5.85532,5.85532,0,0,1-5.65625-7.36572l5.57617-20.8706h-8.51172a5.854,5.854,0,0,1-5.65528-7.36768l7.98682-29.8501a5.85426,5.85426,0,0,1,5.65527-4.34131h50.42237a5.854,5.854,0,0,1,5.65527,7.36768l-7.98681,29.8501a5.85426,5.85426,0,0,1-5.65528,4.34131H386.5332l-6.38232,23.89257a5.85518,5.85518,0,0,1-5.65625,4.34375Z"/><path class="d" d="M404.14307,165.564c-8.69776,0-11.78418-5.60937-11.78418-10.41259a16.30807,16.30807,0,0,1,.60644-4.23047l8.62793-32.25488c1.96631-7.37256,7.4541-11.603,15.05469-11.603h25.81592c8.69775,0,11.78418,5.60937,11.78418,10.41308a16.3274,16.3274,0,0,1-.606,4.22852l-8.58643,32.25049c-2.01123,7.38916-7.51074,11.60888-15.09668,11.60888Zm21.79736-35.40283a4.118,4.118,0,0,0-1.27588.73389,4.03555,4.03555,0,0,0-1.40967,1.88965,4.22627,4.22627,0,0,0,1.30567-.7461A3.7835,3.7835,0,0,0,425.94043,130.16113Z"/><path class="d" d="M477.7998,165.564a5.85448,5.85448,0,0,1-5.16357-3.09521l-1.64307-3.07568-.48339,1.81933a5.8549,5.8549,0,0,1-5.65821,4.35156h-21.3789a5.85412,5.85412,0,0,1-5.65577-7.36572l12.5044-46.792a5.85375,5.85375,0,0,1,5.65576-4.34326h21.3794a5.85521,5.85521,0,0,1,3.832,1.42822,5.84985,5.84985,0,0,1,3.832-1.42822h11.69824a5.85463,5.85463,0,0,1,5.65527,7.36767l-7.9873,29.8501a11.16629,11.16629,0,0,1-4.292,6.38916l3.35644,6.28028a5.85423,5.85423,0,0,1-5.16308,8.61376Z"/><path class="d" d="M499.13867,165.564a5.85356,5.85356,0,0,1-5.65625-7.36279l3.41992-12.82568a9.85873,9.85873,0,0,1-6.60254-9.58643,16.30782,16.30782,0,0,1,.60645-4.23242l5.40137-20.15478a5.85587,5.85587,0,0,1,5.65527-4.33887H516.8877a5.8563,5.8563,0,0,1,5.46582,3.75683,5.85487,5.85487,0,0,1,5.46582-3.75683H542.7041a5.85517,5.85517,0,0,1,5.65528,7.37012l-5.40528,20.16894c-1.75976,6.59766-6.34277,10.6792-12.73828,11.46191l-4.042,15.1543a5.85326,5.85326,0,0,1-5.65625,4.3457Z"/><path class="d" d="M543.71191,165.564c-8.69824,0-11.78418-5.60937-11.78418-10.41259a16.29958,16.29958,0,0,1,.6084-4.2334l8.627-32.25195c1.96582-7.37256,7.45312-11.603,15.05371-11.603h25.8164c8.69825,0,11.78418,5.60937,11.78418,10.41308a16.34682,16.34682,0,0,1-.60547,4.22852L584.625,153.95508c-2.0127,7.38916-7.51172,11.60888-15.09668,11.60888Zm21.79786-35.40283a4.11138,4.11138,0,0,0-1.27539.73389,4.02834,4.02834,0,0,0-1.41016,1.88965,4.23294,4.23294,0,0,0,1.30664-.74658A3.787,3.787,0,0,0,565.50977,130.16113Z"/><path class="e" d="M406.15967,28.64941l-6.6958,25.13038L376.229,86.73584H356.665L349.001,53.82031l6.73632-25.1709h18.15235L370.6626,40.751h14.11816l3.26709-12.10157Z"/><path class="e" d="M408.74121,86.73584q-7.17993,0-7.18017-5.56641a13.27076,13.27076,0,0,1,.48437-3.30761l13.1499-49.21241h34.28711l-7.74463,29.04346a4.87824,4.87824,0,0,0-.20166,1.29053q0,1.93652,2.33936,1.93652h13.10986l-5.60693,20.97559a5.95326,5.95326,0,0,1-6.333,4.84033Z"/><path class="e" d="M508.94043,77.82129q-2.38036,8.915-11.45605,8.91455H456.13867l15.52979-58.08643h41.3872q7.17921,0,7.17969,5.60694a12.79607,12.79607,0,0,1-.48437,3.26758Zm-15.58984-19.584a12.31664,12.31664,0,0,0,4.457-6.59521,10.10134,10.10134,0,0,0,.36328-2.58154,6.59438,6.59438,0,0,0-6.97852-6.69629,11.28743,11.28743,0,0,0-7.09961,2.68262,12.34957,12.34957,0,0,0-4.4375,6.59521,10.10427,10.10427,0,0,0-.36328,2.58154,6.64544,6.64544,0,0,0,6.93848,6.69629A11.37029,11.37029,0,0,0,493.35059,58.2373Z"/><path class="e" d="M553.957,86.73584h-41.3457L528.1416,28.64941h41.3457q7.22022,0,7.22071,5.60694a12.79568,12.79568,0,0,1-.48438,3.26758L572.957,49.625q-1.77686,6.57568-6.61621,8.06787Q569.165,58.7417,569.165,62.251a13.91625,13.91625,0,0,1-.52441,3.50927l-3.22754,12.10157Q563.03271,86.73584,553.957,86.73584ZM542.94531,76.38916a12.35141,12.35141,0,0,0,4.4375-6.59521,10.13819,10.13819,0,0,0,.36231-2.58155,6.83737,6.83737,0,0,0-1.25-4.03369,6.65438,6.65438,0,0,0-5.6875-2.6626,11.369,11.369,0,0,0-7.12012,2.68262,12.31307,12.31307,0,0,0-4.457,6.59522,10.10383,10.10383,0,0,0-.36328,2.58154,6.50464,6.50464,0,0,0,1.291,3.99365,6.61522,6.61522,0,0,0,5.6875,2.70264A11.28389,11.28389,0,0,0,542.94531,76.38916Zm10.50782-24.20264a12.30586,12.30586,0,0,0,4.457-6.59521,10.10134,10.10134,0,0,0,.36328-2.58154,6.83742,6.83742,0,0,0-1.25-4.0337,6.65438,6.65438,0,0,0-5.6875-2.66259,11.36909,11.36909,0,0,0-7.12012,2.68261,12.30592,12.30592,0,0,0-4.457,6.59522,10.10383,10.10383,0,0,0-.36328,2.58154,6.64543,6.64543,0,0,0,6.93847,6.69629A11.36573,11.36573,0,0,0,553.45313,52.18652Z"/><path class="f" d="M612.36621,45.59131a4.77043,4.77043,0,0,0,.20215-1.25049q0-1.97607-2.37988-1.97656H580.94336l3.6709-13.71485H625.96q7.22022,0,7.2207,5.60694a12.79607,12.79607,0,0,1-.48437,3.26758l-4.35645,16.13476q-2.38036,8.87477-11.45605,8.87451h-4.0332q-3.02637,0-3.87305,3.227l-.84668,3.22705h16.13477l-4.75977,17.74854H569.084l7.78516-29.043q2.37891-8.874,11.45606-8.87451h20.16894Q611.519,48.81836,612.36621,45.59131Z"/><path class="f" d="M634.63281,86.73584q-7.18066,0-7.18066-5.56641a13.248,13.248,0,0,1,.48437-3.30761l10.81055-40.33789q2.33935-8.874,11.415-8.87452h32.27051q7.2202,0,7.2207,5.60694a12.79607,12.79607,0,0,1-.48437,3.26758L678.39941,77.86182q-2.42137,8.874-11.49707,8.874ZM664.78516,58.2373a12.30586,12.30586,0,0,0,4.457-6.59521,10.1009,10.1009,0,0,0,.36328-2.58154,6.59438,6.59438,0,0,0-6.97852-6.69629,11.28743,11.28743,0,0,0-7.09961,2.68262,12.34957,12.34957,0,0,0-4.4375,6.59521,10.14392,10.14392,0,0,0-.3623,2.58154,6.64536,6.64536,0,0,0,6.9375,6.69629A11.36622,11.36622,0,0,0,664.78516,58.2373Z"/><path class="f" d="M725.31152,45.59131a4.77043,4.77043,0,0,0,.20215-1.25049q0-1.97607-2.37988-1.97656H693.88867l3.6709-13.71485h41.3457q7.22022,0,7.22071,5.60694a12.79612,12.79612,0,0,1-.48438,3.26758l-4.35644,16.13476q-2.38038,8.87477-11.45606,8.87451h-4.0332q-3.02637,0-3.873,3.227l-.84668,3.22705h16.13477l-4.75977,17.74854H682.0293l7.78515-29.043q2.37891-8.874,11.45606-8.87451h20.16894Q724.46435,48.81836,725.31152,45.59131Z"/><path class="f" d="M747.57813,86.73584q-7.18066,0-7.18067-5.56641a13.2476,13.2476,0,0,1,.48438-3.30761l10.81054-40.33789q2.33936-8.874,11.415-8.87452h32.27051q7.22022,0,7.2207,5.60694a12.79607,12.79607,0,0,1-.48437,3.26758L791.34473,77.86182q-2.42139,8.874-11.49707,8.874ZM777.73047,58.2373a12.30586,12.30586,0,0,0,4.457-6.59521,10.1009,10.1009,0,0,0,.36328-2.58154,6.59436,6.59436,0,0,0-6.97851-6.69629,11.28743,11.28743,0,0,0-7.09961,2.68262,12.34957,12.34957,0,0,0-4.4375,6.59521,10.144,10.144,0,0,0-.36231,2.58154,6.64538,6.64538,0,0,0,6.9375,6.69629A11.36622,11.36622,0,0,0,777.73047,58.2373Z"/><path class="f" d="M356.34229,159.70947l7.54345-28.23633H347.75049l7.98681-29.85009h50.42237l-7.98682,29.85009H382.0376l-7.543,28.23633Z"/><path class="f" d="M404.14307,159.70947q-5.9297,0-5.92969-4.5581a10.45063,10.45063,0,0,1,.40332-2.70264l8.63232-32.27q1.93653-7.26123,9.39893-7.26123h25.81592q5.92968,0,5.92968,4.55859a10.46836,10.46836,0,0,1-.40332,2.70264l-8.59179,32.27q-1.9768,7.26123-9.43946,7.26074Zm24.0415-23.07324a9.55864,9.55864,0,0,0,3.46875-5.16309,8.22243,8.22243,0,0,0,.28223-2.05712,5.097,5.097,0,0,0-5.40528-5.20362,8.75064,8.75064,0,0,0-5.50586,2.09766,9.82007,9.82007,0,0,0-3.48925,5.16308,7.74477,7.74477,0,0,0-.28223,2.01661,5.16918,5.16918,0,0,0,1.0083,3.14648,5.11357,5.11357,0,0,0,4.397,2.09766A8.8284,8.8284,0,0,0,428.18457,136.63623Z"/><path class="f" d="M485.02051,112.91748h11.69824l-7.9873,29.8501a5.0003,5.0003,0,0,1-5.32422,4.03369h-2.01758l6.89844,12.9082H477.7998l-6.89746-12.9082h-2.62207l-3.42871,12.9082h-21.3789l12.50439-46.792h21.3794l-6.45411,24.20313h5.44532a2.80961,2.80961,0,0,0,2.86425-2.42041Z"/><path class="f" d="M504.30176,140.34766H502.084q-5.92968,0-5.92968-4.5586a10.43241,10.43241,0,0,1,.40332-2.70263l5.40527-20.169H516.8877l-3.42872,12.9082h10.89063l3.46973-12.9082H542.7041l-5.40527,20.169q-1.93653,7.26123-9.39942,7.26123h-2.21777l-5.16406,19.36181H499.13867Z"/><path class="f" d="M543.71191,159.70947q-5.92968,0-5.92968-4.5581a10.43408,10.43408,0,0,1,.40429-2.70264l8.63184-32.27q1.93653-7.26123,9.39844-7.26123h25.8164q5.92969,0,5.92969,4.55859a10.46836,10.46836,0,0,1-.40332,2.70264l-8.5918,32.27q-1.97754,7.26123-9.43945,7.26074Zm24.042-23.07324a9.55864,9.55864,0,0,0,3.46875-5.16309,8.24507,8.24507,0,0,0,.28222-2.05712,5.097,5.097,0,0,0-5.40527-5.20362,8.75161,8.75161,0,0,0-5.50586,2.09766,9.81728,9.81728,0,0,0-3.48926,5.16308,7.74516,7.74516,0,0,0-.28222,2.01661,5.16642,5.16642,0,0,0,1.00878,3.14648,5.1121,5.1121,0,0,0,4.39649,2.09766A8.82942,8.82942,0,0,0,567.75391,136.63623Z"/><path class="d" d="M674.84277,136.7749a2.92758,2.92758,0,0,1-2.83105-3.67236l.35254-1.33838h-.63379l-.75781,2.83789a2.92707,2.92707,0,0,1-2.82813,2.17285h-6.68066a2.92658,2.92658,0,0,1-2.82715-3.68457l6.26367-23.38281a2.92666,2.92666,0,0,1,2.82715-2.16992h16.70215c4.1084,0,5.56543,2.70166,5.56543,5.01513a7.83689,7.83689,0,0,1-.27832,1.9917l-5.38282,20.062a2.92677,2.92677,0,0,1-2.82714,2.16845Zm-.92675-15.89453a1.62789,1.62789,0,0,0,.25878.019,2.27178,2.27178,0,0,0,1.46875-.59033,2.64741,2.64741,0,0,0,.99805-1.41845,1.4371,1.4371,0,0,0,.06738-.37549s-.01855-.06983-.02343-.09131a1.71658,1.71658,0,0,0-.27344-.021,2.26533,2.26533,0,0,0-1.4668.58887,2.65678,2.65678,0,0,0-1.001,1.41992,1.45626,1.45626,0,0,0-.06641.375C673.88574,120.79639,673.90625,120.85889,673.916,120.88037Z"/><path class="d" d="M687.69043,136.7749c-3.47559,0-5.03125-2.30078-5.03125-4.58056a6.84685,6.84685,0,0,1,.24805-1.77l4.293-16.03955a2.92768,2.92768,0,0,1,2.82812-2.17041h5.34473a2.92748,2.92748,0,0,0,5.36133,0h5.32812a2.92642,2.92642,0,0,1,2.82715,3.68408l-4.293,16.03369a6.10879,6.10879,0,0,1-6.2168,4.84277Z"/><path class="d" d="M706.81836,136.7749a2.89117,2.89117,0,0,1-.44531-.03418,4.93689,4.93689,0,0,1-2.834-1.50781,4.70287,4.70287,0,0,1-1.334-3.17041,2.96134,2.96134,0,0,1,.0957-.8125l3.72461-14.17969a6.11543,6.11543,0,0,1,6.22168-4.856H725.625a2.92643,2.92643,0,0,1,2.82617,3.68945l-2.33789,8.668a2.92507,2.92507,0,0,1-1.50488,1.8501,4.76416,4.76416,0,0,1,.31933,1.73046,6.87972,6.87972,0,0,1-.24609,1.76368l-1.25684,4.689a2.92666,2.92666,0,0,1-2.82714,2.16992Z"/><path class="d" d="M731.49609,136.7749a2.92491,2.92491,0,0,1-2.22461-1.022l-3.708-4.32568q-.07032-.08277-.13477-.17041a5.36366,5.36366,0,0,1-1.03711-3.20459,6.55182,6.55182,0,0,1,.20508-1.59717,7.3028,7.3028,0,0,1,2.6416-3.95313,7.06763,7.06763,0,0,1,4.43945-1.60254,5.82713,5.82713,0,0,1,2.43262.5083,6.72092,6.72092,0,0,1,2.57813-.5083,5.39,5.39,0,0,1,4.45507,2.15137,5.45035,5.45035,0,0,1,1.04395,3.21436,6.19509,6.19509,0,0,1-.24609,1.70507,7.21525,7.21525,0,0,1-2.61231,3.85547c-.03222.02588-6.1289,4.40039-6.1289,4.40039A2.91631,2.91631,0,0,1,731.49609,136.7749Z"/><path class="d" d="M742.459,136.7749a2.92714,2.92714,0,0,1-2.81738-3.72021l2.62207-9.31983a2.92594,2.92594,0,0,1,2.81738-2.13427h3.32129a2.93457,2.93457,0,0,1,.02539-1.36817l.835-3.20654a2.9434,2.9434,0,0,1,.25195-.644h-.52539a2.92644,2.92644,0,0,1-2.752-3.92334l1.26954-3.50733A2.92652,2.92652,0,0,1,750.251,107.02l17.99609-.05029a2.92788,2.92788,0,0,1,2.83008,3.67529l-1.4707,5.562A8.73545,8.73545,0,0,1,768.001,119.502a6.46166,6.46166,0,0,1,.78418,3.01075v.16113a6.68173,6.68173,0,0,1-.20508,1.63086,7.89547,7.89547,0,0,1-.57617,1.48828l-2.17188,7.03174a2.97652,2.97652,0,0,1-.23047.54394,5.82441,5.82441,0,0,1-5.18847,3.40625Z"/><path class="d" d="M771.58105,136.7749a2.92736,2.92736,0,0,1-2.82714-3.68554L771.583,122.541a2.92777,2.92777,0,0,1-2.36231-3.64649l1.78711-6.68066a2.92813,2.92813,0,0,1,2.82813-2.1709c.78027,0,1.12695-.10645,1.416-1.17627a2.92791,2.92791,0,0,1,2.82618-2.16406h8.35058a2.92735,2.92735,0,0,1,2.82715,3.68554L782.75879,134.606a2.92721,2.92721,0,0,1-2.82715,2.16894Z"/><path class="d" d="M653.46387,164.7749a2.9272,2.9272,0,0,1-2.82715-3.68506l2.23828-8.35107a2.92622,2.92622,0,0,1,2.82715-2.16943h2.4414l-.66406-.38282a4.88093,4.88093,0,0,1-2.5664-4.28906,6.04855,6.04855,0,0,1,.18847-1.4668l.91407-3.38818a6.913,6.913,0,0,1,7.03515-5.50488h16.71875a2.92694,2.92694,0,0,1,2.82813,3.68115l-1.33594,5.01074a2.92694,2.92694,0,0,1-2.82813,2.17334H673.377l.58692.28369c4.043,1.81836,4.65722,4.80811,4.65722,6.42578a7.727,7.727,0,0,1-.26269,1.96436l-1.123,4.18848a6.95646,6.95646,0,0,1-7.06933,5.50976Z"/><path class="d" d="M676.84668,164.7749a2.92658,2.92658,0,0,1-2.82715-3.68457l5.01074-18.70605a2.926,2.926,0,0,1,2.82422-2.16992l16.03711-.01709a2.92743,2.92743,0,0,1,2.8291,3.67871l-1.06933,4.02539a2.92746,2.92746,0,0,1-2.8291,2.17578h-1.05372a2.93084,2.93084,0,0,1,.11524,1.80762l-.68457,2.67236a2.96792,2.96792,0,0,1-.20117.54883,2.92746,2.92746,0,0,1,1.78027,3.48779l-1.06934,4.0083a2.927,2.927,0,0,1-2.82812,2.17285Z"/><path class="d" d="M696.22168,164.7749a2.92658,2.92658,0,0,1-2.82715-3.68457l5.01074-18.70605a2.92668,2.92668,0,0,1,2.82715-2.16992h13.36133c3.47559,0,5.03125,2.30078,5.03125,4.58056a6.92807,6.92807,0,0,1-.24805,1.771l-2.50781,9.3584a4.51621,4.51621,0,0,1-4.51367,3.50586H707.919l-.85352,3.17724a2.92731,2.92731,0,0,1-2.82715,2.16748Z"/><path class="d" d="M721.0332,164.7749a2.92491,2.92491,0,0,1-2.22461-1.022l-3.708-4.32568q-.07032-.08277-.13477-.17041a5.36366,5.36366,0,0,1-1.03711-3.20459,6.55182,6.55182,0,0,1,.20508-1.59717,7.3028,7.3028,0,0,1,2.6416-3.95313,7.06763,7.06763,0,0,1,4.43945-1.60254,5.82713,5.82713,0,0,1,2.43262.5083,6.72092,6.72092,0,0,1,2.57813-.5083,5.39,5.39,0,0,1,4.45507,2.15137,5.45035,5.45035,0,0,1,1.04395,3.21436,6.19509,6.19509,0,0,1-.24609,1.70507,7.21525,7.21525,0,0,1-2.61231,3.85547c-.03223.02588-6.12891,4.40039-6.12891,4.40039A2.91626,2.91626,0,0,1,721.0332,164.7749Z"/><path class="d" d="M732.90723,164.7749c-4.09571,0-5.54883-2.69287-5.54883-4.99853a8.02292,8.02292,0,0,1,.27344-1.9917l4.48632-16.73731a6.92308,6.92308,0,0,1,7.05274-5.50976h13.36133c4.1084,0,5.56543,2.70166,5.56543,5.01513a7.9117,7.9117,0,0,1-.2793,1.99707l-4.46191,16.71241a6.98851,6.98851,0,0,1-7.08692,5.51269Zm9.11328-15.894a1.72514,1.72514,0,0,0,.25683.01855,2.27212,2.27212,0,0,0,1.46973-.59033,2.65634,2.65634,0,0,0,.999-1.4209,1.50925,1.50925,0,0,0,.06641-.373s-.01953-.06983-.02441-.0918a1.82189,1.82189,0,0,0-.27246-.02051,2.26984,2.26984,0,0,0-1.46875.58985,2.65425,2.65425,0,0,0-1,1.41894,1.45626,1.45626,0,0,0-.06641.375C741.98926,148.79785,742.00977,148.8584,742.02051,148.88086Z"/><path class="d" d="M765.11426,164.7749a2.92622,2.92622,0,0,1-2.89746-3.34033h-6.22168c-4.1084,0-5.56543-2.70166-5.56543-5.01514a7.91345,7.91345,0,0,1,.27929-1.998l4.4795-16.71436a2.92623,2.92623,0,0,1,2.82715-2.16943h6.68066a2.92738,2.92738,0,0,1,2.82715,3.68554L765.376,147.229h.62988l2.54394-9.52a2.92857,2.92857,0,0,1,2.82813-2.17138h6.68066a2.92658,2.92658,0,0,1,2.82715,3.68457L774.62207,162.605a2.92666,2.92666,0,0,1-2.82715,2.16992Z"/><path class="e" d="M674.84277,133.84766l1.31934-5.01075h-6.68066l-1.33692,5.01075h-6.68066l6.26367-23.38282h16.70215q2.63818,0,2.63867,2.08789a5.0256,5.0256,0,0,1-.18359,1.25245l-5.37793,20.04248Zm2.61328-11.24024a5.553,5.553,0,0,0,2.0127-2.95654,4.24963,4.24963,0,0,0,.167-1.13574,3.01188,3.01188,0,0,0-.584-1.82032,3.07842,3.07842,0,0,0-2.63965-1.21923,5.20692,5.20692,0,0,0-3.28125,1.21923,5.55374,5.55374,0,0,0-2.0127,2.95606,4.25277,4.25277,0,0,0-.167,1.13574,2.95941,2.95941,0,0,0,.60059,1.8208,3.03568,3.03568,0,0,0,2.623,1.21924A5.21366,5.21366,0,0,0,677.45605,122.60742Z"/><path class="e" d="M706.0625,115.1416l-4.293,16.03369a3.22874,3.22874,0,0,1-3.38965,2.67237H687.69043q-2.105,0-2.10449-1.65332a4.013,4.013,0,0,1,.15039-1.01905l4.292-16.03369h5.34473l-1.06934,4.0083h5.34473l1.08594-4.0083Z"/><path class="e" d="M717.17383,126.44873l2.72265.0166q2.10352.03369,2.1045,1.687a4.05073,4.05073,0,0,1-.15039,1.01856l-1.25293,4.67676h-13.7793a2.00327,2.00327,0,0,1-1.16113-.63477,1.78544,1.78544,0,0,1-.52539-1.21924l3.72461-14.17969a3.22907,3.22907,0,0,1,3.39062-2.67236H725.625l-2.33789,8.668-8.68555.01709a4.19664,4.19664,0,0,0-2.63086.977,4.40249,4.40249,0,0,0-1.61132,2.36328,3.64536,3.64536,0,0,0-.11719.88526A2.41376,2.41376,0,0,0,710.71,129.522a2.43945,2.43945,0,0,0,2.10449.98535,4.16153,4.16153,0,0,0,2.62207-.977A4.41456,4.41456,0,0,0,717.04,127.167,4.32982,4.32982,0,0,0,717.17383,126.44873Z"/><path class="e" d="M727.78613,129.522a2.41376,2.41376,0,0,1-.46777-1.46972,3.64536,3.64536,0,0,1,.11719-.88526,4.39719,4.39719,0,0,1,1.61133-2.36328,4.19258,4.19258,0,0,1,2.63085-.977,2.45675,2.45675,0,0,1,2.1045.96875,1.66093,1.66093,0,0,0,.09961.1499c.05566-.04394.11718-.09424.18457-.1499a4.17791,4.17791,0,0,1,2.62207-.96875,2.39882,2.39882,0,0,1,2.57226,2.43848,3.28513,3.28513,0,0,1-.13379.90185,4.37533,4.37533,0,0,1-1.60351,2.355l-6.0293,4.32569Z"/><path class="e" d="M756.60547,113.45459h-7.61621l1.26953-3.50732,17.98828-.0503-1.4707,5.562a5.36783,5.36783,0,0,1-1.13574,2.28809,5.15744,5.15744,0,0,1-2.4043,1.08545q2.58837,1.50292,2.62207,3.72461v.1167a3.77011,3.77011,0,0,1-.11719.91894,4.85552,4.85552,0,0,1-.45117,1.06885l-2.25488,7.29883a3.02236,3.02236,0,0,1-2.62207,1.88721H742.459l2.62207-9.31983h6.33008a2.98491,2.98491,0,0,0,1.80371-.53418,1.65753,1.65753,0,0,0,.70118-.90185,1.45111,1.45111,0,0,0,.0332-.31739q-.03223-1.36962-2.68848-1.8042l.835-3.20654,2.98926-.1167q2.77294-.50171,3.124-1.78711a1.53015,1.53015,0,0,0,.04981-.40088Q758.24268,114.30616,756.60547,113.45459Z"/><path class="e" d="M771.58105,133.84766l3.80762-14.19678h-3.33984l1.78711-6.68067a4.04343,4.04343,0,0,0,4.24219-3.34033h8.35058l-6.49707,24.21778Z"/><path class="e" d="M658.8418,141.80518a4.01021,4.01021,0,0,1,4.209-3.34034h16.71875l-1.33594,5.01075h-9.18652a2.242,2.242,0,0,0-2.12109,1.66992,2.015,2.015,0,0,0-.04981.45117,2.11437,2.11437,0,0,0,.43457,1.21924l5.17774,2.50537q3.00585,1.35277,3.00586,3.791a4.7845,4.7845,0,0,1-.167,1.21924l-1.11914,4.17578a4.04341,4.04341,0,0,1-4.24218,3.34034H653.46387l2.23828-8.35108h5.8457a2.12808,2.12808,0,0,0,2.1709-2.12109,2.1209,2.1209,0,0,0-.43359-1.21924l-4.34278-2.50537a1.946,1.946,0,0,1-1.10254-1.75342,3.08488,3.08488,0,0,1,.10059-.75195Z"/><path class="e" d="M692.36328,153.83057h-4.00879l-1.08594,4.00879h6.68165l-1.06934,4.0083H676.84668l5.01074-18.70606,16.03418-.01709-1.06933,4.02539H690.1416l-1.08594,4.0083h3.99219Z"/><path class="e" d="M712.35547,156.50293H705.6748l-1.43652,5.34473h-8.0166l5.01074-18.70606h13.36133q2.105,0,2.10449,1.65332a4.00992,4.00992,0,0,1-.15039,1.019l-2.50586,9.353A1.6021,1.6021,0,0,1,712.35547,156.50293Zm-5.7041-2.313a4.399,4.399,0,0,0,1.6123-2.36328,3.6483,3.6483,0,0,0,.11719-.88525,2.48839,2.48839,0,0,0-.46777-1.48682,2.458,2.458,0,0,0-2.1045-.96875,4.15538,4.15538,0,0,0-2.62207.97754,4.4092,4.4092,0,0,0-1.60351,2.36328,3.24831,3.24831,0,0,0-.13379.90186,2.3298,2.3298,0,0,0,.48437,1.45312,2.3962,2.3962,0,0,0,2.08789.98535A4.19207,4.19207,0,0,0,706.65137,154.18994Z"/><path class="e" d="M717.32324,157.522a2.41376,2.41376,0,0,1-.46777-1.46972,3.64536,3.64536,0,0,1,.11719-.88526,4.39722,4.39722,0,0,1,1.61132-2.36328,4.19263,4.19263,0,0,1,2.63086-.977,2.45675,2.45675,0,0,1,2.1045.96875,1.66093,1.66093,0,0,0,.09961.1499c.05566-.04394.11718-.09424.18457-.1499a4.17791,4.17791,0,0,1,2.62207-.96875,2.39882,2.39882,0,0,1,2.57226,2.43848,3.28513,3.28513,0,0,1-.13379.90185,4.37533,4.37533,0,0,1-1.60351,2.355l-6.0293,4.32569Z"/><path class="e" d="M732.90723,161.84766q-2.62207,0-2.62207-2.07129a5.22,5.22,0,0,1,.18359-1.269l4.47656-16.70214a4.01857,4.01857,0,0,1,4.22559-3.34034h13.36133q2.63964,0,2.63867,2.08789a4.98049,4.98049,0,0,1-.1836,1.25245l-4.459,16.70214a4.06755,4.06755,0,0,1-4.25879,3.34034Zm12.65234-11.24024a5.56388,5.56388,0,0,0,2.0127-2.95654,4.28941,4.28941,0,0,0,.167-1.13574,3.01274,3.01274,0,0,0-.585-1.82032,3.07779,3.07779,0,0,0-2.63867-1.21923,5.21146,5.21146,0,0,0-3.28223,1.21923,5.55374,5.55374,0,0,0-2.0127,2.95606,4.25277,4.25277,0,0,0-.167,1.13574,2.95424,2.95424,0,0,0,.60156,1.8208,3.03271,3.03271,0,0,0,2.62207,1.21924A5.21422,5.21422,0,0,0,745.55957,150.60742Z"/><path class="e" d="M765.11426,161.84766l.90234-3.34034H755.99512q-2.63965,0-2.63867-2.08789A4.97735,4.97735,0,0,1,753.54,155.167l4.47559-16.70215h6.68066l-2.68848,10.021a2.719,2.719,0,0,0-.084.61816q0,1.05249,1.31933,1.05225h5.01075l3.124-11.69141h6.68066l-6.26367,23.38282Z"/></svg>